<?xml version="1.0" encoding="utf-8"?>
<!-- Generator: Adobe Illustrator 27.2.0, SVG Export Plug-In . SVG Version: 6.00 Build 0)  -->
<svg version="1.1" id="Camada_1" xmlns="http://www.w3.org/2000/svg" xmlns:xlink="http://www.w3.org/1999/xlink" x="0px" y="0px"
	 viewBox="0 0 521 83" style="enable-background:new 0 0 521 83;" xml:space="preserve">
<!-- <style type="text/css">
	.st0{fill:#FFFFFF;}
	.st1{fill:#898686;}
</style> -->
<g>
	<g fill="#fff">
		<path class="st0" d="M0,68.21l11.95-51.84h10.22L10.22,68.21H0z"/>
		<path class="st0" d="M17.06,68.21l8.42-36.72h9.58l-1.58,6.91h0.36L27,68.21H17.06z M34.27,68.21l5.83-25.34
			c0.38-1.54,0.36-2.66-0.07-3.38c-0.43-0.72-1.25-1.08-2.45-1.08c-1.2,0-2.23,0.47-3.1,1.4c-0.86,0.94-1.51,2.36-1.94,4.28
			l-0.14-5.33c1.2-2.59,2.8-4.57,4.79-5.94c1.99-1.37,4.16-2.05,6.52-2.05c2.69,0,4.67,0.95,5.94,2.84c1.27,1.9,1.57,4.33,0.9,7.31
			l-6.34,27.29H34.27z"/>
		<path class="st0" d="M56.23,68.21L55.8,31.49h10.15l-2.3,31.32h-1.73l12.17-31.32h10.37L67.03,68.21H56.23z"/>
		<path class="st0" d="M93.53,68.93c-2.54,0-4.74-0.59-6.59-1.76c-1.85-1.18-3.28-2.84-4.28-5c-1.01-2.16-1.51-4.68-1.51-7.56
			c0-1.82,0.22-3.8,0.65-5.94c0.43-2.13,1.12-4.25,2.05-6.34s2.12-4,3.56-5.72c1.44-1.73,3.17-3.11,5.18-4.14
			c2.02-1.03,4.32-1.55,6.91-1.55c2.45,0,4.52,0.49,6.23,1.48c1.7,0.98,3.01,2.39,3.92,4.21c0.91,1.82,1.37,4.06,1.37,6.7
			c0,1.63-0.17,3.24-0.5,4.82c-0.34,1.58-0.77,2.98-1.3,4.18H87.34l1.37-6.41h15.7l-2.45,2.81c0.24-0.91,0.43-1.97,0.58-3.17
			c0.14-1.2,0.17-2.36,0.07-3.49c-0.1-1.13-0.41-2.06-0.94-2.81c-0.53-0.74-1.34-1.12-2.45-1.12c-1.3,0-2.41,0.5-3.35,1.51
			s-1.73,2.32-2.38,3.92c-0.65,1.61-1.18,3.28-1.58,5c-0.41,1.73-0.7,3.34-0.86,4.82c-0.17,1.49-0.25,2.64-0.25,3.46
			c0,1.68,0.3,2.92,0.9,3.71c0.6,0.79,1.48,1.19,2.63,1.19c1.15,0,2.11-0.4,2.88-1.19c0.77-0.79,1.49-2.12,2.16-4H108
			c-1.34,3.94-3.24,6.98-5.69,9.14C99.86,67.85,96.94,68.93,93.53,68.93z"/>
		<path class="st0" d="M110.59,68.21l8.42-36.72h9.58l-1.58,6.91h0.36l-6.84,29.81H110.59z M127.8,68.21l5.83-25.34
			c0.38-1.54,0.36-2.66-0.07-3.38c-0.43-0.72-1.25-1.08-2.45-1.08c-1.2,0-2.23,0.47-3.1,1.4c-0.86,0.94-1.51,2.36-1.94,4.28
			l-0.14-5.33c1.2-2.59,2.8-4.57,4.79-5.94c1.99-1.37,4.16-2.05,6.52-2.05c2.69,0,4.67,0.95,5.94,2.84c1.27,1.9,1.57,4.33,0.9,7.31
			l-6.34,27.29H127.8z"/>
		<path class="st0" d="M147.89,39.27l1.8-7.78h20.45l-1.8,7.78H147.89z M157.03,68.93c-3.7,0-6.26-1.01-7.7-3.02
			s-1.73-4.9-0.86-8.64l7.56-32.9l10.94-4.39l-8.78,38.02c-0.19,1.06-0.05,1.85,0.43,2.38c0.48,0.53,1.32,0.79,2.52,0.79
			c0.48,0,0.92-0.05,1.33-0.14c0.41-0.09,0.85-0.24,1.33-0.43l-1.8,7.49c-0.53,0.29-1.21,0.5-2.05,0.65
			C159.11,68.86,158.13,68.93,157.03,68.93z"/>
		<path class="st0" d="M180.29,68.93c-2.26,0-4.31-0.53-6.16-1.58c-1.85-1.06-3.32-2.69-4.43-4.9c-1.1-2.21-1.66-4.99-1.66-8.35
			c0-3.02,0.44-5.94,1.33-8.75c0.89-2.81,2.14-5.3,3.74-7.49c1.61-2.18,3.53-3.91,5.76-5.18c2.23-1.27,4.72-1.91,7.45-1.91
			c2.5,0,4.66,0.59,6.48,1.76c1.82,1.18,3.24,2.86,4.25,5.04c1.01,2.18,1.51,4.81,1.51,7.88c0,3.07-0.44,6.01-1.33,8.82
			c-0.89,2.81-2.16,5.32-3.82,7.52c-1.66,2.21-3.59,3.95-5.8,5.22C185.42,68.29,182.97,68.93,180.29,68.93z M180.93,61.16
			c1.1,0,2.11-0.53,3.02-1.58c0.91-1.06,1.73-2.44,2.45-4.14c0.72-1.7,1.27-3.53,1.66-5.47c0.38-1.94,0.58-3.8,0.58-5.58
			c0-2.02-0.26-3.49-0.79-4.43c-0.53-0.94-1.27-1.4-2.23-1.4c-1.06,0-2.05,0.53-2.99,1.58c-0.94,1.06-1.75,2.44-2.45,4.14
			c-0.7,1.7-1.24,3.54-1.62,5.51c-0.38,1.97-0.58,3.84-0.58,5.62c0,2.02,0.26,3.48,0.79,4.39C179.3,60.7,180.02,61.16,180.93,61.16z
			"/>
		<path class="st0" d="M198.79,68.21l8.5-36.72h9.58l-2.09,9.07h0.36l-6.41,27.65H198.79z M213.69,46.76l0.36-6.62
			c1.39-3.41,2.87-5.82,4.43-7.24c1.56-1.42,3.23-2.12,5-2.12c0.33,0,0.68,0.02,1.04,0.07c0.36,0.05,0.71,0.17,1.04,0.36L223.34,41
			c-0.34-0.14-0.83-0.25-1.48-0.32c-0.65-0.07-1.14-0.11-1.48-0.11c-1.63,0-3.04,0.46-4.21,1.37
			C215,42.84,214.17,44.45,213.69,46.76z"/>
		<path class="st0" d="M221.47,82.97l10.3-21.31l2.23-2.09l11.81-28.08h10.44l-24.84,51.48H221.47z M229.82,69.36l-2.23-37.87h10.37
			l-0.94,32.47L229.82,69.36z"/>
		<path class="st0" d="M276.98,68.93c-2.79,0-5.12-0.48-7.02-1.44c-1.9-0.96-3.35-2.27-4.36-3.92c-1.01-1.66-1.61-3.52-1.8-5.58
			c-0.19-2.06,0-4.18,0.58-6.34h9.43c-0.24,0.86-0.38,1.84-0.43,2.92c-0.05,1.08,0.06,2.11,0.32,3.1c0.26,0.98,0.74,1.79,1.44,2.41
			c0.7,0.62,1.67,0.94,2.92,0.94c1.54,0,2.74-0.63,3.6-1.91c0.86-1.27,1.3-2.72,1.3-4.36c0-1.05-0.18-2.15-0.54-3.28
			c-0.36-1.13-1.09-2.27-2.2-3.42l-4.18-4.54c-1.63-1.78-2.9-3.68-3.82-5.72c-0.91-2.04-1.37-4.16-1.37-6.37
			c0-2.69,0.55-5.22,1.66-7.6c1.1-2.38,2.78-4.31,5.04-5.8c2.26-1.49,5.14-2.23,8.64-2.23c2.59,0,4.73,0.44,6.41,1.33
			c1.68,0.89,2.96,2.06,3.85,3.53c0.89,1.46,1.4,3.12,1.55,4.97c0.14,1.85-0.02,3.71-0.5,5.58h-9.22c0.24-0.96,0.38-2.03,0.43-3.2
			c0.05-1.18-0.17-2.18-0.65-3.02c-0.48-0.84-1.42-1.26-2.81-1.26c-1.1,0-2,0.32-2.7,0.97c-0.7,0.65-1.19,1.42-1.48,2.3
			c-0.29,0.89-0.43,1.72-0.43,2.48c0,1.2,0.23,2.3,0.68,3.31c0.46,1.01,1.19,2.06,2.2,3.17l4.1,4.54c1.73,1.92,3.01,3.96,3.85,6.12
			c0.84,2.16,1.26,4.56,1.26,7.2c0,2.5-0.58,4.91-1.73,7.24c-1.15,2.33-2.89,4.22-5.22,5.69C283.47,68.2,280.53,68.93,276.98,68.93z
			"/>
		<path class="st0" d="M294.77,68.21l8.42-36.72h9.94l-8.42,36.72H294.77z M303.98,26.96l2.23-10.58h10.37l-2.23,10.58H303.98z"/>
		<path class="st0" d="M311.11,68.21l8.42-36.72h9.58l-1.58,6.91h0.36l-6.84,29.81H311.11z M327.52,68.21l5.83-25.34
			c0.38-1.54,0.38-2.66,0-3.38c-0.38-0.72-1.08-1.08-2.09-1.08c-1.06,0-1.99,0.47-2.81,1.4c-0.82,0.94-1.44,2.36-1.87,4.28
			l-0.14-5.33c1.2-2.59,2.77-4.57,4.72-5.94s4.02-2.05,6.23-2.05c2.54,0,4.42,0.95,5.62,2.84c1.2,1.9,1.46,4.33,0.79,7.31
			l-6.34,27.29H327.52z M344.01,68.21l5.83-25.34c0.38-1.54,0.38-2.66,0-3.38c-0.38-0.72-1.08-1.08-2.09-1.08
			c-1.06,0-1.99,0.48-2.81,1.44c-0.82,0.96-1.46,2.42-1.94,4.39l-0.86-5.33c1.58-2.69,3.31-4.72,5.18-6.08s4.01-2.05,6.41-2.05
			c1.73,0,3.16,0.43,4.28,1.3c1.13,0.86,1.91,2.05,2.34,3.56c0.43,1.51,0.41,3.28-0.07,5.29l-6.34,27.29H344.01z"/>
		<path class="st0" d="M368.49,68.93c-2.59,0-4.51-0.95-5.76-2.84c-1.25-1.9-1.54-4.33-0.86-7.31l6.34-27.29h9.94l-5.9,25.34
			c-0.34,1.49-0.29,2.6,0.14,3.35c0.43,0.74,1.18,1.12,2.23,1.12c1.1,0,2.06-0.47,2.88-1.4c0.82-0.94,1.44-2.36,1.87-4.28l0.14,5.33
			c-1.2,2.59-2.77,4.57-4.72,5.94C372.85,68.25,370.75,68.93,368.49,68.93z M376.77,68.21l1.66-6.91h-0.36l6.84-29.81h9.94
			l-8.5,36.72H376.77z"/>
		<path class="st0" d="M392.68,68.21l11.95-51.84h9.94l-11.95,51.84H392.68z"/>
		<path class="st0" d="M416.95,68.93c-2.16,0-3.84-0.68-5.04-2.05c-1.2-1.37-1.8-3.28-1.8-5.72c0-2.02,0.41-3.86,1.22-5.54
			c0.82-1.68,2.03-3.17,3.64-4.46s3.59-2.38,5.94-3.24l10.73-3.96l-1.66,6.98l-4.46,1.8c-1.92,0.77-3.38,1.66-4.39,2.66
			c-1.01,1.01-1.51,2.18-1.51,3.53c0,0.82,0.25,1.49,0.76,2.02s1.21,0.79,2.12,0.79c0.82,0,1.49-0.23,2.02-0.68
			c0.53-0.46,0.89-1.07,1.08-1.84l-0.29,4.39c-1.06,1.68-2.27,2.99-3.64,3.92C420.29,68.46,418.72,68.93,416.95,68.93z
			 M424.79,68.21c-0.14-0.96-0.17-1.92-0.07-2.88c0.09-0.96,0.24-1.97,0.43-3.02l-0.29-0.07l4.39-19.37
			c0.14-0.67,0.24-1.38,0.29-2.12c0.05-0.74-0.08-1.39-0.4-1.94c-0.31-0.55-0.9-0.83-1.76-0.83c-0.96,0-1.78,0.38-2.45,1.15
			c-0.67,0.77-1.2,1.92-1.58,3.46h-8.57c0.82-3.84,2.42-6.77,4.82-8.78c2.4-2.02,5.45-3.02,9.14-3.02c3.02,0,5.34,0.61,6.95,1.84
			c1.61,1.22,2.64,2.81,3.1,4.75c0.46,1.94,0.42,4-0.11,6.16l-4.54,19.66c-0.19,0.86-0.32,1.69-0.4,2.48
			c-0.07,0.79-0.04,1.64,0.11,2.56H424.79z"/>
		<path class="st0" d="M443.01,39.27l1.8-7.78h20.45l-1.8,7.78H443.01z M452.15,68.93c-3.7,0-6.26-1.01-7.7-3.02
			c-1.44-2.02-1.73-4.9-0.86-8.64l7.56-32.9l10.94-4.39l-8.78,38.02c-0.19,1.06-0.05,1.85,0.43,2.38c0.48,0.53,1.32,0.79,2.52,0.79
			c0.48,0,0.92-0.05,1.33-0.14c0.41-0.09,0.85-0.24,1.33-0.43l-1.8,7.49c-0.53,0.29-1.21,0.5-2.05,0.65
			C454.23,68.86,453.26,68.93,452.15,68.93z"/>
		<path class="st0" d="M475.41,68.93c-2.26,0-4.31-0.53-6.16-1.58c-1.85-1.06-3.32-2.69-4.43-4.9c-1.1-2.21-1.66-4.99-1.66-8.35
			c0-3.02,0.44-5.94,1.33-8.75c0.89-2.81,2.14-5.3,3.74-7.49c1.61-2.18,3.53-3.91,5.76-5.18c2.23-1.27,4.72-1.91,7.45-1.91
			c2.5,0,4.66,0.59,6.48,1.76c1.82,1.18,3.24,2.86,4.25,5.04c1.01,2.18,1.51,4.81,1.51,7.88c0,3.07-0.44,6.01-1.33,8.82
			c-0.89,2.81-2.16,5.32-3.82,7.52c-1.66,2.21-3.59,3.95-5.8,5.22C480.55,68.29,478.1,68.93,475.41,68.93z M476.06,61.16
			c1.1,0,2.11-0.53,3.02-1.58c0.91-1.06,1.73-2.44,2.45-4.14c0.72-1.7,1.27-3.53,1.66-5.47c0.38-1.94,0.58-3.8,0.58-5.58
			c0-2.02-0.26-3.49-0.79-4.43s-1.27-1.4-2.23-1.4c-1.06,0-2.05,0.53-2.99,1.58c-0.94,1.06-1.75,2.44-2.45,4.14
			c-0.7,1.7-1.24,3.54-1.62,5.51c-0.38,1.97-0.58,3.84-0.58,5.62c0,2.02,0.26,3.48,0.79,4.39C474.43,60.7,475.15,61.16,476.06,61.16
			z"/>
		<path class="st0" d="M493.91,68.21l8.5-36.72h9.58l-2.09,9.07h0.36l-6.41,27.65H493.91z M508.82,46.76l0.36-6.62
			c1.39-3.41,2.87-5.82,4.43-7.24c1.56-1.42,3.23-2.12,5-2.12c0.33,0,0.68,0.02,1.04,0.07c0.36,0.05,0.71,0.17,1.04,0.36L518.47,41
			c-0.34-0.14-0.83-0.25-1.48-0.32c-0.65-0.07-1.14-0.11-1.48-0.11c-1.63,0-3.04,0.46-4.21,1.37
			C510.13,42.84,509.3,44.45,508.82,46.76z"/>
	</g>
	<g fill="#898686">
		<path class="st1" d="M32.9,26.87c-1.12,0-2.11-0.26-2.98-0.79c-0.87-0.52-1.54-1.3-2.02-2.32c-0.48-1.02-0.71-2.26-0.71-3.72
			c0-0.95,0.11-1.98,0.34-3.07c0.23-1.09,0.57-2.17,1.04-3.23c0.46-1.06,1.05-2.02,1.77-2.89c0.71-0.87,1.56-1.57,2.54-2.09
			c0.98-0.52,2.08-0.79,3.32-0.79c1.24,0,2.24,0.23,3,0.7c0.76,0.46,1.33,1.08,1.71,1.84c0.38,0.76,0.6,1.58,0.66,2.45
			c0.06,0.87-0.01,1.72-0.2,2.55h-4.29c0.12-0.45,0.2-0.96,0.23-1.54s-0.04-1.07-0.21-1.48s-0.55-0.62-1.13-0.62
			s-1.07,0.24-1.5,0.71c-0.43,0.48-0.79,1.08-1.07,1.82s-0.52,1.52-0.7,2.34c-0.18,0.82-0.31,1.59-0.39,2.3s-0.12,1.27-0.12,1.68
			c0,0.88,0.14,1.49,0.41,1.82c0.27,0.33,0.6,0.5,0.98,0.5c0.55,0,1.04-0.3,1.48-0.89c0.44-0.59,0.82-1.55,1.13-2.86h4.29
			c-0.55,2.57-1.52,4.48-2.93,5.72C36.14,26.25,34.59,26.87,32.9,26.87z"/>
		<path class="st1" d="M46.87,26.87c-1.26,0-2.34-0.25-3.23-0.75s-1.53-1.2-1.91-2.11c-0.38-0.9-0.45-1.98-0.21-3.21h3.93
			c-0.05,0.41-0.03,0.8,0.05,1.18c0.08,0.38,0.26,0.7,0.54,0.95c0.27,0.25,0.66,0.38,1.16,0.38c0.57,0,1.01-0.15,1.3-0.45
			c0.3-0.3,0.45-0.68,0.45-1.16c0-0.43-0.11-0.82-0.34-1.16c-0.23-0.34-0.57-0.7-1.02-1.05l-1.54-1.25
			c-0.76-0.62-1.32-1.26-1.68-1.91c-0.36-0.65-0.54-1.42-0.54-2.3c0-1.14,0.27-2.17,0.8-3.09c0.54-0.92,1.27-1.64,2.21-2.18
			c0.94-0.54,2.01-0.8,3.2-0.8c1.02,0,1.91,0.21,2.66,0.63c0.75,0.42,1.3,1.02,1.64,1.82c0.34,0.8,0.42,1.79,0.23,2.98h-3.93
			c0.07-0.33,0.08-0.64,0.02-0.91c-0.06-0.27-0.19-0.49-0.38-0.66c-0.19-0.17-0.46-0.25-0.82-0.25c-0.45,0-0.81,0.15-1.07,0.45
			c-0.26,0.3-0.39,0.68-0.39,1.16c0,0.33,0.08,0.63,0.23,0.89c0.15,0.26,0.43,0.56,0.84,0.89l1.82,1.46c0.71,0.57,1.26,1.24,1.64,2
			c0.38,0.76,0.57,1.64,0.57,2.64c0,1.17-0.26,2.19-0.77,3.05s-1.24,1.55-2.18,2.04C49.23,26.62,48.13,26.87,46.87,26.87z"/>
		<path class="st1" d="M56.27,12.15l0.89-3.86h10.15l-0.89,3.86H56.27z M60.8,26.87c-1.83,0-3.11-0.5-3.82-1.5
			c-0.71-1-0.86-2.43-0.43-4.29L60.3,4.75l5.43-2.18l-4.36,18.86c-0.1,0.52-0.02,0.92,0.21,1.18c0.24,0.26,0.65,0.39,1.25,0.39
			c0.24,0,0.46-0.02,0.66-0.07c0.2-0.05,0.42-0.12,0.66-0.21l-0.89,3.72c-0.26,0.14-0.6,0.25-1.02,0.32
			C61.83,26.83,61.35,26.87,60.8,26.87z"/>
		<path class="st1" d="M65.34,26.51l4.22-18.22h4.75l-1.04,4.5h0.18l-3.18,13.72H65.34z M72.73,15.86l0.18-3.29
			c0.69-1.69,1.42-2.89,2.2-3.59c0.77-0.7,1.6-1.05,2.48-1.05c0.17,0,0.34,0.01,0.52,0.04c0.18,0.02,0.35,0.08,0.52,0.18L77.52,13
			c-0.17-0.07-0.41-0.12-0.73-0.16c-0.32-0.04-0.57-0.05-0.73-0.05c-0.81,0-1.51,0.23-2.09,0.68
			C73.38,13.92,72.97,14.72,72.73,15.86z"/>
		<path class="st1" d="M76.45,26.51l4.18-18.22h4.93l-4.18,18.22H76.45z M81.02,6.04l1.11-5.25h5.15l-1.11,5.25H81.02z"/>
		<path class="st1" d="M84.52,26.51l5.93-25.72h4.93l-5.93,25.72H84.52z M93.35,26.51l-2.11-9.47l5.43-8.75h5.47l-6.61,9.58
			l-0.18-1.68l2.93,10.33H93.35z"/>
		<path class="st1" d="M106.43,26.87c-1.26,0-2.35-0.29-3.27-0.88c-0.92-0.58-1.63-1.41-2.13-2.48c-0.5-1.07-0.75-2.32-0.75-3.75
			c0-0.91,0.11-1.89,0.32-2.95s0.55-2.11,1.02-3.14c0.46-1.04,1.05-1.98,1.77-2.84c0.71-0.86,1.57-1.54,2.57-2.05
			c1-0.51,2.14-0.77,3.43-0.77c1.21,0,2.24,0.25,3.09,0.73c0.85,0.49,1.49,1.19,1.95,2.09c0.45,0.91,0.68,2.01,0.68,3.32
			c0,0.81-0.08,1.61-0.25,2.39c-0.17,0.79-0.38,1.48-0.64,2.07h-10.86l0.68-3.18h7.79l-1.21,1.39c0.12-0.45,0.21-0.98,0.29-1.57
			c0.07-0.59,0.08-1.17,0.04-1.73c-0.05-0.56-0.2-1.02-0.46-1.39c-0.26-0.37-0.67-0.55-1.21-0.55c-0.64,0-1.2,0.25-1.66,0.75
			s-0.86,1.15-1.18,1.95c-0.32,0.8-0.58,1.63-0.79,2.48c-0.2,0.86-0.35,1.66-0.43,2.39s-0.12,1.31-0.12,1.71
			c0,0.83,0.15,1.45,0.45,1.84c0.3,0.39,0.73,0.59,1.3,0.59c0.57,0,1.05-0.2,1.43-0.59s0.74-1.05,1.07-1.98h4.29
			c-0.67,1.95-1.61,3.46-2.82,4.54C109.57,26.33,108.12,26.87,106.43,26.87z"/>
		<path class="st1" d="M116.21,10.54l0.57-2.46c1.19-0.17,2.04-0.54,2.55-1.13c0.51-0.58,0.88-1.35,1.09-2.3l1.82,0.5h-4.75
			L118.72,0h5.61l-0.96,4.25c-0.38,1.74-1.14,3.14-2.27,4.2C119.96,9.51,118.33,10.21,116.21,10.54z"/>
		<path class="st1" d="M123.82,26.87c-1.26,0-2.34-0.25-3.23-0.75s-1.53-1.2-1.91-2.11c-0.38-0.9-0.45-1.98-0.21-3.21h3.93
			c-0.05,0.41-0.03,0.8,0.05,1.18c0.08,0.38,0.26,0.7,0.54,0.95c0.27,0.25,0.66,0.38,1.16,0.38c0.57,0,1.01-0.15,1.3-0.45
			c0.3-0.3,0.45-0.68,0.45-1.16c0-0.43-0.11-0.82-0.34-1.16c-0.23-0.34-0.57-0.7-1.02-1.05L123,18.22
			c-0.76-0.62-1.32-1.26-1.68-1.91c-0.36-0.65-0.54-1.42-0.54-2.3c0-1.14,0.27-2.17,0.8-3.09c0.54-0.92,1.27-1.64,2.21-2.18
			c0.94-0.54,2.01-0.8,3.2-0.8c1.02,0,1.91,0.21,2.66,0.63c0.75,0.42,1.3,1.02,1.64,1.82c0.34,0.8,0.42,1.79,0.23,2.98h-3.93
			c0.07-0.33,0.08-0.64,0.02-0.91c-0.06-0.27-0.19-0.49-0.38-0.66c-0.19-0.17-0.46-0.25-0.82-0.25c-0.45,0-0.81,0.15-1.07,0.45
			c-0.26,0.3-0.39,0.68-0.39,1.16c0,0.33,0.08,0.63,0.23,0.89c0.15,0.26,0.43,0.56,0.84,0.89l1.82,1.46c0.71,0.57,1.26,1.24,1.64,2
			c0.38,0.76,0.57,1.64,0.57,2.64c0,1.17-0.26,2.19-0.77,3.05s-1.24,1.55-2.18,2.04C126.19,26.62,125.09,26.87,123.82,26.87z"/>
	</g>
</g></svg>
