<?xml version="1.0" encoding="utf-8"?>
<!-- Generator: Adobe Illustrator 16.0.3, SVG Export Plug-In . SVG Version: 6.00 Build 0)  -->
<!DOCTYPE svg PUBLIC "-//W3C//DTD SVG 1.1//EN" "http://www.w3.org/Graphics/SVG/1.1/DTD/svg11.dtd">
<svg version="1.1" xmlns="http://www.w3.org/2000/svg" xmlns:xlink="http://www.w3.org/1999/xlink" x="0px" y="0px" width="32px"
	 height="32px" viewBox="0 0 32 32" enable-background="new 0 0 32 32" xml:space="preserve">
<symbol  id="dude-transit" viewBox="0 -25.1 21.25 25.118">
	<path fill-rule="evenodd" clip-rule="evenodd" fill="#FFFFFF" d="M15.5-4.2l0.75-1.05l1-3.1l3.9-2.65v-0.05
		c0.067-0.1,0.1-0.233,0.1-0.4c0-0.2-0.05-0.383-0.15-0.55c-0.167-0.233-0.383-0.35-0.65-0.35l-4.3,1.8l-1.2,1.65l-1.5-3.95
		l2.25-5.05l-3.25-6.9c-0.267-0.2-0.633-0.3-1.1-0.3c-0.3,0-0.55,0.15-0.75,0.45c-0.1,0.133-0.15,0.25-0.15,0.35
		c0,0.067,0.017,0.15,0.05,0.25c0.033,0.1,0.067,0.184,0.1,0.25l2.55,5.6L10.7-14l-3.05-4.9L0.8-18.7
		c-0.367,0.033-0.6,0.184-0.7,0.45c-0.067,0.3-0.1,0.467-0.1,0.5c0,0.5,0.2,0.767,0.6,0.8l5.7,0.15l2.15,5.4l3.1,5.65L9.4-5.6
		c-1.367-2-2.1-3.033-2.2-3.1C7.1-8.8,6.95-8.85,6.75-8.85C6.35-8.85,6.1-8.667,6-8.3C5.9-8,5.9-7.8,6-7.7H5.95l2.5,4.4l3.7,0.3
		L14-3.5L15.5-4.2z M14.55-2.9c-0.333,0.4-0.45,0.85-0.35,1.35c0.033,0.5,0.25,0.9,0.65,1.2S15.7,0.066,16.2,0
		c0.5-0.067,0.9-0.3,1.2-0.7c0.333-0.4,0.467-0.85,0.4-1.35c-0.066-0.5-0.3-0.9-0.7-1.2c-0.4-0.333-0.85-0.45-1.35-0.35
		C15.25-3.533,14.85-3.3,14.55-2.9z"/>
</symbol>
<g id="Layer_1">
</g>
<g id="Layer_2">
	<g>
		<path fill-rule="evenodd" clip-rule="evenodd" fill="#FFFFFF" d="M18.083,17.567h-4.155c-0.22,0-0.329,0.119-0.329,0.354v1.487
			c0,0.22,0.109,0.33,0.329,0.33h4.155c0.204,0,0.307-0.11,0.307-0.33v-1.487C18.39,17.686,18.287,17.567,18.083,17.567z"/>
		<path fill-rule="evenodd" clip-rule="evenodd" fill="#FFFFFF" d="M28.161,7.719h-2.148h-2.847V3.683
			c0-1.168-0.887-2.116-1.979-2.116h-9.972c-1.092,0-1.979,0.948-1.979,2.116v4.036h-3.25h-2.15c-1.78,0-3.225,1.538-3.225,3.441
			v15.962c0,1.903,1.444,3.445,3.225,3.445h24.324c1.78,0,3.227-1.542,3.227-3.445V11.16C31.388,9.257,29.941,7.719,28.161,7.719z
			 M11.719,5.05c0-1.192,0.023-1.561,1.461-1.561h6.046c1.488,0,1.459,0.431,1.459,1.561v2.668h-8.966V5.05z M28.039,14.642
			c-0.029,0.361-0.047,0.605-0.047,0.732l-0.046,0.094l-0.144,0.118c-0.015,0.047-0.022,0.143-0.022,0.283v0.118l-0.071,0.189
			l-0.188-0.07c-0.03,0-0.109,0-0.237,0c-0.125-0.017-0.423-0.017-0.895,0c-0.017,0.205-0.072,0.393-0.167,0.566
			c-0.079,0.141-0.132,0.228-0.163,0.26l-0.024,0.094h-5.309l-0.261,0.095c-0.11,0.063-0.252,0.134-0.425,0.212
			c-0.174,0.079-0.337,0.166-0.494,0.26c-0.145,0.095-0.236,0.149-0.284,0.165c0.048,0.157,0.07,0.377,0.07,0.661
			c0,0.142,0,0.322,0,0.543c0,0.22-0.022,0.464-0.07,0.732c-0.063,0.378-0.22,0.652-0.472,0.826c-0.22,0.172-0.503,0.291-0.85,0.353
			c-0.313,0.047-0.669,0.063-1.062,0.047c-0.394-0.016-0.763-0.032-1.109-0.047c-0.283-0.016-0.536-0.031-0.756-0.047
			c-0.235-0.032-0.433-0.024-0.59,0.023h-0.046c-0.52-0.063-0.851-0.063-0.993,0c-0.156,0.063-0.259,0.142-0.305,0.236l-0.095,0.047
			c-0.125,0.125-0.188,0.425-0.188,0.896v0.188c0,0.253-0.023,0.465-0.07,0.637c-0.064,0.205-0.143,0.395-0.236,0.567l-0.025,0.141
			c-0.062,0.126-0.125,0.355-0.188,0.685c-0.08,0.314-0.166,0.653-0.259,1.015c-0.112,0.44-0.182,0.748-0.214,0.92
			c-0.063,0.221-0.107,0.37-0.141,0.448l0.093,0.095c0.063,0.046,0.111,0.102,0.144,0.166c0.048,0.062,0.07,0.133,0.07,0.212
			l-0.047,0.07c-0.018,0.142-0.095,0.253-0.236,0.331c-0.124,0.062-0.244,0.126-0.354,0.189h-0.07c-0.03,0-0.268,0.007-0.708,0.023
			c-0.457,0-0.928,0.024-1.416,0.07c-1.509,0.079-2.354,0.119-2.526,0.119c-0.296,0-0.613-0.315-0.942-0.944H5.647v-0.378
			c0-0.52,0.07-1.147,0.212-1.887c0.125-0.724,0.29-1.447,0.496-2.172c0.22-0.74,0.43-1.431,0.637-2.076
			c0.219-0.661,0.409-1.204,0.565-1.628V18.7c0.033-0.142,0.048-0.252,0.048-0.331c0-0.063,0-0.102,0-0.118
			c-0.015,0-0.023-0.016-0.023-0.047c-0.017-0.015-0.024-0.039-0.024-0.071H7.512v-0.047c-0.016-0.095-0.08-0.166-0.19-0.212
			c-0.046-0.032-0.085-0.048-0.118-0.048c-0.092-0.016-0.197-0.046-0.307-0.094c-0.234-0.079-0.558-0.251-0.967-0.519
			c-0.269-0.158-0.441-0.33-0.519-0.519c-0.109-0.221-0.165-0.425-0.165-0.614c0-0.22,0.008-0.353,0.022-0.4
			c0.033-0.063,0.111-0.339,0.236-0.827c0.112-0.518,0.229-1.03,0.354-1.532c0.111-0.426,0.268-0.717,0.472-0.874
			c0.204-0.174,0.368-0.298,0.496-0.378v-0.376l0.094-0.049c0.455-0.125,0.912-0.086,1.369,0.118c0.441,0.205,0.7,0.346,0.778,0.425
			h11.351c0.031,0,0.063,0.016,0.094,0.047l0.094,0.095h5.972l0.069-0.071c0.096-0.079,0.206-0.251,0.329-0.519v-0.096h0.073
			c0.013,0,0.055-0.007,0.117-0.022c0.063,0,0.147,0.007,0.259,0.022c0.189,0.032,0.362,0.3,0.521,0.803
			c0.063,0.126,0.093,0.292,0.093,0.496c0.017,0.173,0.024,0.37,0.024,0.59C28.063,13.895,28.056,14.264,28.039,14.642z"/>
	</g>
</g>
</svg>
