<?xml version="1.0" encoding="utf-8"?>
<!-- Generator: Adobe Illustrator 16.0.3, SVG Export Plug-In . SVG Version: 6.00 Build 0)  -->
<!DOCTYPE svg PUBLIC "-//W3C//DTD SVG 1.1//EN" "http://www.w3.org/Graphics/SVG/1.1/DTD/svg11.dtd">
<svg version="1.1" id="Layer_1" xmlns="http://www.w3.org/2000/svg" xmlns:xlink="http://www.w3.org/1999/xlink" x="0px" y="0px"
	 width="256px" height="256px" viewBox="0 0 256 256" enable-background="new 0 0 256 256" xml:space="preserve">
<ellipse fill="#5E7B93" cx="128" cy="127.833" rx="128" ry="127.833"/>
<ellipse cx="128.418" cy="127.833" rx="118.833" ry="118.678"/>
<g>
	<path fill="#1E2A31" d="M222.433,133.458c0,0-4.328,0.891-8.53-0.635c8.404-5.596,8.53-11.826,8.53-11.826
		s-6.365,1.145-9.929-0.763c8.146-6.993,8.656-17.548,8.656-17.548s-3.437,1.526-8.912,1.781c8.402-9.41,4.711-18.057,4.711-18.057
		s-5.603,3.942-12.731,6.739c5.475-14.114,2.8-23.65,2.8-23.65s-6.238,6.993-11.075,9.536c2.672-16.275-1.784-23.523-1.784-23.523
		s-1.4,4.96-7.384,9.155c-0.638-17.293-4.328-18.31-4.328-18.31s-1.656,4.322-4.076,7.12c-1.018-16.657-5.22-17.166-5.22-17.166
		s-0.127,2.798-1.782,7.629c-0.255-10.426-7.258-16.275-7.003-14.495s-0.891,18.692-0.891,18.692s56.861,99.59,22.005,105.936
		c-9.983,1.817-27.486-4.012-55.999-22.015c0.51,5.341,1.91,29.119,9.039,41.58c7.131,12.462,17.315,17.293,17.315,17.293
		s6.112-2.797,4.966-3.434c-1.146-0.635-2.929-3.306-0.764-2.161c2.164,1.144,2.037,0.764,2.037,0.764l2.419-2.036l3.184,0.382
		c0,0,22.407,0.509,19.352-1.398c-3.054-1.907-10.694-7.121-10.694-7.121s-16.423-0.508,5.603-0.127
		c22.026,0.382,31.575-15.385,31.575-15.385s-2.929,0.253-5.984-1.271c12.604-5.088,10.187-9.41,10.187-9.41
		s-7.003,0.382-9.168-1.653C223.579,142.359,222.433,133.458,222.433,133.458z"/>
	<path fill="#1E2A31" d="M71.348,154.074C36.49,147.729,93.352,48.139,93.352,48.139s-1.146-16.912-0.892-18.692
		c0.255-1.78-6.748,4.069-7.002,14.495c-1.655-4.831-1.782-7.629-1.782-7.629s-4.202,0.509-5.221,17.166
		c-2.419-2.798-4.074-7.12-4.074-7.12s-3.692,1.017-4.329,18.31c-5.983-4.195-7.384-9.155-7.384-9.155s-4.457,7.248-1.783,23.523
		C56.047,76.493,49.809,69.5,49.809,69.5s-2.674,9.536,2.801,23.65c-7.13-2.797-12.732-6.739-12.732-6.739
		s-3.692,8.646,4.711,18.057c-5.476-0.255-8.912-1.781-8.912-1.781s0.509,10.555,8.657,17.548c-3.564,1.907-9.931,0.763-9.931,0.763
		s0.128,6.23,8.53,11.826c-4.202,1.525-8.53,0.635-8.53,0.635s-1.146,8.901,13.878,14.623c-2.165,2.035-9.168,1.653-9.168,1.653
		s-2.418,4.322,10.187,9.41c-3.056,1.524-5.984,1.271-5.984,1.271s9.549,15.767,31.575,15.385c22.027-0.381,5.602,0.127,5.602,0.127
		s-7.639,5.214-10.693,7.121c-3.057,1.907,19.352,1.398,19.352,1.398l3.184-0.382l2.418,2.036c0,0-0.126,0.38,2.038-0.764
		c2.164-1.145,0.382,1.526-0.764,2.161c-1.146,0.637,4.965,3.434,4.965,3.434s10.187-4.831,17.316-17.293
		c7.13-12.461,8.53-36.239,9.039-41.58C98.833,150.063,81.33,155.892,71.348,154.074z"/>
</g>
<path fill="#FFFFFF" d="M68.972,115.876"/>
<g>
	<path fill="#5A7383" d="M91.172,130.499c-0.254,6.866-0.509,17.039-0.892,19.073c-0.382,2.034-2.928,4.959-7.384,3.179
		c-5.984-2.034-10.059-10.299-7.767-32.933c5.983-32.933,29.481-84.025,29.481-84.025s-8.855-2.186-10.257,11.038
		c-1.654,0.382-2.291-1.779-2.291-1.779s-2.674,2.67-2.165,10.936c-2.674,1.271-3.183-4.705-3.183-4.705s-3.183,3.814-2.291,15.64
		c-2.165-0.381-3.312-4.959-3.312-4.959s-4.455,2.162-3.564,19.709c-3.82-2.416-6.493-8.138-6.493-8.138s-4.202,6.485,0.382,20.727
		c-4.966-4.069-7.512-6.485-7.512-6.485s-4.966,8.138,3.819,23.269c-6.748-5.594-11.332-9.79-11.332-9.79s-2.291,5.213,4.457,17.674
		c-6.238-3.56-12.478-7.884-12.478-7.884s-1.782,8.139,9.167,17.93c-4.201-0.891-10.567-2.416-10.567-2.416s0.382,7.12,8.021,12.08
		c-6.748,0.89-9.167,0.635-9.167,0.635s6.11,9.919,15.405,12.588c-8.149,2.798-9.804,3.308-9.804,3.308s0.891,4.45,19.226,4.322
		c0.382,1.399-16.425,4.196-16.425,4.196s2.929,6.23,27.247,4.451c-0.256,1.906-8.403,5.977-8.403,5.977s13.75,0.254,14.132,0.254
		s27.502-31.153,27.502-31.153l-10.187-7.757C104.54,135.458,100.721,130.499,91.172,130.499z"/>
	<path fill="#5A7383" d="M211.829,139.272c0,0-2.42,0.255-9.168-0.635c7.64-4.96,8.021-12.08,8.021-12.08s-6.365,1.525-10.567,2.416
		c10.95-9.791,9.167-17.93,9.167-17.93s-6.238,4.324-12.477,7.884c6.747-12.461,4.457-17.674,4.457-17.674s-4.585,4.196-11.331,9.79
		c8.784-15.131,3.819-23.269,3.819-23.269s-2.548,2.416-7.512,6.485c4.582-14.241,0.38-20.727,0.38-20.727s-2.672,5.722-6.493,8.138
		c0.892-17.547-3.564-19.709-3.564-19.709s-1.146,4.578-3.311,4.959c0.891-11.825-2.291-15.64-2.291-15.64s-0.509,5.976-3.184,4.705
		c0.51-8.266-2.165-10.936-2.165-10.936s-0.636,2.161-2.291,1.779c-1.4-13.224-10.258-11.038-10.258-11.038
		s23.499,51.093,29.483,84.025c2.291,22.634-1.783,30.898-7.767,32.933c-4.457,1.78-7.003-1.145-7.386-3.179
		c-0.381-2.034-0.636-12.207-0.891-19.073c-9.549,0-13.369,4.959-13.369,4.959l-10.185,7.757c0,0,27.119,31.153,27.502,31.153
		c0.381,0,14.131-0.254,14.131-0.254s-8.146-4.07-8.402-5.977c24.319,1.779,27.246-4.451,27.246-4.451s-16.807-2.797-16.423-4.196
		c18.333,0.128,19.225-4.322,19.225-4.322s-1.656-0.51-9.805-3.308C205.719,149.191,211.829,139.272,211.829,139.272z"/>
</g>
<path fill="#5A7383" d="M20.335,256"/>
<path fill="#5A7383" d="M21.354,246.464"/>
<g>
	<polygon fill="none" points="128.502,105.81 128.502,105.768 128.5,105.81 	"/>
	<path fill="#8D9BA4" d="M85.512,220.448c0.014-0.024,0.027-0.047,0.04-0.072c0.003-0.047,0.006-0.089,0.009-0.136
		c-0.005,0.039-0.009,0.071-0.009,0.071S85.536,220.369,85.512,220.448z"/>
	<path fill="#8D9BA4" d="M80.158,225.21c-0.689,0.144-1.456,0.218-2.323,0.188C78.604,225.453,79.385,225.401,80.158,225.21z"/>
	<path fill="#5A7383" d="M84.66,179.05c-2.675,5.977-5.855,14.686-6.875,46.343c0,0.002,0.033,0.005,0.05,0.005
		c0.867,0.03,1.634-0.044,2.323-0.188c3.971-0.827,5.054-5.174,5.054-5.174s-0.085-21.531,6.132-33.738
		c8.977-17.631,36.987-51.497,36.987-51.497l-0.283-0.392l-5.064-6.983C122.983,127.426,87.334,173.074,84.66,179.05z"/>
	<path fill="#8D9BA4" d="M171.44,220.24c0.004,0.047,0.006,0.089,0.01,0.136c0.012,0.025,0.025,0.048,0.037,0.072
		c-0.023-0.079-0.037-0.137-0.037-0.137S171.446,220.279,171.44,220.24z"/>
	<path fill="#8D9BA4" d="M179.164,225.397c-0.865,0.03-1.633-0.044-2.321-0.188C177.614,225.401,178.396,225.453,179.164,225.397z"
		/>
	<path fill="#8D9BA4" d="M184.692,191.003c-2.379-16.445-15.11-32-15.11-32l-29.325-39.207l6.067-13.352l-1.484-39.671l-4.455-3.18
		c0,0-10.885,33.141-10.187,33.188c1.909,0.127,3.311,1.398,3.311,4.578c0,4.45-5.007,4.408-5.007,4.408v0.042H128.5l0.002-0.042
		c0,0-5.01,0.042-5.01-4.408c0-3.18,1.4-4.451,3.311-4.578c0.7-0.047-10.186-33.188-10.186-33.188l-4.456,3.18l-1.485,39.671
		l6.068,13.352l-29.325,39.207c0,0-12.731,15.555-15.109,32c-2.376,16.444-1.824,25.304-1.782,28.99
		c0.025,2.128,3.455,5.098,7.258,5.399c1.02-31.657,4.2-40.366,6.875-46.343c2.674-5.976,38.323-51.624,38.323-51.624l5.064,6.983
		c0.176-0.203,0.283-0.329,0.283-0.329v-0.043h0.34v0.043c0,0,0.109,0.126,0.282,0.329l5.064-6.983c0,0,35.651,45.648,38.323,51.624
		c2.674,5.977,5.857,14.686,6.876,46.343c3.801-0.302,7.233-3.271,7.257-5.399C186.516,216.307,187.068,207.447,184.692,191.003z"/>
	<path fill="#5A7383" d="M134.018,127.426l-5.064,6.983l-0.282,0.392c0,0,28.01,33.866,36.986,51.497
		c6.216,12.207,6.131,33.738,6.131,33.738s1.084,4.347,5.055,5.174c0.688,0.144,1.456,0.218,2.321,0.188
		c0.019,0,0.053-0.003,0.053-0.005c-1.019-31.657-4.202-40.366-6.876-46.343C169.669,173.074,134.018,127.426,134.018,127.426z"/>
</g>
<rect x="129.134" y="145.292" fill="#5A7383" width="1.138" height="10.682"/>
<rect x="125.314" y="144.91" transform="matrix(0.9877 0.1562 -0.1562 0.9877 25.0114 -17.8169)" fill="#5A7383" width="1.138" height="10.681"/>
<rect x="121.494" y="143.978" transform="matrix(0.9635 0.2677 -0.2677 0.9635 44.4255 -27.2256)" fill="#5A7383" width="1.138" height="10.681"/>
<rect x="133.144" y="144.91" transform="matrix(-0.9877 0.1563 -0.1563 -0.9877 289.2685 277.7526)" fill="#5A7383" width="1.137" height="10.68"/>
<rect x="136.964" y="143.978" transform="matrix(-0.9636 0.2675 -0.2675 -0.9636 309.9945 256.4118)" fill="#5A7383" width="1.139" height="10.681"/>
</svg>
