<svg width="32" height="32" viewBox="0 0 32 32" fill="none" xmlns="http://www.w3.org/2000/svg">
<path d="M16.4023 1.69287C8.11627 1.69287 1.40234 8.40792 1.40234 16.6922C1.40234 24.9764 8.11627 31.6929 16.4023 31.6929C24.6884 31.6929 31.4023 24.975 31.4023 16.6922C31.4009 8.40792 24.687 1.69287 16.4023 1.69287ZM24.0116 8.23979V20.8824H23.9799C24.1538 22.0219 22.8576 23.2879 21.3976 23.8412C19.7751 24.4505 18.0938 23.9547 17.6368 22.7332C17.266 21.7475 17.8135 20.6036 18.8813 19.8708C19.15 19.6581 19.4647 19.4756 19.8168 19.3434C20.3988 19.1264 20.9866 19.0819 21.5068 19.1738C21.9264 19.2184 22.3058 19.3463 22.6277 19.536V10.9025L12.7896 12.0033V22.8928H12.7766C12.7853 23.9576 11.4948 25.0755 10.1483 25.5842C8.52727 26.1935 6.84448 25.6978 6.38749 24.4763C5.93051 23.2534 6.87034 21.769 8.48991 21.1554C9.54614 20.7588 10.6239 20.8364 11.3784 21.2776V11.6124V10.9945V8.56167L24.0116 7.25689V8.23979Z" fill="white"/>
</svg>
