<?xml version="1.0" encoding="iso-8859-1"?>
<!-- Uploaded to: SVG Repo, www.svgrepo.com, Generator: SVG Repo Mixer Tools -->
<svg fill="#fff" height="800px" width="800px" version="1.1" id="Layer_1" xmlns="http://www.w3.org/2000/svg" xmlns:xlink="http://www.w3.org/1999/xlink" 
	 viewBox="0 0 511.729 511.729" xml:space="preserve">
<g>
	<g>
		<path d="M466.702,369.163c-52.941-52.941-52.941-156.86,0-209.801c2.014-2.014,2.722-5.734,2.159-8.533
			c-5.803-29.039-22.05-54.818-45.739-72.593c-2.321-1.732-5.359-2.185-8.073-1.178c-29.943,11.034-54.494,10.871-72.943-0.452
			c-29.79-18.287-35.046-60.365-35.098-60.792c-0.367-3.106-2.406-5.777-5.308-6.938c-29.559-11.836-62.114-11.836-91.674,0
			c-2.901,1.161-4.941,3.831-5.308,6.938c-0.051,0.427-5.308,42.505-35.098,60.792c-18.449,11.324-42.991,11.477-72.943,0.452
			c-2.722-1.007-5.751-0.555-8.073,1.178c-23.689,17.775-39.936,43.554-45.909,73.412c-0.563,2.799,0.316,5.692,2.33,7.714
			c52.941,52.941,52.941,156.86,0,209.801c-2.014,2.014-2.722,5.734-2.159,8.542c5.803,29.03,22.05,54.81,45.739,72.585
			c2.27,1.707,5.248,2.15,7.936,1.229c4.548-1.579,111.957-37.666,151.475,55.023c1.34,3.149,4.429,5.188,7.851,5.188
			c3.413,0,6.502-2.039,7.842-5.188c39.518-92.698,146.918-56.61,151.475-55.023c2.68,0.922,5.658,0.478,7.936-1.229
			c23.689-17.775,39.936-43.554,45.909-73.412C469.595,374.078,468.716,371.185,466.702,369.163z M82.233,150.146
			c-1.852-2.406-2.278-5.623-1.126-8.431c3.593-8.755,8.568-16.802,14.797-23.936c2.099-2.406,5.342-3.439,8.474-2.662
			c6.784,1.673,13.474,2.867,19.866,3.541c4.685,0.495,8.081,4.693,7.586,9.387c-0.486,4.676-4.634,8.013-9.378,7.586
			c-5.478-0.572-11.127-1.493-16.862-2.722c-2.594,3.439-4.847,7.108-6.75,10.974c3.336,4.642,6.494,9.498,9.412,14.49
			c2.372,4.07,0.998,9.293-3.072,11.674c-1.348,0.785-2.833,1.161-4.292,1.161c-2.935,0-5.794-1.51-7.381-4.233
			C90.075,161.094,86.277,155.428,82.233,150.146z M124.908,410.788c-6.784,0.785-13.594,1.903-20.25,3.319
			c-0.597,0.12-1.186,0.188-1.775,0.188c-2.406,0-4.727-1.015-6.366-2.85c-6.519-7.296-11.699-15.582-15.411-24.636
			c-1.152-2.816-0.725-6.025,1.126-8.431c4.045-5.282,7.842-10.948,11.273-16.819c2.372-4.087,7.603-5.453,11.674-3.072
			c4.07,2.372,5.444,7.595,3.072,11.665c-2.918,5.001-6.076,9.856-9.412,14.49c2.048,4.156,4.497,8.09,7.339,11.75
			c5.547-1.05,11.17-1.911,16.76-2.551c4.719-0.563,8.926,2.807,9.463,7.492C132.946,406.01,129.584,410.251,124.908,410.788z
			 M134.567,287.857c-1.391,13.193-3.951,26.206-7.62,38.673c-1.101,3.712-4.497,6.118-8.183,6.118c-0.802,0-1.613-0.111-2.423-0.35
			c-4.514-1.331-7.1-6.076-5.768-10.598c3.379-11.469,5.743-23.458,7.014-35.627c0.495-4.685,4.617-8.064,9.387-7.595
			C131.658,278.965,135.054,283.164,134.567,287.857z M126.973,250.046c-0.307,0.034-0.606,0.051-0.905,0.051
			c-4.309,0-8.013-3.26-8.482-7.646c-1.28-12.177-3.644-24.166-7.023-35.627c-1.331-4.523,1.254-9.267,5.777-10.59
			c4.514-1.357,9.267,1.246,10.598,5.769c3.669,12.45,6.238,25.463,7.629,38.664C135.054,245.353,131.658,249.551,126.973,250.046z
			 M209.789,411.65c-1.186,3.593-4.523,5.862-8.107,5.862c-0.879,0-1.783-0.137-2.671-0.435c-10.342-3.405-21.461-5.709-33.05-6.835
			c-4.693-0.452-8.124-4.625-7.671-9.318c0.452-4.685,4.634-8.158,9.318-7.663c12.851,1.246,25.207,3.806,36.745,7.612
			C208.833,402.349,211.265,407.17,209.789,411.65z M211.726,108.973c-11.102,9.907-23.808,17.237-37.751,21.803
			c-0.879,0.282-1.775,0.418-2.654,0.418c-3.593,0-6.929-2.287-8.107-5.888c-1.468-4.471,0.981-9.293,5.461-10.761
			c11.691-3.823,22.349-9.975,31.693-18.304c3.507-3.149,8.909-2.842,12.049,0.683C215.549,100.439,215.242,105.833,211.726,108.973
			z M277.031,435.279c-5.342,3.891-10.419,8.269-15.113,12.996c-1.596,1.613-3.78,2.526-6.05,2.526
			c-2.278,0-4.463-0.913-6.059-2.526c-4.693-4.727-9.771-9.105-15.113-12.996c-3.806-2.782-4.634-8.115-1.86-11.93
			c2.782-3.797,8.124-4.634,11.93-1.86c3.823,2.799,7.543,5.811,11.102,9.003c3.558-3.191,7.27-6.204,11.093-9.003
			c3.806-2.773,9.148-1.937,11.93,1.86C281.665,427.164,280.837,432.497,277.031,435.279z M280.914,71.477
			c-4.25,2.022-9.344,0.205-11.358-4.062c-2.423-5.111-4.582-10.402-6.443-15.812c-4.796-0.469-9.702-0.469-14.498,0
			c-1.86,5.41-4.019,10.709-6.443,15.812c-1.459,3.081-4.523,4.881-7.714,4.881c-1.229,0-2.475-0.265-3.652-0.819
			c-4.258-2.022-6.076-7.108-4.062-11.366c2.85-5.999,5.291-12.305,7.253-18.731c0.939-3.081,3.541-5.367,6.716-5.914
			c9.907-1.707,20.378-1.707,30.302,0c3.174,0.546,5.777,2.833,6.716,5.914c1.963,6.426,4.403,12.723,7.245,18.731
			C286.99,64.369,285.181,69.463,280.914,71.477z M299.338,96.958c3.132-3.524,8.516-3.831,12.049-0.691
			c9.344,8.329,20.011,14.481,31.701,18.295c4.48,1.468,6.929,6.281,5.461,10.761c-1.169,3.601-4.514,5.888-8.107,5.888
			c-0.879,0-1.766-0.137-2.645-0.418c-13.952-4.557-26.65-11.887-37.768-21.786C296.513,105.867,296.206,100.474,299.338,96.958z
			 M345.802,410.234c-11.597,1.126-22.724,3.43-33.058,6.835c-0.888,0.299-1.792,0.435-2.671,0.435c-3.584,0-6.921-2.27-8.107-5.862
			c-1.476-4.48,0.956-9.301,5.436-10.778c11.537-3.806,23.893-6.366,36.745-7.612c4.71-0.478,8.866,2.978,9.318,7.663
			C353.925,405.609,350.486,409.781,345.802,410.234z M387.487,118.658c6.4-0.674,13.082-1.869,19.857-3.55
			c3.115-0.768,6.374,0.256,8.482,2.671c6.229,7.125,11.204,15.181,14.797,23.936c1.152,2.807,0.725,6.025-1.126,8.431
			c-4.045,5.282-7.842,10.948-11.273,16.828c-1.587,2.722-4.446,4.233-7.381,4.233c-1.459,0-2.944-0.375-4.292-1.161
			c-4.07-2.381-5.444-7.603-3.072-11.674c2.918-4.992,6.076-9.847,9.412-14.49c-1.903-3.866-4.156-7.535-6.758-10.974
			c-5.717,1.229-11.366,2.15-16.853,2.722c-4.736,0.418-8.892-2.91-9.387-7.586C379.406,123.352,382.802,119.153,387.487,118.658z
			 M377.162,240.676c1.391-13.201,3.951-26.214,7.62-38.673c1.34-4.523,6.11-7.1,10.607-5.769c4.514,1.323,7.1,6.067,5.769,10.59
			c-3.379,11.469-5.743,23.458-7.014,35.627c-0.469,4.386-4.173,7.646-8.482,7.646c-0.299,0-0.597-0.017-0.905-0.043
			C380.072,249.56,376.675,245.361,377.162,240.676z M384.756,278.479c4.719-0.478,8.892,2.91,9.387,7.595
			c1.28,12.177,3.644,24.166,7.023,35.627c1.331,4.523-1.254,9.267-5.777,10.598c-0.802,0.239-1.613,0.35-2.415,0.35
			c-3.686,0-7.091-2.406-8.183-6.118c-3.669-12.459-6.238-25.463-7.629-38.665C376.675,283.172,380.072,278.974,384.756,278.479z
			 M430.623,386.81c-3.712,9.054-8.892,17.34-15.411,24.636c-1.638,1.835-3.959,2.85-6.366,2.85c-0.589,0-1.178-0.068-1.775-0.188
			c-6.656-1.417-13.466-2.534-20.25-3.319c-4.676-0.538-8.038-4.779-7.492-9.455c0.546-4.685,4.804-8.073,9.463-7.492
			c5.589,0.64,11.213,1.502,16.76,2.551c2.842-3.661,5.291-7.595,7.339-11.75c-3.336-4.634-6.494-9.489-9.412-14.49
			c-2.372-4.07-0.998-9.293,3.072-11.665c4.07-2.372,9.293-1.007,11.674,3.072c3.43,5.871,7.228,11.537,11.273,16.819
			C431.348,380.785,431.775,383.994,430.623,386.81z"/>
	</g>
</g>
</svg>