<?xml version="1.0" encoding="utf-8"?>
<!-- Generator: Adobe Illustrator 16.0.3, SVG Export Plug-In . SVG Version: 6.00 Build 0)  -->
<!DOCTYPE svg PUBLIC "-//W3C//DTD SVG 1.1//EN" "http://www.w3.org/Graphics/SVG/1.1/DTD/svg11.dtd">
<svg version="1.1" id="Layer_1" xmlns="http://www.w3.org/2000/svg" xmlns:xlink="http://www.w3.org/1999/xlink" x="0px" y="0px"
	 width="256px" height="256px" viewBox="0 0 256 256" enable-background="new 0 0 256 256" xml:space="preserve">
<ellipse fill="#453D31" cx="128" cy="127.833" rx="128" ry="127.833"/>
<radialGradient id="SVGID_1_" cx="128.583" cy="127.832" r="118.7544" gradientUnits="userSpaceOnUse">
	<stop  offset="0" style="stop-color:#CCB97E"/>
	<stop  offset="0.2473" style="stop-color:#C2AF77"/>
	<stop  offset="0.5916" style="stop-color:#AC9A68"/>
	<stop  offset="0.9915" style="stop-color:#8C7C53"/>
	<stop  offset="1" style="stop-color:#8B7B52"/>
</radialGradient>
<ellipse fill="url(#SVGID_1_)" cx="128.583" cy="127.833" rx="118.832" ry="118.678"/>
<path fill="#FFFFFF" d="M68.972,115.876"/>
<path fill="#5A7383" d="M20.335,256"/>
<path fill="#5A7383" d="M21.354,246.464"/>
<polygon fill="#564C3D" points="128.833,29 114.833,70.5 71.333,70 105.833,94 92.833,135 128.333,111.5 164.333,135.5 
	150.333,95.5 185.833,70 141.833,69.5 "/>
<g>
	<g id="Selected_Items_27_">
		<path fill-rule="evenodd" clip-rule="evenodd" fill="#3F311E" d="M232.707,105.085l-0.113,6.224
			c-0.257,4.683-0.828,8.362-1.724,11.036c-1.66,4.652-4.578,9.395-8.746,14.215c-3.734,4.285-8.542,8.709-14.429,13.279
			l-27.038,20.996c-0.284,0.222-0.488,0.347-0.6,0.37c-0.033-0.042-0.391-0.291-1.077-0.75c-0.97-0.565-1.559-0.901-1.769-1.003
			c-1.048-0.502-2.174-0.717-3.372-0.646c-1.271,0.063-2.562,0.567-3.865,1.518c-1.351,0.984-2.336,2.179-2.961,3.585
			c-0.871,1.931-1.164,3.975-0.881,6.129c0.124,1.091,0.345,1.971,0.669,2.645c0.755,1.395,1.574,1.98,2.456,1.757
			c0.475-0.239,0.826-0.38,1.054-0.423c0.396-0.176,0.718-0.228,0.97-0.156c0.849,0.328,1.289,0.807,1.317,1.443
			c0.038,0.637-0.375,1.217-1.217,1.742c-1.045,0.61-2.269,0.904-3.676,0.873c-1.743-0.031-3.122-0.707-4.147-2.025l-3.497-4.506
			c-0.382-0.493-0.698-0.812-0.94-0.951c-0.346-0.194-0.687-0.164-1.015,0.092c-0.247,0.191-2.617,2.66-7.11,7.405
			c-5.607,5.608-11.213,10.585-16.807,14.928c-5.475,4.251-11.624,8.565-18.449,12.944c-3.392,2.172-6.659,4.247-9.808,6.229
			c-0.904,0.704-1.374,1.76-1.402,3.168c0.016,0.78,0.113,1.756,0.305,2.932c0.068,0.604-0.104,1.103-0.525,1.494
			c-0.411,0.318-0.958,0.382-1.637,0.186c-0.716-0.24-2.594-2.276-5.639-6.113c-0.708,0.024-1.396-0.139-2.057-0.48
			c-0.732-0.354-1.357-0.857-1.869-1.516c-0.479-0.617-0.799-1.328-0.957-2.127c-0.171-0.728-0.157-1.432,0.039-2.112
			c-2.728-3.684-4.127-5.864-4.186-6.541c-0.058-0.749,0.137-1.265,0.581-1.542c0.453-0.352,0.979-0.396,1.58-0.138
			c1.089,0.474,1.996,0.792,2.718,0.957c1.402,0.363,2.557,0.19,3.462-0.513c2.701-2.557,5.521-5.21,8.465-7.958
			c5.898-5.569,11.586-10.48,17.06-14.731c5.595-4.346,11.805-8.54,18.628-12.586c5.711-3.178,8.687-4.865,8.933-5.056
			c0.329-0.256,0.447-0.575,0.343-0.958c-0.044-0.229-0.258-0.592-0.642-1.085l-3.498-4.507c-1.023-1.315-1.338-2.822-0.937-4.52
			c0.321-1.369,0.907-2.482,1.758-3.342c0.717-0.688,1.382-0.942,1.987-0.752c0.577,0.148,0.919,0.672,1.026,1.578
			c0.037,0.3-0.076,0.621-0.343,0.959c-0.133,0.168-0.355,0.475-0.673,0.917c-0.435,0.8-0.085,1.717,1.048,2.753
			c1.06,1.021,2.093,1.671,3.097,1.945l1.206,0.154l1.244,1.604l16.915-13.135c1.852-1.438,4.781-3.482,8.795-6.133
			c5.058-3.34,8.98-5.89,11.767-7.656c10.804-7.07,18.504-12.524,23.111-16.363c5.024-4.232,9.377-8.142,13.06-11.723
			L232.707,105.085z"/>
	</g>
</g>
<g>
	<g id="Selected_Items_2_">
		<path fill-rule="evenodd" clip-rule="evenodd" fill="#564C3D" d="M27.996,105.085l0.113,6.224
			c0.257,4.683,0.828,8.362,1.724,11.036c1.66,4.652,4.578,9.395,8.746,14.215c3.734,4.285,8.542,8.709,14.429,13.279l27.038,20.996
			c0.284,0.222,0.488,0.347,0.6,0.37c0.033-0.042,0.391-0.291,1.077-0.75c0.97-0.565,1.559-0.901,1.769-1.003
			c1.048-0.502,2.174-0.717,3.372-0.646c1.271,0.063,2.562,0.567,3.865,1.518c1.351,0.984,2.336,2.179,2.961,3.585
			c0.871,1.931,1.164,3.975,0.881,6.129c-0.124,1.091-0.345,1.971-0.669,2.645c-0.755,1.395-1.574,1.98-2.456,1.757
			c-0.475-0.239-0.826-0.38-1.054-0.423c-0.396-0.176-0.718-0.228-0.97-0.156c-0.849,0.328-1.289,0.807-1.317,1.443
			c-0.038,0.637,0.375,1.217,1.217,1.742c1.045,0.61,2.269,0.904,3.676,0.873c1.743-0.031,3.122-0.707,4.147-2.025l3.497-4.506
			c0.382-0.493,0.698-0.812,0.94-0.951c0.346-0.194,0.687-0.164,1.015,0.092c0.247,0.191,2.617,2.66,7.11,7.405
			c5.607,5.608,11.213,10.585,16.807,14.928c5.475,4.251,11.624,8.565,18.449,12.944c3.392,2.172,6.659,4.247,9.808,6.229
			c0.904,0.704,1.374,1.76,1.402,3.168c-0.016,0.78-0.113,1.756-0.305,2.932c-0.068,0.604,0.104,1.103,0.525,1.494
			c0.411,0.318,0.958,0.382,1.637,0.186c0.716-0.24,2.594-2.276,5.639-6.113c0.708,0.024,1.396-0.139,2.057-0.48
			c0.732-0.354,1.357-0.857,1.869-1.516c0.479-0.617,0.799-1.328,0.957-2.127c0.171-0.728,0.157-1.432-0.039-2.112
			c2.728-3.684,4.127-5.864,4.186-6.541c0.058-0.749-0.137-1.265-0.581-1.542c-0.453-0.352-0.979-0.396-1.58-0.138
			c-1.089,0.474-1.996,0.792-2.718,0.957c-1.402,0.363-2.557,0.19-3.462-0.513c-2.701-2.557-5.521-5.21-8.465-7.958
			c-5.898-5.569-11.586-10.48-17.06-14.731c-5.595-4.346-11.805-8.54-18.628-12.586c-5.711-3.178-8.687-4.865-8.933-5.056
			c-0.329-0.256-0.447-0.575-0.343-0.958c0.044-0.229,0.258-0.592,0.642-1.085l3.498-4.507c1.023-1.315,1.338-2.822,0.937-4.52
			c-0.321-1.369-0.907-2.482-1.758-3.342c-0.717-0.688-1.382-0.942-1.987-0.752c-0.577,0.148-0.919,0.672-1.026,1.578
			c-0.037,0.3,0.076,0.621,0.343,0.959c0.133,0.168,0.355,0.475,0.673,0.917c0.435,0.8,0.085,1.717-1.048,2.753
			c-1.06,1.021-2.093,1.671-3.097,1.945l-1.206,0.154l-1.244,1.604L88.74,150.971c-1.852-1.438-4.781-3.482-8.795-6.133
			c-5.058-3.34-8.98-5.89-11.767-7.656c-10.804-7.07-18.504-12.524-23.111-16.363c-5.024-4.232-9.377-8.142-13.06-11.723
			L27.996,105.085z"/>
	</g>
</g>
</svg>
