<svg width="32" height="32" viewBox="0 0 32 32" fill="none" xmlns="http://www.w3.org/2000/svg">
<g clip-path="url(#clip0_107_90)">
<path d="M26.727 26.76L15.957 27.49L5.36701 26.76L4.62701 16.15L5.36701 5.4L15.917 4.67L26.727 5.4L27.457 16.08L26.727 26.76Z" fill="url(#paint0_linear_107_90)"/>
<path d="M26.827 5.27L23.927 5.06L15.867 4.53H15.857L5.12696 5.27L4.38696 16.19L5.12696 26.97L15.877 27.71H15.887L26.827 26.97L27.567 16.13L26.827 5.26V5.27ZM26.757 22.62L26.007 21.87L25.747 22.13L26.727 23.11L26.667 23.97L25.287 22.59L25.027 22.85L26.637 24.46L26.587 25.16L24.677 23.25L24.417 23.51L26.557 25.65L26.497 26.46L23.967 23.93L23.707 24.19L26.177 26.66L25.477 26.71L23.337 24.57L23.077 24.83L24.987 26.74L24.167 26.8L22.627 25.26L22.367 25.52L23.677 26.83L22.897 26.88L21.977 25.96L21.717 26.22L22.407 26.91L15.877 27.35L9.62696 26.92L10.247 26.3L9.98696 26.04L9.13696 26.89L8.35696 26.84L9.59696 25.6L9.33696 25.34L7.87696 26.8L7.05696 26.74L8.89696 24.9L8.63696 24.64L6.56696 26.71L5.87696 26.66L8.27696 24.26L8.01696 24L5.46696 26.55L5.40696 25.75L7.56696 23.59L7.30696 23.33L5.37696 25.26L5.32696 24.56L6.94696 22.94L6.68696 22.68L5.28696 24.08L5.22696 23.22L6.22696 22.22L5.96696 21.96L5.19696 22.73L4.74696 16.2L5.18696 9.71L5.89696 10.42L6.15696 10.16L5.21696 9.22L5.27696 8.36L6.61696 9.7L6.87696 9.44L5.31696 7.88L5.36696 7.18L7.23696 9.05L7.49696 8.79L5.39696 6.69L5.44696 5.89L7.93696 8.38L8.19696 8.12L5.69696 5.62L6.38696 5.57L8.55696 7.74L8.81696 7.48L6.87696 5.54L7.69696 5.48L9.25696 7.04L9.51696 6.78L8.17696 5.44L8.95696 5.39L9.90696 6.34L10.167 6.08L9.44696 5.36L15.837 4.92L22.287 5.36L21.637 6.01L21.897 6.27L22.777 5.39L23.557 5.44L22.297 6.7L22.557 6.96L24.047 5.47L24.867 5.53L22.997 7.4L23.257 7.66L25.357 5.56L26.057 5.61L23.627 8.04L23.887 8.3L26.477 5.71L26.537 6.49L24.337 8.71L24.597 8.97L26.567 7L26.617 7.7L24.947 9.37L25.207 9.63L26.647 8.19L26.707 9.05L25.667 10.09L25.927 10.35L26.737 9.54L27.187 16.15L26.747 22.65L26.757 22.62Z" fill="url(#paint1_linear_107_90)"/>
<path d="M15.877 27.75H15.867L5.08698 27V26.97L4.33698 16.18L5.07698 5.23H5.10698L15.837 4.48H15.847L23.907 5.02L26.837 5.23L27.587 16.11L26.847 26.99H26.817L15.867 27.74L15.877 27.75ZM5.14698 26.95L15.877 27.69L26.797 26.95L27.537 16.14L26.797 5.3L23.917 5.09L15.857 4.56H15.847L5.14698 5.3L4.40698 16.19L5.14698 26.95ZM15.877 27.38L9.55698 26.94L10.207 26.29L9.98698 26.07L9.14698 26.91L8.28697 26.85L9.54698 25.59L9.32697 25.37L7.87698 26.82L6.97698 26.76L8.83698 24.9L8.61698 24.68L6.55698 26.74L5.78698 26.69L8.20697 24.27L7.98698 24.05L5.41698 26.62L5.35698 25.74L7.50698 23.59L7.28698 23.37L5.33698 25.32L5.28698 24.54L6.89698 22.93L6.67698 22.71L5.25698 24.13L5.19698 23.19L6.17698 22.21L5.95698 21.99L5.16698 22.78L4.71698 16.19L5.16698 9.63L5.89698 10.36L6.11698 10.14L5.19698 9.22L5.25698 8.28L6.61698 9.64L6.83698 9.42L5.28698 7.87L5.33698 7.09L7.22698 8.98L7.44698 8.76L5.35698 6.67L5.41698 5.79L7.92698 8.3L8.14698 8.08L5.62698 5.56L6.39698 5.51L8.55698 7.67L8.77698 7.45L6.81698 5.49L7.71698 5.43L9.25698 6.98L9.47698 6.76L8.11698 5.4L8.97698 5.34L9.91698 6.28L10.137 6.06L9.38698 5.31L15.847 4.86L22.357 5.3L21.677 5.98L21.897 6.2L22.767 5.33L23.627 5.39L22.337 6.68L22.557 6.9L24.037 5.42L24.937 5.48L23.047 7.37L23.267 7.59L25.357 5.5L26.127 5.55L23.667 8.01L23.887 8.23L26.507 5.61L26.567 6.47L24.377 8.68L24.597 8.9L26.597 6.9L26.647 7.68L24.997 9.34L25.217 9.56L26.687 8.09L26.747 9.03L25.717 10.06L25.937 10.28L26.777 9.44L27.237 16.12L26.787 22.68L26.007 21.9L25.787 22.12L26.757 23.09L26.697 24.03L25.297 22.63L25.077 22.85L26.677 24.45L26.627 25.23L24.687 23.29L24.467 23.51L26.597 25.64L26.537 26.52L23.977 23.96L23.757 24.18L26.257 26.68L25.487 26.73L23.367 24.6L23.147 24.82L25.087 26.76L24.187 26.82L22.667 25.3L22.447 25.52L23.777 26.85L22.917 26.91L22.007 26L21.787 26.22L22.507 26.94L15.917 27.39L15.877 27.38ZM9.69698 26.89L15.877 27.32L22.337 26.88L21.667 26.21L21.967 25.91L22.897 26.84L23.597 26.79L22.317 25.51L22.617 25.21L24.167 26.76L24.907 26.71L23.017 24.82L23.317 24.52L25.467 26.67L26.087 26.63L23.637 24.18L23.937 23.88L26.447 26.39L26.497 25.66L24.347 23.51L24.647 23.21L26.537 25.1L26.577 24.48L24.957 22.86L25.257 22.56L26.607 23.91L26.657 23.13L25.667 22.14L25.967 21.84L26.697 22.57L27.137 16.14L26.687 9.6L25.897 10.39L25.597 10.09L26.647 9.04L26.597 8.26L25.177 9.68L24.877 9.38L26.557 7.7L26.517 7.08L24.567 9.03L24.267 8.73L26.477 6.49L26.427 5.79L23.857 8.36L23.557 8.06L25.957 5.66L25.337 5.62L23.227 7.73L22.927 7.43L24.767 5.59L24.027 5.54L22.527 7.04L22.227 6.74L23.467 5.5L22.767 5.45L21.877 6.34L21.577 6.04L22.207 5.41L15.827 4.98L9.50698 5.42L10.207 6.12L9.90698 6.42L8.94698 5.46L8.24697 5.51L9.55698 6.82L9.25698 7.12L7.67698 5.54L6.93698 5.59L8.84698 7.5L8.54698 7.8L6.36698 5.62L5.74698 5.66L8.21698 8.13L7.91698 8.43L5.45698 5.97L5.40698 6.69L7.51698 8.8L7.21698 9.1L5.37698 7.26L5.33698 7.88L6.91698 9.45L6.61698 9.75L5.30698 8.44L5.25698 9.22L6.20698 10.17L5.90698 10.47L5.22698 9.79L4.78698 16.21L5.23698 22.67L5.97698 21.93L6.27698 22.23L5.26698 23.24L5.31698 24.02L6.68698 22.65L6.98698 22.95L5.35698 24.58L5.39698 25.2L7.29698 23.3L7.59698 23.6L5.42698 25.77L5.47698 26.49L7.99698 23.97L8.29698 24.27L5.92698 26.64L6.54698 26.68L8.62698 24.6L8.92698 24.9L7.11698 26.71L7.85698 26.76L9.33698 25.28L9.63698 25.58L8.42698 26.79L9.12698 26.84L9.98698 25.98L10.287 26.28L9.68698 26.88L9.69698 26.89Z" fill="url(#paint2_linear_107_90)"/>
<path d="M15.9664 31.9238L31.7702 16.12L15.9664 0.316168L0.162532 16.12L15.9664 31.9238Z" fill="url(#paint3_linear_107_90)"/>
<path d="M15.967 0.32L31.777 16.13L15.967 31.94L0.166985 16.12L15.967 0.32ZM15.967 0.25L15.937 0.28L0.126985 16.09L0.0969849 16.12L0.126985 16.15L15.937 31.96L15.967 31.99L15.997 31.96L31.807 16.15L31.837 16.12L31.807 16.09L16.007 0.28L15.977 0.25H15.967Z" fill="url(#paint4_linear_107_90)"/>
<path d="M31.0354 16.1306L15.967 1.06219L0.898534 16.1306L15.967 31.1991L31.0354 16.1306Z" fill="url(#paint5_linear_107_90)"/>
<path d="M7.00696 13.77L16.027 4.75L25.047 13.77H7.00696ZM7.05696 18.54L16.027 27.51L24.997 18.54H7.05696Z" fill="url(#paint6_linear_107_90)"/>
<path d="M9.66697 15.71C9.66697 15.71 9.61697 15.74 9.58697 15.74H9.29697C9.29697 15.74 9.23697 15.73 9.21697 15.71C9.19697 15.69 9.18697 15.66 9.18697 15.63V15.42C9.18697 15.42 9.17697 15.36 9.15697 15.34C9.13697 15.32 9.10696 15.31 9.07696 15.31H8.64697C8.64697 15.31 8.58697 15.32 8.56697 15.34C8.54697 15.36 8.53696 15.39 8.53696 15.42V16.98C8.53696 16.98 8.54697 17.04 8.56697 17.06C8.58697 17.08 8.61697 17.09 8.64697 17.09H8.98697C8.98697 17.09 9.04697 17.1 9.06697 17.12C9.08697 17.14 9.09697 17.17 9.09697 17.2V17.48C9.09697 17.48 9.08697 17.54 9.06697 17.56C9.04697 17.58 9.01697 17.59 8.98697 17.59H7.53697C7.53697 17.59 7.47697 17.58 7.45697 17.56C7.43697 17.54 7.42697 17.51 7.42697 17.48V17.2C7.42697 17.2 7.43697 17.14 7.45697 17.12C7.47697 17.1 7.50697 17.09 7.53697 17.09H7.87697C7.87697 17.09 7.93697 17.08 7.95697 17.06C7.97697 17.04 7.98697 17.01 7.98697 16.98V15.42C7.98697 15.42 7.97697 15.36 7.95697 15.34C7.93697 15.32 7.90697 15.31 7.87697 15.31H7.44697C7.44697 15.31 7.38697 15.32 7.36697 15.34C7.34697 15.36 7.33697 15.39 7.33697 15.42V15.63C7.33697 15.63 7.32697 15.69 7.30697 15.71C7.28697 15.73 7.25697 15.74 7.22697 15.74H6.93697C6.93697 15.74 6.87697 15.73 6.85697 15.71C6.83697 15.69 6.82697 15.66 6.82697 15.63V14.92C6.82697 14.92 6.83697 14.86 6.85697 14.84C6.87697 14.82 6.90697 14.81 6.93697 14.81H9.61697C9.61697 14.81 9.67697 14.82 9.69697 14.84C9.71697 14.86 9.72697 14.89 9.72697 14.92V15.63C9.72697 15.63 9.71697 15.69 9.69697 15.71H9.66697ZM13.697 17.48C13.697 17.48 13.687 17.54 13.667 17.56C13.647 17.58 13.617 17.59 13.587 17.59H13.257C13.257 17.59 13.197 17.58 13.177 17.56C13.157 17.54 13.147 17.51 13.147 17.48V17.07C13.147 16.98 13.117 16.9 13.067 16.84C13.017 16.78 12.947 16.75 12.867 16.75H11.437C11.437 16.75 11.387 16.76 11.367 16.78C11.347 16.8 11.337 16.83 11.337 16.85V17.48C11.337 17.48 11.327 17.54 11.307 17.56C11.287 17.58 11.257 17.59 11.227 17.59H10.897C10.897 17.59 10.837 17.58 10.817 17.56C10.797 17.54 10.787 17.51 10.787 17.48V14.92C10.787 14.92 10.797 14.86 10.817 14.84C10.837 14.82 10.867 14.81 10.897 14.81H12.617C12.727 14.81 12.837 14.83 12.947 14.88C13.047 14.92 13.137 14.98 13.217 15.06C13.297 15.13 13.357 15.22 13.397 15.32C13.437 15.42 13.467 15.53 13.467 15.64V15.93C13.467 16.01 13.457 16.09 13.427 16.17C13.407 16.25 13.367 16.32 13.327 16.38C13.447 16.45 13.537 16.55 13.617 16.67C13.687 16.79 13.727 16.93 13.727 17.08V17.49L13.697 17.48ZM12.877 15.63C12.877 15.54 12.847 15.46 12.797 15.4C12.747 15.34 12.677 15.31 12.597 15.31H11.327V16.14C11.327 16.14 11.337 16.2 11.357 16.22C11.377 16.24 11.407 16.25 11.437 16.25H12.607C12.687 16.25 12.747 16.22 12.807 16.16C12.857 16.1 12.887 16.02 12.887 15.93V15.63H12.877ZM17.567 17.48C17.567 17.48 17.557 17.54 17.537 17.56C17.517 17.58 17.487 17.59 17.457 17.59H17.127C17.127 17.59 17.067 17.58 17.047 17.56C17.027 17.54 17.017 17.51 17.017 17.48V17.14C17.017 17.14 17.007 17.08 16.987 17.06C16.967 17.04 16.937 17.03 16.907 17.03H15.457C15.457 17.03 15.397 17.04 15.377 17.06C15.357 17.08 15.347 17.11 15.347 17.14V17.48C15.347 17.48 15.337 17.54 15.317 17.56C15.297 17.58 15.267 17.59 15.237 17.59H14.907C14.907 17.59 14.847 17.58 14.827 17.56C14.807 17.54 14.797 17.51 14.797 17.48V16.17C14.797 15.97 14.837 15.78 14.907 15.61C14.977 15.44 15.077 15.28 15.207 15.16C15.337 15.03 15.477 14.93 15.647 14.86C15.817 14.79 15.997 14.75 16.187 14.75C16.377 14.75 16.557 14.79 16.727 14.86C16.897 14.93 17.047 15.04 17.167 15.16C17.297 15.29 17.397 15.44 17.467 15.61C17.537 15.78 17.577 15.97 17.577 16.17V17.48H17.567ZM17.007 16.18C17.007 16.05 16.987 15.93 16.937 15.82C16.897 15.71 16.837 15.61 16.757 15.53C16.677 15.45 16.597 15.38 16.487 15.33C16.387 15.28 16.277 15.26 16.157 15.26C16.037 15.26 15.937 15.28 15.837 15.33C15.737 15.38 15.647 15.44 15.577 15.52C15.497 15.6 15.437 15.7 15.397 15.81C15.357 15.92 15.327 16.04 15.327 16.17V16.41C15.327 16.41 15.337 16.47 15.357 16.49C15.377 16.51 15.407 16.52 15.437 16.52H16.887C16.887 16.52 16.947 16.51 16.967 16.49C16.987 16.47 16.997 16.44 16.997 16.41V16.18H17.007ZM21.197 17.56C21.197 17.56 21.147 17.59 21.117 17.59H18.557C18.557 17.59 18.497 17.58 18.477 17.56C18.457 17.54 18.447 17.51 18.447 17.48V17.2C18.447 17.2 18.457 17.14 18.477 17.12C18.497 17.1 18.527 17.09 18.557 17.09H19.447C19.447 17.09 19.507 17.08 19.527 17.06C19.547 17.04 19.557 17.01 19.557 16.98V15.42C19.557 15.42 19.547 15.36 19.527 15.34C19.507 15.32 19.477 15.31 19.447 15.31H18.557C18.557 15.31 18.497 15.3 18.477 15.28C18.457 15.26 18.447 15.23 18.447 15.2V14.92C18.447 14.92 18.457 14.86 18.477 14.84C18.497 14.82 18.527 14.81 18.557 14.81H21.117C21.117 14.81 21.177 14.82 21.197 14.84C21.217 14.86 21.227 14.89 21.227 14.92V15.2C21.227 15.2 21.217 15.26 21.197 15.28C21.177 15.3 21.147 15.31 21.117 15.31H20.227C20.227 15.31 20.167 15.32 20.147 15.34C20.127 15.36 20.117 15.39 20.117 15.42V16.98C20.117 16.98 20.127 17.04 20.147 17.06C20.167 17.08 20.197 17.09 20.227 17.09H21.117C21.117 17.09 21.177 17.1 21.197 17.12C21.217 17.14 21.227 17.17 21.227 17.2V17.48C21.227 17.48 21.217 17.54 21.197 17.56ZM25.107 17.56C25.107 17.56 25.057 17.59 25.027 17.59H24.647C24.647 17.59 24.587 17.58 24.567 17.55L22.897 15.63V17.47C22.897 17.47 22.887 17.53 22.867 17.55C22.847 17.57 22.817 17.58 22.787 17.58H22.457C22.457 17.58 22.397 17.57 22.377 17.55C22.357 17.53 22.347 17.5 22.347 17.47V14.91C22.347 14.91 22.357 14.85 22.377 14.83C22.397 14.81 22.427 14.8 22.457 14.8H22.867C22.867 14.8 22.927 14.81 22.957 14.84L24.577 16.72V14.92C24.577 14.92 24.587 14.86 24.607 14.84C24.627 14.82 24.657 14.81 24.687 14.81H25.017C25.017 14.81 25.077 14.82 25.097 14.84C25.117 14.86 25.127 14.89 25.127 14.92V17.48C25.127 17.48 25.117 17.54 25.097 17.56H25.107Z" fill="url(#paint7_linear_107_90)"/>
<path d="M15.967 2.16L2.00696 16.12L15.967 30.08L29.927 16.12L15.967 2.16ZM2.29696 16.12L15.967 2.45L29.647 16.13L15.967 29.81L2.29696 16.12Z" fill="url(#paint8_linear_107_90)"/>
<path d="M15.967 22.61L14.677 23.55L15.127 22L13.867 21.08L15.447 21.01L15.967 19.56L16.487 21.01L18.067 21.08L16.817 22L17.267 23.55L15.967 22.61Z" fill="url(#paint9_linear_107_90)"/>
<path d="M15.967 19.56L16.487 21.01L18.067 21.09L16.807 22.01L17.257 23.56L15.957 22.62L14.657 23.56L15.107 22.01L13.847 21.09L15.427 21.01L15.947 19.56M15.947 19.26L15.857 19.52L15.357 20.91L13.847 20.98H13.567L13.797 21.16L14.997 22.03L14.567 23.52L14.487 23.8L14.727 23.63L15.967 22.73L17.207 23.63L17.447 23.8L17.367 23.52L16.937 22.03L18.137 21.16L18.367 20.99H18.087L16.577 20.9L16.077 19.51L15.987 19.25L15.947 19.26Z" fill="url(#paint10_linear_107_90)"/>
<path opacity="0.61" d="M19.337 10.25L19.667 10.45L19.527 10.54H19.337V10.25ZM19.337 8.54001V8.61001L19.417 8.66001L19.607 8.55001H19.347L19.337 8.54001ZM19.337 9.37001H20.017L19.427 9.00001L19.337 9.06001V9.37001ZM18.137 8.93001H18.247V8.73001L18.137 8.66001V8.93001ZM19.917 10.29L20.057 10.21V10.01H19.457L19.917 10.29ZM18.137 8.55001L18.257 8.62001V8.54001H18.137V8.55001ZM21.057 10.53V10.43H20.887L21.057 10.53ZM20.347 8.65001L20.507 8.75001V8.54001H20.347V8.65001ZM18.137 9.29001L18.247 9.22001V9.01001H18.137V9.29001ZM20.347 9.23001L20.507 9.33001V9.06001L20.347 8.96001V9.23001ZM20.347 9.62001V9.74001H20.507V9.67001L20.417 9.62001H20.347ZM19.707 8.84001L20.057 9.06001V8.79001L19.917 8.71001L19.707 8.84001ZM21.057 10.34V10.24L20.887 10.34H21.057ZM19.337 9.62001V9.74001H20.057V9.62001H19.337ZM20.347 10.54H20.507V10.43L20.347 10.53V10.54ZM17.377 9.25001H17.937L17.377 8.90001V9.25001ZM17.377 10.34H17.947L17.377 9.99001V10.34ZM17.997 10.54V10.52L17.967 10.54H17.997ZM17.377 9.70001L17.947 9.35001H17.377V9.70001ZM17.377 10.54H17.777L17.947 10.43H17.377V10.54ZM17.997 10.25V9.88001H17.407L17.997 10.25ZM17.997 9.16001V8.80001H17.407L17.997 9.16001ZM17.377 8.53001V8.60001L17.487 8.53001H17.377ZM18.137 10.51L18.167 10.53H18.227V10.49H18.137V10.51ZM18.137 10.38V10.41H18.227V10.37L18.197 10.35L18.137 10.39V10.38ZM18.137 9.42001H18.167L18.237 9.38001V9.33001L18.127 9.40001V9.42001H18.137ZM17.987 9.79001V9.43001L17.397 9.79001H17.987ZM17.397 8.71001H17.987V8.54001H17.667L17.387 8.71001H17.397ZM21.547 10.41H21.727L21.547 10.29V10.41ZM21.547 10.18L21.727 10.29V9.99001H21.547V10.18ZM21.547 9.91001H21.727V9.61001L21.547 9.72001V9.90001V9.91001ZM21.547 10.53H21.667L21.727 10.49H21.547V10.53ZM21.177 8.80001V8.87001L21.287 8.80001H21.177ZM21.547 9.62001L21.727 9.51001H21.547V9.63001V9.62001ZM21.177 8.71001H21.397L21.177 8.56001V8.71001ZM21.397 8.58001V8.54001H21.327L21.397 8.58001ZM21.537 8.64001L21.697 8.54001H21.537V8.64001ZM21.537 9.42001H21.717L21.537 9.30001V9.42001ZM16.347 1.96001L6.52698 11.51C7.33698 10.88 8.88698 9.98001 9.65698 10.05C10.157 10.1 10.567 10.16 10.917 10.23V10.02L12.977 8.98001V8.39001H14.457V8.95001L16.597 10.02V10.54H17.137V8.16001H17.287V8.14001L18.047 7.94001H18.257L18.287 6.20001H19.127L19.157 7.94001H21.827V7.96001H21.867V10.54H22.477C23.097 10.54 23.717 10.71 24.247 11.04C25.477 11.8 26.367 11.91 26.557 11.99L16.367 1.96001H16.347ZM6.02698 12.02L6.53698 11.52C6.25698 11.74 6.06698 11.92 6.02698 12.02ZM21.557 8.94001H21.737V8.65001L21.557 8.76001V8.94001ZM21.557 9.21001L21.737 9.32001V9.02001H21.557V9.20001V9.21001ZM21.187 10.16V10.35H21.407V10.21L21.257 10.12L21.187 10.16ZM20.807 8.72001H21.047V8.55001H20.807V8.72001ZM20.807 8.95001L20.997 9.07001L21.047 9.04001V8.81001H20.807V8.95001ZM21.187 10.55H21.407V10.51H21.187V10.55ZM20.807 9.75001L21.007 9.63001H20.807V9.75001ZM20.957 9.35001H20.887L20.937 9.38001H21.007L20.957 9.35001ZM20.807 10.27L21.047 10.12V9.91001L20.807 10.06V10.27ZM21.347 9.75001L21.177 9.65001V9.80001H21.277L21.347 9.76001V9.75001ZM21.407 10.1V10.02L21.337 10.06L21.407 10.1ZM21.187 9.43001H21.407V9.35001H21.187V9.43001ZM21.187 9.26001H21.407V9.23001L21.187 9.09001V9.26001ZM21.187 9.54001L21.407 9.68001V9.52001H21.187V9.54001ZM21.257 9.93001H21.377L21.407 9.91001L21.307 9.90001L21.257 9.93001ZM21.257 9.03001L21.407 9.12001V9.02001H21.257V9.03001Z" fill="url(#paint11_radial_107_90)"/>
</g>
<defs>
<linearGradient id="paint0_linear_107_90" x1="17.837" y1="30.08" x2="14.147" y2="1.2" gradientUnits="userSpaceOnUse">
<stop offset="0.08" stop-color="#433013"/>
<stop offset="0.74" stop-color="#A3803A"/>
<stop offset="1" stop-color="#DAC478"/>
</linearGradient>
<linearGradient id="paint1_linear_107_90" x1="11.717" y1="1.72" x2="20.037" y2="29.91" gradientUnits="userSpaceOnUse">
<stop stop-color="#433013"/>
<stop offset="0.13" stop-color="#795824"/>
<stop offset="1" stop-color="#8B6427"/>
</linearGradient>
<linearGradient id="paint2_linear_107_90" x1="18.237" y1="22.17" x2="12.067" y2="5.73" gradientUnits="userSpaceOnUse">
<stop stop-color="#62471D"/>
<stop offset="0.52" stop-color="#795824"/>
<stop offset="1" stop-color="#AA8942"/>
</linearGradient>
<linearGradient id="paint3_linear_107_90" x1="19.1389" y1="42.3955" x2="12.4389" y2="-13.2545" gradientUnits="userSpaceOnUse">
<stop offset="0.08" stop-color="#433013"/>
<stop offset="0.74" stop-color="#A3803A"/>
<stop offset="1" stop-color="#DAC478"/>
</linearGradient>
<linearGradient id="paint4_linear_107_90" x1="15.967" y1="32" x2="15.967" y2="0.25" gradientUnits="userSpaceOnUse">
<stop stop-color="#795824"/>
<stop offset="1" stop-color="#E0B557"/>
</linearGradient>
<linearGradient id="paint5_linear_107_90" x1="14.5495" y1="4.88609" x2="16.8195" y2="22.8261" gradientUnits="userSpaceOnUse">
<stop stop-color="#C0BAA9"/>
<stop offset="1" stop-color="#E2DCCC"/>
</linearGradient>
<linearGradient id="paint6_linear_107_90" x1="16.027" y1="4.75" x2="16.027" y2="27.51" gradientUnits="userSpaceOnUse">
<stop stop-color="#035274"/>
<stop offset="0.95" stop-color="#00283D"/>
</linearGradient>
<linearGradient id="paint7_linear_107_90" x1="15.967" y1="8.52" x2="15.967" y2="16.75" gradientUnits="userSpaceOnUse">
<stop stop-color="#5FC096"/>
<stop offset="0.13" stop-color="#5ABA93"/>
<stop offset="0.3" stop-color="#4CA98E"/>
<stop offset="0.5" stop-color="#368D84"/>
<stop offset="0.71" stop-color="#176778"/>
<stop offset="0.85" stop-color="#004A6E"/>
<stop offset="0.99" stop-color="#003249"/>
</linearGradient>
<linearGradient id="paint8_linear_107_90" x1="18.767" y1="39.33" x2="12.847" y2="-9.82" gradientUnits="userSpaceOnUse">
<stop offset="0.08" stop-color="#433013"/>
<stop offset="0.74" stop-color="#A3803A"/>
<stop offset="1" stop-color="#DAC478"/>
</linearGradient>
<linearGradient id="paint9_linear_107_90" x1="16.797" y1="27.32" x2="15.927" y2="20.73" gradientUnits="userSpaceOnUse">
<stop offset="0.01" stop-color="#241F12"/>
<stop offset="0.05" stop-color="#41361F"/>
<stop offset="0.09" stop-color="#574828"/>
<stop offset="0.13" stop-color="#66552F"/>
<stop offset="0.18" stop-color="#705C33"/>
<stop offset="0.25" stop-color="#735F35"/>
<stop offset="0.74" stop-color="#A0895A"/>
<stop offset="0.81" stop-color="#B5A06F"/>
<stop offset="0.97" stop-color="#EBDDA7"/>
<stop offset="1" stop-color="#F7EAB3"/>
</linearGradient>
<linearGradient id="paint10_linear_107_90" x1="17.287" y1="23.89" x2="14.957" y2="19.85" gradientUnits="userSpaceOnUse">
<stop offset="0.01" stop-color="#241F12"/>
<stop offset="0.05" stop-color="#41361F"/>
<stop offset="0.09" stop-color="#574828"/>
<stop offset="0.13" stop-color="#66552F"/>
<stop offset="0.18" stop-color="#705C33"/>
<stop offset="0.25" stop-color="#735F35"/>
<stop offset="0.74" stop-color="#A0895A"/>
<stop offset="0.81" stop-color="#B5A06F"/>
<stop offset="0.97" stop-color="#EBDDA7"/>
<stop offset="1" stop-color="#F7EAB3"/>
</linearGradient>
<radialGradient id="paint11_radial_107_90" cx="0" cy="0" r="1" gradientUnits="userSpaceOnUse" gradientTransform="translate(13.9052 6.75366) rotate(4.2) scale(12.9728 12.9728)">
<stop stop-color="white"/>
<stop offset="0.31" stop-color="white" stop-opacity="0.66"/>
<stop offset="0.65" stop-color="white" stop-opacity="0.31"/>
<stop offset="0.89" stop-color="white" stop-opacity="0.09"/>
<stop offset="1" stop-color="white" stop-opacity="0"/>
</radialGradient>
<clipPath id="clip0_107_90">
<rect width="31.75" height="31.75" fill="white" transform="translate(0.0969849 0.25)"/>
</clipPath>
</defs>
</svg>
