<svg width="31" height="31" viewBox="0 0 31 31" fill="none" xmlns="http://www.w3.org/2000/svg">
<g clip-path="url(#clip0_25_222)">
<path d="M4.41563 8.79685C4.30672 8.79685 4.22183 8.70876 4.22183 8.59665V5.92676C4.22183 5.84108 4.27949 5.75699 4.35877 5.72736C4.60862 5.63447 4.73195 5.58963 4.985 5.50154C5.00262 5.49513 5.02104 5.49113 5.03865 5.48952C5.04346 5.48952 5.05147 5.48952 5.05627 5.48952C5.16038 5.48952 5.24206 5.57121 5.24206 5.67451V8.35241C5.24206 8.4461 5.1788 8.53579 5.09071 8.56702C4.84646 8.65271 4.72714 8.69515 4.4853 8.78564C4.46848 8.79205 4.45086 8.79605 4.43405 8.79765C4.42924 8.79765 4.42123 8.79846 4.41563 8.79846V8.79685ZM4.62224 8.30916C4.69351 8.28354 4.76158 8.25871 4.84166 8.23068V5.97401C4.77038 5.99964 4.70152 6.02446 4.62224 6.05409V8.30916ZM26.0542 8.60946C26.0366 8.60786 26.019 8.60386 26.0022 8.59825C25.7195 8.49815 25.5793 8.45091 25.2918 8.35641C25.2062 8.32838 25.1525 8.2427 25.1405 8.17543C25.1389 8.16582 25.1381 8.15541 25.1381 8.1458V7.21046C25.1381 7.17442 25.1341 7.14319 25.1117 7.06311C24.9555 6.48733 24.7993 5.91395 24.6432 5.34057C24.628 5.29012 24.6384 5.23006 24.672 5.18522C24.7057 5.14037 24.7569 5.11475 24.813 5.11475C24.817 5.11475 24.8234 5.11475 24.8274 5.11475C24.8394 5.11555 24.857 5.11955 24.869 5.12276C25.1381 5.20524 25.2694 5.24768 25.5401 5.33737C25.6114 5.3614 25.6642 5.41985 25.685 5.49913L25.7339 5.72816L25.7547 5.64168C25.7547 5.64168 25.7563 5.63447 25.7579 5.63127C25.7859 5.54238 25.8588 5.48472 25.9445 5.48472C25.9493 5.48472 25.9565 5.48472 25.9613 5.48472C25.9757 5.48552 25.9917 5.48952 26.007 5.49433C26.264 5.58402 26.3889 5.62887 26.6452 5.72416C26.6965 5.74338 26.7389 5.78342 26.7621 5.83387C26.7845 5.88352 26.7869 5.93718 26.7685 5.98602L26.2936 7.35861C26.284 7.38984 26.2696 7.46752 26.2696 7.48994V8.41407C26.2696 8.42208 26.2696 8.43008 26.268 8.43809C26.2528 8.53739 26.1735 8.60706 26.0758 8.60706C26.071 8.60706 26.0622 8.60706 26.0574 8.60706L26.0542 8.60946ZM25.5369 8.01767C25.6594 8.05851 25.7579 8.09134 25.866 8.12818V7.48513C25.866 7.40986 25.8916 7.28894 25.9101 7.23048L26.3241 6.03407C26.2432 6.00444 26.1719 5.97882 26.0926 5.95079L25.9781 6.42326C25.9597 6.54739 25.8564 6.63948 25.7331 6.63948C25.7259 6.63948 25.7187 6.63948 25.7107 6.63868C25.6995 6.63788 25.6778 6.63468 25.6666 6.63147L25.6538 6.62747C25.5401 6.58903 25.484 6.48493 25.468 6.40084L25.3151 5.68492C25.2486 5.6633 25.1893 5.64408 25.1325 5.62566C25.2542 6.07171 25.3751 6.51696 25.496 6.96301C25.5265 7.06951 25.5377 7.13678 25.5377 7.21766V8.01847L25.5369 8.01767ZM9.43428 7.37782C9.32056 7.37782 9.23087 7.28894 9.23087 7.17522V5.40384C9.1588 5.41825 9.09394 5.43187 8.99944 5.45189C8.99143 5.45349 8.97862 5.45509 8.96981 5.45589C8.96741 5.45589 8.9626 5.45589 8.9602 5.45589C8.85049 5.45589 8.7576 5.3638 8.7576 5.25409V4.59823C8.7576 4.49893 8.82166 4.41805 8.91776 4.39723C9.4535 4.28351 9.99885 4.18181 10.5386 4.09612C10.5474 4.09452 10.5562 4.09372 10.5642 4.09372C10.5666 4.09372 10.5714 4.09372 10.5738 4.09372C10.6867 4.09372 10.7724 4.17861 10.7724 4.29072V4.93857C10.7724 5.04748 10.6931 5.13957 10.5842 5.15639C10.4665 5.17481 10.3944 5.18682 10.2959 5.20364V7.03908C10.2959 7.14319 10.2167 7.23528 10.111 7.2537C9.8555 7.29855 9.73058 7.32177 9.47352 7.37222C9.46631 7.37382 9.4511 7.37542 9.44389 7.37622H9.43348L9.43428 7.37782ZM9.3574 4.97701C9.51116 4.97701 9.63128 5.09633 9.63128 5.24848V6.93578C9.72017 6.91896 9.80105 6.90375 9.89634 6.88693V5.12516C9.89634 4.97621 10.0004 4.84968 10.1446 4.82566C10.2375 4.80964 10.3016 4.79923 10.372 4.78722V4.52936C9.96762 4.59663 9.56001 4.6727 9.1572 4.75679V5.01144C9.19884 5.00263 9.24369 4.99383 9.29814 4.98261C9.31256 4.97941 9.32697 4.97781 9.34139 4.97701C9.34379 4.97701 9.3534 4.97701 9.3558 4.97701H9.3574ZM21.3527 7.33859C21.3455 7.33859 21.3335 7.33698 21.3262 7.33538C20.8794 7.2497 20.4269 7.17442 19.9801 7.11036C19.8776 7.09514 19.8007 7.00385 19.8007 6.89814V4.23546C19.8007 4.12415 19.8944 4.03046 20.0049 4.03046C20.0081 4.03046 20.0129 4.03046 20.0161 4.03046C20.0209 4.03046 20.0289 4.03126 20.0329 4.03206C20.29 4.0697 20.4157 4.08891 20.6752 4.13216C20.7745 4.14898 20.8466 4.23466 20.8466 4.33716V6.1614C21.0388 6.19423 21.1637 6.21666 21.3839 6.2583C21.4832 6.27752 21.5561 6.3624 21.5561 6.4601V7.14479C21.5561 7.19764 21.5353 7.24729 21.4976 7.28333C21.4616 7.31857 21.4135 7.33778 21.3615 7.33778C21.3615 7.33778 21.3543 7.33778 21.3519 7.33778L21.3527 7.33859ZM20.2011 6.73798C20.519 6.78523 20.8386 6.83888 21.1557 6.89654V6.62186C20.9939 6.59143 20.873 6.57061 20.6728 6.53698C20.5439 6.51536 20.4462 6.39924 20.4462 6.26711V4.49973C20.3589 4.48531 20.2836 4.4741 20.2003 4.46129V6.73798H20.2011ZM14.2471 6.81085C14.1839 6.81085 14.1262 6.78363 14.0878 6.73718C14.0485 6.68913 14.0333 6.62347 14.0469 6.5578C14.2167 5.66891 14.3873 4.77841 14.5578 3.88711C14.5755 3.80303 14.6507 3.71414 14.7572 3.71174C15.0503 3.70453 15.2017 3.70293 15.4924 3.70293H15.5044C15.6077 3.70293 15.6942 3.7782 15.7118 3.88231C15.8864 4.76079 16.0601 5.63928 16.2339 6.51776C16.2475 6.59063 16.2307 6.6611 16.1875 6.71316C16.1474 6.7612 16.0882 6.78923 16.0249 6.78923C15.8271 6.78603 15.7094 6.78523 15.5476 6.78443H15.4059C15.3026 6.78443 15.2153 6.71316 15.1977 6.61546L15.1408 6.20545L15.0872 6.60985C15.072 6.71155 14.9839 6.78843 14.8822 6.79003C14.6315 6.79484 14.509 6.79884 14.2559 6.80845C14.2535 6.80845 14.2471 6.80845 14.2471 6.80845V6.81085ZM14.923 4.10894C14.7765 4.8729 14.6307 5.63687 14.4842 6.40164C14.5602 6.39924 14.6307 6.39684 14.7124 6.39524L14.7628 6.01645C14.7789 5.92356 14.8317 5.84829 14.9038 5.80664C14.8974 5.80024 14.891 5.79383 14.8854 5.78662C14.8349 5.72576 14.8149 5.64408 14.8293 5.564L14.8774 5.22125C14.9078 4.98261 15.0367 4.93056 15.1392 4.92976C15.2425 4.92976 15.3707 4.98021 15.4059 5.21885L15.4555 5.57361C15.4684 5.68012 15.4291 5.74899 15.3947 5.78823C15.3899 5.79383 15.3843 5.79944 15.3795 5.80424C15.4475 5.84268 15.4972 5.90835 15.514 5.98923C15.5148 5.99323 15.5164 6.00364 15.5164 6.00364L15.5693 6.38643C15.6493 6.38643 15.7198 6.38643 15.7983 6.38803C15.6477 5.62726 15.4972 4.8665 15.3466 4.10573C15.1937 4.10573 15.0744 4.10733 14.9222 4.11054L14.923 4.10894Z" fill="url(#paint0_linear_25_222)"/>
<path fill-rule="evenodd" clip-rule="evenodd" d="M15.5564 1.01382V1.00822C15.4627 1.00822 15.3691 1.00822 15.2754 1.00982C15.1817 1.00902 15.088 1.00822 14.9943 1.00822V1.01382C7.61084 1.15396 2.18538 3.81424 2.18538 3.81424C2.18538 3.81424 1.59359 12.358 4.64226 18.4626C7.95839 25.1021 15.2754 29.8036 15.2754 29.8036C15.2754 29.8036 22.4009 25.1021 25.9085 18.4626C29.1445 12.3372 28.3661 3.81424 28.3661 3.81424C28.3661 3.81424 22.9407 1.15476 15.5564 1.01382Z" fill="url(#paint1_linear_25_222)"/>
<path d="M5.7802 2.22544C3.28729 2.98781 2.24224 3.7758 2.17417 3.80863L1.95715 5.74098C2.006 5.71615 5.66328 3.90873 10.581 3.05267C10.5594 2.41923 10.5362 1.75296 10.5146 1.10912C8.6615 1.41743 7.03587 1.84105 5.7802 2.22544Z" fill="#1B6B36"/>
<path d="M25.3095 2.21663C24.0602 1.83625 22.4498 1.41743 20.6216 1.10912C20.5999 1.75376 20.5767 2.41923 20.5551 3.05347C22.3265 3.36579 23.8864 3.78701 25.0997 4.1698C27.5613 4.94578 29.1726 5.73617 29.1886 5.74418L28.5367 3.66128C28.4678 3.62845 27.824 2.983 25.3087 2.21663H25.3095Z" fill="#BB2025"/>
<path d="M15.86 0.651855H15.8415L15.1873 0.667071C13.5184 0.700705 11.9448 0.871276 10.5154 1.10912C10.537 1.75376 10.5602 2.41923 10.5818 3.05267C12.0121 2.80362 13.5665 2.62985 15.2105 2.59621L15.856 2.5802C17.5336 2.61623 19.1184 2.79962 20.5559 3.05347C20.5775 2.41923 20.6007 1.75376 20.6224 1.10912C19.1649 0.863268 17.5601 0.68629 15.8608 0.651855H15.86Z" fill="#E0E0E0"/>
<path opacity="0.52" fill-rule="evenodd" clip-rule="evenodd" d="M11.2906 7.97042C15.4107 4.90093 20.527 3.8775 24.3981 4.22505C23.7151 4.00803 19.7527 2.86849 15.4387 2.91013C10.2399 2.95978 3.42343 5.52316 3.42343 5.52316C3.42343 5.52316 3.21202 10.5578 4.69752 15.6181C4.75357 15.8095 4.86889 16.0257 5.00182 16.2604C5.11554 16.4614 5.41744 16.4237 5.4743 16.2003C5.78181 14.9911 7.3602 10.8982 11.2906 7.96962V7.97042Z" fill="url(#paint2_linear_25_222)"/>
<path d="M4.41563 8.79685C4.30672 8.79685 4.22183 8.70877 4.22183 8.59665V5.92677C4.22183 5.84108 4.27949 5.75699 4.35877 5.72736C4.60862 5.63447 4.73195 5.58963 4.985 5.50154C5.00902 5.49353 5.03305 5.48872 5.05627 5.48872C5.16038 5.48872 5.24206 5.57041 5.24206 5.67371V8.35161C5.24206 8.4453 5.1788 8.53579 5.09071 8.56622C4.84646 8.65191 4.72794 8.69435 4.4853 8.78484C4.46287 8.79285 4.43965 8.79766 4.41563 8.79766V8.79685ZM26.0726 8.61107C26.0494 8.61107 26.0254 8.60706 26.0022 8.59905C25.7195 8.49895 25.5801 8.45171 25.2918 8.35721C25.2062 8.32918 25.1525 8.2435 25.1405 8.17623C25.1389 8.16662 25.1381 8.15621 25.1381 8.1466V7.21126C25.1381 7.17522 25.1341 7.14399 25.1117 7.06391C24.9555 6.48813 24.7993 5.91475 24.6432 5.34138C24.628 5.29173 24.6376 5.23167 24.6712 5.18602C24.7048 5.14118 24.7561 5.11475 24.8122 5.11475C24.8282 5.11475 24.8514 5.11795 24.8666 5.12276C25.1373 5.20604 25.2686 5.24848 25.5393 5.33817C25.6106 5.3622 25.6634 5.42066 25.6842 5.49994L25.7331 5.72897L25.7539 5.64248C25.7539 5.64248 25.7555 5.63607 25.7563 5.63287C25.7843 5.54398 25.8572 5.48632 25.9429 5.48632C25.9645 5.48632 25.9853 5.49033 26.0062 5.49753C26.2616 5.58642 26.3865 5.63207 26.6428 5.72736C26.6941 5.74658 26.7365 5.78662 26.7597 5.83708C26.7821 5.88673 26.7845 5.94038 26.7661 5.98923L26.2912 7.36181C26.2816 7.39304 26.2672 7.47072 26.2672 7.49314V8.41727C26.2672 8.42528 26.2672 8.43329 26.2656 8.4413C26.2504 8.5414 26.1719 8.61027 26.0734 8.61027L26.0726 8.61107ZM9.43508 7.37863C9.32136 7.37863 9.23167 7.28974 9.23167 7.17602V5.40464C9.1596 5.41905 9.09474 5.43267 9.00024 5.45269C8.98903 5.45509 8.97221 5.45669 8.961 5.45669C8.90895 5.45669 8.8585 5.43587 8.81926 5.39743C8.78002 5.35899 8.7576 5.30694 8.7576 5.25489V4.59903C8.7576 4.49973 8.82166 4.41885 8.91776 4.39803C9.4535 4.28431 9.99885 4.18261 10.5386 4.09692C10.5506 4.09532 10.5626 4.09372 10.5746 4.09372C10.6883 4.09372 10.7732 4.17861 10.7732 4.29152V4.93937C10.7732 5.04828 10.6939 5.14037 10.585 5.15719C10.4673 5.17561 10.3952 5.18762 10.2967 5.20444V7.03989C10.2967 7.14399 10.2175 7.23608 10.1118 7.2545C9.8563 7.29935 9.73138 7.32257 9.47432 7.37302C9.4607 7.37542 9.44709 7.37703 9.43428 7.37703L9.43508 7.37863ZM21.3631 7.33939C21.3527 7.33939 21.3351 7.33779 21.3254 7.33618C20.8802 7.2513 20.4277 7.17522 19.9809 7.11116C19.8784 7.09594 19.8015 7.00465 19.8015 6.89894V4.23626C19.8015 4.12495 19.8952 4.03126 20.0057 4.03126C20.0137 4.03126 20.0265 4.03206 20.0337 4.03366C20.2908 4.0713 20.4173 4.09052 20.676 4.13376C20.7753 4.15058 20.8474 4.23626 20.8474 4.33877V6.163C21.0396 6.19584 21.1645 6.21826 21.3847 6.2599C21.484 6.27912 21.5569 6.36401 21.5569 6.4617V7.14639C21.5569 7.2553 21.472 7.34019 21.3631 7.34019V7.33939ZM14.2479 6.81246C14.1847 6.81246 14.127 6.78523 14.0886 6.73878C14.0493 6.69073 14.0341 6.62507 14.0477 6.5594C14.2175 5.67051 14.3881 4.78001 14.5586 3.88871C14.5763 3.80463 14.6515 3.71574 14.758 3.71334C15.0535 3.70613 15.2057 3.70453 15.4964 3.70453H15.5052C15.6085 3.70453 15.695 3.7798 15.7126 3.88391C15.8872 4.76239 16.0609 5.64088 16.2347 6.51936C16.2483 6.59224 16.2315 6.66271 16.1883 6.71476C16.1482 6.76281 16.089 6.79084 16.0257 6.79084C15.8287 6.78763 15.7118 6.78603 15.5516 6.78603H15.4075C15.3042 6.78603 15.2169 6.71476 15.1993 6.61706L15.1424 6.20785L15.0888 6.61226C15.0736 6.71396 14.9855 6.79084 14.8838 6.79244C14.6331 6.79724 14.5106 6.80125 14.2575 6.81086C14.2551 6.81086 14.2503 6.81086 14.2487 6.81086L14.2479 6.81246Z" fill="#171716"/>
<path d="M15.4748 30.4186C15.1881 30.4186 14.9014 30.3329 14.6563 30.16C13.7242 29.5057 11.8647 28.1211 9.87793 26.1928C7.40904 23.7968 5.53836 21.3431 4.31713 18.899C1.63283 13.5248 1.68008 6.38643 1.75856 4.32675C1.77617 3.86389 2.06206 3.44587 2.48649 3.26168C3.82944 2.6779 8.61185 0.796001 14.7508 0.597402C14.7508 0.597402 15.3859 0.581385 15.4804 0.582186C15.5749 0.581385 16.2099 0.597402 16.2099 0.597402C22.3577 0.796802 27.1417 2.6819 28.4847 3.26649C28.9067 3.44987 29.1854 3.84947 29.2118 4.30834C29.3303 6.36721 29.4953 13.5048 26.6404 18.9086C25.3535 21.3455 23.4596 23.7927 21.0131 26.1832C19.0399 28.1107 17.2165 29.4969 16.3052 30.1519C16.0569 30.3297 15.7655 30.4194 15.474 30.4194L15.4748 30.4186ZM15.4339 1.47188L15.2049 1.47589C9.02026 1.5936 4.17859 3.49712 2.84205 4.0777C2.72913 4.12655 2.65386 4.23706 2.64905 4.35959C2.57298 6.36641 2.52413 13.3158 5.11393 18.5002C7.87832 24.0346 13.508 28.2653 15.1681 29.4304C15.3538 29.561 15.6021 29.5594 15.7863 29.4272C17.4087 28.2612 22.9295 24.0282 25.854 18.4914C28.6016 13.291 28.439 6.3584 28.3237 4.35799C28.3165 4.23626 28.2428 4.13056 28.1307 4.08171C26.7942 3.50032 21.9509 1.5936 15.7574 1.47589L15.5284 1.47188C15.514 1.47188 15.4996 1.47188 15.4852 1.47188H15.4812H15.4772C15.4627 1.47188 15.4483 1.47188 15.4339 1.47188Z" fill="url(#paint3_linear_25_222)"/>
<path d="M4.42945 8.63429C4.40382 8.6439 4.3822 8.62628 4.3822 8.59665C4.3822 7.70696 4.3822 6.81646 4.3822 5.92676C4.3822 5.90835 4.39662 5.88432 4.41504 5.87792C4.66329 5.78502 4.78821 5.74018 5.03806 5.65289C5.06369 5.64408 5.08211 5.65289 5.08211 5.67451C5.08211 6.56741 5.08211 7.45951 5.08211 8.35241C5.08211 8.37483 5.06369 8.40686 5.03806 8.41567C4.79382 8.50055 4.67209 8.5446 4.42945 8.63509V8.63429ZM9.4441 7.21766C9.41767 7.22247 9.39124 7.20565 9.39124 7.17682C9.39124 6.53618 9.39124 5.89553 9.39124 5.25409C9.39124 5.22846 9.36882 5.21405 9.34239 5.21965C9.19184 5.25008 9.11657 5.2653 8.96682 5.29733C8.94439 5.30214 8.91797 5.27811 8.91797 5.25649C8.91797 4.99463 8.91797 4.86329 8.91797 4.60063C8.91797 4.57821 8.92918 4.56139 8.9516 4.55659C9.48734 4.44287 10.0247 4.34277 10.5636 4.25708C10.5901 4.25308 10.6125 4.26429 10.6125 4.29312C10.6125 4.55258 10.6125 4.68231 10.6125 4.94097C10.6125 4.9706 10.5901 4.99623 10.5596 5.00103C10.4083 5.02506 10.333 5.03787 10.1816 5.0635C10.1552 5.0683 10.136 5.08992 10.136 5.12276C10.136 5.7626 10.136 6.40164 10.136 7.04149C10.136 7.06711 10.1136 7.09354 10.0831 7.09834C9.82688 7.14319 9.69875 7.16721 9.4425 7.21766H9.4441ZM15.5046 3.86469C15.531 3.86469 15.5502 3.88711 15.5542 3.91274C15.7288 4.79202 15.9026 5.67211 16.0772 6.55139C16.0852 6.59223 16.066 6.63227 16.0235 6.63147C15.7761 6.62747 15.6527 6.62667 15.4053 6.62747C15.3821 6.62747 15.3597 6.61306 15.3556 6.59063C15.3252 6.36961 15.31 6.2591 15.2796 6.03888C15.2756 6.02046 15.2604 6.00925 15.2411 6.01005C15.1586 6.01005 15.1178 6.01085 15.0353 6.01245C15.0201 6.01245 15.0049 6.02767 15.0009 6.05009C14.9721 6.26711 14.9576 6.37602 14.9288 6.59304C14.9248 6.61866 14.8984 6.63388 14.8792 6.63468C14.6277 6.63948 14.5012 6.64349 14.2497 6.6539C14.2153 6.6555 14.1961 6.63067 14.2041 6.59304C14.3739 5.70254 14.5444 4.81124 14.715 3.92075C14.719 3.90233 14.7382 3.8759 14.7606 3.8751C15.0585 3.86789 15.2067 3.86629 15.5046 3.86629V3.86469ZM15.1691 5.25489C15.1619 5.20364 15.1538 5.17 15.1426 5.1708C15.1314 5.1708 15.1234 5.19643 15.1162 5.25569C15.0962 5.39583 15.0866 5.4663 15.0666 5.60644C15.0626 5.62486 15.0706 5.64328 15.0898 5.64328C15.2123 5.64168 15.2235 5.64168 15.2195 5.60884C15.1995 5.4679 15.1899 5.39663 15.1699 5.25569L15.1691 5.25489ZM21.3545 6.41606C21.3809 6.42086 21.3961 6.44248 21.3961 6.4609C21.3961 6.73478 21.3961 6.87172 21.3961 7.14559C21.3961 7.16801 21.3777 7.18243 21.3545 7.17842C20.9052 7.09274 20.4544 7.01666 20.0027 6.9526C19.9803 6.94939 19.9611 6.92457 19.9611 6.89894C19.9611 6.01165 19.9611 5.12356 19.9611 4.23626C19.9611 4.21384 19.9835 4.18821 20.0099 4.19222C20.2662 4.22906 20.3935 4.24908 20.649 4.29152C20.6714 4.29552 20.6866 4.31634 20.6866 4.33797C20.6866 4.98261 20.6866 5.62726 20.6866 6.27191C20.6866 6.28633 20.6978 6.29994 20.709 6.30154C20.9677 6.34479 21.0966 6.36801 21.3537 6.41686L21.3545 6.41606ZM24.7963 5.29893C24.7923 5.28692 24.8004 5.2709 24.8188 5.27651C25.087 5.35899 25.2208 5.40224 25.4882 5.49113C25.5067 5.49753 25.5211 5.51355 25.5283 5.54158C25.5988 5.86991 25.634 6.03407 25.7045 6.3632C25.7085 6.38322 25.7189 6.39764 25.7229 6.39924C25.7301 6.40164 25.7413 6.39444 25.7413 6.37602C25.8086 6.09814 25.8422 5.9596 25.9095 5.68252C25.9167 5.6593 25.9311 5.64248 25.9535 5.64969C26.2082 5.73858 26.3347 5.78422 26.5878 5.87872C26.6094 5.88672 26.6238 5.91395 26.6166 5.93397C26.458 6.39283 26.2987 6.8517 26.1401 7.31056C26.1257 7.357 26.1073 7.4539 26.1073 7.49394C26.1073 7.86391 26.1073 8.0489 26.1073 8.41807C26.1033 8.4429 26.0856 8.45811 26.056 8.4477C25.7709 8.3476 25.6284 8.29875 25.3417 8.20506C25.3193 8.19785 25.3017 8.16582 25.2977 8.1466C25.2977 7.77262 25.2977 7.58523 25.2977 7.21126C25.2977 7.156 25.2904 7.10956 25.2648 7.01986C25.1095 6.44569 24.9533 5.87231 24.7971 5.29973L24.7963 5.29893Z" fill="url(#paint4_linear_25_222)"/>
<path d="M15.4788 3.9449C15.6509 4.81377 15.8231 5.68185 15.9945 6.55072C15.8095 6.54752 15.6974 6.54672 15.5476 6.54672C15.5012 6.54672 15.478 6.54672 15.4307 6.54672C15.4187 6.46183 15.4131 6.41939 15.4011 6.33531C15.3843 6.21198 15.3755 6.15032 15.3586 6.0278C15.3586 6.02699 15.3586 6.02619 15.3586 6.02539C15.3586 6.02459 15.3586 6.02379 15.3586 6.02299C15.3474 5.96854 15.2994 5.9301 15.2417 5.9301C15.1592 5.9301 15.1176 5.9309 15.0351 5.9325C14.9799 5.9333 14.9326 5.97734 14.9222 6.03981C14.9102 6.1327 14.9038 6.17915 14.891 6.27124L14.8533 6.55393C14.6299 6.55873 14.5074 6.56193 14.2896 6.57074C14.4561 5.69786 14.6227 4.82579 14.7901 3.95371C15.0607 3.9473 15.2097 3.9457 15.4788 3.9457M14.9863 5.59456C14.9799 5.62819 14.9879 5.66183 15.0087 5.68665C15.0279 5.70988 15.0567 5.72349 15.088 5.72349C15.0888 5.72349 15.0896 5.72349 15.0912 5.72349C15.2033 5.72189 15.2409 5.72189 15.2746 5.68345C15.3034 5.65062 15.2986 5.61218 15.297 5.59696C15.277 5.45522 15.2673 5.38475 15.2473 5.24301C15.2385 5.18214 15.2249 5.09005 15.1408 5.09005C15.0551 5.09085 15.0431 5.18775 15.0351 5.24461C15.0247 5.31668 15.0199 5.35192 15.0095 5.42399C14.9999 5.49206 14.9951 5.52569 14.9855 5.59376M20.0393 4.27643C20.2596 4.30847 20.3837 4.32768 20.6055 4.36452C20.6055 5.12609 20.6055 5.50647 20.6055 6.26804C20.6055 6.32249 20.6464 6.37134 20.6984 6.38015C20.9483 6.42179 21.074 6.44502 21.3142 6.48986C21.3142 6.7301 21.3142 6.85022 21.3142 7.09047C20.8922 7.01038 20.4638 6.93911 20.0393 6.87745C20.0393 6.01018 20.0393 5.14371 20.0393 4.27643ZM10.5314 4.3421C10.5314 4.57513 10.5314 4.69205 10.5314 4.92509C10.3912 4.94751 10.316 4.96032 10.171 4.98515C10.1029 4.99716 10.0557 5.05562 10.0557 5.12689C10.0557 5.51047 10.0557 5.70267 10.0557 6.08625V7.0232C9.82106 7.06404 9.69614 7.08726 9.47031 7.13211V6.21198C9.47031 5.82759 9.47031 5.6354 9.47031 5.25101C9.47031 5.18535 9.41746 5.1357 9.34939 5.1397C9.34298 5.1397 9.33657 5.1405 9.32937 5.1421C9.19403 5.16933 9.11956 5.18455 8.99703 5.21017V4.62799C9.50394 4.52068 10.0205 4.42458 10.5322 4.3421M24.9002 5.38475C25.1012 5.44721 25.2294 5.48885 25.452 5.56253C25.5217 5.88605 25.5561 6.04782 25.625 6.37214C25.6322 6.40978 25.6562 6.46023 25.7018 6.47545C25.7067 6.47705 25.7091 6.47785 25.7139 6.47945C25.7179 6.47945 25.7195 6.47945 25.7235 6.48025C25.7739 6.48426 25.814 6.44822 25.8188 6.39537C25.8508 6.26403 25.8668 6.19837 25.898 6.06704C25.9293 5.9373 25.9453 5.87244 25.9765 5.74271C26.1895 5.81718 26.3121 5.86123 26.5251 5.94051C26.3945 6.31689 26.3297 6.50508 26.1991 6.88145C26.1439 7.04082 26.1159 7.1209 26.0606 7.28106C26.0438 7.33311 26.0246 7.43721 26.0246 7.48767C26.0246 7.83521 26.0246 8.00899 26.0246 8.35574C25.7755 8.26845 25.6362 8.2204 25.3751 8.13552V7.21859C25.3751 7.15293 25.3663 7.09927 25.3391 7.00558C25.1925 6.46584 25.046 5.92609 24.8986 5.38555M4.99941 5.74912C4.99941 6.18636 4.99941 6.40498 4.99941 6.84302C4.99941 7.44442 4.99941 7.74472 4.99941 8.34613C4.78319 8.4214 4.66467 8.46465 4.45967 8.54073C4.45967 7.93051 4.45967 7.6262 4.45967 7.01599C4.45967 6.58756 4.45967 6.37294 4.45967 5.94451C4.67268 5.86523 4.7928 5.82199 4.99941 5.74992M15.49 3.86642C15.2001 3.86642 15.0519 3.86802 14.758 3.87523C14.7348 3.87523 14.7164 3.90166 14.7124 3.92088C14.5418 4.81137 14.3712 5.70267 14.2015 6.59316C14.1943 6.6292 14.2119 6.65403 14.2455 6.65403H14.2471C14.4986 6.64362 14.6243 6.64041 14.8765 6.63481C14.8958 6.63481 14.9222 6.61959 14.9262 6.59316C14.955 6.37615 14.9694 6.26724 14.9983 6.05022C15.0023 6.0278 15.0175 6.01338 15.0327 6.01258C15.1152 6.01098 15.156 6.01098 15.2385 6.01018C15.2577 6.01018 15.2729 6.02139 15.2762 6.03901C15.3066 6.26003 15.3218 6.37054 15.3522 6.59076C15.3562 6.61319 15.3787 6.6276 15.4019 6.6276C15.4539 6.6276 15.5004 6.6276 15.5436 6.6276C15.7062 6.6276 15.8247 6.6284 16.0193 6.6324C16.0193 6.6324 16.0193 6.6324 16.0201 6.6324C16.0617 6.6324 16.0802 6.59236 16.073 6.55232C15.8992 5.67304 15.7246 4.79295 15.55 3.91367C15.546 3.88804 15.5268 3.86562 15.5004 3.86562H15.4884L15.49 3.86642ZM15.0856 5.64421C15.0663 5.64421 15.0591 5.62579 15.0631 5.60737C15.0832 5.46723 15.0928 5.39676 15.1128 5.25662C15.1208 5.19736 15.128 5.17173 15.1392 5.17173C15.1504 5.17173 15.1584 5.20457 15.1656 5.25582C15.1857 5.39676 15.1953 5.46803 15.2153 5.60897C15.2193 5.64181 15.2073 5.64181 15.0856 5.64341V5.64421ZM20.0033 4.19235C19.9785 4.19155 19.9577 4.21637 19.9577 4.23719C19.9577 5.12449 19.9577 6.01258 19.9577 6.89987C19.9577 6.9255 19.9769 6.95032 19.9993 6.95353C20.451 7.01839 20.9026 7.09367 21.3511 7.17935C21.3527 7.17935 21.3551 7.17935 21.3567 7.17935C21.3767 7.18016 21.3927 7.16654 21.3927 7.14572C21.3927 6.87185 21.3927 6.73491 21.3927 6.46103C21.3927 6.44261 21.3775 6.42099 21.3511 6.41619C21.0932 6.36734 20.9643 6.34411 20.7064 6.30087C20.6952 6.29927 20.684 6.28566 20.684 6.27124C20.684 5.62659 20.684 4.98194 20.684 4.33729C20.684 4.31487 20.6688 4.29405 20.6464 4.29085C20.3909 4.24841 20.2636 4.22838 20.0073 4.19155C20.0057 4.19155 20.0049 4.19155 20.0033 4.19155V4.19235ZM10.569 4.25641C10.569 4.25641 10.5634 4.25641 10.561 4.25721C10.0221 4.3429 9.48392 4.443 8.94898 4.55672C8.92656 4.56152 8.91535 4.57834 8.91535 4.60076C8.91535 4.86262 8.91535 4.99396 8.91535 5.25662C8.91535 5.27744 8.93857 5.29986 8.95939 5.29826C8.961 5.29826 8.9626 5.29826 8.9634 5.29826C9.11315 5.26623 9.18843 5.25101 9.33898 5.22058C9.34138 5.22058 9.34458 5.21978 9.34698 5.21978C9.36941 5.21898 9.38783 5.23179 9.38783 5.25502C9.38783 5.89566 9.38783 6.53631 9.38783 7.17775C9.38783 7.20498 9.40945 7.221 9.43347 7.2194C9.43587 7.2194 9.43828 7.2194 9.44068 7.21859C9.69614 7.16814 9.82426 7.14492 10.0813 7.09927C10.1118 7.09367 10.1342 7.06804 10.1342 7.04242C10.1342 6.40257 10.1342 5.76353 10.1342 5.12369C10.1342 5.09085 10.1534 5.06923 10.1798 5.06443C10.3312 5.0388 10.4065 5.02599 10.5578 5.00196C10.5882 4.99716 10.6107 4.97153 10.6107 4.9419C10.6107 4.68244 10.6107 4.55271 10.6107 4.29405C10.6107 4.26762 10.5922 4.25561 10.5698 4.25721L10.569 4.25641ZM24.8097 5.27664C24.7953 5.27584 24.7897 5.28945 24.7929 5.30066C24.9491 5.87404 25.1052 6.44742 25.2606 7.0208C25.2862 7.11049 25.2934 7.15693 25.2934 7.21219C25.2934 7.58616 25.2934 7.77355 25.2934 8.14753C25.2974 8.16675 25.3151 8.19878 25.3375 8.20599C25.6242 8.29968 25.7667 8.34853 26.0518 8.44863C26.0566 8.45023 26.0614 8.45103 26.0654 8.45184C26.087 8.45344 26.0998 8.43982 26.103 8.419C26.103 8.04903 26.103 7.86404 26.103 7.49487C26.103 7.45403 26.1215 7.35793 26.1359 7.31149C26.2944 6.85263 26.4538 6.39376 26.6124 5.9349C26.6196 5.91568 26.6052 5.88765 26.5835 5.87965C26.3305 5.78515 26.204 5.73951 25.9493 5.65062C25.9469 5.64982 25.9437 5.64901 25.9413 5.64901C25.9237 5.64741 25.9117 5.66263 25.9052 5.68345C25.838 5.96053 25.8044 6.09907 25.7371 6.37695C25.7371 6.39376 25.7283 6.40097 25.7211 6.40097C25.7211 6.40097 25.7195 6.40097 25.7187 6.40097C25.7147 6.39937 25.7042 6.38496 25.7002 6.36494C25.6298 6.0358 25.5945 5.87164 25.5241 5.54331C25.5169 5.51528 25.5016 5.49926 25.484 5.49286C25.2174 5.40397 25.0828 5.36153 24.8146 5.27824C24.813 5.27824 24.8105 5.27744 24.8089 5.27744L24.8097 5.27664ZM5.04906 5.65062C5.04425 5.65062 5.03945 5.65222 5.03464 5.65382C4.78479 5.74111 4.65987 5.78595 4.41162 5.87885C4.3932 5.88525 4.37878 5.90928 4.37878 5.92769C4.37878 6.81739 4.37878 7.70789 4.37878 8.59758C4.37878 8.62321 4.3948 8.63922 4.41562 8.63762C4.41882 8.63762 4.42203 8.63682 4.42603 8.63522C4.66868 8.54473 4.7904 8.50149 5.03464 8.4158C5.06027 8.40699 5.07869 8.37496 5.07869 8.35254C5.07869 7.45964 5.07869 6.56754 5.07869 5.67464C5.07869 5.65702 5.06748 5.64821 5.04986 5.64982L5.04906 5.65062Z" fill="url(#paint5_linear_25_222)"/>
<path d="M15.5276 1.63204L15.7542 1.63605C21.9181 1.75296 26.7365 3.65007 28.0666 4.22906C28.1227 4.25388 28.1603 4.30673 28.1635 4.3676C28.2781 6.3576 28.4398 13.2525 25.7123 18.4169C22.8037 23.9225 17.3078 28.1371 15.6926 29.2975C15.6285 29.3431 15.5532 29.3672 15.4748 29.3672C15.3963 29.3672 15.3234 29.3439 15.2602 29.2991C13.6081 28.1395 8.00485 23.9297 5.25728 18.4289C2.68509 13.2782 2.73314 6.3632 2.80922 4.36599C2.81162 4.30433 2.84926 4.24908 2.90612 4.22425C4.23626 3.64687 9.0531 1.75216 15.2089 1.63525L15.4355 1.63124H15.4628H15.4764H15.4836H15.4876H15.5012H15.5284M15.5292 1.47108C15.5148 1.47108 15.5004 1.47108 15.486 1.47108H15.482H15.478C15.4636 1.47108 15.4491 1.47108 15.4347 1.47108L15.2057 1.47508C9.02107 1.5928 4.1794 3.49632 2.84285 4.0769C2.72994 4.12575 2.65466 4.23626 2.64986 4.35879C2.57378 6.36561 2.52493 13.315 5.11474 18.4994C7.87912 24.0338 13.5088 28.2644 15.1689 29.4296C15.261 29.4945 15.3683 29.5265 15.4756 29.5265C15.5829 29.5265 15.6942 29.4929 15.7871 29.4264C17.4095 28.2604 22.9303 24.0274 25.8548 18.4906C28.6024 13.2902 28.4398 6.3576 28.3245 4.35719C28.3173 4.23546 28.2436 4.12976 28.1315 4.08091C26.795 3.49952 21.9517 1.5928 15.7583 1.47508L15.5292 1.47108Z" fill="#2D2D2D"/>
<path d="M15.4748 30.1383C15.2377 30.1383 15.0103 30.0663 14.8173 29.9309C13.8924 29.2815 12.0457 27.9065 10.0725 25.9918C7.62605 23.6182 5.77379 21.1893 4.56778 18.7741C1.91311 13.4591 1.96115 6.38002 2.03883 4.33716C2.05245 3.98161 2.27187 3.65968 2.5986 3.51794C3.90951 2.94857 8.6615 1.07468 14.7604 0.876882C14.7909 0.876082 14.8197 0.870476 14.8469 0.860065H15.1961C15.2906 0.860065 15.3843 0.860065 15.478 0.861667C15.5773 0.860866 15.671 0.860065 15.7646 0.860065H16.1146C16.1418 0.869675 16.1707 0.876082 16.2011 0.876882C22.3072 1.07468 27.0616 2.95177 28.3733 3.52275C28.6977 3.66369 28.9123 3.9712 28.9323 4.32355C29.05 6.364 29.2142 13.4367 26.3929 18.7773C25.1197 21.1877 23.2434 23.6118 20.8169 25.9822C18.8574 27.8969 17.0467 29.2735 16.1418 29.9237C15.9464 30.0639 15.7158 30.1383 15.474 30.1383H15.4748ZM15.2001 1.1964C8.9642 1.31492 4.07929 3.23606 2.73073 3.82145C2.52012 3.91354 2.37837 4.12095 2.36956 4.34998C2.29269 6.37361 2.24464 13.3823 4.86408 18.6267C7.65729 24.2196 13.3342 28.4863 15.0079 29.6611C15.1456 29.758 15.3074 29.8084 15.4756 29.8084C15.6437 29.8084 15.8111 29.7555 15.9504 29.6554C17.5849 28.4807 23.1489 24.214 26.1023 18.6227C28.8835 13.3574 28.7201 6.3616 28.604 4.34197C28.5912 4.11454 28.4526 3.91594 28.2428 3.82465C26.8942 3.23766 22.0085 1.31412 15.763 1.1956L15.534 1.1916H15.4828H15.4347C15.4331 1.1916 15.2009 1.1956 15.2009 1.1956L15.2001 1.1964Z" fill="url(#paint6_linear_25_222)"/>
<path d="M26.244 14.9006C26.244 14.9006 25.9982 15.4596 24.8971 15.4748C24.3125 15.4828 23.7527 15.0383 23.1489 14.4714C23.8424 14.513 24.3365 14.3368 24.5359 14.2832C24.214 14.296 23.1241 14.3024 22.7044 13.9548C22.4962 13.7827 22.296 13.6257 22.1022 13.4808C21.3335 12.7929 20.9739 11.6269 18.8846 12.0914C16.7953 12.5558 16.6872 15.2201 16.4494 15.4083C16.2115 15.5965 16.2812 15.9448 16.2812 15.9537C16.0153 16.0578 15.5348 15.9144 14.9558 15.7815C14.6756 15.5444 14.3456 15.3835 13.9861 15.3218C13.8619 15.2129 13.7338 15.0776 13.6161 14.9142C13.5985 14.8894 13.6449 14.7821 13.6281 14.7565C13.5336 14.6155 13.3847 14.5378 13.3166 14.3585C13.3086 14.3368 13.1204 13.8387 13.0523 13.6674C12.9747 13.4712 12.7576 12.5462 12.7264 12.2972C12.6271 11.5212 12.4253 11.1016 12.0882 10.8573C11.751 10.6131 11.5228 10.5306 11.5196 10.5202C11.5004 10.4545 12.0906 10.5106 12.1594 10.517C12.2107 10.5218 12.298 10.5498 12.4253 10.5338C12.7544 10.493 12.7704 10.5002 12.9314 10.3889C13.5905 9.93159 13.5112 9.17403 13.2886 9.12839C13.1989 9.10997 12.9915 9.40386 12.8193 9.55041C12.7881 9.57684 12.7424 9.54561 12.7552 9.50637C12.8281 9.29495 12.929 8.93539 12.7168 9.03069C12.4862 9.13399 12.3068 9.40867 12.1883 9.61688C12.1338 9.71297 11.9376 9.78585 11.9064 9.72178C11.8191 9.5424 12.4317 9.01627 12.2988 8.95621C12.2083 8.91537 11.755 9.20847 11.562 9.60246C11.4892 9.75221 11.4211 9.66172 11.4411 9.62168C11.4611 9.58084 11.6069 8.95862 11.5292 8.97543C11.0247 9.08194 11.0447 9.77624 10.9486 9.81227C10.9294 9.81948 10.8942 9.82749 10.8797 9.70417C10.8621 9.55522 10.9879 9.2397 10.8085 9.3398C10.5594 9.47834 10.6475 9.83229 10.6067 9.938C10.4393 10.372 10.4537 9.67854 10.2904 9.78985C10.0637 9.94521 9.80506 10.8373 10.2615 11.2121L10.2567 11.2273C10.2567 11.2273 9.69055 11.4163 9.61527 11.5428C9.54 11.6693 9.6441 11.6357 9.6441 11.6357C9.72819 11.6413 10.3744 11.6798 10.4209 11.7558C10.3688 12.5751 9.7466 12.6151 9.89555 13.1572C9.96362 13.2301 10.0365 13.2469 10.1054 13.2357C10.147 13.3086 10.2087 13.3687 10.2815 13.4071C10.1558 14.1158 9.80747 14.8606 9.57924 15.2978C9.53759 15.3771 9.67533 15.4427 9.78664 15.3707C9.71537 15.7823 9.46312 15.9256 9.43589 16.2219C9.39745 16.6415 9.343 16.8858 9.38864 17.2494C9.43429 17.6129 9.6425 18.6556 10.0669 19.309C10.569 20.0826 11.8423 20.4446 12.0137 20.6752C12.4926 21.3175 13.492 21.8172 13.5224 21.8916L13.8988 22.2744C13.8988 22.5403 13.7042 23.4172 13.7042 23.4172C13.6641 23.5813 13.568 23.8448 13.568 23.8448C13.568 23.8448 13.4928 23.88 13.3654 23.8977C13.2525 23.9137 13.0635 23.9073 12.9771 23.9041C12.8898 23.9009 12.8025 23.9105 12.7296 23.9409C12.6768 23.9625 12.5927 24.0562 12.5558 24.0995C12.4565 24.1011 12.3388 24.1155 12.302 24.1443C12.2467 24.1867 12.0553 24.2844 12.0385 24.3477C12.0217 24.4118 12.0353 24.4782 12.0353 24.4782C12.0353 24.4782 12.0954 24.4782 12.117 24.4446C12.1386 24.411 12.2451 24.3629 12.2747 24.3717C12.3044 24.3805 12.3484 24.411 12.3909 24.411C12.4333 24.411 12.6503 24.3037 12.957 24.3037C13.2637 24.3037 13.4159 24.2892 13.4079 24.2949C13.2878 24.3749 13.0371 24.246 12.9747 24.463C12.945 24.5647 12.9835 24.5751 12.9843 24.6504C12.9851 24.7265 13.0467 24.5743 13.0772 24.5383C13.1084 24.5015 13.4423 24.4734 13.5648 24.4542C13.6794 24.4366 13.6874 24.4542 13.7458 24.3877C13.7458 24.3877 13.8668 24.3133 13.9268 24.3069C13.9869 24.3005 13.9356 24.21 13.9628 24.1883C13.9901 24.1667 14.1406 24.1771 14.1518 24.2108C14.163 24.2444 14.2207 24.2324 14.2247 24.1835C14.2287 24.1347 14.1606 24.0906 14.1142 24.033C14.0678 23.9753 14.0021 23.9865 13.9636 23.9481C13.874 23.8608 14.0045 23.7575 13.9741 23.7191C13.9356 23.6702 13.9869 23.5085 13.9933 23.4844C13.9997 23.4604 14.1502 22.9311 14.2159 22.678C14.2343 22.6084 14.2912 22.4474 14.3488 22.288L14.4201 22.2168C14.4337 22.212 14.4521 22.2104 14.4722 22.2096C14.6203 22.4562 14.7837 22.662 14.9262 22.7317C15.1697 22.8502 15.1633 22.7717 15.1633 22.7717L15.3603 22.7773C15.5597 23.3275 15.5068 23.8304 15.5068 23.8304C15.5565 23.9897 15.5765 24.278 15.5765 24.278C15.5765 24.278 15.474 24.2997 15.3619 24.3237C15.2497 24.3477 15.1072 24.3021 15.0199 24.2997C14.9326 24.2965 14.8453 24.3061 14.7725 24.3365C14.6996 24.3669 14.5659 24.5367 14.5811 24.5223C14.5963 24.5071 14.7508 24.4678 14.7957 24.4678C14.8405 24.4678 14.8942 24.5015 14.9302 24.4798C14.9671 24.4582 14.9374 24.5407 15.0968 24.5343C15.2289 24.5295 15.3146 24.5495 15.3066 24.5527C15.1977 24.592 14.7781 24.656 14.6916 24.6408C14.6051 24.6256 14.3977 24.632 14.3424 24.6744C14.2872 24.7169 14.0958 24.8146 14.079 24.8778C14.0621 24.9419 14.0758 25.0084 14.0758 25.0084C14.0758 25.0084 14.1358 25.0084 14.1574 24.9747C14.1791 24.9411 14.2856 24.8931 14.3152 24.9019C14.3448 24.9107 14.3889 24.9411 14.4313 24.9411C14.4738 24.9411 14.746 24.8618 15.0519 24.8618C15.3579 24.8618 15.2329 24.825 15.4107 24.8074C15.5885 24.7889 15.2313 25.1109 15.2105 25.215C15.1897 25.3183 15.2105 25.3031 15.2121 25.3791C15.2129 25.4552 15.2746 25.3031 15.305 25.267C15.3362 25.2302 15.5645 25.2182 15.6181 25.1365C15.671 25.0548 15.7198 24.9267 15.7783 24.8602C15.7783 24.8602 15.912 24.7962 15.9721 24.7906C16.0321 24.7841 15.9809 24.6937 16.0081 24.672C16.0353 24.6504 16.1795 24.7721 16.1907 24.8058C16.2019 24.8394 16.2596 24.8274 16.2636 24.7785C16.2676 24.7297 16.2059 24.5751 16.1595 24.5175C16.113 24.4598 16.0465 24.4718 16.0089 24.4326C15.9713 24.3934 15.9128 24.0698 15.8584 24.0018C15.8039 23.9345 16.0914 23.9953 16.105 23.9729C16.1482 23.9001 15.944 23.7647 15.9264 23.7255C15.892 23.6486 15.8503 23.2562 15.7991 22.9903C15.7687 22.831 15.9753 22.7133 15.9753 22.7133C15.9753 22.7133 15.9697 22.3641 16.0329 22.2392C16.0786 22.1479 15.3835 21.2694 15.7286 21.0396C15.8399 21.0452 15.9601 21.0444 16.0842 21.0356C16.6584 20.9923 17.5256 20.487 17.4824 20.29C17.4744 20.2532 17.4504 20.222 17.4135 20.1955C17.862 20.053 18.1783 19.8312 18.1415 19.6686C18.1326 19.6278 18.1014 19.5949 18.0534 19.5693C18.3857 19.265 18.6219 18.9519 18.6259 18.6444C18.6267 18.5731 18.6147 18.433 18.6139 18.3681C18.9527 18.1158 18.9903 18.4273 19.3098 18.0109C19.3515 18.2784 19.3963 18.5787 19.4324 18.8197C19.08 19.2169 18.7405 19.2498 18.7405 19.2498C18.7405 19.2498 19.0704 19.2922 19.4748 19.104C19.4796 19.1369 19.4844 19.1673 19.4884 19.1913C19.4924 19.2185 19.5292 19.2217 19.5397 19.1961C19.5557 19.1561 19.5757 19.1032 19.5941 19.0416C19.7511 18.9527 19.9152 18.8269 20.0722 18.65C20.0882 18.71 20.1026 18.7501 20.1146 18.7629C20.1723 18.8261 20.1891 18.7124 20.2051 18.485C20.2484 18.4265 20.2908 18.3633 20.3317 18.2952C20.3557 18.3024 20.3533 18.3016 20.3773 18.3088C20.3773 18.4289 20.3677 18.5531 20.3461 18.6844C20.1291 20.0049 19.4243 20.226 19.4243 20.226C19.4243 20.226 20.3765 20.1619 20.8306 18.8998C20.8354 18.8998 20.8354 18.8998 20.8402 18.8998C20.8762 19.048 20.8986 19.2081 20.9058 19.3819C20.9587 20.7617 20.3084 21.1293 20.3084 21.1293C20.3084 21.1293 21.3207 20.8466 21.448 19.3074C22.055 19.5525 22.5427 19.3427 22.5427 19.3427C22.5427 19.3427 22.027 19.4388 21.4584 18.847C21.4552 18.7453 21.4504 18.6412 21.44 18.5306C21.4127 18.236 21.279 17.9493 21.0956 17.6674C21.0604 17.6049 21.026 17.5417 20.9923 17.4792C20.9675 17.3767 20.9347 17.2726 20.8946 17.1685C20.9691 17.3102 21.0708 17.4263 21.1573 17.5497C22.3313 19.2169 23.7719 18.7196 23.7719 18.7196C23.7719 18.7196 23.2274 18.7933 22.1703 17.7547C22.0398 17.6265 21.9309 17.4952 21.8364 17.3615C22.236 17.5657 22.5659 17.5961 22.6364 17.5024C21.9461 17.1605 21.689 16.4526 21.251 15.6982C21.2286 15.5621 21.2061 15.4259 21.1829 15.2882C21.9733 16.25 22.3441 17.2085 23.3139 17.6634C24.9659 18.4378 25.597 17.3062 25.597 17.3062C25.597 17.3062 25.1966 17.673 24.0842 17.2966C23.6342 17.1445 23.277 16.7937 22.9399 16.3444C23.2114 16.4341 23.4972 16.4998 23.7791 16.5334C22.6508 15.9593 22.4378 15.1328 21.6602 14.4241C21.6121 14.3585 21.5641 14.292 21.5144 14.2271C22.5627 14.9502 23.1913 16.0826 24.3445 16.1515C26.0326 16.2516 26.2392 14.8982 26.2392 14.8982L26.244 14.9006ZM12.6735 24.1067C12.6543 24.1035 12.6287 24.1011 12.5999 24.1003C12.6527 24.0858 12.7256 24.0722 12.7536 24.0722C12.7985 24.0722 12.8521 24.1059 12.8882 24.0842C12.925 24.0626 12.8922 24.0602 13.0507 24.0538C13.1829 24.049 13.2726 24.069 13.2645 24.0706C13.15 24.0971 12.7592 24.1211 12.6727 24.1059L12.6735 24.1067ZM19.8984 18.0061C19.8288 18.1959 19.7519 18.3561 19.6718 18.493C19.6918 18.1631 19.6942 17.8099 19.663 17.4632C19.7014 17.3895 19.7367 17.3166 19.7679 17.243C19.7767 17.2526 19.7847 17.2622 19.7927 17.2718C19.8352 17.4672 19.8808 17.7026 19.924 17.9284C19.916 17.9541 19.908 17.9797 19.8984 18.0061Z" fill="url(#paint7_linear_25_222)"/>
<path d="M26.1263 14.6275C26.1263 14.6275 25.8804 15.1865 24.7793 15.2017C24.1948 15.2097 23.635 14.7653 23.0312 14.1983C23.7247 14.2399 24.2188 14.0638 24.4182 14.0101C24.0963 14.0229 23.0064 14.0293 22.5867 13.6818C22.3785 13.5096 22.1783 13.3526 21.9845 13.2077C21.2158 12.5198 20.8562 11.3538 18.7669 11.8183C16.6776 12.2828 16.5695 14.947 16.3316 15.1352C16.0938 15.3234 16.1635 15.6718 16.1635 15.6806C15.8976 15.7847 15.4171 15.6413 14.8381 15.5084C14.5579 15.2714 14.2279 15.1104 13.8684 15.0487C13.7442 14.9398 13.6161 14.8045 13.4984 14.6411C13.4808 14.6163 13.5272 14.509 13.5104 14.4834C13.4159 14.3424 13.267 14.2648 13.1989 14.0854C13.1909 14.0638 13.0027 13.5657 12.9346 13.3943C12.8569 13.1981 12.6399 12.2732 12.6087 12.0241C12.5094 11.2481 12.3076 10.8285 11.9704 10.5843C11.6333 10.34 11.4051 10.2575 11.4019 10.2471C11.3827 10.1814 11.9728 10.2375 12.0417 10.2439C12.093 10.2487 12.2203 10.2623 12.3476 10.2463C12.6768 10.2055 12.7977 10.1414 12.8842 10.0805C13.1628 9.88595 13.2085 9.41908 13.0788 9.13399C12.9907 9.16282 12.8738 9.19085 12.7016 9.27814C12.6647 9.29656 12.6247 9.27333 12.6375 9.23409C12.7104 9.02268 12.8113 8.66312 12.5991 8.75842C12.3684 8.86172 12.2507 8.97623 12.097 9.19005C12.0329 9.27974 11.936 9.38865 11.7887 9.44871C11.8567 9.35742 12.298 8.97543 12.1811 8.68314C11.7863 8.71277 11.5997 8.96182 11.3218 9.45432C11.2401 9.59926 11.2922 9.48875 11.4155 9.18124C11.5388 8.87373 11.4908 8.68554 11.4123 8.70156C10.9078 8.80807 10.9278 9.50236 10.8317 9.5384C10.8125 9.54561 10.7772 9.55362 10.7628 9.43029C10.7772 9.29976 10.7949 9.18605 10.6916 9.06592C10.4041 9.26533 10.4825 9.51197 10.4417 9.61768C10.2743 10.0517 10.3208 9.60006 10.1734 9.51598C9.92038 9.66653 9.68815 10.5634 10.1446 10.9382L10.1398 10.9534C10.1398 10.9534 9.57363 11.1424 9.49836 11.2689C9.42308 11.3955 9.52719 11.3618 9.52719 11.3618C9.61127 11.3674 10.2575 11.4059 10.304 11.482C10.2519 12.3012 9.62969 12.3412 9.77864 12.8834C9.84671 12.9562 9.91958 12.9731 9.98845 12.9618C10.0301 13.0347 10.0918 13.0948 10.1646 13.1332C10.0389 13.8419 9.69055 14.5867 9.46232 15.0239C9.42068 15.1032 9.55842 15.1689 9.66973 15.0968C9.59846 15.5084 9.34621 15.6518 9.31898 15.9481C9.28054 16.3677 9.22608 16.6119 9.27173 16.9755C9.31738 17.3391 9.52559 18.3817 9.95001 19.0352C10.4521 19.8087 11.7254 20.1707 11.8968 20.4013C12.3757 21.0436 13.3751 21.5433 13.4055 21.6178L13.7819 22.0005C13.7819 22.2664 13.5873 23.1433 13.5873 23.1433C13.5472 23.3075 13.4511 23.5709 13.4511 23.5709C13.4511 23.5709 13.3759 23.6062 13.2485 23.6238C13.1356 23.6398 12.9466 23.6334 12.8601 23.6302C12.7729 23.627 12.6856 23.6366 12.6127 23.667C12.5598 23.6886 12.4758 23.7823 12.4389 23.8256C12.3396 23.8272 12.2219 23.8416 12.1851 23.8704C12.1298 23.9129 11.9384 24.0106 11.9216 24.0738C11.9048 24.1379 11.9184 24.2044 11.9184 24.2044C11.9184 24.2044 11.9785 24.2044 12.0001 24.1707C12.0217 24.1371 12.1282 24.089 12.1578 24.0979C12.1875 24.1067 12.2315 24.1371 12.274 24.1371C12.3164 24.1371 12.5334 24.0298 12.8401 24.0298C13.1468 24.0298 13.299 24.0154 13.291 24.021C13.1709 24.1011 12.9202 23.9721 12.8577 24.1891C12.8281 24.2908 12.8665 24.3013 12.8673 24.3765C12.8682 24.4526 12.9298 24.3005 12.9602 24.2644C12.9915 24.2276 13.3254 24.1996 13.4479 24.1803C13.5624 24.1627 13.5705 24.1803 13.6289 24.1139C13.6289 24.1139 13.7498 24.0394 13.8099 24.033C13.87 24.0266 13.8187 23.9361 13.8459 23.9145C13.8732 23.8928 14.0237 23.9033 14.0349 23.9369C14.0461 23.9705 14.1038 23.9585 14.1078 23.9097C14.1118 23.8608 14.0437 23.8168 13.9973 23.7591C13.9508 23.7015 13.8852 23.7127 13.8467 23.6742C13.757 23.5869 13.8876 23.4836 13.8571 23.4452C13.8187 23.3963 13.87 23.2346 13.8764 23.2106C13.8828 23.1865 14.0333 22.6572 14.099 22.4041C14.1174 22.3345 14.1743 22.1735 14.2319 22.0142L14.3032 21.9429C14.3168 21.9381 14.3352 21.9365 14.3552 21.9357C14.5034 22.1823 14.6668 22.3881 14.8093 22.4578C15.0527 22.5763 15.0463 22.4978 15.0463 22.4978L15.2433 22.5035C15.4427 23.0536 15.3899 23.5565 15.3899 23.5565C15.4395 23.7159 15.4596 24.0042 15.4596 24.0042C15.4596 24.0042 15.3571 24.0258 15.2449 24.0498C15.1328 24.0738 14.9903 24.0282 14.903 24.0258C14.8157 24.0226 14.7284 24.0322 14.6555 24.0626C14.5827 24.0931 14.4489 24.2628 14.4642 24.2484C14.4794 24.2332 14.6339 24.194 14.6788 24.194C14.7236 24.194 14.7773 24.2276 14.8133 24.206C14.8501 24.1843 14.8205 24.2668 14.9799 24.2604C15.112 24.2556 15.1977 24.2756 15.1897 24.2788C15.0808 24.3181 14.6612 24.3821 14.5747 24.3669C14.4882 24.3517 14.2808 24.3581 14.2255 24.4006C14.1703 24.443 13.9789 24.5407 13.9621 24.604C13.9452 24.668 13.9588 24.7345 13.9588 24.7345C13.9588 24.7345 14.0189 24.7345 14.0405 24.7009C14.0622 24.6672 14.1687 24.6192 14.1983 24.628C14.2279 24.6368 14.272 24.6672 14.3144 24.6672C14.3568 24.6672 14.6291 24.5879 14.935 24.5879C15.2409 24.5879 15.116 24.5511 15.2938 24.5335C15.4716 24.5151 15.1144 24.837 15.0936 24.9411C15.0728 25.0444 15.0936 25.0292 15.0952 25.1053C15.096 25.1813 15.1577 25.0292 15.1881 24.9932C15.2193 24.9563 15.4475 24.9443 15.5012 24.8626C15.5541 24.7809 15.6029 24.6528 15.6614 24.5863C15.6614 24.5863 15.7951 24.5223 15.8552 24.5167C15.9152 24.5103 15.864 24.4198 15.8912 24.3982C15.9184 24.3765 16.0626 24.4983 16.0738 24.5319C16.085 24.5655 16.1426 24.5535 16.1467 24.5047C16.1507 24.4558 16.089 24.3013 16.0425 24.2436C15.9961 24.1859 15.9296 24.198 15.892 24.1587C15.8544 24.1195 15.7959 23.7959 15.7414 23.7279C15.687 23.6606 15.9745 23.7215 15.9881 23.6991C16.0313 23.6262 15.8271 23.4908 15.8095 23.4516C15.7751 23.3747 15.7334 22.9823 15.6822 22.7165C15.6518 22.5571 15.8584 22.4394 15.8584 22.4394C15.8584 22.4394 15.8528 22.0902 15.916 21.9653C15.9617 21.874 15.2666 20.9955 15.6117 20.7657C15.723 20.7713 15.8431 20.7705 15.9673 20.7617C16.5414 20.7185 17.4087 20.2131 17.3655 20.0161C17.3575 19.9793 17.3334 19.9481 17.2966 19.9217C17.7451 19.7791 18.0614 19.5573 18.0245 19.3947C18.0157 19.3539 17.9845 19.321 17.9365 19.2954C18.2688 18.9911 18.505 18.678 18.509 18.3705C18.5098 18.2992 18.4978 18.1591 18.497 18.0942C18.8358 17.842 18.8734 18.1535 19.1929 17.7371C19.2346 18.0045 19.2794 18.3048 19.3154 18.5459C18.9631 18.9431 18.6235 18.9759 18.6235 18.9759C18.6235 18.9759 18.9535 19.0183 19.3579 18.8302C19.3627 18.863 19.3675 18.8934 19.3715 18.9174C19.3755 18.9447 19.4123 18.9479 19.4227 18.9222C19.4388 18.8822 19.4588 18.8294 19.4772 18.7677C19.6342 18.6788 19.7983 18.5531 19.9553 18.3761C19.9713 18.4362 19.9857 18.4762 19.9977 18.489C20.0554 18.5523 20.0722 18.4386 20.0882 18.2111C20.1315 18.1527 20.1739 18.0894 20.2147 18.0213C20.2388 18.0285 20.2364 18.0277 20.2604 18.035C20.2604 18.1551 20.2508 18.2792 20.2292 18.4105C20.0121 19.7311 19.3074 19.9521 19.3074 19.9521C19.3074 19.9521 20.2596 19.888 20.7136 18.6259C20.7185 18.6259 20.7185 18.6259 20.7233 18.6259C20.7593 18.7741 20.7817 18.9343 20.7889 19.108C20.8418 20.4878 20.1915 20.8554 20.1915 20.8554C20.1915 20.8554 21.2037 20.5727 21.3311 19.0336C21.9381 19.2786 22.4258 19.0688 22.4258 19.0688C22.4258 19.0688 21.9101 19.1649 21.3415 18.5731C21.3383 18.4714 21.3335 18.3673 21.3231 18.2568C21.2958 17.9621 21.1621 17.6754 20.9787 17.3935C20.9435 17.331 20.909 17.2678 20.8754 17.2053C20.8506 17.1028 20.8178 16.9987 20.7777 16.8946C20.8522 17.0363 20.9539 17.1525 21.0404 17.2758C22.2144 18.9431 23.655 18.4458 23.655 18.4458C23.655 18.4458 23.1105 18.5194 22.0534 17.4808C21.9229 17.3527 21.814 17.2213 21.7195 17.0876C22.1191 17.2918 22.449 17.3222 22.5195 17.2285C21.8292 16.8866 21.5721 16.1787 21.1341 15.4243C21.1116 15.2882 21.0892 15.1521 21.066 15.0143C21.8564 15.9761 22.2272 16.9346 23.1969 17.3895C24.849 18.1639 25.48 17.0323 25.48 17.0323C25.48 17.0323 25.0796 17.3991 23.9673 17.0227C23.5173 16.8706 23.1601 16.5198 22.823 16.0706C23.0944 16.1603 23.3803 16.2259 23.6622 16.2596C22.5339 15.6854 22.3209 14.859 21.5433 14.1502C21.4952 14.0846 21.4472 14.0181 21.3975 13.9532C22.4458 14.6764 23.0744 15.8087 24.2276 15.8776C25.9157 15.9777 26.1223 14.6243 26.1223 14.6243L26.1263 14.6275ZM12.5558 23.8336C12.5366 23.8304 12.511 23.828 12.4822 23.8272C12.535 23.8128 12.6079 23.7992 12.6359 23.7992C12.6808 23.7992 12.7344 23.8328 12.7705 23.8112C12.8073 23.7895 12.7745 23.7871 12.933 23.7807C13.0651 23.7759 13.1548 23.796 13.1468 23.7976C13.0323 23.824 12.6415 23.848 12.555 23.8328L12.5558 23.8336ZM19.7807 17.733C19.711 17.9228 19.6342 18.083 19.5541 18.2199C19.5741 17.89 19.5765 17.5369 19.5453 17.1901C19.5837 17.1164 19.6189 17.0436 19.6502 16.9699C19.659 16.9795 19.667 16.9891 19.675 16.9987C19.7174 17.1941 19.7631 17.4295 19.8063 17.6554C19.7983 17.681 19.7903 17.7066 19.7807 17.733Z" fill="url(#paint8_linear_25_222)"/>
<path d="M12.1178 8.7712C12.133 8.95939 11.9071 9.20043 11.7934 9.32216C11.7606 9.35659 11.7374 9.38142 11.723 9.40144C11.7013 9.43027 11.7021 9.4695 11.7238 9.49833C11.739 9.51835 11.763 9.52957 11.787 9.52957C11.7974 9.52957 11.807 9.52796 11.8174 9.52396C11.9488 9.47031 12.0609 9.37661 12.161 9.23727C12.3003 9.04267 12.4068 8.93216 12.6311 8.83126C12.6359 8.82886 12.6407 8.82726 12.6439 8.82646C12.6487 8.85929 12.6471 8.95699 12.5606 9.20844C12.5478 9.24608 12.5526 9.28452 12.575 9.31495C12.5974 9.34618 12.6343 9.3646 12.6751 9.3646C12.6959 9.3646 12.7176 9.35979 12.7368 9.34938C12.8609 9.28692 12.9546 9.25649 13.0307 9.23247C13.1156 9.49433 13.0587 9.8603 12.8377 10.0149C12.7616 10.0677 12.6535 10.1278 12.3372 10.167C12.3003 10.1718 12.2595 10.1742 12.2162 10.1742C12.1482 10.1742 12.0897 10.1686 12.0553 10.1654H12.0465C11.9336 10.1542 11.7206 10.1358 11.5668 10.1358C11.4251 10.1358 11.3698 10.1494 11.3386 10.1902C11.3209 10.2135 11.3161 10.2423 11.3242 10.2703C11.3346 10.3071 11.3594 10.3192 11.4082 10.3424C11.4875 10.3808 11.6749 10.4697 11.9224 10.6499C12.2531 10.8901 12.4341 11.3042 12.5278 12.0353C12.5606 12.2891 12.7768 13.2181 12.8593 13.4247C12.8985 13.5232 12.9826 13.7442 13.1107 14.0821L13.1228 14.1142C13.17 14.2383 13.2517 14.32 13.3238 14.3921C13.363 14.4313 13.4006 14.4697 13.4319 14.5122C13.4303 14.5226 13.4271 14.5362 13.4255 14.545C13.4143 14.5971 13.403 14.6467 13.4327 14.6876C13.5448 14.8429 13.6737 14.9847 13.8155 15.108C13.8267 15.1176 13.8403 15.124 13.8547 15.1264C14.1894 15.1833 14.5114 15.3362 14.786 15.5684C14.7956 15.5765 14.8077 15.5821 14.8197 15.5853C14.9046 15.6045 14.987 15.6245 15.0671 15.6437C15.4083 15.7254 15.7038 15.7951 15.9352 15.7951C16.0369 15.7951 16.121 15.7815 16.1923 15.7534C16.2227 15.7414 16.2427 15.7126 16.2435 15.6798C16.2435 15.6782 16.2435 15.6717 16.2419 15.6613C16.2283 15.566 16.2139 15.329 16.382 15.1961C16.4557 15.1376 16.4974 14.9919 16.5838 14.6683C16.8121 13.8195 17.2357 12.2387 18.7845 11.8943C19.0968 11.8247 19.3843 11.7894 19.6405 11.7894C20.6143 11.7894 21.0539 12.2963 21.48 12.7864C21.6217 12.9498 21.7683 13.1188 21.9316 13.2645C21.9332 13.2661 21.9348 13.2677 21.9372 13.2693C22.1406 13.4215 22.3368 13.576 22.5362 13.741C22.8117 13.9684 23.3394 14.0525 23.7807 14.0797C23.6237 14.1046 23.4427 14.123 23.2425 14.123C23.1745 14.123 23.1048 14.1206 23.0359 14.1166C23.0343 14.1166 23.0327 14.1166 23.0311 14.1166C22.9991 14.1166 22.9703 14.1358 22.9575 14.1646C22.9438 14.1959 22.9519 14.2319 22.9759 14.2543C23.6502 14.887 24.1843 15.2794 24.7633 15.2794H24.7801C25.3655 15.2713 25.721 15.1136 25.9301 14.959C25.7587 15.3106 25.3503 15.8031 24.4069 15.8031C24.3517 15.8031 24.294 15.8015 24.2363 15.7983C23.506 15.755 22.9783 15.2521 22.4201 14.7204C22.1198 14.4345 21.8091 14.1382 21.4463 13.8876C21.4327 13.8779 21.4167 13.8731 21.4007 13.8731C21.3791 13.8731 21.3583 13.8819 21.343 13.898C21.3158 13.9268 21.3134 13.9708 21.3374 14.0021C21.3823 14.0605 21.4279 14.123 21.4824 14.1975C21.4856 14.2023 21.4896 14.2063 21.4936 14.2095C21.7771 14.4673 21.9877 14.7476 22.1919 15.0183C22.4738 15.3923 22.7637 15.7767 23.2458 16.105C23.1152 16.0746 22.9831 16.0377 22.8518 15.9945C22.8437 15.9921 22.8349 15.9905 22.8269 15.9905C22.8013 15.9905 22.7773 16.0025 22.7621 16.0241C22.742 16.0521 22.742 16.0906 22.7629 16.1186C23.1649 16.6559 23.53 16.9578 23.9457 17.0988C24.2868 17.2141 24.5975 17.2734 24.869 17.2734C25.0035 17.2734 25.1156 17.2589 25.2077 17.2381C25.0291 17.3991 24.7272 17.5809 24.2716 17.5809C23.9561 17.5809 23.6077 17.492 23.2345 17.3174C22.5819 17.0115 22.2071 16.4677 21.7731 15.8383C21.5777 15.5548 21.3759 15.2617 21.1316 14.9638C21.1164 14.9446 21.0932 14.935 21.07 14.935C21.0587 14.935 21.0475 14.9374 21.0363 14.9422C21.0035 14.9574 20.9843 14.9927 20.9907 15.0287C21.0043 15.108 21.0171 15.1865 21.0299 15.2657C21.0395 15.3234 21.0491 15.3811 21.0588 15.4387C21.0604 15.4483 21.0636 15.4571 21.0684 15.4659C21.1548 15.6149 21.2349 15.763 21.3118 15.9056C21.5977 16.4357 21.8491 16.9018 22.3064 17.1989C22.1575 17.1853 21.9589 17.1204 21.7595 17.0187C21.7482 17.0131 21.7354 17.0099 21.7226 17.0099C21.7002 17.0099 21.6778 17.0195 21.6618 17.0371C21.6377 17.0652 21.6353 17.106 21.657 17.1356C21.7603 17.2822 21.8724 17.4143 21.9997 17.5392C22.5434 18.0734 22.9575 18.3208 23.2369 18.4345C23.2073 18.4361 23.1761 18.4369 23.1432 18.4369C22.6019 18.4369 21.8091 18.2279 21.1076 17.2317C21.0812 17.1941 21.0531 17.1564 21.0251 17.1196C20.9635 17.0379 20.8994 16.953 20.8505 16.8593C20.8361 16.8321 20.8089 16.8161 20.7793 16.8161C20.7681 16.8161 20.7568 16.8185 20.7464 16.8233C20.708 16.8409 20.6896 16.885 20.7048 16.925C20.7448 17.0291 20.7769 17.1308 20.7993 17.2261C20.8009 17.2325 20.8033 17.2389 20.8065 17.2453C20.8417 17.311 20.877 17.3751 20.9114 17.4359C20.9122 17.4375 20.913 17.4383 20.9138 17.4399C21.1172 17.7522 21.2229 18.0149 21.2461 18.2672C21.2549 18.3649 21.2614 18.4666 21.2646 18.5787C21.2646 18.5987 21.2734 18.6171 21.287 18.6315C21.5176 18.8718 21.7426 19.0039 21.93 19.0752C21.737 19.0744 21.5472 19.0359 21.3639 18.9623C21.3542 18.9583 21.3438 18.9567 21.3342 18.9567C21.3198 18.9567 21.3054 18.9607 21.2926 18.9687C21.271 18.9823 21.2566 19.0047 21.2549 19.0303C21.1861 19.8576 20.861 20.306 20.5847 20.5415C20.7472 20.2652 20.8994 19.8143 20.8722 19.1088C20.8658 18.9382 20.8425 18.7709 20.8049 18.6115C20.7961 18.5755 20.7641 18.5506 20.728 18.5498H20.7184C20.7184 18.5498 20.7184 18.5498 20.7176 18.5498C20.684 18.5498 20.6535 18.5707 20.6423 18.6027C20.4101 19.2481 20.0489 19.5669 19.7606 19.7246C19.9713 19.4924 20.2027 19.0952 20.3124 18.4273C20.334 18.2976 20.3444 18.1703 20.3444 18.0389C20.3444 18.0037 20.3212 17.9717 20.2868 17.9621L20.2684 17.9564L20.2411 17.9484C20.2339 17.946 20.2259 17.9452 20.2187 17.9452C20.1915 17.9452 20.1651 17.9597 20.1498 17.9837C20.1122 18.0461 20.0706 18.1078 20.0273 18.1671C20.0185 18.1791 20.0129 18.1935 20.0121 18.2087C20.0105 18.2303 20.0081 18.2704 20.0041 18.3128C19.9961 18.3072 19.9873 18.3032 19.9777 18.3008C19.9713 18.2992 19.9657 18.2984 19.9592 18.2984C19.9368 18.2984 19.9144 18.308 19.8992 18.3256C19.7614 18.4802 19.6077 18.6067 19.4411 18.7004C19.4227 18.7108 19.4099 18.7276 19.4035 18.7476C19.4019 18.7524 19.4003 18.7573 19.3995 18.7621C19.3875 18.7557 19.3747 18.7524 19.3618 18.7524C19.3506 18.7524 19.3386 18.7549 19.3282 18.7597C19.2561 18.7933 19.1865 18.8189 19.1216 18.8389C19.2041 18.7781 19.2914 18.7004 19.3795 18.6011C19.3955 18.5835 19.4019 18.5595 19.3987 18.5362L19.3851 18.4449C19.3514 18.2215 19.313 17.9613 19.2762 17.7266C19.2714 17.6946 19.2481 17.669 19.2169 17.6618C19.2105 17.6601 19.2041 17.6593 19.1969 17.6593C19.1721 17.6593 19.1488 17.6706 19.1336 17.6906C18.9767 17.8956 18.9102 17.898 18.8181 17.9012C18.73 17.9044 18.6211 17.9076 18.4537 18.0325C18.4329 18.0477 18.4209 18.0718 18.4217 18.0974C18.4217 18.1278 18.4249 18.1719 18.4273 18.2191C18.4305 18.2736 18.4345 18.3352 18.4337 18.3721C18.4305 18.6211 18.2519 18.9046 17.8868 19.2385C17.8675 19.2562 17.8579 19.2818 17.8611 19.3074C17.8643 19.333 17.8795 19.3555 17.902 19.3683C17.918 19.3771 17.946 19.3947 17.95 19.4147C17.9684 19.4988 17.7394 19.7006 17.2757 19.848C17.2469 19.8568 17.2253 19.8824 17.2205 19.912C17.2157 19.9424 17.2285 19.9721 17.2533 19.9897C17.2741 20.0041 17.287 20.0201 17.2902 20.0337C17.2854 20.1611 16.5446 20.6415 15.9648 20.6848C15.896 20.6896 15.8263 20.6928 15.7582 20.6928C15.7118 20.6928 15.6645 20.6912 15.6189 20.6888C15.6173 20.6888 15.6157 20.6888 15.6149 20.6888C15.5989 20.6888 15.5836 20.6936 15.5708 20.7024C15.2713 20.901 15.5476 21.4039 15.7302 21.7371C15.7734 21.8163 15.8271 21.9124 15.8391 21.9517C15.7886 22.0734 15.7822 22.3016 15.7814 22.4009C15.711 22.4522 15.5756 22.5739 15.6069 22.7365C15.6277 22.8454 15.6469 22.9735 15.6653 23.0984C15.6974 23.313 15.7158 23.4372 15.7398 23.4892C15.7518 23.5164 15.7766 23.5389 15.8167 23.5757C15.8287 23.5869 15.8479 23.6045 15.8663 23.623C15.8431 23.6213 15.8199 23.6197 15.7991 23.6197C15.7678 23.6197 15.695 23.6197 15.6669 23.679C15.6509 23.7118 15.6565 23.7511 15.6821 23.7831C15.7014 23.8079 15.7342 23.9281 15.7542 23.9993C15.7926 24.1379 15.8087 24.1891 15.8375 24.2196C15.8679 24.2516 15.9048 24.2636 15.9336 24.2732C15.96 24.282 15.9736 24.2868 15.984 24.2996C15.9985 24.3173 16.0137 24.3461 16.0281 24.3773C15.984 24.3453 15.9376 24.3221 15.904 24.3221C15.8823 24.3221 15.8623 24.3285 15.8463 24.3413C15.8055 24.3733 15.8047 24.4206 15.8071 24.4518C15.7374 24.4702 15.6501 24.511 15.6301 24.5207C15.6205 24.5255 15.6117 24.5319 15.6045 24.5399C15.5628 24.5871 15.5292 24.6536 15.4955 24.7185C15.4747 24.7585 15.4555 24.7961 15.4363 24.8258C15.4203 24.8498 15.3194 24.8746 15.2769 24.885C15.2537 24.8906 15.2329 24.8962 15.2145 24.9018C15.2361 24.873 15.2617 24.8402 15.2809 24.8162C15.385 24.6856 15.4539 24.5991 15.4155 24.5199C15.4067 24.5022 15.3794 24.4606 15.3098 24.4606C15.3034 24.4606 15.2961 24.4606 15.2881 24.4614C15.2105 24.4694 15.1784 24.4814 15.148 24.495C15.1272 24.5046 15.1032 24.515 14.9374 24.515C14.706 24.515 14.4945 24.5583 14.3816 24.5815C14.3544 24.5871 14.3232 24.5935 14.3168 24.5943C14.3064 24.5943 14.2831 24.5839 14.2687 24.5767C14.2543 24.5703 14.2399 24.5631 14.2247 24.5583C14.2143 24.5551 14.2038 24.5535 14.1926 24.5535C14.175 24.5535 14.1534 24.5575 14.1302 24.5655C14.1558 24.5487 14.1814 24.5327 14.1982 24.5223C14.2311 24.5022 14.2591 24.4846 14.2775 24.4702C14.2935 24.4598 14.3648 24.4454 14.4673 24.4454C14.5066 24.4454 14.5418 24.4478 14.565 24.4518C14.5786 24.4542 14.5946 24.455 14.6155 24.455C14.7564 24.455 15.1128 24.3989 15.2217 24.3597C15.2585 24.3461 15.2801 24.3084 15.2737 24.27C15.2673 24.2324 15.2585 24.1851 15.0263 24.1851C15.0119 24.1851 14.9974 24.1851 14.9814 24.1859C14.9766 24.1859 14.9726 24.1859 14.9678 24.1859C14.919 24.1859 14.911 24.1763 14.9062 24.1699C14.8973 24.1579 14.8725 24.1275 14.8277 24.1275C14.8133 24.1275 14.7988 24.1307 14.7844 24.1379C14.7772 24.1371 14.766 24.1339 14.7572 24.1315C14.7508 24.1299 14.7444 24.1283 14.738 24.1267C14.778 24.1162 14.8237 24.1114 14.8749 24.1114C14.8845 24.1114 14.8941 24.1114 14.903 24.1114C14.927 24.1122 14.9614 24.1178 14.9974 24.1235C15.0519 24.1323 15.1128 24.1427 15.1744 24.1427C15.2073 24.1427 15.2369 24.1395 15.2649 24.1339C15.3762 24.1098 15.4787 24.0882 15.4787 24.0882C15.518 24.0802 15.5452 24.0442 15.542 24.0041C15.542 23.9921 15.5228 23.7214 15.4739 23.5533C15.4811 23.4588 15.5068 22.9935 15.3218 22.4818C15.3106 22.4506 15.2817 22.4297 15.2489 22.4289L15.0519 22.4233C15.0519 22.4233 15.0503 22.4233 15.0495 22.4233C15.0279 22.4233 15.0079 22.4322 14.9926 22.4474C14.971 22.4434 14.9278 22.4305 14.8477 22.3913C14.734 22.3361 14.5802 22.1567 14.4265 21.8996C14.4121 21.8756 14.3856 21.8604 14.3576 21.8604C14.3568 21.8604 14.3552 21.8604 14.3544 21.8604C14.3224 21.862 14.2999 21.8652 14.2807 21.8716C14.2687 21.8756 14.2583 21.882 14.2495 21.8908L14.1782 21.9621C14.1702 21.9701 14.1638 21.9805 14.1598 21.9917C14.0861 22.1935 14.0405 22.3272 14.0245 22.3889C13.97 22.5979 13.8587 22.9927 13.8171 23.1417C13.8091 23.1713 13.8034 23.1905 13.8018 23.1945L13.8002 23.2017C13.7626 23.3315 13.7562 23.4155 13.7802 23.4708C13.7786 23.4748 13.7762 23.4796 13.7746 23.4828C13.7514 23.5309 13.6977 23.6422 13.7938 23.7367C13.8243 23.7663 13.8587 23.7783 13.8867 23.7871C13.914 23.7959 13.9276 23.8007 13.938 23.8143C13.942 23.8191 13.946 23.8248 13.9508 23.8296C13.9372 23.8288 13.9244 23.828 13.9124 23.828C13.8443 23.828 13.8155 23.844 13.8002 23.856C13.7586 23.888 13.7586 23.9361 13.761 23.9673C13.6937 23.9881 13.6161 24.0338 13.5896 24.0506C13.5832 24.0546 13.5768 24.0602 13.572 24.0658C13.556 24.0839 13.5349 24.0944 13.5088 24.097C13.4903 24.0986 13.4679 24.101 13.4391 24.1058C13.407 24.1106 13.3614 24.1162 13.3102 24.1227C13.0995 24.1483 13.0018 24.1635 12.9506 24.1851C12.9738 24.1451 13.0171 24.1379 13.1212 24.1371C13.1924 24.1371 13.2733 24.1355 13.339 24.093C13.3686 24.0738 13.3822 24.0362 13.3718 24.0025C13.3662 23.9849 13.3478 23.9449 13.2861 23.9449C13.2757 23.9449 13.2565 23.9449 13.2277 23.9465C13.158 23.9497 13.0283 23.9545 12.8433 23.9545C12.607 23.9545 12.4229 24.0137 12.3236 24.0458C12.3051 24.0522 12.2835 24.0586 12.2739 24.061C12.2627 24.0594 12.2427 24.0498 12.2283 24.0434C12.2138 24.037 12.1994 24.0298 12.1842 24.025C12.1746 24.0218 12.1634 24.0202 12.1522 24.0202C12.1346 24.0202 12.1129 24.0242 12.0897 24.0322C12.1153 24.0153 12.141 23.9993 12.1578 23.9889C12.1906 23.9689 12.2187 23.9513 12.2363 23.9377C12.2547 23.9265 12.3364 23.9104 12.4437 23.9088C12.4509 23.9088 12.4573 23.908 12.4637 23.9056C12.4701 23.9072 12.4773 23.9088 12.4837 23.9088C12.519 23.9096 12.5374 23.912 12.5454 23.9136C12.5678 23.9176 12.603 23.9192 12.6519 23.9192C12.8032 23.9192 13.0715 23.9 13.1692 23.8768C13.2092 23.868 13.2357 23.8296 13.2309 23.7895C13.2277 23.7615 13.2245 23.7319 13.1508 23.715C13.1948 23.7134 13.2317 23.7102 13.2629 23.7062C13.4006 23.687 13.4855 23.6478 13.4887 23.6462C13.5079 23.6374 13.5224 23.6205 13.5296 23.6013C13.5336 23.5901 13.6273 23.3323 13.6689 23.1641C13.6769 23.1281 13.8651 22.2752 13.8651 22.0045C13.8651 21.9837 13.8571 21.9629 13.8419 21.9485L13.4719 21.5729C13.4471 21.5369 13.3878 21.4984 13.2197 21.3919C12.8969 21.1861 12.2955 20.8033 11.9632 20.3581C11.8927 20.2636 11.7029 20.1683 11.4411 20.0377C10.975 19.8047 10.336 19.4852 10.0188 18.9967C9.60002 18.352 9.39581 17.3158 9.35257 16.9707C9.31893 16.7024 9.34055 16.5062 9.37179 16.2339C9.3814 16.1482 9.39101 16.0601 9.40062 15.96C9.41183 15.8359 9.47109 15.739 9.53915 15.6261C9.61924 15.494 9.71053 15.3434 9.75057 15.1144C9.75617 15.0832 9.74256 15.0511 9.71613 15.0335C9.70252 15.0247 9.6873 15.0199 9.67209 15.0199C9.65687 15.0199 9.64166 15.0239 9.62804 15.0327C9.60562 15.0479 9.584 15.0503 9.56959 15.0503C9.55917 15.0503 9.55037 15.0487 9.54396 15.0463C9.79862 14.5562 10.1245 13.8347 10.2455 13.1492C10.2519 13.1148 10.2351 13.0803 10.2038 13.0643C10.1438 13.0331 10.0941 12.9842 10.0597 12.9242C10.0453 12.8994 10.0188 12.8841 9.99001 12.8841C9.986 12.8841 9.9812 12.8841 9.9772 12.8849C9.96839 12.8865 9.96038 12.8873 9.95157 12.8873C9.91553 12.8873 9.8835 12.8729 9.85147 12.8449C9.79942 12.6287 9.88991 12.5142 10.026 12.3444C10.1734 12.1594 10.3568 11.9288 10.3848 11.4899C10.3856 11.4731 10.3816 11.4571 10.3728 11.4427C10.3464 11.4002 10.3071 11.3362 9.59041 11.2889C9.67289 11.2217 9.93555 11.1088 10.1654 11.0327C10.1902 11.0247 10.2094 11.0047 10.2166 10.9798L10.2214 10.9646C10.2311 10.9334 10.2214 10.8997 10.1958 10.8797C9.96678 10.6923 9.95477 10.3744 9.96839 10.2014C9.98761 9.94679 10.0781 9.72817 10.1662 9.62967C10.1822 9.6609 10.1958 9.70334 10.2054 9.73217C10.2303 9.80744 10.2551 9.88592 10.3352 9.88592C10.4152 9.88592 10.4553 9.80985 10.5177 9.64889C10.533 9.61045 10.5362 9.5656 10.5394 9.51835C10.5466 9.41905 10.5546 9.29813 10.6747 9.18522C10.7043 9.25088 10.6963 9.31815 10.6867 9.40864L10.6851 9.42386C10.6851 9.43027 10.6851 9.43587 10.6851 9.44228C10.6907 9.48712 10.7067 9.62486 10.8172 9.62486C10.8365 9.62486 10.8517 9.62006 10.8613 9.61605C10.9286 9.59043 10.9486 9.51355 10.9822 9.38622C11.0375 9.17801 11.1191 8.8657 11.4042 8.78882C11.417 8.83366 11.4202 8.95859 11.3418 9.15399C11.3113 9.23006 11.2849 9.29493 11.2641 9.34618C11.192 9.52316 11.1904 9.52636 11.2168 9.5648C11.2321 9.58722 11.2569 9.60004 11.2833 9.60004C11.3338 9.60004 11.349 9.57201 11.3922 9.49593C11.6645 9.01385 11.8255 8.81765 12.121 8.7728M19.5572 18.3016C19.5853 18.3016 19.6117 18.2872 19.6261 18.2624C19.7142 18.1134 19.7927 17.9452 19.8591 17.7627C19.8672 17.741 19.8736 17.7202 19.88 17.6994L19.8856 17.6826C19.8896 17.6698 19.8904 17.6561 19.888 17.6433L19.8856 17.6313C19.8423 17.4079 19.7983 17.1773 19.7566 16.9843C19.7534 16.9707 19.7478 16.9586 19.7382 16.9482L19.7262 16.9346L19.7134 16.9194C19.6982 16.9018 19.6758 16.8922 19.6533 16.8922C19.6493 16.8922 19.6453 16.8922 19.6405 16.893C19.6133 16.897 19.5901 16.9154 19.5797 16.9402C19.5492 17.0107 19.5148 17.0828 19.4772 17.1556C19.47 17.1693 19.4667 17.1845 19.4683 17.1997C19.4964 17.5104 19.4996 17.8531 19.4772 18.2175C19.4748 18.2543 19.498 18.288 19.534 18.2992C19.542 18.3016 19.55 18.3024 19.5572 18.3024M12.7904 23.715C12.7704 23.7198 12.7568 23.7279 12.7408 23.7399C12.7336 23.7391 12.7232 23.7359 12.7144 23.7335C12.7079 23.7319 12.7015 23.7303 12.6951 23.7287C12.724 23.7214 12.756 23.7166 12.7912 23.715M12.1834 8.68632C11.7886 8.71595 11.602 8.965 11.3242 9.45749C11.3001 9.49994 11.2873 9.52076 11.2849 9.52076C11.2785 9.52076 11.3306 9.40144 11.417 9.18442C11.5348 8.88972 11.4955 8.70393 11.4235 8.70393C11.4202 8.70393 11.417 8.70393 11.4138 8.70473C10.9093 8.81124 10.9294 9.50554 10.8333 9.54158C10.8285 9.54318 10.8228 9.54478 10.8172 9.54478C10.7988 9.54478 10.7756 9.52716 10.7644 9.43347C10.7788 9.30294 10.7964 9.18922 10.6931 9.0691C10.4056 9.2685 10.4841 9.51515 10.4433 9.62086C10.3904 9.75779 10.3592 9.80664 10.336 9.80664C10.2863 9.80664 10.2759 9.57681 10.175 9.51915C9.92194 9.66971 9.68971 10.5666 10.1462 10.9414L10.1414 10.9566C10.1414 10.9566 9.57519 11.1456 9.49991 11.2721C9.45107 11.3546 9.47829 11.369 9.50312 11.369C9.51673 11.369 9.52874 11.365 9.52874 11.365C9.61283 11.3706 10.2591 11.4091 10.3055 11.4851C10.2535 12.3044 9.63125 12.3444 9.7802 12.8865C9.83625 12.9458 9.89471 12.9682 9.95237 12.9682C9.96518 12.9682 9.978 12.9674 9.99081 12.965C10.0325 13.0379 10.0941 13.098 10.167 13.1364C10.0413 13.8451 9.69291 14.5899 9.46468 15.0271C9.43585 15.0824 9.49431 15.1312 9.56959 15.1312C9.60242 15.1312 9.63845 15.1224 9.67129 15.1C9.60002 15.5116 9.34776 15.6549 9.32053 15.9512C9.2821 16.3709 9.22764 16.6151 9.27329 16.9787C9.31893 17.3422 9.52714 18.3849 9.95157 19.0383C10.4537 19.8119 11.727 20.1739 11.8983 20.4045C12.3772 21.0468 13.3766 21.5465 13.407 21.6209L13.7834 22.0037C13.7834 22.2696 13.5888 23.1465 13.5888 23.1465C13.5488 23.3106 13.4527 23.5741 13.4527 23.5741C13.4527 23.5741 13.3774 23.6093 13.2501 23.627C13.1924 23.635 13.1156 23.6374 13.0419 23.6374C12.9682 23.6374 12.9041 23.635 12.8609 23.6334C12.8505 23.6334 12.8401 23.6334 12.8297 23.6334C12.7536 23.6334 12.6775 23.6438 12.6134 23.6702C12.5606 23.6918 12.4765 23.7855 12.4397 23.8288C12.3404 23.8304 12.2227 23.8448 12.1858 23.8736C12.1306 23.916 11.9392 24.0137 11.9224 24.077C11.9055 24.1411 11.9191 24.2075 11.9191 24.2075C11.9191 24.2075 11.9792 24.2075 12.0008 24.1739C12.0209 24.1435 12.1121 24.1002 12.1498 24.1002C12.153 24.1002 12.1562 24.1002 12.1586 24.101C12.1882 24.1098 12.2323 24.1403 12.2747 24.1403C12.3172 24.1403 12.5342 24.033 12.8409 24.033C13.0979 24.033 13.2469 24.0226 13.2837 24.0226C13.2909 24.0226 13.2933 24.0226 13.2925 24.0242C13.1724 24.1042 12.9218 23.9753 12.8593 24.1923C12.8297 24.294 12.8681 24.3044 12.8689 24.3797C12.8689 24.3949 12.8713 24.4005 12.8753 24.4005C12.8921 24.4005 12.937 24.2964 12.9618 24.2668C12.993 24.23 13.327 24.2019 13.4495 24.1827C13.564 24.1651 13.572 24.1827 13.6305 24.1162C13.6305 24.1162 13.7514 24.0418 13.8115 24.0354C13.8715 24.029 13.8203 23.9385 13.8475 23.9168C13.8571 23.9096 13.8819 23.9056 13.9108 23.9056C13.9636 23.9056 14.0293 23.9176 14.0365 23.9393C14.0405 23.9521 14.0517 23.9585 14.0637 23.9585C14.0837 23.9585 14.1062 23.9425 14.1094 23.912C14.1134 23.8632 14.0453 23.8191 13.9988 23.7615C13.9524 23.7038 13.8867 23.715 13.8483 23.6766C13.7586 23.5893 13.8891 23.486 13.8587 23.4476C13.8203 23.3987 13.8715 23.237 13.8779 23.2129C13.8843 23.1889 14.0349 22.6596 14.1005 22.4065C14.119 22.3369 14.1758 22.1759 14.2335 22.0165L14.3048 21.9453C14.3184 21.9405 14.3368 21.9389 14.3568 21.9381C14.505 22.1847 14.6683 22.3905 14.8109 22.4602C14.9158 22.5114 14.9742 22.5258 15.0063 22.5258C15.0495 22.5258 15.0471 22.5002 15.0471 22.5002L15.2441 22.5058C15.4435 23.056 15.3906 23.5589 15.3906 23.5589C15.4403 23.7182 15.4603 24.0065 15.4603 24.0065C15.4603 24.0065 15.3578 24.0282 15.2457 24.0522C15.2225 24.057 15.1977 24.0594 15.172 24.0594C15.0759 24.0594 14.9726 24.0306 14.9038 24.0282C14.8933 24.0282 14.8829 24.0282 14.8725 24.0282C14.7956 24.0282 14.7204 24.0386 14.6563 24.065C14.5866 24.0938 14.4609 24.2516 14.4641 24.2516C14.4641 24.2516 14.4641 24.2516 14.4649 24.2508C14.4801 24.2356 14.6347 24.1963 14.6795 24.1963C14.714 24.1963 14.7524 24.2155 14.7852 24.2155C14.7956 24.2155 14.8053 24.2139 14.8141 24.2083C14.8181 24.2059 14.8213 24.2051 14.8245 24.2051C14.8453 24.2051 14.8405 24.2636 14.9646 24.2636C14.9702 24.2636 14.975 24.2636 14.9814 24.2636C14.9958 24.2636 15.0095 24.2636 15.0231 24.2636C15.1312 24.2636 15.1985 24.2804 15.1912 24.2828C15.0935 24.3181 14.746 24.3733 14.6131 24.3733C14.5978 24.3733 14.585 24.3733 14.5762 24.3709C14.5482 24.3661 14.5082 24.3637 14.4649 24.3637C14.3728 24.3637 14.2647 24.3757 14.2271 24.4045C14.1718 24.447 13.9804 24.5447 13.9636 24.6079C13.9468 24.672 13.9604 24.7385 13.9604 24.7385C13.9604 24.7385 14.0205 24.7385 14.0421 24.7048C14.0621 24.6744 14.1534 24.6312 14.191 24.6312C14.1942 24.6312 14.1974 24.6312 14.1998 24.632C14.2295 24.6408 14.2735 24.6712 14.316 24.6712C14.3584 24.6712 14.6307 24.5919 14.9366 24.5919C15.2425 24.5919 15.1176 24.5551 15.2953 24.5375C15.3002 24.5375 15.305 24.5375 15.309 24.5375C15.4539 24.5375 15.116 24.845 15.0951 24.9459C15.0743 25.0492 15.0951 25.034 15.0967 25.11C15.0967 25.1253 15.0992 25.1309 15.1032 25.1309C15.12 25.1309 15.1648 25.0268 15.1896 24.9971C15.2209 24.9603 15.4491 24.9483 15.5028 24.8666C15.5556 24.7849 15.6045 24.6568 15.6629 24.5903C15.6629 24.5903 15.7967 24.5263 15.8567 24.5207C15.9168 24.5142 15.8655 24.4238 15.8928 24.4021C15.8952 24.4005 15.8976 24.3997 15.9016 24.3997C15.9424 24.3997 16.0649 24.5054 16.0753 24.5359C16.0793 24.5487 16.0905 24.5551 16.1026 24.5551C16.1226 24.5551 16.145 24.5391 16.1482 24.5086C16.1522 24.4598 16.0905 24.3052 16.0441 24.2476C15.9977 24.1899 15.9312 24.2019 15.8936 24.1627C15.8559 24.1235 15.7975 23.7999 15.743 23.7319C15.7222 23.7062 15.7518 23.699 15.7975 23.699C15.8503 23.699 15.924 23.7086 15.9632 23.7086C15.9776 23.7086 15.988 23.707 15.9896 23.7038C16.0329 23.631 15.8287 23.4956 15.8111 23.4564C15.7766 23.3795 15.735 22.9871 15.6837 22.7212C15.6533 22.5619 15.8599 22.4442 15.8599 22.4442C15.8599 22.4442 15.8543 22.095 15.9176 21.9701C15.9632 21.8788 15.2681 21.0003 15.6133 20.7705C15.6597 20.7729 15.7078 20.7745 15.7566 20.7745C15.8255 20.7745 15.896 20.7721 15.9688 20.7665C16.543 20.7232 17.4103 20.2179 17.367 20.0209C17.359 19.9841 17.335 19.9529 17.2982 19.9264C17.7466 19.7839 18.0629 19.5621 18.0261 19.3995C18.0173 19.3587 17.9861 19.3258 17.938 19.3002C18.2703 18.9959 18.5066 18.6828 18.5106 18.3753C18.5114 18.304 18.4994 18.1639 18.4986 18.099C18.8373 17.8467 18.875 18.1583 19.1945 17.7418C19.2361 18.0093 19.281 18.3096 19.317 18.5506C18.9646 18.9478 18.6251 18.9807 18.6251 18.9807C18.6251 18.9807 18.6571 18.9847 18.714 18.9847C18.8389 18.9847 19.0816 18.9647 19.3602 18.8341C19.365 18.867 19.3698 18.8974 19.3739 18.9214C19.3763 18.9358 19.3875 18.9438 19.3995 18.9438C19.4099 18.9438 19.4203 18.9382 19.4251 18.9262C19.4411 18.8862 19.4611 18.8333 19.4796 18.7717C19.6365 18.6828 19.8007 18.5571 19.9576 18.3801C19.9737 18.4401 19.9881 18.4802 20.0001 18.493C20.0105 18.505 20.0201 18.5106 20.0281 18.5106C20.0641 18.5106 20.0778 18.4009 20.0906 18.2151C20.1338 18.1566 20.1763 18.0934 20.2171 18.0253C20.2411 18.0325 20.2387 18.0317 20.2627 18.0389C20.2627 18.1591 20.2531 18.2832 20.2315 18.4145C20.0145 19.735 19.3098 19.9561 19.3098 19.9561C19.3098 19.9561 20.2619 19.892 20.716 18.6299C20.7208 18.6299 20.7208 18.6299 20.7256 18.6299C20.7617 18.7781 20.7841 18.9382 20.7913 19.112C20.8441 20.4918 20.1939 20.8594 20.1939 20.8594C20.1939 20.8594 21.2061 20.5767 21.3334 19.0375C21.5577 19.128 21.7651 19.1569 21.938 19.1569C22.2335 19.1569 22.4281 19.0736 22.4281 19.0736C22.4281 19.0736 22.3969 19.0792 22.3424 19.0792C22.1727 19.0792 21.7731 19.0247 21.3446 18.5779C21.3414 18.4762 21.3366 18.3721 21.3262 18.2616C21.299 17.9669 21.1653 17.6802 20.9819 17.3983C20.9466 17.3358 20.9122 17.2726 20.8786 17.2101C20.8537 17.1076 20.8209 17.0035 20.7809 16.8994C20.8553 17.0411 20.957 17.1572 21.0435 17.2806C21.7787 18.3248 22.6195 18.5202 23.1448 18.5202C23.458 18.5202 23.659 18.4513 23.659 18.4513C23.659 18.4513 23.651 18.4521 23.6341 18.4521C23.5164 18.4521 22.9839 18.3961 22.0574 17.4856C21.9268 17.3574 21.8179 17.2261 21.7234 17.0924C21.9813 17.2245 22.2111 17.2838 22.3601 17.2838C22.4417 17.2838 22.4986 17.2662 22.5234 17.2325C21.8331 16.8906 21.5761 16.1827 21.138 15.4283C21.1156 15.2922 21.0932 15.156 21.07 15.0183C21.8604 15.9801 22.2311 16.9386 23.2009 17.3935C23.6221 17.5905 23.9769 17.6642 24.2716 17.6642C25.1333 17.6642 25.484 17.0363 25.484 17.0363C25.484 17.0363 25.3094 17.1965 24.8698 17.1965C24.644 17.1965 24.3493 17.154 23.9721 17.0267C23.522 16.8738 23.1649 16.5238 22.8277 16.0746C23.0992 16.1642 23.3851 16.2299 23.667 16.2635C22.5386 15.6894 22.3256 14.8629 21.548 14.1542C21.5 14.0886 21.4519 14.0221 21.4023 13.9572C22.4506 14.6803 23.0792 15.8127 24.2323 15.8816C24.2924 15.8848 24.3509 15.8872 24.4077 15.8872C25.9349 15.8872 26.1271 14.6291 26.1271 14.6291C26.1271 14.6291 25.8812 15.1881 24.7801 15.2033C24.7745 15.2033 24.7697 15.2033 24.7641 15.2033C24.1851 15.2033 23.6301 14.762 23.0311 14.1999C23.104 14.2039 23.1745 14.2063 23.2425 14.2063C23.8247 14.2063 24.2404 14.0597 24.4189 14.0117C24.3629 14.0141 24.2836 14.0157 24.1891 14.0157C23.7382 14.0157 22.9342 13.97 22.5875 13.6825C22.3793 13.5104 22.1791 13.3534 21.9853 13.2085C21.339 12.6295 20.9811 11.7126 19.6405 11.7126C19.3875 11.7126 19.0992 11.7454 18.7676 11.8191C16.6783 12.2835 16.5702 14.9478 16.3324 15.136C16.0946 15.3242 16.1642 15.6725 16.1642 15.6814C16.1002 15.7062 16.0241 15.7174 15.9368 15.7174C15.6613 15.7174 15.2785 15.6109 14.8397 15.51C14.5594 15.2729 14.2295 15.112 13.8699 15.0503C13.7458 14.9414 13.6177 14.8061 13.4999 14.6427C13.4823 14.6179 13.5288 14.5106 13.512 14.485C13.4175 14.344 13.2685 14.2663 13.2004 14.087C13.1924 14.0653 13.0042 13.5672 12.9362 13.3959C12.8585 13.1997 12.6415 12.2747 12.6102 12.0257C12.5109 11.2497 12.3091 10.8301 11.9728 10.5858C11.6357 10.3416 11.4074 10.2591 11.4042 10.2487C11.397 10.2247 11.4707 10.2167 11.57 10.2167C11.7446 10.2167 12 10.2407 12.0441 10.2447C12.0777 10.2479 12.1434 10.2543 12.2203 10.2543C12.2619 10.2543 12.3059 10.2527 12.3508 10.2471C12.6799 10.2062 12.8008 10.1422 12.8873 10.0813C13.166 9.88672 13.2117 9.41985 13.0819 9.13477C12.9938 9.1636 12.8769 9.19163 12.7047 9.27891C12.6959 9.28292 12.6871 9.28532 12.6791 9.28532C12.6519 9.28532 12.6311 9.2645 12.6407 9.23487C12.7047 9.04748 12.792 8.74317 12.6631 8.74317C12.6463 8.74317 12.6271 8.74798 12.603 8.75919C12.3724 8.86249 12.2547 8.97701 12.1009 9.19082C12.0369 9.28051 11.94 9.38942 11.7926 9.44948C11.8607 9.35819 12.3019 8.97621 12.185 8.68391L12.1834 8.68632ZM19.558 18.2223C19.5781 17.8924 19.5805 17.5392 19.5492 17.1925C19.5877 17.1188 19.6229 17.0459 19.6541 16.9723C19.6629 16.9819 19.671 16.9915 19.679 17.0011C19.7214 17.1965 19.7671 17.4319 19.8103 17.6577C19.8023 17.6834 19.7943 17.709 19.7847 17.7354C19.715 17.9252 19.6381 18.0854 19.558 18.2223ZM12.7456 23.8207C12.756 23.8207 12.7656 23.8191 12.7744 23.8135C12.8112 23.7919 12.7784 23.7895 12.937 23.7831C12.9514 23.7831 12.9658 23.7823 12.9786 23.7823C13.0875 23.7823 13.158 23.7983 13.15 23.7999C13.0603 23.8208 12.8 23.84 12.6503 23.84C12.6094 23.84 12.5766 23.8384 12.5582 23.8352C12.539 23.832 12.5133 23.8296 12.4845 23.8296C12.5374 23.8151 12.6102 23.8015 12.6383 23.8015C12.6727 23.8015 12.7111 23.8207 12.744 23.8207H12.7456Z" fill="url(#paint9_linear_25_222)"/>
</g>
<defs>
<linearGradient id="paint0_linear_25_222" x1="15.4996" y1="3.70453" x2="15.4996" y2="8.79685" gradientUnits="userSpaceOnUse">
<stop offset="0.03" stop-color="#FFF5D1"/>
<stop offset="0.19" stop-color="#DFC994"/>
<stop offset="0.43" stop-color="#9C8553"/>
<stop offset="0.52" stop-color="#9F8957"/>
<stop offset="0.63" stop-color="#AA9566"/>
<stop offset="0.74" stop-color="#BDAA7D"/>
<stop offset="0.86" stop-color="#D7C79E"/>
<stop offset="0.98" stop-color="#F8EDC8"/>
<stop offset="1" stop-color="#FFF5D1"/>
</linearGradient>
<linearGradient id="paint1_linear_25_222" x1="8.62947" y1="-1.91793" x2="26.7149" y2="28.1964" gradientUnits="userSpaceOnUse">
<stop stop-color="#131313"/>
<stop offset="0.33" stop-color="#161615"/>
<stop offset="0.6" stop-color="#201F1E"/>
<stop offset="0.85" stop-color="#312F2C"/>
<stop offset="1" stop-color="#403D39"/>
</linearGradient>
<linearGradient id="paint2_linear_25_222" x1="22.0706" y1="19.1609" x2="9.82471" y2="3.94133" gradientUnits="userSpaceOnUse">
<stop stop-color="white"/>
<stop offset="1" stop-color="white" stop-opacity="0"/>
</linearGradient>
<linearGradient id="paint3_linear_25_222" x1="9.62007" y1="-0.865671" x2="24.7257" y2="25.2983" gradientUnits="userSpaceOnUse">
<stop offset="0.03" stop-color="#FFF5D1"/>
<stop offset="0.19" stop-color="#DFC994"/>
<stop offset="0.43" stop-color="#9C8553"/>
<stop offset="0.72" stop-color="#614D1F"/>
<stop offset="1" stop-color="#9C8553"/>
</linearGradient>
<linearGradient id="paint4_linear_25_222" x1="6.22165" y1="-10.7708" x2="36.3824" y2="47.8434" gradientUnits="userSpaceOnUse">
<stop offset="0.07" stop-color="#FFF5D1"/>
<stop offset="0.19" stop-color="#E0C56D"/>
<stop offset="0.45" stop-color="#9C7C2D"/>
<stop offset="0.72" stop-color="#614B1E"/>
<stop offset="1" stop-color="#9C782C"/>
</linearGradient>
<linearGradient id="paint5_linear_25_222" x1="15.4996" y1="3.86482" x2="15.4996" y2="8.63682" gradientUnits="userSpaceOnUse">
<stop offset="0.03" stop-color="#FFF5D1"/>
<stop offset="0.19" stop-color="#DFC994"/>
<stop offset="0.43" stop-color="#9C8553"/>
<stop offset="0.52" stop-color="#9F8957"/>
<stop offset="0.63" stop-color="#AA9566"/>
<stop offset="0.74" stop-color="#BDAA7D"/>
<stop offset="0.86" stop-color="#D7C79E"/>
<stop offset="0.98" stop-color="#F8EDC8"/>
<stop offset="1" stop-color="#FFF5D1"/>
</linearGradient>
<linearGradient id="paint6_linear_25_222" x1="24.9571" y1="28.23" x2="2.64024" y2="-17.3575" gradientUnits="userSpaceOnUse">
<stop stop-color="#FFF5D1"/>
<stop offset="0.04" stop-color="#D2B36F"/>
<stop offset="0.47" stop-color="#DFBE6D"/>
<stop offset="0.72" stop-color="#FAF7C1"/>
<stop offset="1" stop-color="#9C8553"/>
</linearGradient>
<linearGradient id="paint7_linear_25_222" x1="14.0886" y1="4.18821" x2="28.2749" y2="49.9823" gradientUnits="userSpaceOnUse">
<stop stop-color="#131313"/>
<stop offset="0.33" stop-color="#161615"/>
<stop offset="0.6" stop-color="#201F1E"/>
<stop offset="0.85" stop-color="#312F2C"/>
<stop offset="1" stop-color="#403D39"/>
</linearGradient>
<linearGradient id="paint8_linear_25_222" x1="13.9709" y1="3.91514" x2="28.1571" y2="49.7092" gradientUnits="userSpaceOnUse">
<stop offset="0.07" stop-color="#FEEAA5"/>
<stop offset="0.1" stop-color="#EFD790"/>
<stop offset="0.18" stop-color="#D0AD65"/>
<stop offset="0.26" stop-color="#B98F45"/>
<stop offset="0.32" stop-color="#AB7D31"/>
<stop offset="0.37" stop-color="#A7772B"/>
<stop offset="0.4" stop-color="#BF964C"/>
<stop offset="0.45" stop-color="#E0C37C"/>
<stop offset="0.5" stop-color="#F6DF99"/>
<stop offset="0.52" stop-color="#FEEAA5"/>
<stop offset="0.56" stop-color="#EAD693"/>
<stop offset="0.66" stop-color="#B6A267"/>
<stop offset="0.79" stop-color="#634F21"/>
<stop offset="0.8" stop-color="#614D1F"/>
<stop offset="1" stop-color="#9C8553"/>
</linearGradient>
<linearGradient id="paint9_linear_25_222" x1="12.4573" y1="8.04727" x2="20.519" y2="22.0109" gradientUnits="userSpaceOnUse">
<stop offset="0.07" stop-color="#FEEAA5"/>
<stop offset="0.1" stop-color="#EFD790"/>
<stop offset="0.18" stop-color="#D0AD65"/>
<stop offset="0.26" stop-color="#B98F45"/>
<stop offset="0.32" stop-color="#AB7D31"/>
<stop offset="0.37" stop-color="#A7772B"/>
<stop offset="0.43" stop-color="#CDA960" stop-opacity="0.87"/>
<stop offset="0.5" stop-color="#F0D892" stop-opacity="0.75"/>
<stop offset="0.54" stop-color="#FEEAA5" stop-opacity="0.7"/>
<stop offset="0.58" stop-color="#ECD895" stop-opacity="0.62"/>
<stop offset="0.65" stop-color="#BEAA6E" stop-opacity="0.42"/>
<stop offset="0.77" stop-color="#756130" stop-opacity="0.09"/>
<stop offset="0.8" stop-color="#614D1F" stop-opacity="0"/>
<stop offset="1" stop-color="#9C8553" stop-opacity="0"/>
</linearGradient>
<clipPath id="clip0_25_222">
<rect width="31" height="31" fill="white"/>
</clipPath>
</defs>
</svg>
