<svg width="32" height="32" viewBox="0 0 32 32" fill="none" xmlns="http://www.w3.org/2000/svg">
<g clip-path="url(#clip0_1_661)">
<g filter="url(#filter0_d_1_661)">
<path d="M20.5952 9.1238H17.4744V8.28088C17.4744 8.0411 17.2795 7.84558 17.0391 7.84558H14.9597C14.7199 7.84558 14.5244 8.04048 14.5244 8.28088V9.1238H11.4036C10.817 9.1238 10.3399 9.60091 10.3399 10.1874V15.8893C10.3399 16.4759 10.817 16.953 11.4036 16.953H11.7737C11.7737 16.953 11.7737 16.953 11.7737 16.9536V17.1085C11.7737 17.229 11.8641 17.3268 11.9747 17.3268H12.1174C12.2287 17.3268 12.3184 17.229 12.3184 17.1085V16.9536C12.3184 16.9536 12.3184 16.9536 12.3184 16.953H19.5186C19.5186 16.953 19.5186 16.953 19.5186 16.9536V17.1085C19.5186 17.229 19.609 17.3268 19.7197 17.3268H19.8623C19.9736 17.3268 20.0634 17.229 20.0634 17.1085V16.9536C20.0634 16.9536 20.0634 16.9536 20.0634 16.953H20.5934C21.1799 16.953 21.657 16.4759 21.657 15.8893V10.1874C21.657 9.60091 21.1799 9.1238 20.5934 9.1238H20.5952ZM14.8318 8.45241C14.8318 8.38109 14.8896 8.3233 14.9609 8.3233H17.0403C17.1116 8.3233 17.1694 8.38109 17.1694 8.45241V9.1238H14.8325V8.45241H14.8318Z" fill="url(#paint0_linear_1_661)"/>
<path d="M20.5952 9.1238H17.4744V8.28088C17.4744 8.0411 17.2795 7.84558 17.0391 7.84558H14.9597C14.7199 7.84558 14.5244 8.04048 14.5244 8.28088V9.1238H11.4036C10.817 9.1238 10.3399 9.60091 10.3399 10.1874V15.8893C10.3399 16.4759 10.817 16.953 11.4036 16.953H11.7737C11.7737 16.953 11.7737 16.953 11.7737 16.9536V17.1085C11.7737 17.229 11.8641 17.3268 11.9747 17.3268H12.1174C12.2287 17.3268 12.3184 17.229 12.3184 17.1085V16.9536C12.3184 16.9536 12.3184 16.9536 12.3184 16.953H19.5186C19.5186 16.953 19.5186 16.953 19.5186 16.9536V17.1085C19.5186 17.229 19.609 17.3268 19.7197 17.3268H19.8623C19.9736 17.3268 20.0634 17.229 20.0634 17.1085V16.9536C20.0634 16.9536 20.0634 16.9536 20.0634 16.953H20.5934C21.1799 16.953 21.657 16.4759 21.657 15.8893V10.1874C21.657 9.60091 21.1799 9.1238 20.5934 9.1238H20.5952ZM14.8318 8.45241C14.8318 8.38109 14.8896 8.3233 14.9609 8.3233H17.0403C17.1116 8.3233 17.1694 8.38109 17.1694 8.45241V9.1238H14.8325V8.45241H14.8318Z" stroke="#231F20" stroke-width="4" stroke-miterlimit="10"/>
</g>
<path d="M20.8553 13.4134C16.9444 12.11 13.0962 13.6618 9.24738 14.5306C8.25444 14.779 7.26088 14.9032 6.33004 14.4685C5.3869 14.0805 4.86614 13.3692 4.55566 12.525V26.1901C4.55566 26.8824 5.11699 27.4443 5.8099 27.4443H26.1913C26.8836 27.4443 27.4456 26.883 27.4456 26.1901V12.7279C27.2378 13.0581 26.99 13.371 26.6912 13.6612C25.0773 15.1509 22.7182 14.0338 20.8559 13.4128L20.8553 13.4134Z" fill="url(#paint1_linear_1_661)"/>
<path d="M26.1907 4.55504H5.80928C5.11699 4.55504 4.55504 5.11637 4.55504 5.80928V12.5256C4.86552 13.3698 5.3869 14.0805 6.32942 14.4691C7.26027 14.9038 8.25382 14.7796 9.24677 14.5312C13.0956 13.6624 16.9438 12.11 20.8547 13.414C22.717 14.035 25.0754 15.1522 26.69 13.6624C26.9881 13.3722 27.2365 13.0599 27.4443 12.7291V5.80928C27.4443 5.11699 26.883 4.55504 26.1901 4.55504H26.1907Z" fill="url(#paint2_linear_1_661)"/>
<path d="M11.6784 17.4479H11.9551V17.51C11.9551 17.6815 12.0873 17.8211 12.2496 17.8211H12.3922C12.5545 17.8211 12.6867 17.6815 12.6867 17.51V17.4479H19.7006V17.51C19.7006 17.6815 19.8328 17.8211 19.9951 17.8211H20.1378C20.3001 17.8211 20.4323 17.6815 20.4323 17.51V17.4479H20.8688C21.5064 17.4479 22.0259 16.929 22.0259 16.2908V10.5889C22.0259 9.95135 21.507 9.43244 20.8688 9.43244H17.8414V8.68236C17.8414 8.39093 17.6047 8.15422 17.3133 8.15422H15.2339C14.9425 8.15422 14.7058 8.39093 14.7058 8.68236V9.43244H11.6784C11.0408 9.43244 10.5213 9.95135 10.5213 10.5889V16.2908C10.5213 16.9284 11.0402 17.4479 11.6784 17.4479ZM15.1983 8.85451C15.1983 8.83483 15.2143 8.81885 15.2339 8.81885H17.3133C17.3329 8.81885 17.3489 8.83483 17.3489 8.85451V9.43244H15.1983V8.85451Z" fill="url(#paint3_linear_1_661)"/>
<path d="M11.4048 16.969H11.7749C11.7749 16.969 11.7749 16.969 11.7749 16.9696V17.1245C11.7749 17.245 11.8653 17.3428 11.976 17.3428H12.1186C12.2299 17.3428 12.3197 17.245 12.3197 17.1245V16.9696C12.3197 16.9696 12.3197 16.9696 12.3197 16.969H19.5199C19.5199 16.969 19.5199 16.969 19.5199 16.9696V17.1245C19.5199 17.245 19.6102 17.3428 19.7209 17.3428H19.8636C19.9748 17.3428 20.0646 17.245 20.0646 17.1245V16.9696C20.0646 16.9696 20.0646 16.9696 20.0646 16.969H20.5946C21.1811 16.969 21.6582 16.4919 21.6582 15.9053V13.9994C19.1295 15.1712 16.1844 14.5392 13.4159 14.4347C12.3836 14.383 11.3943 14.932 10.3405 15.1183V15.9053C10.3405 16.4919 10.8176 16.969 11.4042 16.969H11.4048Z" fill="url(#paint4_linear_1_661)"/>
<path d="M13.4165 14.4347C16.1857 14.5392 19.1307 15.1712 21.6588 13.9994V10.2034C21.6588 9.61689 21.1817 9.13979 20.5952 9.13979H17.4744V8.29686C17.4744 8.05708 17.2795 7.86156 17.0391 7.86156H14.9597C14.7199 7.86156 14.5244 8.05646 14.5244 8.29686V9.13979H11.4036C10.817 9.13979 10.3399 9.61689 10.3399 10.2034V15.1183C11.3931 14.932 12.383 14.383 13.4153 14.4347H13.4165ZM14.8318 8.46901C14.8318 8.39769 14.8896 8.3399 14.9609 8.3399H17.0403C17.1116 8.3399 17.1694 8.39769 17.1694 8.46901V9.1404H14.8325V8.46901H14.8318Z" fill="url(#paint5_linear_1_661)"/>
<path d="M19.1461 22.1876L18.5491 22.1839L17.5641 24.7785L18.1605 24.7797L18.3658 24.1999H19.3157L19.5106 24.7723L20.099 24.776L20.0923 24.7176L19.1454 22.187L19.1461 22.1876ZM18.522 23.748L18.8442 22.8399L19.1559 23.748H18.5214H18.522ZM14.6117 24.5873C14.613 24.6869 14.6136 24.7748 14.6136 24.7748H14.2773C14.2773 24.7748 14.2072 24.6389 14.1322 24.4846C13.743 24.9205 13.0439 24.8043 12.6916 24.5245C12.2865 24.2024 12.166 23.764 12.2053 23.2697C12.2428 22.7969 12.4377 22.4126 12.8748 22.187C13.3587 21.9374 13.9698 22.0327 14.3191 22.404C14.4709 22.5651 14.5656 22.7926 14.5656 22.9832C14.407 22.9832 14.0141 22.9832 14.0141 22.9832C14.0141 22.9832 14.0067 22.9395 13.9944 22.9076C13.9065 22.6733 13.7374 22.5546 13.4921 22.5473C13.2351 22.5399 13.0242 22.6352 12.9068 22.8713C12.7242 23.2389 12.7187 23.6158 12.9185 23.978C13.0531 24.2214 13.2855 24.3044 13.553 24.2786C13.7854 24.2559 13.9637 24.147 14.0412 23.9128C14.0572 23.8642 14.067 23.7425 14.067 23.7425H13.518V23.3109H14.6099C14.6099 23.3754 14.6099 23.4345 14.6099 23.4935C14.6099 23.8581 14.6068 24.2233 14.6117 24.5879V24.5873ZM17.3366 24.5873C17.3379 24.6869 17.3385 24.7748 17.3385 24.7748H17.0022C17.0022 24.7748 16.9321 24.6389 16.8571 24.4846C16.4679 24.9205 15.7688 24.8043 15.4165 24.5245C15.0114 24.2024 14.8909 23.764 14.9302 23.2697C14.9677 22.7969 15.1626 22.4126 15.5998 22.187C16.0836 21.9374 16.6948 22.0327 17.044 22.404C17.1958 22.5651 17.2905 22.7926 17.2905 22.9832C17.1319 22.9832 16.739 22.9832 16.739 22.9832C16.739 22.9832 16.7316 22.9395 16.7193 22.9076C16.6314 22.6733 16.4623 22.5546 16.217 22.5473C15.96 22.5399 15.7492 22.6352 15.6317 22.8713C15.4491 23.2389 15.4436 23.6158 15.6434 23.978C15.778 24.2214 16.0105 24.3044 16.2779 24.2786C16.5103 24.2559 16.6886 24.147 16.7661 23.9128C16.7821 23.8642 16.7919 23.7425 16.7919 23.7425H16.2429V23.3109H17.3348C17.3348 23.3754 17.3348 23.4345 17.3348 23.4935C17.3348 23.8581 17.3317 24.2233 17.3366 24.5879V24.5873ZM11.296 22.187L10.699 22.1833L9.71403 24.7779L10.3104 24.7791L10.5158 24.1993H11.4657L11.6606 24.7717L12.249 24.7754L12.2422 24.717L11.2954 22.1864L11.296 22.187ZM10.6719 23.7474L10.9941 22.8393L11.3058 23.7474H10.6713H10.6719ZM22.5036 24.5866C22.5048 24.6862 22.5055 24.7742 22.5055 24.7742H22.1692C22.1692 24.7742 22.0991 24.6383 22.0241 24.484C21.6349 24.9199 20.9358 24.8037 20.5835 24.5239C20.1783 24.2018 20.0578 23.7634 20.0972 23.2691C20.1347 22.7963 20.3296 22.412 20.7667 22.1864C21.2506 21.9367 21.8617 22.032 22.211 22.4034C22.3628 22.5645 22.4575 22.792 22.4575 22.9826C22.2989 22.9826 21.906 22.9826 21.906 22.9826C21.906 22.9826 21.8986 22.9389 21.8863 22.9069C21.7984 22.6727 21.6293 22.554 21.384 22.5467C21.127 22.5393 20.9161 22.6346 20.7987 22.8707C20.6161 23.2383 20.6106 23.6152 20.8104 23.9774C20.945 24.2208 21.1774 24.3038 21.4449 24.278C21.6773 24.2553 21.8556 24.1464 21.9331 23.9122C21.949 23.8636 21.9589 23.7419 21.9589 23.7419H21.4098V23.3103H22.5018C22.5018 23.3748 22.5018 23.4338 22.5018 23.4929C22.5018 23.8575 22.4987 24.2227 22.5036 24.5873V24.5866ZM24.883 24.7766L22.9063 24.7785L22.9125 22.1851H24.8553V22.6659H23.4904L23.4923 23.2144L24.7305 23.2131L24.7367 23.6595L23.4935 23.6583V24.2792L24.8799 24.2755L24.883 24.7766ZM9.18405 23.3588C9.21603 23.3349 9.23816 23.3176 9.26029 23.301C9.48839 23.1344 9.52651 22.9008 9.47671 22.6456C9.42998 22.4071 9.2646 22.2767 9.0365 22.2208C8.96702 22.2036 8.89447 22.1907 8.82315 22.1901C8.41061 22.1858 7.43549 22.187 7.43549 22.187C7.43549 22.187 7.43795 23.8599 7.43795 24.6254C7.43795 24.6494 7.44103 24.7729 7.44103 24.7729C7.44103 24.7729 7.49329 24.7742 7.52034 24.7742C7.98084 24.7742 8.44258 24.7852 8.90185 24.7569C9.18774 24.7391 9.44474 24.618 9.56893 24.3327C9.70911 23.9694 9.58738 23.5943 9.18405 23.3595V23.3588ZM8.02695 22.6358C8.02695 22.6358 8.49914 22.6358 8.70142 22.6542C8.84898 22.6678 8.92275 22.7637 8.9289 22.9026C8.93567 23.0631 8.87418 23.1707 8.72785 23.199C8.52558 23.2383 8.41368 23.2383 8.02388 23.2383C8.02388 23.041 8.02695 22.6352 8.02695 22.6352V22.6358ZM8.78257 24.2977C8.55324 24.3235 8.02634 24.3278 8.02634 24.3278L8.03433 23.6269C8.03433 23.6269 8.63563 23.6238 8.75798 23.6404C8.93075 23.6632 9.02789 23.7825 9.03588 23.9626C9.04387 24.1483 8.96272 24.278 8.78319 24.2983L8.78257 24.2977Z" fill="url(#paint6_linear_1_661)"/>
<path d="M24.9746 19.36H7.42258V20.2368H24.9746V19.36Z" fill="url(#paint7_linear_1_661)"/>
<path d="M7.41274 19.3182V20.257H25.0269V19.3182H7.41274ZM24.9648 20.1949H7.47484V19.3803H24.9648V20.1949Z" fill="url(#paint8_linear_1_661)"/>
<path d="M17.3797 8.85512C17.3797 8.81824 17.3495 8.78811 17.3127 8.78811H15.2333C15.1964 8.78811 15.1663 8.81824 15.1663 8.85512V9.46442H17.3791V8.85512H17.3797ZM17.3176 9.40232H15.229V8.85512C15.229 8.85512 15.2315 8.85021 15.2339 8.85021H17.3133C17.3133 8.85021 17.3182 8.85267 17.3182 8.85512V9.40232H17.3176ZM23.5359 24.2448V23.6859L24.7791 23.6872L24.7723 23.1787L23.5347 23.1799L23.5334 22.6936H24.8977L24.8984 22.1507H22.8934L22.8873 24.8061L24.926 24.8043L24.9223 24.2411L23.5365 24.2448H23.5359ZM22.9488 24.744L22.9549 22.2128H24.8356V22.6315H23.4707L23.4726 23.242L24.7115 23.2408L24.717 23.6251L23.4744 23.6238V24.3069L24.8609 24.3032L24.8633 24.7422L22.9494 24.744H22.9488ZM22.5454 24.583C22.5424 24.318 22.5424 24.0487 22.543 23.788C22.543 23.6884 22.543 23.5882 22.543 23.4886V23.2746H21.3889V23.7683H21.9349C21.9306 23.8101 21.9232 23.8704 21.914 23.898C21.8458 24.104 21.6902 24.2196 21.4523 24.243C21.2586 24.2614 20.9967 24.2276 20.8479 23.9583C20.6573 23.6128 20.653 23.25 20.8368 22.8805C20.942 22.669 21.1289 22.5651 21.3939 22.5737C21.63 22.5805 21.7849 22.6918 21.8685 22.9137C21.8796 22.9426 21.8863 22.9838 21.8863 22.9838L21.8906 23.0096H21.9165C21.9165 23.0096 22.3093 23.0096 22.468 23.0096H22.4987V22.9789C22.4987 22.7784 22.3985 22.5423 22.2435 22.3782C21.8808 21.9933 21.258 21.8992 20.7624 22.155C20.3487 22.3684 20.1181 22.7416 20.0763 23.2629C20.0314 23.8236 20.1943 24.243 20.5743 24.5442C20.9112 24.8117 21.6103 24.9537 22.0259 24.5344C22.0929 24.6715 22.1513 24.7852 22.1513 24.7852L22.1599 24.8018H22.5467V24.7705C22.5467 24.7705 22.5454 24.6826 22.5442 24.5823L22.5454 24.583ZM22.1987 24.7403C22.1778 24.6992 22.1218 24.5891 22.0628 24.4674L22.0425 24.4256L22.0118 24.46C21.6263 24.8922 20.9401 24.7557 20.6136 24.4963C20.2509 24.2085 20.096 23.8064 20.139 23.2685C20.1796 22.7631 20.3929 22.4169 20.7919 22.211C21.2635 21.9675 21.855 22.056 22.1993 22.4218C22.3358 22.5669 22.4268 22.7704 22.4366 22.9487C22.2915 22.9487 22.0253 22.9487 21.9423 22.9487C21.9386 22.9328 21.9331 22.9112 21.9263 22.8928C21.8347 22.6481 21.6558 22.5202 21.3957 22.5122C21.1098 22.5036 20.8965 22.6217 20.7815 22.8535C20.5884 23.2426 20.5927 23.6244 20.7938 23.9884C20.9247 24.2251 21.1541 24.3339 21.459 24.3051C21.724 24.2792 21.8974 24.1489 21.9736 23.9177C21.9909 23.8661 22.0007 23.7449 22.0007 23.74L22.0032 23.7068H21.4517V23.3373H22.4815V23.4892C22.4815 23.5888 22.4815 23.689 22.4815 23.7886C22.4815 24.0493 22.4803 24.3192 22.4839 24.5842C22.4846 24.6475 22.4852 24.7065 22.4858 24.7403H22.1999H22.1987ZM18.4888 23.7751H19.2106L18.8559 22.7416L18.4888 23.7751ZM18.5767 23.713L18.8546 22.9297L19.1233 23.713H18.5767ZM19.1786 22.1526L18.5386 22.1482L17.5303 24.8049L18.1937 24.8067L18.399 24.227H19.3053L19.5002 24.7994L20.1458 24.8037L20.1347 24.7102L19.1786 22.1526ZM19.5445 24.7379L19.3496 24.1649H18.3554L18.15 24.7447L17.6207 24.7434L18.5823 22.211L19.1362 22.2146L20.0738 24.7219L20.0763 24.7416L19.5451 24.7379H19.5445ZM17.3784 24.5836C17.3754 24.3186 17.376 24.0487 17.376 23.7886C17.376 23.689 17.376 23.5894 17.376 23.4898V23.2758H16.222V23.7695H16.7679C16.7636 23.8113 16.7562 23.8716 16.747 23.8993C16.6788 24.1052 16.5238 24.2208 16.2853 24.2442C16.0916 24.2626 15.8297 24.2288 15.6809 23.9595C15.4903 23.614 15.4866 23.2512 15.6698 22.8817C15.775 22.6702 15.9619 22.5663 16.2269 22.5749C16.463 22.5817 16.6179 22.693 16.7015 22.9149C16.7126 22.9438 16.7193 22.985 16.7193 22.985L16.7237 23.0108H16.7495C16.7495 23.0108 17.1423 23.0108 17.301 23.0108H17.3317V22.9801C17.3317 22.7797 17.2315 22.5436 17.0766 22.3794C16.7138 21.9945 16.091 21.9005 15.5954 22.1562C15.1817 22.3696 14.9511 22.7428 14.9093 23.2642C14.8644 23.8249 15.0273 24.2442 15.4073 24.5454C15.7442 24.8129 16.4433 24.9549 16.8589 24.5356C16.9259 24.6727 16.9843 24.7865 16.9843 24.7865L16.9929 24.8031H17.3797V24.7717C17.3797 24.7717 17.3784 24.6838 17.3772 24.5836H17.3784ZM17.0317 24.741C17.0108 24.6998 16.9548 24.5897 16.8958 24.468L16.8755 24.4262L16.8448 24.4606C16.4593 24.8928 15.7731 24.7563 15.4467 24.4969C15.0839 24.2091 14.929 23.807 14.972 23.2691C15.0126 22.7637 15.2259 22.4175 15.625 22.2116C16.0965 21.9681 16.688 22.0566 17.0323 22.4225C17.1688 22.5676 17.2598 22.7711 17.2696 22.9494C17.1245 22.9494 16.8583 22.9494 16.7753 22.9494C16.7716 22.9334 16.7661 22.9119 16.7593 22.8934C16.6677 22.6487 16.4888 22.5208 16.2287 22.5128C15.9416 22.5048 15.7295 22.6223 15.6145 22.8541C15.4215 23.2433 15.4258 23.6251 15.6268 23.989C15.7578 24.2257 15.9871 24.3346 16.292 24.3057C16.557 24.2798 16.7304 24.1495 16.8067 23.9183C16.8239 23.8667 16.8337 23.7456 16.8337 23.7406L16.8362 23.7074H16.2847V23.3379H17.3145V23.4898C17.3145 23.5894 17.3145 23.689 17.3145 23.7886C17.3145 24.0493 17.3133 24.3192 17.317 24.5848C17.3176 24.6481 17.3182 24.7065 17.3188 24.741H17.0329H17.0317ZM14.6535 24.5836C14.6505 24.3186 14.6511 24.0487 14.6511 23.7886C14.6511 23.689 14.6511 23.5894 14.6511 23.4898V23.2758H13.4971V23.7695H14.043C14.0387 23.8113 14.0313 23.8716 14.0221 23.8993C13.9539 24.1052 13.7989 24.2208 13.5604 24.2442C13.3667 24.2626 13.1048 24.2288 12.956 23.9595C12.7654 23.614 12.7617 23.2512 12.9449 22.8817C13.0501 22.6702 13.2376 22.5663 13.502 22.5749C13.7381 22.5817 13.893 22.693 13.9766 22.9149C13.9877 22.9438 13.9944 22.985 13.9944 22.985L13.9987 23.0108H14.0246C14.0246 23.0108 14.4174 23.0108 14.5761 23.0108H14.6068V22.9801C14.6068 22.7797 14.5066 22.5436 14.3517 22.3794C13.9889 21.9945 13.3661 21.9005 12.8705 22.1562C12.4568 22.3696 12.2262 22.7428 12.1844 23.2642C12.1395 23.8249 12.3024 24.2442 12.6824 24.5454C13.0193 24.8129 13.7184 24.9549 14.134 24.5356C14.201 24.6727 14.2594 24.7865 14.2594 24.7865L14.268 24.8031H14.6548V24.7717C14.6548 24.7717 14.6535 24.6838 14.6523 24.5836H14.6535ZM14.3068 24.741C14.2859 24.6998 14.2299 24.5897 14.1709 24.468L14.1506 24.4262L14.1199 24.4606C13.7344 24.8928 13.0482 24.7563 12.7218 24.4969C12.359 24.2091 12.2041 23.807 12.2471 23.2691C12.2877 22.7637 12.501 22.4175 12.9001 22.2116C13.3716 21.9681 13.9631 22.0566 14.3074 22.4225C14.4439 22.5676 14.5349 22.7711 14.5447 22.9494C14.3996 22.9494 14.1334 22.9494 14.0504 22.9494C14.0467 22.9334 14.0412 22.9119 14.0344 22.8934C13.9428 22.6487 13.7639 22.5208 13.5038 22.5128C13.2167 22.5048 13.0046 22.6223 12.8896 22.8541C12.6965 23.2433 12.7009 23.6251 12.9019 23.989C13.0329 24.2257 13.2622 24.3346 13.5671 24.3057C13.8321 24.2798 14.0055 24.1495 14.0817 23.9183C14.099 23.8667 14.1088 23.7456 14.1088 23.7406L14.1113 23.7074H13.5598V23.3379H14.5896V23.4898C14.5896 23.5894 14.5896 23.689 14.5896 23.7886C14.5896 24.0493 14.5884 24.3192 14.5921 24.5848C14.5927 24.6481 14.5933 24.7065 14.5939 24.741H14.308H14.3068ZM11.3279 22.1532L10.6879 22.1489L9.6796 24.8055L10.343 24.8074L10.5484 24.2276H11.4546L11.6495 24.8L12.2951 24.8043L12.284 24.7108L11.3279 22.1532ZM11.6938 24.7385L11.4989 24.1655H10.5047L10.2993 24.7453L9.76937 24.744L10.731 22.2116L11.2849 22.2153L12.2225 24.7225L12.225 24.7422L11.6938 24.7385ZM10.6387 23.7757H11.3605L11.0058 22.7422L10.6387 23.7757ZM10.7267 23.7136L11.0046 22.9303L11.2732 23.7136H10.7267ZM8.74507 23.2273C8.8539 23.2064 8.98116 23.132 8.97133 22.8989C8.96456 22.7366 8.87111 22.6352 8.71556 22.621C8.5139 22.6026 8.05893 22.6026 8.03802 22.6026H8.00728V22.6333C8.00728 22.6333 8.00421 23.0391 8.00421 23.2365V23.2672H8.03495C8.42167 23.2672 8.53849 23.2672 8.74507 23.2273ZM8.06876 22.6647C8.17697 22.6647 8.54095 22.6672 8.71003 22.6831C8.86742 22.6973 8.90554 22.8098 8.90923 22.902C8.91599 23.0557 8.8582 23.1424 8.73339 23.167C8.53849 23.2051 8.42413 23.2057 8.0663 23.2057C8.0663 23.0361 8.06815 22.7575 8.06876 22.6647ZM9.25046 23.3533C9.2646 23.3422 9.27751 23.333 9.29042 23.3232C9.50438 23.167 9.57877 22.9426 9.51852 22.637C9.47241 22.4034 9.31686 22.2522 9.05556 22.1882C8.9701 22.1673 8.90001 22.1569 8.83545 22.1562C8.42721 22.1519 7.45701 22.1532 7.44718 22.1532H7.41644V22.1845C7.41644 22.1845 7.41889 23.8575 7.41889 24.6229C7.41889 24.6469 7.42197 24.7711 7.42197 24.7711V24.8006H7.45209C7.45209 24.8006 7.50436 24.8018 7.53202 24.8018C7.63224 24.8 7.73553 24.8018 7.83759 24.8031C7.93658 24.8031 8.03679 24.8043 8.13701 24.8043C8.39524 24.8043 8.65715 24.8006 8.91538 24.7846C9.15024 24.7699 9.46073 24.6813 9.60951 24.3407C9.75584 23.9614 9.61812 23.5869 9.25107 23.3533H9.25046ZM9.55172 24.3173C9.41585 24.6278 9.12811 24.7096 8.91107 24.7231C8.55448 24.7453 8.18988 24.7434 7.83759 24.7416C7.73676 24.7416 7.63593 24.7403 7.53571 24.7403C7.52096 24.7403 7.50067 24.7403 7.48345 24.7403C7.48284 24.7022 7.48099 24.6401 7.48099 24.6235C7.48099 23.9196 7.47915 22.4483 7.47853 22.2165C7.64822 22.2165 8.4684 22.2165 8.83484 22.2196C8.89447 22.2196 8.96026 22.2294 9.0408 22.2497C9.27628 22.3075 9.41646 22.4421 9.45765 22.6506C9.51299 22.9297 9.44597 23.1338 9.25353 23.2746C9.23816 23.2857 9.22341 23.2967 9.20558 23.3109L9.13917 23.3613L9.17914 23.3847C9.55357 23.6029 9.69252 23.9521 9.55111 24.3186L9.55172 24.3173ZM8.77212 23.6072C8.64916 23.5912 8.06938 23.5937 8.04479 23.5937H8.01404L8.00544 24.3567H8.03679C8.05831 24.3567 8.568 24.3524 8.7961 24.3266C8.98301 24.3057 9.08507 24.1716 9.07646 23.9589C9.06847 23.7597 8.95719 23.6318 8.77212 23.6072ZM8.78995 24.2651C8.5969 24.2866 8.18558 24.2934 8.06876 24.2946L8.07614 23.6558C8.19972 23.6558 8.66145 23.6558 8.76475 23.6687C8.91968 23.689 9.00822 23.7929 9.01559 23.9614C9.02051 24.0874 8.98608 24.243 8.79057 24.2645L8.78995 24.2651Z" fill="url(#paint9_linear_1_661)"/>
<path d="M24.7545 19.06H7.20248V19.9367H24.7545V19.06Z" fill="url(#paint10_linear_1_661)"/>
<path d="M20.8682 9.40171H17.8715V8.68298C17.8715 8.37495 17.6207 8.1241 17.3127 8.1241H15.2333C14.9253 8.1241 14.6744 8.37495 14.6744 8.68298V9.40171H11.6778C11.023 9.40171 10.4899 9.93476 10.4899 10.5895V16.2914C10.4899 16.9462 11.023 17.4793 11.6778 17.4793H11.9237V17.5106C11.9237 17.6994 12.0694 17.8531 12.249 17.8531H12.3916C12.5711 17.8531 12.7168 17.6994 12.7168 17.5106V17.4793H19.6687V17.5106C19.6687 17.6994 19.8144 17.8531 19.9939 17.8531H20.1365C20.3161 17.8531 20.4618 17.6994 20.4618 17.5106V17.4793H20.8676C21.5224 17.4793 22.0554 16.9462 22.0554 16.2914V10.5895C22.0554 9.93476 21.5224 9.40171 20.8676 9.40171H20.8682ZM21.9939 16.2908C21.9939 16.9118 21.4892 17.4166 20.8682 17.4166H20.4009V17.51C20.4009 17.6643 20.2829 17.7904 20.1378 17.7904H19.9951C19.85 17.7904 19.732 17.6649 19.732 17.51V17.4166H12.656V17.51C12.656 17.6643 12.5379 17.7904 12.3928 17.7904H12.2502C12.1051 17.7904 11.987 17.6649 11.987 17.51V17.4166H11.679C11.058 17.4166 10.5533 16.9118 10.5533 16.2908V10.5889C10.5533 9.96796 11.058 9.46319 11.679 9.46319H14.7378V8.68236C14.7378 8.40815 14.9609 8.18558 15.2345 8.18558H17.3139C17.5881 8.18558 17.8107 8.40876 17.8107 8.68236V9.46319H20.8694C21.4904 9.46319 21.9952 9.96796 21.9952 10.5889V16.2908H21.9939Z" fill="url(#paint11_linear_1_661)"/>
<path d="M20.5731 9.03096H17.5457V8.28087C17.5457 7.98945 17.309 7.75274 17.0175 7.75274H14.9382C14.6468 7.75274 14.4101 7.98945 14.4101 8.28087V9.03096H11.3827C10.7451 9.03096 10.2256 9.54987 10.2256 10.1874V15.0218C10.4094 15.0169 10.5945 14.9929 10.7875 14.9493V10.1868C10.7875 9.85913 11.0543 9.59229 11.3827 9.59229H12.5035V14.4937C12.6812 14.4697 12.8601 14.466 13.0433 14.4968C13.2161 14.5238 13.3882 14.549 13.5598 14.573V9.59291H18.3954V14.7156C18.7483 14.6775 19.1006 14.6265 19.4522 14.5613V9.59291H20.5731C20.9014 9.59291 21.1682 9.85974 21.1682 10.1874V14.1266C21.1682 14.1266 21.1731 14.1254 21.1756 14.1242C21.3754 14.067 21.5623 14.0897 21.7302 14.1598V10.1874C21.7302 9.54987 21.2113 9.03096 20.5731 9.03096ZM17.0532 9.03096H14.9025V8.45302C14.9025 8.43335 14.9185 8.41736 14.9382 8.41736H17.0175C17.0372 8.41736 17.0532 8.43335 17.0532 8.45302V9.03096Z" fill="url(#paint12_linear_1_661)"/>
<path d="M21.1756 14.1248C21.1756 14.1248 21.1707 14.126 21.1682 14.1272V15.8899C21.1682 16.2183 20.9014 16.4851 20.5731 16.4851H19.4522V14.5619C19.1006 14.6271 18.7483 14.6781 18.3954 14.7162V16.4851H13.5598V14.5742C13.3882 14.5502 13.2161 14.525 13.0433 14.498C12.8601 14.4672 12.6806 14.4709 12.5035 14.4949V16.4851H11.3827C11.0543 16.4851 10.7875 16.2183 10.7875 15.8899V14.9505C10.5945 14.9941 10.4094 15.0181 10.2256 15.023V15.8899C10.2256 16.5275 10.7445 17.047 11.3827 17.047H11.6593V17.1091C11.6593 17.2807 11.7915 17.4202 11.9538 17.4202H12.0965C12.2588 17.4202 12.391 17.2807 12.391 17.1091V17.047H19.4049V17.1091C19.4049 17.2807 19.5371 17.4202 19.6994 17.4202H19.842C20.0043 17.4202 20.1365 17.2807 20.1365 17.1091V17.047H20.5731C21.2106 17.047 21.7302 16.5281 21.7302 15.8899V14.1611C21.5623 14.0904 21.376 14.0682 21.1756 14.1254V14.1248Z" fill="url(#paint13_linear_1_661)"/>
<path d="M9.0033 23.0065C9.40662 23.2414 9.52836 23.6165 9.38818 23.9798C9.26337 24.2645 9.00637 24.3862 8.72109 24.404C8.26182 24.4323 7.80009 24.4213 7.33958 24.4213C7.31253 24.4213 7.26027 24.42 7.26027 24.42C7.26027 24.42 7.2572 24.2971 7.2572 24.2725C7.2572 23.507 7.25474 21.8341 7.25474 21.8341C7.25474 21.8341 8.22985 21.8328 8.6424 21.8371C8.71372 21.8378 8.78627 21.8507 8.85574 21.8679C9.08384 21.9238 9.24861 22.0542 9.29596 22.2927C9.34637 22.5479 9.30764 22.7809 9.07954 22.9481C9.05679 22.9647 9.03527 22.982 9.0033 23.0059V23.0065ZM7.85296 23.2746L7.84497 23.9755C7.84497 23.9755 8.37187 23.9718 8.6012 23.9454C8.78073 23.9251 8.86127 23.796 8.8539 23.6097C8.84652 23.4295 8.74876 23.3103 8.576 23.2875C8.45365 23.2715 7.85235 23.274 7.85235 23.274L7.85296 23.2746ZM7.84313 22.8867C8.23292 22.8867 8.34482 22.8867 8.5471 22.8473C8.69343 22.819 8.75491 22.7108 8.74815 22.551C8.742 22.412 8.66822 22.3161 8.52066 22.3026C8.31777 22.2841 7.8462 22.2841 7.8462 22.2841C7.8462 22.2841 7.84313 22.6899 7.84313 22.8873V22.8867ZM22.0302 22.0511C21.681 21.6804 21.0698 21.5845 20.586 21.8341C20.1495 22.0597 19.9546 22.444 19.9164 22.9168C19.8771 23.4111 19.9976 23.8495 20.4028 24.1716C20.7551 24.4514 21.4541 24.5676 21.8433 24.1317C21.9183 24.286 21.9884 24.4219 21.9884 24.4219H22.3247C22.3247 24.4219 22.3241 24.334 22.3229 24.2344C22.3179 23.8698 22.321 23.5046 22.321 23.14C22.321 23.0809 22.321 23.0219 22.321 22.9574H21.2291V23.389H21.7781C21.7781 23.389 21.7683 23.5107 21.7523 23.5593C21.6748 23.7935 21.4965 23.903 21.2641 23.9251C20.9967 23.9509 20.7637 23.8679 20.6296 23.6244C20.4298 23.2623 20.4353 22.8854 20.618 22.5178C20.7354 22.2817 20.9463 22.1864 21.2033 22.1937C21.4486 22.2011 21.6183 22.3198 21.7056 22.554C21.7179 22.586 21.7253 22.6297 21.7253 22.6297C21.7253 22.6297 22.1181 22.6297 22.2767 22.6297C22.2767 22.4391 22.1815 22.211 22.0302 22.0505V22.0511ZM16.8632 22.0511C16.514 21.6804 15.9029 21.5845 15.419 21.8341C14.9825 22.0597 14.7876 22.444 14.7495 22.9168C14.7101 23.4111 14.8306 23.8495 15.2358 24.1716C15.5881 24.4514 16.2871 24.5676 16.6763 24.1317C16.7513 24.286 16.8214 24.4219 16.8214 24.4219H17.1577C17.1577 24.4219 17.1571 24.334 17.1559 24.2344C17.151 23.8698 17.154 23.5046 17.154 23.14C17.154 23.0809 17.154 23.0219 17.154 22.9574H16.0621V23.389H16.6111C16.6111 23.389 16.6013 23.5107 16.5853 23.5593C16.5078 23.7935 16.3296 23.903 16.0971 23.9251C15.8297 23.9509 15.5967 23.8679 15.4626 23.6244C15.2628 23.2623 15.2684 22.8854 15.451 22.5178C15.5684 22.2817 15.7793 22.1864 16.0363 22.1937C16.2816 22.2011 16.4513 22.3198 16.5386 22.554C16.5509 22.586 16.5583 22.6297 16.5583 22.6297C16.5583 22.6297 16.9511 22.6297 17.1098 22.6297C17.1098 22.4391 17.0145 22.211 16.8632 22.0505V22.0511ZM14.1383 22.0511C13.7891 21.6804 13.178 21.5845 12.6941 21.8341C12.2576 22.0597 12.0627 22.444 12.0245 22.9168C11.9852 23.4111 12.1057 23.8495 12.5109 24.1716C12.8632 24.4514 13.5622 24.5676 13.9514 24.1317C14.0264 24.286 14.0965 24.4219 14.0965 24.4219H14.4328C14.4328 24.4219 14.4322 24.334 14.431 24.2344C14.4261 23.8698 14.4291 23.5046 14.4291 23.14C14.4291 23.0809 14.4291 23.0219 14.4291 22.9574H13.3372V23.389H13.8862C13.8862 23.389 13.8764 23.5107 13.8604 23.5593C13.7829 23.7935 13.6046 23.903 13.3722 23.9251C13.1048 23.9509 12.8718 23.8679 12.7377 23.6244C12.5379 23.2623 12.5435 22.8854 12.7261 22.5178C12.8435 22.2817 13.0544 22.1864 13.3114 22.1937C13.5567 22.2011 13.7264 22.3198 13.8137 22.554C13.826 22.586 13.8334 22.6297 13.8334 22.6297C13.8334 22.6297 14.2262 22.6297 14.3849 22.6297C14.3849 22.4391 14.2896 22.211 14.1383 22.0505V22.0511ZM22.7256 24.4262L24.7022 24.4243L24.6992 23.9232L23.3127 23.9269V23.306L24.5559 23.3072L24.5498 22.8608L23.3115 22.8621L23.3097 22.3136H24.674L24.6746 21.8328H22.7317L22.7256 24.4262ZM19.9189 24.4231L19.3305 24.4194L19.1356 23.8464H18.1857L17.9804 24.4262L17.384 24.4249L18.3689 21.8304L18.9659 21.8341L19.9127 24.3647L19.9195 24.4231H19.9189ZM18.6634 22.4864L18.3413 23.3945H18.9758L18.664 22.4864H18.6634ZM12.0688 24.4231L11.4804 24.4194L11.2855 23.8464H10.3356L10.1303 24.4262L9.53389 24.4249L10.5188 21.8304L11.1158 21.8341L12.0627 24.3647L12.0694 24.4231H12.0688ZM10.8133 22.4864L10.4912 23.3945H11.1257L10.814 22.4864H10.8133Z" fill="url(#paint14_linear_1_661)"/>
<path d="M26.061 4.54704H5.93901C5.1717 4.54704 4.54704 5.1717 4.54704 5.93901V26.061C4.54704 26.8283 5.1717 27.453 5.93901 27.453H26.061C26.8283 27.453 27.453 26.8283 27.453 26.061V5.93901C27.453 5.1717 26.8283 4.54704 26.061 4.54704ZM27.1449 5.93901V26.061C27.1449 26.6586 26.6586 27.1449 26.061 27.1449H5.93901C5.3414 27.1449 4.85507 26.6586 4.85507 26.061V5.93901C4.85507 5.3414 5.3414 4.85507 5.93901 4.85507H26.061C26.6586 4.85507 27.1449 5.3414 27.1449 5.93901Z" fill="#BA6F2A"/>
<path d="M19.8427 17.4504H19.7C19.5205 17.4504 19.3748 17.2967 19.3748 17.1079V17.0766H12.4229V17.1079C12.4229 17.2967 12.2772 17.4504 12.0977 17.4504H11.9551C11.7755 17.4504 11.6298 17.2967 11.6298 17.1079V17.0766H11.3839C10.7291 17.0766 10.1961 16.5435 10.1961 15.8887V10.1868C10.1961 9.53205 10.7291 8.999 11.3839 8.999H14.3805V8.28027C14.3805 7.97224 14.6314 7.72139 14.9394 7.72139H17.0188C17.3268 7.72139 17.5776 7.97224 17.5776 8.28027V8.999H20.5743C21.2291 8.999 21.7621 9.53205 21.7621 10.1868V15.8887C21.7621 16.5435 21.2291 17.0766 20.5743 17.0766H20.1685V17.1079C20.1685 17.2967 20.0228 17.4504 19.8433 17.4504H19.8427ZM12.3608 17.0151H19.4369V17.1085C19.4369 17.2629 19.5549 17.3889 19.7 17.3889H19.8427C19.9877 17.3889 20.1058 17.2635 20.1058 17.1085V17.0151H20.5731C21.194 17.0151 21.6988 16.5103 21.6988 15.8893V10.1875C21.6988 9.56648 21.194 9.06171 20.5731 9.06171H17.5143V8.28088C17.5143 8.00667 17.2911 7.7841 17.0175 7.7841H14.9382C14.664 7.7841 14.4414 8.00728 14.4414 8.28088V9.06171H11.3827C10.7617 9.06171 10.2569 9.56648 10.2569 10.1875V15.8893C10.2569 16.5103 10.7617 17.0151 11.3827 17.0151H11.6907V17.1085C11.6907 17.2629 11.8087 17.3889 11.9538 17.3889H12.0965C12.2416 17.3889 12.3596 17.2635 12.3596 17.1085V17.0151H12.3608Z" fill="url(#paint15_linear_1_661)"/>
<path d="M20.5731 16.5152H19.4215V9.56217H20.5731C20.918 9.56217 21.199 9.84314 21.199 10.1881V15.8899C21.199 16.2349 20.918 16.5158 20.5731 16.5158V16.5152ZM19.4836 16.4531H20.5731C20.8842 16.4531 21.1369 16.2004 21.1369 15.8893V10.1874C21.1369 9.87634 20.8842 9.62365 20.5731 9.62365H19.4836V16.4531ZM18.4267 16.5152H13.529V9.56217H18.4267V16.5152ZM13.5911 16.4531H18.3646V9.62365H13.5911V16.4531ZM12.5342 16.5152H11.3827C11.0378 16.5152 10.7568 16.2342 10.7568 15.8893V10.1874C10.7568 9.84253 11.0378 9.56155 11.3827 9.56155H12.5342V16.5146V16.5152ZM11.3827 9.62427C11.0716 9.62427 10.8189 9.87696 10.8189 10.1881V15.8899C10.8189 16.201 11.0716 16.4537 11.3827 16.4537H12.4721V9.62427H11.3827Z" fill="url(#paint16_linear_1_661)"/>
<path d="M17.0175 8.38601H14.9382C14.9013 8.38601 14.8712 8.41614 14.8712 8.45302V9.06232H17.0839V8.45302C17.0839 8.41614 17.0538 8.38601 17.0169 8.38601H17.0175ZM17.0225 8.9996H14.9339V8.45241C14.9339 8.45241 14.9364 8.44749 14.9388 8.44749H17.0182C17.0182 8.44749 17.0231 8.44995 17.0231 8.45241V8.9996H17.0225Z" fill="url(#paint17_linear_1_661)"/>
<path d="M24.7932 19.9515H7.17911V19.0126H24.7932V19.9515ZM7.2412 19.8894H24.7311V19.0747H7.2412V19.8894Z" fill="url(#paint18_linear_1_661)"/>
<path d="M26.1907 4.55504C26.883 4.55504 27.445 5.11637 27.445 5.80928V26.1907C27.445 26.883 26.8836 27.445 26.1907 27.445H5.80928C5.11699 27.445 4.55504 26.8836 4.55504 26.1907V5.80928C4.55504 5.11699 5.11637 4.55504 5.80928 4.55504H26.1907ZM26.1907 3.5621H5.80928C4.57041 3.5621 3.5621 4.57041 3.5621 5.80928V26.1907C3.5621 27.4296 4.57041 28.4379 5.80928 28.4379H26.1907C27.4296 28.4379 28.4379 27.4296 28.4379 26.1907V5.80928C28.4379 4.57041 27.4296 3.5621 26.1907 3.5621Z" fill="url(#paint19_linear_1_661)"/>
<path d="M26.1907 28.5H5.80928C4.53598 28.5 3.5 27.464 3.5 26.1907V5.80928C3.5 4.53598 4.53598 3.5 5.80928 3.5H26.1907C27.464 3.5 28.5 4.53598 28.5 5.80928V26.1907C28.5 27.464 27.464 28.5 26.1907 28.5ZM5.80928 3.62419C4.60423 3.62419 3.62419 4.60423 3.62419 5.80928V26.1907C3.62419 27.3958 4.60423 28.3758 5.80928 28.3758H26.1907C27.3958 28.3758 28.3758 27.3958 28.3758 26.1907V5.80928C28.3758 4.60423 27.3958 3.62419 26.1907 3.62419H5.80928Z" fill="url(#paint20_linear_1_661)"/>
<path d="M26.1907 4.4622H5.80928C5.06658 4.4622 4.4622 5.06658 4.4622 5.80928V26.1907C4.4622 26.9334 5.06658 27.5378 5.80928 27.5378H26.1907C26.9334 27.5378 27.5378 26.9334 27.5378 26.1907V5.80928C27.5378 5.06658 26.9334 4.4622 26.1907 4.4622ZM26.1907 27.3515H5.80928C5.16925 27.3515 4.6485 26.8308 4.6485 26.1907V5.80928C4.6485 5.16925 5.16925 4.6485 5.80928 4.6485H26.1907C26.8308 4.6485 27.3515 5.16925 27.3515 5.80928V26.1907C27.3515 26.8308 26.8308 27.3515 26.1907 27.3515Z" fill="url(#paint21_linear_1_661)"/>
<path d="M15.7153 5.16618H6.21999C5.63898 5.16618 5.16618 5.63898 5.16618 6.21999V12.1961C5.85355 8.94796 10.043 6.25196 15.7153 5.16618Z" fill="url(#paint22_linear_1_661)"/>
</g>
<defs>
<filter id="filter0_d_1_661" x="8.33993" y="5.84558" width="37.3171" height="35.4812" filterUnits="userSpaceOnUse" color-interpolation-filters="sRGB">
<feFlood flood-opacity="0" result="BackgroundImageFix"/>
<feColorMatrix in="SourceAlpha" type="matrix" values="0 0 0 0 0 0 0 0 0 0 0 0 0 0 0 0 0 0 127 0" result="hardAlpha"/>
<feOffset dx="12" dy="12"/>
<feGaussianBlur stdDeviation="5"/>
<feColorMatrix type="matrix" values="0 0 0 0 0.137255 0 0 0 0 0.121569 0 0 0 0 0.12549 0 0 0 0.25 0"/>
<feBlend mode="normal" in2="BackgroundImageFix" result="effect1_dropShadow_1_661"/>
<feBlend mode="normal" in="SourceGraphic" in2="effect1_dropShadow_1_661" result="shape"/>
</filter>
<linearGradient id="paint0_linear_1_661" x1="8.79549" y1="7.71462" x2="22.3733" y2="17.7479" gradientUnits="userSpaceOnUse">
<stop stop-color="#FCEE1F"/>
<stop offset="0.2" stop-color="#FCE419"/>
<stop offset="0.64" stop-color="#FED611"/>
<stop offset="1" stop-color="#FFD10F"/>
</linearGradient>
<linearGradient id="paint1_linear_1_661" x1="17.2874" y1="32.2043" x2="14.8601" y2="8.23968" gradientUnits="userSpaceOnUse">
<stop stop-color="#E7B139"/>
<stop offset="0.51" stop-color="#F5AE1B"/>
<stop offset="0.74" stop-color="#F2AA1C"/>
<stop offset="0.96" stop-color="#EA9E22"/>
<stop offset="1" stop-color="#E99C24"/>
</linearGradient>
<linearGradient id="paint2_linear_1_661" x1="16.8841" y1="17.8635" x2="15.213" y2="1.36471" gradientUnits="userSpaceOnUse">
<stop offset="0.09" stop-color="#FCCE4D"/>
<stop offset="0.51" stop-color="#F5AE1B"/>
<stop offset="0.74" stop-color="#F2AA1C"/>
<stop offset="0.96" stop-color="#EA9E22"/>
<stop offset="1" stop-color="#E99C24"/>
</linearGradient>
<linearGradient id="paint3_linear_1_661" x1="15.9785" y1="7.23137" x2="16.5146" y2="18.5282" gradientUnits="userSpaceOnUse">
<stop stop-color="#A57830"/>
<stop offset="0.38" stop-color="#C17533"/>
<stop offset="0.88" stop-color="#B97029"/>
<stop offset="0.91" stop-color="#BC7328"/>
<stop offset="0.95" stop-color="#C87D27"/>
<stop offset="0.98" stop-color="#DB8F25"/>
<stop offset="1" stop-color="#E99C24"/>
</linearGradient>
<linearGradient id="paint4_linear_1_661" x1="16.471" y1="20.2478" x2="15.957" y2="14.4918" gradientUnits="userSpaceOnUse">
<stop stop-color="#FFD10F"/>
<stop offset="0.44" stop-color="#F2AA1E"/>
<stop offset="0.74" stop-color="#EFA61F"/>
<stop offset="1" stop-color="#E99C24"/>
</linearGradient>
<linearGradient id="paint5_linear_1_661" x1="16.9782" y1="17.3385" x2="14.7113" y2="6.3743" gradientUnits="userSpaceOnUse">
<stop offset="0.09" stop-color="#FCD553"/>
<stop offset="0.51" stop-color="#F2AA1E"/>
<stop offset="0.77" stop-color="#EFA61F"/>
<stop offset="1" stop-color="#E99C24"/>
</linearGradient>
<linearGradient id="paint6_linear_1_661" x1="16.1599" y1="25.1019" x2="16.1599" y2="22.0868" gradientUnits="userSpaceOnUse">
<stop stop-color="#B67F2B"/>
<stop offset="0.38" stop-color="#C17533"/>
<stop offset="0.88" stop-color="#B97029"/>
<stop offset="0.91" stop-color="#BC7328"/>
<stop offset="0.95" stop-color="#C87D27"/>
<stop offset="0.98" stop-color="#DB8F25"/>
<stop offset="1" stop-color="#E99C24"/>
</linearGradient>
<linearGradient id="paint7_linear_1_661" x1="16.2177" y1="20.4894" x2="16.1801" y2="19.1713" gradientUnits="userSpaceOnUse">
<stop stop-color="#A57830"/>
<stop offset="0.38" stop-color="#C17533"/>
<stop offset="0.88" stop-color="#B97029"/>
<stop offset="0.91" stop-color="#BC7328"/>
<stop offset="0.95" stop-color="#C87D27"/>
<stop offset="0.98" stop-color="#DB8F25"/>
<stop offset="1" stop-color="#E99C24"/>
</linearGradient>
<linearGradient id="paint8_linear_1_661" x1="16.1537" y1="18.7169" x2="16.2718" y2="20.6352" gradientUnits="userSpaceOnUse">
<stop stop-color="#F9AA1A"/>
<stop offset="0.03" stop-color="#F3A51B"/>
<stop offset="0.18" stop-color="#D78D26"/>
<stop offset="0.28" stop-color="#CD842A"/>
<stop offset="0.52" stop-color="#D36F28"/>
<stop offset="0.74" stop-color="#D27B2D"/>
<stop offset="1" stop-color="#D28632"/>
</linearGradient>
<linearGradient id="paint9_linear_1_661" x1="16.0713" y1="21.8501" x2="16.2299" y2="24.7711" gradientUnits="userSpaceOnUse">
<stop stop-color="#F9AA1A"/>
<stop offset="0.03" stop-color="#F3A51B"/>
<stop offset="0.18" stop-color="#D78D26"/>
<stop offset="0.28" stop-color="#CD842A"/>
<stop offset="0.52" stop-color="#D36F28"/>
<stop offset="0.74" stop-color="#D27B2D"/>
<stop offset="1" stop-color="#D28632"/>
</linearGradient>
<linearGradient id="paint10_linear_1_661" x1="15.952" y1="21.5931" x2="16.0166" y2="16.3843" gradientUnits="userSpaceOnUse">
<stop stop-color="#231F20"/>
<stop offset="0.13" stop-color="#272425"/>
<stop offset="0.6" stop-color="#333233"/>
<stop offset="1" stop-color="#383739"/>
</linearGradient>
<linearGradient id="paint11_linear_1_661" x1="16.4113" y1="15.9797" x2="16.5066" y2="17.7455" gradientUnits="userSpaceOnUse">
<stop stop-color="#F9AA1A"/>
<stop offset="0.03" stop-color="#F3A51B"/>
<stop offset="0.18" stop-color="#D78D26"/>
<stop offset="0.28" stop-color="#CD842A"/>
<stop offset="0.52" stop-color="#D36F28"/>
<stop offset="0.74" stop-color="#D27B2D"/>
<stop offset="1" stop-color="#D28632"/>
</linearGradient>
<linearGradient id="paint12_linear_1_661" x1="15.3145" y1="7.46193" x2="16.4611" y2="16.2828" gradientUnits="userSpaceOnUse">
<stop stop-color="#3C3A3C"/>
<stop offset="0.19" stop-color="#231F20"/>
<stop offset="0.49" stop-color="#231F20"/>
<stop offset="0.5" stop-color="#231F20"/>
<stop offset="0.69" stop-color="#262223"/>
<stop offset="0.87" stop-color="#302D2E"/>
<stop offset="1" stop-color="#3C3A3C"/>
</linearGradient>
<linearGradient id="paint13_linear_1_661" x1="15.2235" y1="12.517" x2="17.0347" y2="18.7335" gradientUnits="userSpaceOnUse">
<stop stop-color="#231F20"/>
<stop offset="0.48" stop-color="#292626"/>
<stop offset="1" stop-color="#353434"/>
</linearGradient>
<linearGradient id="paint14_linear_1_661" x1="15.9957" y1="25.1431" x2="15.9471" y2="21.7671" gradientUnits="userSpaceOnUse">
<stop stop-color="#231F20"/>
<stop offset="0.13" stop-color="#272425"/>
<stop offset="0.6" stop-color="#333233"/>
<stop offset="1" stop-color="#383739"/>
</linearGradient>
<linearGradient id="paint15_linear_1_661" x1="16.6708" y1="14.2096" x2="13.5764" y2="8.97686" gradientUnits="userSpaceOnUse">
<stop stop-color="#231F20"/>
<stop offset="0.08" stop-color="#282526"/>
<stop offset="0.42" stop-color="#3D3C3E"/>
<stop offset="0.74" stop-color="#4A4B4C"/>
<stop offset="1" stop-color="#4F5052"/>
</linearGradient>
<linearGradient id="paint16_linear_1_661" x1="14.166" y1="9.45826" x2="18.8417" y2="18.696" gradientUnits="userSpaceOnUse">
<stop stop-color="#444546"/>
<stop offset="0.28" stop-color="#231F20"/>
<stop offset="0.34" stop-color="#282526"/>
<stop offset="0.58" stop-color="#3D3C3E"/>
<stop offset="0.81" stop-color="#4A4B4C"/>
<stop offset="1" stop-color="#4F5052"/>
</linearGradient>
<linearGradient id="paint17_linear_1_661" x1="15.8272" y1="8.0872" x2="16.1918" y2="9.69497" gradientUnits="userSpaceOnUse">
<stop stop-color="#231F20"/>
<stop offset="0.08" stop-color="#282526"/>
<stop offset="0.42" stop-color="#3D3C3E"/>
<stop offset="0.74" stop-color="#4A4B4C"/>
<stop offset="1" stop-color="#4F5052"/>
</linearGradient>
<linearGradient id="paint18_linear_1_661" x1="15.9785" y1="19.8998" x2="15.9945" y2="19.0077" gradientUnits="userSpaceOnUse">
<stop stop-color="#231F20"/>
<stop offset="0.08" stop-color="#282526"/>
<stop offset="0.42" stop-color="#3D3C3E"/>
<stop offset="0.74" stop-color="#4A4B4C"/>
<stop offset="1" stop-color="#4F5052"/>
</linearGradient>
<linearGradient id="paint19_linear_1_661" x1="5.15757" y1="3.40655" x2="26.8424" y2="28.5934" gradientUnits="userSpaceOnUse">
<stop stop-color="#EDEBE6"/>
<stop offset="1" stop-color="#CDC9BD"/>
</linearGradient>
<linearGradient id="paint20_linear_1_661" x1="7.91628" y1="4.32509" x2="23.7677" y2="27.2187" gradientUnits="userSpaceOnUse">
<stop stop-color="white"/>
<stop offset="1" stop-color="#B7B2A6"/>
</linearGradient>
<linearGradient id="paint21_linear_1_661" x1="19.7578" y1="29.3688" x2="11.9126" y2="1.45878" gradientUnits="userSpaceOnUse">
<stop stop-color="#EDEBE6"/>
<stop offset="1" stop-color="#C7C2B7"/>
</linearGradient>
<linearGradient id="paint22_linear_1_661" x1="3.06901" y1="1.05238" x2="14.0799" y2="12.4475" gradientUnits="userSpaceOnUse">
<stop stop-color="white"/>
<stop offset="0.49" stop-color="#F4AD1C"/>
</linearGradient>
<clipPath id="clip0_1_661">
<rect width="25" height="25" fill="white" transform="translate(3.5 3.5)"/>
</clipPath>
</defs>
</svg>
