<?xml version="1.0" encoding="utf-8"?>
<!-- Generator: Adobe Illustrator 16.0.0, SVG Export Plug-In . SVG Version: 6.00 Build 0)  -->
<!DOCTYPE svg PUBLIC "-//W3C//DTD SVG 1.1//EN" "http://www.w3.org/Graphics/SVG/1.1/DTD/svg11.dtd">
<svg version="1.1" id="Layer_1" xmlns="http://www.w3.org/2000/svg" xmlns:xlink="http://www.w3.org/1999/xlink" x="0px" y="0px"
	 width="32px" height="32px" viewBox="0 0 32 32" enable-background="new 0 0 32 32" xml:space="preserve">
<g>
	<g>
		<defs>
			<path id="SVGID_1_" d="M2.091,11.219C1.576,12.718,1.295,14.326,1.295,16c0,8.121,6.583,14.704,14.704,14.704
				S30.703,24.121,30.703,16c0-1.674-0.28-3.282-0.796-4.781H2.091z"/>
		</defs>
		<clipPath id="SVGID_2_">
			<use xlink:href="#SVGID_1_"  overflow="visible"/>
		</clipPath>
		
			<linearGradient id="SVGID_3_" gradientUnits="userSpaceOnUse" x1="-579.1855" y1="1.0928" x2="-579.1227" y2="1.0928" gradientTransform="matrix(0 -314.7325 314.7325 0 -327.9141 -182260.5625)">
			<stop  offset="0" style="stop-color:#31427B"/>
			<stop  offset="0.1696" style="stop-color:#2F417C"/>
			<stop  offset="1" style="stop-color:#273C80"/>
		</linearGradient>
		<rect x="1.295" y="11.219" clip-path="url(#SVGID_2_)" fill="url(#SVGID_3_)" width="29.408" height="19.485"/>
	</g>
</g>
<g>
	<g>
		<defs>
			<path id="SVGID_4_" d="M2.091,11.219h27.816c-1.984-5.774-7.46-9.923-13.908-9.923C9.553,1.296,4.075,5.445,2.091,11.219"/>
		</defs>
		<clipPath id="SVGID_5_">
			<use xlink:href="#SVGID_4_"  overflow="visible"/>
		</clipPath>
		
			<linearGradient id="SVGID_6_" gradientUnits="userSpaceOnUse" x1="-579.1865" y1="1.0928" x2="-579.1223" y2="1.0928" gradientTransform="matrix(0 -314.7325 314.7325 0 -327.9141 -182260.5625)">
			<stop  offset="0" style="stop-color:#31427B"/>
			<stop  offset="0.1696" style="stop-color:#2F417C"/>
			<stop  offset="1" style="stop-color:#273C80"/>
		</linearGradient>
		<rect x="2.091" y="1.296" clip-path="url(#SVGID_5_)" fill="url(#SVGID_6_)" width="27.816" height="9.923"/>
	</g>
</g>
<g>
	<g>
		<defs>
			<path id="SVGID_7_" d="M2.091,11.219h27.816c-1.984-5.774-7.46-9.923-13.908-9.923C9.553,1.296,4.075,5.445,2.091,11.219"/>
		</defs>
		<clipPath id="SVGID_8_">
			<use xlink:href="#SVGID_7_"  overflow="visible"/>
		</clipPath>
		
			<linearGradient id="SVGID_9_" gradientUnits="userSpaceOnUse" x1="-576.7046" y1="-1.501" x2="-576.6429" y2="-1.501" gradientTransform="matrix(0 228.9541 -228.9541 0 -327.6797 132035.4688)">
			<stop  offset="0" style="stop-color:#A8A8A8"/>
			<stop  offset="1" style="stop-color:#E2E0FF"/>
		</linearGradient>
		<rect x="2.091" y="1.296" clip-path="url(#SVGID_8_)" fill="url(#SVGID_9_)" width="27.816" height="9.923"/>
	</g>
</g>
<g>
	<g>
		<defs>
			<rect id="SVGID_10_" x="6.535" y="4.977" width="18.929" height="0.167"/>
		</defs>
		<clipPath id="SVGID_11_">
			<use xlink:href="#SVGID_10_"  overflow="visible"/>
		</clipPath>
		
			<linearGradient id="SVGID_12_" gradientUnits="userSpaceOnUse" x1="-577.3911" y1="1.3398" x2="-577.3291" y2="1.3398" gradientTransform="matrix(301.4798 0 0 301.4798 174078.4063 -398.9141)">
			<stop  offset="0" style="stop-color:#31427B"/>
			<stop  offset="1" style="stop-color:#34407D"/>
		</linearGradient>
		<rect x="6.535" y="4.977" clip-path="url(#SVGID_11_)" fill="url(#SVGID_12_)" width="18.929" height="0.167"/>
	</g>
</g>
<g>
	<g>
		<defs>
			<rect id="SVGID_13_" x="2.421" y="10.349" width="27.157" height="0.167"/>
		</defs>
		<clipPath id="SVGID_14_">
			<use xlink:href="#SVGID_13_"  overflow="visible"/>
		</clipPath>
		
			<linearGradient id="SVGID_15_" gradientUnits="userSpaceOnUse" x1="-577.4048" y1="1.3574" x2="-577.3156" y2="1.3574" gradientTransform="matrix(301.4798 0 0 301.4798 174078.4063 -398.9141)">
			<stop  offset="0" style="stop-color:#31427B"/>
			<stop  offset="1" style="stop-color:#34407D"/>
		</linearGradient>
		<rect x="2.421" y="10.349" clip-path="url(#SVGID_14_)" fill="url(#SVGID_15_)" width="27.157" height="0.167"/>
	</g>
</g>
<g>
	<g>
		<defs>
			<rect id="SVGID_16_" x="0.224" y="0.224" width="31.551" height="31.551"/>
		</defs>
		<clipPath id="SVGID_17_">
			<use xlink:href="#SVGID_16_"  overflow="visible"/>
		</clipPath>
		<path clip-path="url(#SVGID_17_)" fill="#282C63" d="M11.642,18.251c-0.459,0-1.493,0.278-2.225,0.548l-0.155,0.059l0.03-0.162
			c0.196-1.068,0.48-2.79,0.593-3.48l0.013-0.079h4.416l0.493-1.253l-0.094,0.026H9.524c-0.219,1.585-0.624,4.155-0.896,5.586
			c0.462-0.155,1.083-0.323,1.867-0.323c2.023,0,3.231,1.115,3.231,2.983c0,1.446-0.763,2.905-2.467,2.905
			c-1.273,0-1.995-0.646-2.473-1.076c-0.132-0.104-0.25-0.104-0.418,0.008c-0.224,0.173-0.362,0.432-0.362,0.572L8.005,24.58
			c-0.033,0.213,0.027,0.334,0.277,0.566c0.171,0.17,0.808,0.722,1.926,0.722c1.02,0,2.326-0.519,3.327-1.318
			c1.067-0.876,1.609-1.933,1.609-3.141C15.144,19.839,13.941,18.251,11.642,18.251"/>
	</g>
	<g>
		<defs>
			<rect id="SVGID_18_" x="0.224" y="0.224" width="31.551" height="31.551"/>
		</defs>
		<clipPath id="SVGID_19_">
			<use xlink:href="#SVGID_18_"  overflow="visible"/>
		</clipPath>
		<path clip-path="url(#SVGID_19_)" fill="#282C63" d="M22.049,24.936c-0.347-0.254-0.363-0.699-0.363-1.403v-9.805
			c-0.854,0.35-1.992,0.651-3.313,0.875v0.314l0.854,0.086c0.899,0.083,1.061,0.177,1.061,1.185v7.345
			c0,1.47-0.169,1.618-2.238,1.753v0.354h5.895v-0.354C22.863,25.215,22.354,25.157,22.049,24.936"/>
	</g>
	<g>
		<defs>
			<rect id="SVGID_20_" x="0.224" y="0.224" width="31.551" height="31.551"/>
		</defs>
		<clipPath id="SVGID_21_">
			<use xlink:href="#SVGID_20_"  overflow="visible"/>
		</clipPath>
		<path clip-path="url(#SVGID_21_)" fill="#64699B" d="M10.237,26.051c-0.803,0-1.572-0.289-2.056-0.773
			c-0.25-0.231-0.378-0.418-0.333-0.723c0.004-0.222,0.191-0.527,0.438-0.719l0.005-0.004c0.235-0.157,0.447-0.155,0.647,0.004
			c0.607,0.545,1.242,1.031,2.351,1.031c1.574,0,2.278-1.365,2.278-2.719c0-1.774-1.109-2.793-3.043-2.793
			c-0.8,0-1.426,0.182-1.882,0.34l-0.064,0.021l-0.124-0.165l0.007-0.042c0.277-1.439,0.698-4.118,0.917-5.714l0.011-0.081h5.447
			l0.214,0.133l-0.579,1.47h-4.384c-0.114,0.699-0.364,2.211-0.55,3.245c0.733-0.256,1.687-0.504,2.135-0.504
			c1.41,0,2.272,0.574,2.748,1.058c0.599,0.608,0.943,1.442,0.943,2.286c0,1.27-0.565,2.375-1.68,3.287
			C12.65,25.518,11.297,26.051,10.237,26.051 M8.398,23.986c-0.224,0.174-0.362,0.433-0.362,0.574l-0.001,0.014
			c-0.033,0.213,0.027,0.335,0.277,0.566c0.171,0.172,0.809,0.721,1.926,0.721c1.02,0,2.326-0.518,3.327-1.316
			c1.068-0.877,1.61-1.934,1.61-3.143c0-1.567-1.203-3.156-3.502-3.156c-0.459,0-1.492,0.279-2.225,0.549l-0.155,0.059l0.03-0.164
			c0.196-1.065,0.48-2.789,0.593-3.479l0.013-0.079h4.416l0.494-1.253l-0.094,0.026H9.554c-0.22,1.586-0.624,4.155-0.897,5.587
			c0.463-0.156,1.083-0.324,1.867-0.324c2.023,0,3.231,1.115,3.231,2.981c0,1.447-0.763,2.906-2.467,2.906
			c-1.272,0-1.995-0.646-2.473-1.074C8.685,23.874,8.566,23.875,8.398,23.986"/>
	</g>
	<g>
		<defs>
			<rect id="SVGID_22_" x="0.224" y="0.224" width="31.551" height="31.551"/>
		</defs>
		<clipPath id="SVGID_23_">
			<use xlink:href="#SVGID_22_"  overflow="visible"/>
		</clipPath>
		<path clip-path="url(#SVGID_23_)" fill="#64699B" d="M24.161,25.82h-6.271v-0.719l0.086-0.004
			c0.974-0.063,1.584-0.113,1.866-0.326c0.257-0.191,0.285-0.543,0.285-1.246v-7.344c0-0.916-0.084-0.924-0.89-0.996l-1.024-0.105
			v-0.643l0.079-0.013c1.407-0.235,2.611-0.557,3.479-0.932l0.131-0.057v10.09c0,1.395,0.062,1.438,2.17,1.57l0.089,0.006V25.82z
			 M18.077,25.633h5.896V25.28c-1.078-0.069-1.59-0.128-1.895-0.351c-0.346-0.255-0.363-0.699-0.363-1.404v-9.804
			c-0.854,0.35-1.992,0.651-3.313,0.875v0.314l0.854,0.086c0.9,0.083,1.061,0.178,1.061,1.185v7.344
			c0,1.473-0.168,1.619-2.238,1.754L18.077,25.633L18.077,25.633z"/>
	</g>
	<g>
		<defs>
			<rect id="SVGID_24_" x="0.224" y="0.224" width="31.551" height="31.551"/>
		</defs>
		<clipPath id="SVGID_25_">
			<use xlink:href="#SVGID_24_"  overflow="visible"/>
		</clipPath>
		<path clip-path="url(#SVGID_25_)" fill="#64699B" d="M9.484,13.018c-0.036,0.255-0.076,0.536-0.119,0.832
			c-0.23,1.564-0.035,1.538,0.191-0.007c0.043-0.294,0.083-0.571,0.118-0.825C9.674,13.018,9.49,12.972,9.484,13.018"/>
	</g>
	<g>
		<defs>
			<rect id="SVGID_26_" x="0.224" y="0.224" width="31.551" height="31.551"/>
		</defs>
		<clipPath id="SVGID_27_">
			<use xlink:href="#SVGID_26_"  overflow="visible"/>
		</clipPath>
		<path clip-path="url(#SVGID_27_)" fill="#64699B" d="M10.232,13.033c-0.223,1.606-0.631,4.199-0.902,5.609l0.196-0.021
			c0.272-1.433,0.677-4.001,0.896-5.587C10.422,13.036,10.237,12.998,10.232,13.033"/>
	</g>
	<g>
		<defs>
			<rect id="SVGID_28_" x="0.224" y="0.224" width="31.551" height="31.551"/>
		</defs>
		<clipPath id="SVGID_29_">
			<use xlink:href="#SVGID_28_"  overflow="visible"/>
		</clipPath>
		<polygon clip-path="url(#SVGID_29_)" fill="#64699B" points="11.152,15.137 15.568,15.137 15.575,15.325 11.313,15.325 		"/>
	</g>
	<g>
		<defs>
			<rect id="SVGID_30_" x="0.224" y="0.224" width="31.551" height="31.551"/>
		</defs>
		<clipPath id="SVGID_31_">
			<use xlink:href="#SVGID_30_"  overflow="visible"/>
		</clipPath>
		<polygon clip-path="url(#SVGID_31_)" fill="#64699B" points="10.615,13.722 15.97,13.722 15.968,13.91 10.779,13.91 		"/>
	</g>
	<g>
		<defs>
			<rect id="SVGID_32_" x="0.224" y="0.224" width="31.551" height="31.551"/>
		</defs>
		<clipPath id="SVGID_33_">
			<use xlink:href="#SVGID_32_"  overflow="visible"/>
		</clipPath>
		<polyline clip-path="url(#SVGID_33_)" fill="#64699B" points="20.128,20.286 20.128,12.94 20.316,12.94 20.316,20.286 		"/>
	</g>
	<g>
		<defs>
			<rect id="SVGID_34_" x="0.224" y="0.224" width="31.551" height="31.551"/>
		</defs>
		<clipPath id="SVGID_35_">
			<use xlink:href="#SVGID_34_"  overflow="visible"/>
		</clipPath>
		<polyline clip-path="url(#SVGID_35_)" fill="#64699B" points="21.695,20.386 21.695,13.041 21.884,13.041 21.884,20.386 		"/>
	</g>
	<g>
		<defs>
			<rect id="SVGID_36_" x="0.224" y="0.224" width="31.551" height="31.551"/>
		</defs>
		<clipPath id="SVGID_37_">
			<use xlink:href="#SVGID_36_"  overflow="visible"/>
		</clipPath>
		<path clip-path="url(#SVGID_37_)" fill="#64699B" d="M30.521,19.854h0.063c0.009-0.037,0.02-0.076,0.027-0.113h-0.09V19.854z"/>
	</g>
	<g>
		<defs>
			<rect id="SVGID_38_" x="0.224" y="0.224" width="31.551" height="31.551"/>
		</defs>
		<clipPath id="SVGID_39_">
			<use xlink:href="#SVGID_38_"  overflow="visible"/>
		</clipPath>
		<rect x="16.447" y="29.37" clip-path="url(#SVGID_39_)" fill="#64699B" width="0.981" height="0.114"/>
	</g>
	<g>
		<defs>
			<rect id="SVGID_40_" x="0.224" y="0.224" width="31.551" height="31.551"/>
		</defs>
		<clipPath id="SVGID_41_">
			<use xlink:href="#SVGID_40_"  overflow="visible"/>
		</clipPath>
		<rect x="12.52" y="29.37" clip-path="url(#SVGID_41_)" fill="#64699B" width="0.982" height="0.114"/>
	</g>
	<g>
		<defs>
			<rect id="SVGID_42_" x="0.224" y="0.224" width="31.551" height="31.551"/>
		</defs>
		<clipPath id="SVGID_43_">
			<use xlink:href="#SVGID_42_"  overflow="visible"/>
		</clipPath>
		<path clip-path="url(#SVGID_43_)" fill="#64699B" d="M8.871,29.484h0.703V29.37H8.665C8.733,29.408,8.802,29.445,8.871,29.484"/>
	</g>
	<g>
		<defs>
			<rect id="SVGID_44_" x="0.224" y="0.224" width="31.551" height="31.551"/>
		</defs>
		<clipPath id="SVGID_45_">
			<use xlink:href="#SVGID_44_"  overflow="visible"/>
		</clipPath>
		<rect x="18.411" y="29.37" clip-path="url(#SVGID_45_)" fill="#64699B" width="0.981" height="0.114"/>
	</g>
	<g>
		<defs>
			<rect id="SVGID_46_" x="0.224" y="0.224" width="31.551" height="31.551"/>
		</defs>
		<clipPath id="SVGID_47_">
			<use xlink:href="#SVGID_46_"  overflow="visible"/>
		</clipPath>
		<path clip-path="url(#SVGID_47_)" fill="#64699B" d="M30.521,18.759h0.287c0.006-0.039,0.012-0.077,0.02-0.114h-0.307V18.759z"/>
	</g>
	<g>
		<defs>
			<rect id="SVGID_48_" x="0.224" y="0.224" width="31.551" height="31.551"/>
		</defs>
		<clipPath id="SVGID_49_">
			<use xlink:href="#SVGID_48_"  overflow="visible"/>
		</clipPath>
		<path clip-path="url(#SVGID_49_)" fill="#64699B" d="M29.622,13.485h1.136c-0.007-0.038-0.014-0.076-0.021-0.114h-1.113h-2.859
			v0.114H29.622z"/>
	</g>
	<g>
		<defs>
			<rect id="SVGID_50_" x="0.224" y="0.224" width="31.551" height="31.551"/>
		</defs>
		<clipPath id="SVGID_51_">
			<use xlink:href="#SVGID_50_"  overflow="visible"/>
		</clipPath>
		<rect x="26.643" y="12.94" clip-path="url(#SVGID_51_)" fill="#64699B" width="0.119" height="0.432"/>
	</g>
	<g>
		<defs>
			<rect id="SVGID_52_" x="0.224" y="0.224" width="31.551" height="31.551"/>
		</defs>
		<clipPath id="SVGID_53_">
			<use xlink:href="#SVGID_52_"  overflow="visible"/>
		</clipPath>
		<path clip-path="url(#SVGID_53_)" fill="#64699B" d="M22.303,29.896c0.041-0.019,0.081-0.037,0.121-0.057v-0.349h-0.121V29.896z"
			/>
	</g>
	<g>
		<defs>
			<rect id="SVGID_54_" x="0.224" y="0.224" width="31.551" height="31.551"/>
		</defs>
		<clipPath id="SVGID_55_">
			<use xlink:href="#SVGID_54_"  overflow="visible"/>
		</clipPath>
		<rect x="28.17" y="22.96" clip-path="url(#SVGID_55_)" fill="#64699B" width="0.957" height="0.114"/>
	</g>
	<g>
		<defs>
			<rect id="SVGID_56_" x="0.224" y="0.224" width="31.551" height="31.551"/>
		</defs>
		<clipPath id="SVGID_57_">
			<use xlink:href="#SVGID_56_"  overflow="visible"/>
		</clipPath>
		<rect x="22.305" y="28.148" clip-path="url(#SVGID_57_)" fill="#64699B" width="0.119" height="0.672"/>
	</g>
	<g>
		<defs>
			<rect id="SVGID_58_" x="0.224" y="0.224" width="31.551" height="31.551"/>
		</defs>
		<clipPath id="SVGID_59_">
			<use xlink:href="#SVGID_58_"  overflow="visible"/>
		</clipPath>
		<rect x="7.13" y="22.96" clip-path="url(#SVGID_59_)" fill="#64699B" width="0.957" height="0.114"/>
	</g>
	<g>
		<defs>
			<rect id="SVGID_60_" x="0.224" y="0.224" width="31.551" height="31.551"/>
		</defs>
		<clipPath id="SVGID_61_">
			<use xlink:href="#SVGID_60_"  overflow="visible"/>
		</clipPath>
		<rect x="16.693" y="22.96" clip-path="url(#SVGID_61_)" fill="#64699B" width="0.955" height="0.114"/>
	</g>
	<g>
		<defs>
			<rect id="SVGID_62_" x="0.224" y="0.224" width="31.551" height="31.551"/>
		</defs>
		<clipPath id="SVGID_63_">
			<use xlink:href="#SVGID_62_"  overflow="visible"/>
		</clipPath>
		<rect x="16.896" y="19.739" clip-path="url(#SVGID_63_)" fill="#64699B" width="0.974" height="0.114"/>
	</g>
	<g>
		<defs>
			<rect id="SVGID_64_" x="0.224" y="0.224" width="31.551" height="31.551"/>
		</defs>
		<clipPath id="SVGID_65_">
			<use xlink:href="#SVGID_64_"  overflow="visible"/>
		</clipPath>
		<rect x="9.043" y="22.96" clip-path="url(#SVGID_65_)" fill="#64699B" width="0.957" height="0.114"/>
	</g>
	<g>
		<defs>
			<rect id="SVGID_66_" x="0.224" y="0.224" width="31.551" height="31.551"/>
		</defs>
		<clipPath id="SVGID_67_">
			<use xlink:href="#SVGID_66_"  overflow="visible"/>
		</clipPath>
		<path clip-path="url(#SVGID_67_)" fill="#64699B" d="M12.869,23.074h0.681c0.01-0.037,0.019-0.075,0.027-0.114h-0.708V23.074z"/>
	</g>
	<g>
		<defs>
			<rect id="SVGID_68_" x="0.224" y="0.224" width="31.551" height="31.551"/>
		</defs>
		<clipPath id="SVGID_69_">
			<use xlink:href="#SVGID_68_"  overflow="visible"/>
		</clipPath>
		<rect x="16.896" y="18.645" clip-path="url(#SVGID_69_)" fill="#64699B" width="0.974" height="0.114"/>
	</g>
	<g>
		<defs>
			<rect id="SVGID_70_" x="0.224" y="0.224" width="31.551" height="31.551"/>
		</defs>
		<clipPath id="SVGID_71_">
			<use xlink:href="#SVGID_70_"  overflow="visible"/>
		</clipPath>
		<rect x="10.956" y="22.96" clip-path="url(#SVGID_71_)" fill="#64699B" width="0.957" height="0.114"/>
	</g>
	<g>
		<defs>
			<rect id="SVGID_72_" x="0.224" y="0.224" width="31.551" height="31.551"/>
		</defs>
		<clipPath id="SVGID_73_">
			<use xlink:href="#SVGID_72_"  overflow="visible"/>
		</clipPath>
		<path clip-path="url(#SVGID_73_)" fill="#64699B" d="M18.91,25.119c0.042-0.006,0.081-0.01,0.121-0.016v-0.139h0.643
			c0.084-0.031,0.157-0.068,0.219-0.113H18.91V25.119z"/>
	</g>
	<g>
		<defs>
			<rect id="SVGID_74_" x="0.224" y="0.224" width="31.551" height="31.551"/>
		</defs>
		<clipPath id="SVGID_75_">
			<use xlink:href="#SVGID_74_"  overflow="visible"/>
		</clipPath>
		<rect x="22.432" y="22.96" clip-path="url(#SVGID_75_)" fill="#64699B" width="0.957" height="0.114"/>
	</g>
	<g>
		<defs>
			<rect id="SVGID_76_" x="0.224" y="0.224" width="31.551" height="31.551"/>
		</defs>
		<clipPath id="SVGID_77_">
			<use xlink:href="#SVGID_76_"  overflow="visible"/>
		</clipPath>
		<path clip-path="url(#SVGID_77_)" fill="#64699B" d="M15.737,22.96H14.94c-0.017,0.039-0.035,0.077-0.053,0.114h0.85V22.96z"/>
	</g>
	<g>
		<defs>
			<rect id="SVGID_78_" x="0.224" y="0.224" width="31.551" height="31.551"/>
		</defs>
		<clipPath id="SVGID_79_">
			<use xlink:href="#SVGID_78_"  overflow="visible"/>
		</clipPath>
		<rect x="24.346" y="22.96" clip-path="url(#SVGID_79_)" fill="#64699B" width="0.956" height="0.114"/>
	</g>
	<g>
		<defs>
			<rect id="SVGID_80_" x="0.224" y="0.224" width="31.551" height="31.551"/>
		</defs>
		<clipPath id="SVGID_81_">
			<use xlink:href="#SVGID_80_"  overflow="visible"/>
		</clipPath>
		<rect x="18.843" y="19.739" clip-path="url(#SVGID_81_)" fill="#64699B" width="0.974" height="0.114"/>
	</g>
	<g>
		<defs>
			<rect id="SVGID_82_" x="0.224" y="0.224" width="31.551" height="31.551"/>
		</defs>
		<clipPath id="SVGID_83_">
			<use xlink:href="#SVGID_82_"  overflow="visible"/>
		</clipPath>
		<rect x="22.305" y="25.729" clip-path="url(#SVGID_83_)" fill="#64699B" width="0.119" height="0.406"/>
	</g>
	<g>
		<defs>
			<rect id="SVGID_84_" x="0.224" y="0.224" width="31.551" height="31.551"/>
		</defs>
		<clipPath id="SVGID_85_">
			<use xlink:href="#SVGID_84_"  overflow="visible"/>
		</clipPath>
		<rect x="18.843" y="18.645" clip-path="url(#SVGID_85_)" fill="#64699B" width="0.974" height="0.114"/>
	</g>
	<g>
		<defs>
			<rect id="SVGID_86_" x="0.224" y="0.224" width="31.551" height="31.551"/>
		</defs>
		<clipPath id="SVGID_87_">
			<use xlink:href="#SVGID_86_"  overflow="visible"/>
		</clipPath>
		<path clip-path="url(#SVGID_87_)" fill="#64699B" d="M19.148,22.632v0.328h-0.543v0.114h0.543v0.684h1.07
			c0-0.037,0.002-0.074,0.002-0.113H19.27v-0.569h0.295V22.96H19.27v-0.214h0.953v-0.114H19.148z"/>
	</g>
	<g>
		<defs>
			<rect id="SVGID_88_" x="0.224" y="0.224" width="31.551" height="31.551"/>
		</defs>
		<clipPath id="SVGID_89_">
			<use xlink:href="#SVGID_88_"  overflow="visible"/>
		</clipPath>
		<rect x="24.682" y="18.645" clip-path="url(#SVGID_89_)" fill="#64699B" width="0.973" height="0.114"/>
	</g>
	<g>
		<defs>
			<rect id="SVGID_90_" x="0.224" y="0.224" width="31.551" height="31.551"/>
		</defs>
		<clipPath id="SVGID_91_">
			<use xlink:href="#SVGID_90_"  overflow="visible"/>
		</clipPath>
		<rect x="28.574" y="18.645" clip-path="url(#SVGID_91_)" fill="#64699B" width="0.973" height="0.114"/>
	</g>
	<g>
		<defs>
			<rect id="SVGID_92_" x="0.224" y="0.224" width="31.551" height="31.551"/>
		</defs>
		<clipPath id="SVGID_93_">
			<use xlink:href="#SVGID_92_"  overflow="visible"/>
		</clipPath>
		<path clip-path="url(#SVGID_93_)" fill="#64699B" d="M31.016,16.264c0-0.428-0.019-0.85-0.054-1.268v1.049h-4.2v-1.204v-0.653
			h1.15v-0.115h-1.15v-0.588h-0.119v0.588h-1.475h-2.736v0.115h2.736h1.475v0.653v1.204h-4.235v-1.464h0.024v-0.393h-0.024v-0.115
			h0.024v-0.588h0.791h3.42v-0.114h-3.42h-0.791v-0.623h-0.146v0.623h-1.011v0.114h1.011v0.588h-0.478v0.115h0.478v0.393v1.464
			h-0.478v0.114h0.478v0.554h-0.478v0.114h0.478v0.51h-0.478v0.114h0.478v0.482h-0.478v0.114h0.478v2.701h4.356v0.81h-4.834v0.113
			h4.834v0.318h-4.834v0.115h4.834v0.524h-4.834v0.114h4.834v0.214h-0.385v0.114h0.385v0.568h-4.834
			c0.002,0.039,0.002,0.077,0.002,0.114h4.832v0.381h-4.813c0.002,0.04,0.006,0.078,0.012,0.114h4.802v0.025h-1.004h-3.795
			c0.014,0.084,0.029,0.158,0.051,0.227h0.41v0.287h0.12v-0.287h0.302h0.746h0.745h0.746h0.675v0.348h-3.011v0.193
			c0.038,0.008,0.078,0.016,0.12,0.021v-0.103h2.891v1.326h-2.891v-0.563h-0.12v0.563h-0.394v-0.563h-0.121v0.563H21.42v-0.563H21.3
			v0.563h-0.093v-0.563h-0.121v0.563h-0.395v-0.563h-2.709v-0.537c0.076-0.004,0.146-0.01,0.215-0.014v-0.785h1.969
			c0.008-0.035,0.016-0.072,0.021-0.113h-2.002V24.25h2.006c0.004-0.036,0.009-0.074,0.013-0.114h-2.019v-1.512h-0.1v-0.521h2.137
			v-0.115h-2.137V21.67h2.137v-0.113h-2.137v-3.511h2.137v-0.114h-2.137v-0.482h2.137v-0.114h-2.137v-0.51h2.137v-0.114h-2.137
			v-0.554h2.137c0-0.04-0.002-0.078-0.002-0.114h-2.135V14.92v-0.734h1.43h0.414c0.148-0.037,0.295-0.075,0.438-0.115h-0.854h-1.429
			v-1.385h-0.121v1.385h-0.912v0.115h0.912v0.734v1.123H9.873c-0.006,0.038-0.012,0.076-0.019,0.114h8.111v0.554H9.761
			c-0.006,0.039-0.013,0.076-0.019,0.114h8.223v0.51H9.656c-0.006,0.038-0.013,0.075-0.02,0.114h8.329v0.482H9.553
			c-0.007,0.039-0.014,0.075-0.02,0.114h8.432v3.511h-2.7c-0.001,0.036-0.003,0.075-0.006,0.113h2.706v0.318h-2.741
			c-0.005,0.037-0.012,0.076-0.019,0.115h2.759v0.521H15.07c-0.013,0.038-0.026,0.075-0.041,0.112h2.935v1.398h-0.912v-0.801h-2.308
			c-0.022,0.038-0.046,0.077-0.069,0.114h2.257v0.687h-2.793c-0.036,0.038-0.073,0.077-0.111,0.114h2.905v1.433h-0.841v-1.293
			h-1.406v1.293h-0.802v-1.291c-0.039,0.035-0.079,0.071-0.121,0.107v1.188H11.69c-0.136,0.047-0.271,0.088-0.404,0.123v0.158h-3.57
			V25.8h1.532c-0.103-0.034-0.201-0.071-0.294-0.114H7.716v-1.433h0.327c0.022-0.037,0.047-0.076,0.075-0.114H7.596v1.547H7.103
			v-1.838H6.545v-0.404h4.741v0.695H9.143c0.046,0.038,0.093,0.077,0.141,0.114h2.002v0.709c0.001,0,0.002,0,0.003,0
			c0.04,0,0.078-0.001,0.117-0.004v-0.705h1.54c0.033-0.036,0.065-0.075,0.097-0.114h-1.637v-0.81H6.545V22.74h7.071
			c0.006-0.038,0.011-0.075,0.016-0.113H6.545v-0.521h7.115c0-0.039-0.001-0.076-0.002-0.114H6.545v-0.318h7.087
			c-0.005-0.038-0.01-0.077-0.017-0.114h-7.07v-3.51h2.273c0.006-0.039,0.013-0.076,0.02-0.113H6.425v3.623H5.801v-4.73h0.624v0.624
			h2.493c0.006-0.039,0.012-0.076,0.019-0.114H6.545v-0.51h2.474c0.006-0.038,0.012-0.075,0.018-0.114H6.545V16.16h2.579
			c0.006-0.039,0.012-0.077,0.019-0.114H6.545H5.801v-1.123h-0.12v1.123H4.262v-1.857v-1.5H5.14v-0.115H4.262v-1.562h-0.12v1.562
			H2.534H1.439c-0.01,0.038-0.019,0.077-0.028,0.115h1.123h1.607v1.5v1.857H0.985c0,0.039-0.001,0.076-0.001,0.114h3.158v0.554
			H0.989c0.001,0.039,0.003,0.076,0.004,0.114h3.148v4.73H1.943c0.014,0.037,0.029,0.076,0.044,0.114h2.155v0.318H2.114
			c0.016,0.038,0.031,0.075,0.046,0.114h1.981v0.521H2.394c0.018,0.037,0.035,0.075,0.053,0.113h1.695v0.22H3.304v0.114h0.837v0.255
			H2.745c0.021,0.037,0.041,0.076,0.061,0.114h1.335v0.404H3.037c0.022,0.037,0.044,0.076,0.067,0.113h1.038v1.518
			c0.04,0.051,0.08,0.103,0.12,0.151v-1.669h1.419v1.725H4.306c0.03,0.037,0.061,0.076,0.092,0.113h1.283v0.167H4.538
			c0.032,0.037,0.063,0.076,0.096,0.113H5.68v0.203H4.814c0.034,0.038,0.068,0.075,0.103,0.114h0.764v0.405H5.304
			c0.038,0.039,0.075,0.077,0.113,0.114h0.264v0.256c0.04,0.037,0.08,0.075,0.121,0.112v-0.368h0.624v0.915
			c0.04,0.033,0.08,0.065,0.12,0.099v-1.014h0.436v1.354c0.041,0.03,0.081,0.062,0.121,0.09v-1.443h0.493v1.793
			c0.04,0.027,0.081,0.053,0.121,0.079v-1.872h3.57v0.561h-0.383v1.893h-0.348v0.113h0.348v0.908c0.04,0.017,0.08,0.029,0.12,0.043
			v-0.951h0.263v1.041c0.04,0.014,0.08,0.025,0.12,0.039v-1.08h0.132V29.37h-0.132v-1.777h2.362v3.523
			c0.04,0.006,0.08,0.01,0.121,0.017v-3.54h0.797v1.777h-0.203v0.114h0.203v1.738c0.04,0.004,0.08,0.008,0.121,0.01v-1.748h0.659
			V29.37h-0.659v-1.777h1.165v3.688c0.009,0,0.018,0,0.027,0c0.031,0,0.062-0.001,0.093-0.001v-3.688h1.897v3.556
			c0.07-0.008,0.14-0.018,0.208-0.027v-3.527H21.3v1.777h-0.925v0.113H21.3v0.834c0.04-0.017,0.079-0.03,0.12-0.045v-2.681h0.693
			v2.39c0.041-0.018,0.08-0.035,0.121-0.053v-2.337h0.393v1.777h-0.289v0.114h0.289v0.258c0.039-0.021,0.08-0.04,0.12-0.061v-0.197
			h0.38c0.064-0.035,0.129-0.072,0.193-0.107V29.37h-0.573v-1.777h2.892v0.188c0.038-0.034,0.079-0.067,0.118-0.103v-0.085h0.099
			c0.045-0.036,0.086-0.075,0.129-0.114h-0.228v-0.561h0.823c0.039-0.037,0.076-0.075,0.113-0.113h-0.938v-0.397h1.006v-1.44h1.149
			v0.439c0.04-0.053,0.082-0.104,0.12-0.157v-0.282h0.205c0.027-0.037,0.054-0.076,0.08-0.113h-0.285v-0.348h0.521
			c0.049-0.074,0.098-0.148,0.146-0.227H26.76v-0.025h1.954c0.022-0.037,0.048-0.076,0.071-0.113H26.76v-0.382h2.254
			c0.021-0.038,0.043-0.077,0.063-0.114H26.76v-0.568h0.453V22.96H26.76v-0.214h2.787c0.018-0.037,0.035-0.077,0.053-0.114h-2.84
			v-0.524h3.075c0.017-0.039,0.031-0.077,0.047-0.115H26.76v-0.318h3.25c0.016-0.038,0.028-0.076,0.043-0.113H26.76V20.75h3.572
			c0.012-0.037,0.021-0.075,0.034-0.114H26.76v-0.782h0.84V19.74h-0.84v-0.98h0.84v-0.115h-0.84V18.05h4.147
			c0.006-0.039,0.01-0.077,0.013-0.114h-4.16v-0.482h4.2v0.081C30.997,17.114,31.016,16.691,31.016,16.264 M5.801,16.334v-0.175
			h0.624v0.554H5.801V16.334z M5.681,23.848H4.262v-0.404h1.419V23.848z M5.681,22.96H5.217v0.114H5.68v0.255H4.262V22.74h1.419
			V22.96z M5.681,22.627H4.262v-0.521h1.419V22.627z M5.681,21.991H4.262v-0.318h1.419V21.991z M5.681,21.559H4.262v-4.73h1.419
			V21.559z M5.681,16.334v0.378H4.262v-0.554h1.419V16.334z M6.425,26.805H5.801v-0.406h0.624V26.805z M6.425,26.283H5.801V26.08
			h0.624V26.283z M6.425,25.967H5.801V25.8h0.624V25.967z M6.425,25.686H5.801v-1.724h0.624V25.686z M6.425,23.848H5.801v-0.404
			h0.624V23.848z M6.425,23.329H5.801v-0.255h0.373V22.96H5.801v-0.22h0.624V23.329z M6.425,22.627H5.801v-0.521h0.624V22.627z
			 M6.425,21.991H5.801v-0.318h0.624V21.991z M6.981,26.805H6.545v-0.406h0.436V26.805z M6.981,26.283H6.545V26.08h0.436V26.283z
			 M6.981,25.967H6.545V25.8h0.436V25.967z M6.981,25.686H6.545v-1.724h0.436V25.686z M7.596,26.805H7.103v-0.406h0.493V26.805z
			 M7.596,26.283H7.103V26.08h0.493V26.283z M7.596,25.967H7.103V25.8h0.493V25.967z M11.286,29.37h-0.263v-1.777h0.263V29.37z
			 M11.286,26.805h-3.57v-0.406h3.57V26.805z M11.286,26.283h-3.57V26.08h3.57V26.283z M11.406,25.8h2.357v0.167h-2.357V25.8z
			 M11.406,26.08h2.357v0.203h-2.357V26.08z M13.769,27.479h-2.362v-0.561h2.362V27.479z M13.769,26.805h-2.362v-0.406h2.357v0.059
			h0.005V26.805z M14.686,27.479h-0.797v-0.561h0.797V27.479z M14.686,26.805h-0.797v-0.349h0.797V26.805z M14.686,26.283h-0.797
			v-0.316h-0.005V25.8h0.802V26.283z M15.972,27.479h-1.165v-0.561h1.165V27.479z M15.972,26.805h-1.165v-0.349h1.165V26.805z
			 M15.972,26.283h-1.165V25.8h1.165V26.283z M15.972,25.686h-1.165v-1.181h1.165V25.686z M17.053,24.253h0.912v1.433h-0.912V24.253
			z M17.053,25.8h0.912v0.483h-0.912V25.8z M16.092,25.8h0.84v0.483h-0.84V25.8z M17.988,27.479h-1.896v-0.561h1.896V27.479z
			 M17.988,26.805h-1.896v-0.349h0.961v-0.06h0.912v0.01h0.023V26.805z M19.031,25.8h1.539v0.483h-1.539V25.8z M19.031,26.406h2.055
			v0.396h-2.055V26.406z M18.197,25.8h0.713v0.483h-0.713V25.8z M18.197,26.406h0.713v0.396h-0.713V26.406z M21.3,27.479h-3.103
			v-0.561h0.713v0.111h2.297v-0.111H21.3V27.479z M21.3,26.805h-0.093v-0.397H21.3V26.805z M22.113,27.479H21.42v-0.561h0.693
			V27.479z M22.113,26.805H21.42v-0.397h0.693V26.805z M22.627,27.479h-0.393v-0.561h0.067v0.561h0.121v-0.561h0.203L22.627,27.479
			L22.627,27.479z M22.627,26.805h-0.393v-0.397h0.393V26.805z M25.639,27.479h-2.892v-0.561h2.892V27.479z M25.639,26.805h-2.892
			v-0.397h2.892V26.805z M26.643,26.292h-0.886v-1.326h0.886V26.292z M26.643,24.852h-0.886v-0.347h0.697h0.188V24.852z
			 M26.643,18.645h-0.016v0.114h0.016v0.98h-0.016v0.114h0.016v0.781h-4.235v-2.587h4.235V18.645z M26.643,17.936h-4.235v-0.483
			h4.235V17.936z M26.643,17.337h-4.235v-0.51h4.235V17.337z M26.643,16.713h-4.235v-0.554h4.235V16.713z M27.2,24.505h0.712v0.347
			h-1.15v-0.347H27.2z M26.762,16.159h4.2v0.554h-4.2V16.159z M26.762,16.827h4.2v0.51h-4.2V16.827z"/>
	</g>
	<g>
		<defs>
			<rect id="SVGID_94_" x="0.224" y="0.224" width="31.551" height="31.551"/>
		</defs>
		<clipPath id="SVGID_95_">
			<use xlink:href="#SVGID_94_"  overflow="visible"/>
		</clipPath>
		<rect x="14.95" y="19.739" clip-path="url(#SVGID_95_)" fill="#64699B" width="0.973" height="0.114"/>
	</g>
	<g>
		<defs>
			<rect id="SVGID_96_" x="0.224" y="0.224" width="31.551" height="31.551"/>
		</defs>
		<clipPath id="SVGID_97_">
			<use xlink:href="#SVGID_96_"  overflow="visible"/>
		</clipPath>
		<rect x="28.574" y="19.739" clip-path="url(#SVGID_97_)" fill="#64699B" width="0.973" height="0.114"/>
	</g>
	<g>
		<defs>
			<rect id="SVGID_98_" x="0.224" y="0.224" width="31.551" height="31.551"/>
		</defs>
		<clipPath id="SVGID_99_">
			<use xlink:href="#SVGID_98_"  overflow="visible"/>
		</clipPath>
		<rect x="24.682" y="19.739" clip-path="url(#SVGID_99_)" fill="#64699B" width="0.973" height="0.114"/>
	</g>
	<g>
		<defs>
			<rect id="SVGID_100_" x="0.224" y="0.224" width="31.551" height="31.551"/>
		</defs>
		<clipPath id="SVGID_101_">
			<use xlink:href="#SVGID_100_"  overflow="visible"/>
		</clipPath>
		<rect x="22.734" y="19.739" clip-path="url(#SVGID_101_)" fill="#64699B" width="0.975" height="0.114"/>
	</g>
	<g>
		<defs>
			<rect id="SVGID_102_" x="0.224" y="0.224" width="31.551" height="31.551"/>
		</defs>
		<clipPath id="SVGID_103_">
			<use xlink:href="#SVGID_102_"  overflow="visible"/>
		</clipPath>
		<rect x="22.734" y="18.645" clip-path="url(#SVGID_103_)" fill="#64699B" width="0.975" height="0.114"/>
	</g>
	<g>
		<defs>
			<rect id="SVGID_104_" x="0.224" y="0.224" width="31.551" height="31.551"/>
		</defs>
		<clipPath id="SVGID_105_">
			<use xlink:href="#SVGID_104_"  overflow="visible"/>
		</clipPath>
		<rect x="9.111" y="19.739" clip-path="url(#SVGID_105_)" fill="#64699B" width="0.974" height="0.114"/>
	</g>
	<g>
		<defs>
			<rect id="SVGID_106_" x="0.224" y="0.224" width="31.551" height="31.551"/>
		</defs>
		<clipPath id="SVGID_107_">
			<use xlink:href="#SVGID_106_"  overflow="visible"/>
		</clipPath>
		<path clip-path="url(#SVGID_107_)" fill="#64699B" d="M9.415,18.706c0.057-0.021,0.116-0.041,0.176-0.063H9.426
			C9.422,18.664,9.418,18.688,9.415,18.706"/>
	</g>
	<g>
		<defs>
			<rect id="SVGID_108_" x="0.224" y="0.224" width="31.551" height="31.551"/>
		</defs>
		<clipPath id="SVGID_109_">
			<use xlink:href="#SVGID_108_"  overflow="visible"/>
		</clipPath>
		<rect x="14.95" y="18.645" clip-path="url(#SVGID_109_)" fill="#64699B" width="0.973" height="0.114"/>
	</g>
	<g>
		<defs>
			<rect id="SVGID_110_" x="0.224" y="0.224" width="31.551" height="31.551"/>
		</defs>
		<clipPath id="SVGID_111_">
			<use xlink:href="#SVGID_110_"  overflow="visible"/>
		</clipPath>
		<path clip-path="url(#SVGID_111_)" fill="#64699B" d="M13.838,18.759h0.139v-0.114h-0.326
			C13.715,18.682,13.777,18.718,13.838,18.759"/>
	</g>
	<g>
		<defs>
			<rect id="SVGID_112_" x="0.224" y="0.224" width="31.551" height="31.551"/>
		</defs>
		<clipPath id="SVGID_113_">
			<use xlink:href="#SVGID_112_"  overflow="visible"/>
		</clipPath>
		<polygon clip-path="url(#SVGID_113_)" fill="#64699B" points="7.596,19.339 7.596,19.854 8.138,19.854 8.138,19.739 7.716,19.739 
			7.716,19.339 		"/>
	</g>
	<g>
		<defs>
			<rect id="SVGID_114_" x="0.224" y="0.224" width="31.551" height="31.551"/>
		</defs>
		<clipPath id="SVGID_115_">
			<use xlink:href="#SVGID_114_"  overflow="visible"/>
		</clipPath>
		<polygon clip-path="url(#SVGID_115_)" fill="#64699B" points="8.138,18.645 7.595,18.645 7.595,19.158 7.716,19.158 7.716,18.759 
			8.138,18.759 		"/>
	</g>
	<g>
		<defs>
			<rect id="SVGID_116_" x="0.224" y="0.224" width="31.551" height="31.551"/>
		</defs>
		<clipPath id="SVGID_117_">
			<use xlink:href="#SVGID_116_"  overflow="visible"/>
		</clipPath>
		<rect x="11.057" y="19.739" clip-path="url(#SVGID_117_)" fill="#64699B" width="0.974" height="0.114"/>
	</g>
</g>
<g>
	<g>
		<defs>
			<rect id="SVGID_118_" x="0.224" y="0.224" width="31.551" height="31.551"/>
		</defs>
		<clipPath id="SVGID_119_">
			<use xlink:href="#SVGID_118_"  overflow="visible"/>
		</clipPath>
		<path clip-path="url(#SVGID_119_)" fill="#282C63" d="M15.999,0.287C7.322,0.287,0.287,7.322,0.287,16
			c0,8.68,7.035,15.712,15.712,15.712c8.679,0,15.713-7.032,15.713-15.712C31.712,7.322,24.678,0.287,15.999,0.287 M15.999,30.359
			c-7.931,0-14.36-6.43-14.36-14.359c0-7.931,6.429-14.361,14.36-14.361c7.933,0,14.36,6.43,14.36,14.361
			C30.359,23.932,23.932,30.359,15.999,30.359"/>
	</g>
</g>
<g>
	<g>
		<defs>
			<path id="SVGID_120_" d="M1.702,16c0-7.884,6.414-14.298,14.297-14.298c7.884,0,14.298,6.414,14.298,14.298
				s-6.414,14.298-14.298,14.298C8.116,30.298,1.702,23.884,1.702,16 M5.801,5.801C3.077,8.525,1.576,12.147,1.576,16
				c0,3.854,1.5,7.475,4.225,10.198c2.724,2.725,6.346,4.225,10.198,4.225c3.854,0,7.476-1.5,10.199-4.225
				c2.725-2.724,4.225-6.347,4.225-10.198c0-3.852-1.5-7.475-4.225-10.199c-2.726-2.724-6.347-4.225-10.199-4.225
				C12.147,1.577,8.525,3.077,5.801,5.801 M0.349,16c0-8.63,7.021-15.65,15.65-15.65c8.63,0,15.649,7.021,15.649,15.65
				s-7.021,15.65-15.649,15.65S0.349,24.629,0.349,16 M15.999,0.224c-4.214,0-8.175,1.641-11.155,4.621
				C1.865,7.825,0.224,11.786,0.224,16s1.641,8.176,4.62,11.154c2.98,2.979,6.941,4.621,11.155,4.621
				c4.215,0,8.176-1.643,11.155-4.621c2.979-2.979,4.621-6.94,4.621-11.154s-1.643-8.175-4.621-11.155
				C24.175,1.865,20.214,0.224,15.999,0.224z"/>
		</defs>
		<clipPath id="SVGID_121_">
			<use xlink:href="#SVGID_120_"  overflow="visible"/>
		</clipPath>
		
			<linearGradient id="SVGID_122_" gradientUnits="userSpaceOnUse" x1="-578.73" y1="0.8037" x2="-578.6672" y2="0.8037" gradientTransform="matrix(174.7801 -471.4253 471.4253 174.7801 100782.4063 -272937.6875)">
			<stop  offset="0" style="stop-color:#A8A8A8"/>
			<stop  offset="1" style="stop-color:#E2E0FF"/>
		</linearGradient>
		<polygon clip-path="url(#SVGID_121_)" fill="url(#SVGID_122_)" points="-10.06,27.963 4.037,-10.06 42.059,4.037 27.963,42.061 		
			"/>
	</g>
</g>
<g>
	<g>
		<defs>
			<rect id="SVGID_123_" x="0.223" y="0.146" width="31.551" height="31.551"/>
		</defs>
		<clipPath id="SVGID_124_">
			<use xlink:href="#SVGID_123_"  overflow="visible"/>
		</clipPath>
		<path clip-path="url(#SVGID_124_)" fill="#282C63" d="M25.952,6.275c-0.414-0.41-0.934-0.618-1.542-0.618
			c-0.38,0-0.737,0.096-1.063,0.285s-0.59,0.454-0.777,0.788c-0.137,0.24-0.223,0.498-0.262,0.769h-0.146h-1.454h-0.368v0.369v0.326
			v0.368h0.367h0.525C21.2,8.6,21.164,8.635,21.123,8.669c-0.174,0.141-0.388,0.21-0.647,0.21c-0.226,0-0.426-0.05-0.611-0.151
			c-0.184-0.099-0.322-0.231-0.426-0.403c-0.103-0.172-0.15-0.348-0.15-0.535c0-0.183,0.048-0.352,0.146-0.518
			c0.097-0.166,0.231-0.294,0.412-0.393c0.188-0.101,0.377-0.15,0.58-0.15c0.162,0,0.334,0.038,0.512,0.114
			c0.18,0.077,0.35,0.193,0.504,0.344l0.254,0.25l0.258-0.245l0.262-0.248l0.282-0.268l-0.282-0.267
			c-0.271-0.259-0.559-0.451-0.852-0.57c-0.297-0.121-0.615-0.183-0.947-0.183c-0.415,0-0.795,0.094-1.129,0.279
			c-0.337,0.187-0.605,0.45-0.801,0.782c-0.076,0.131-0.137,0.268-0.184,0.408V6.111V5.742h-0.369h-0.336h-0.07h-0.301h-0.068H15.31
			h-0.369v0.369v0.021c-0.166-0.167-0.371-0.279-0.612-0.335c-0.104-0.023-0.303-0.055-0.844-0.055h-0.672h-0.232h-0.137h-0.232
			h-1.934h-0.006H9.91h-0.2H9.343H9.102L9.005,5.964L8.209,7.788L7.428,5.965L7.332,5.742H7.089H6.722h-0.56l0.221,0.514L7.83,9.629
			l0.096,0.224h0.243h0.074h0.242l0.096-0.222l1.33-3.056v2.908v0.369h0.369h1.92h0.246h0.123h0.246h0.337h0.368V9.484V8.751
			l0.744,0.959l0.111,0.143h0.181h0.417h0.723h0.029h0.339h0.345h0.367V9.484V6.81h0.385h0.068v2.674v0.369h0.369h0.338h0.367V9.484
			V8.47c0.084,0.252,0.219,0.487,0.402,0.702c0.434,0.509,1.027,0.767,1.761,0.767c0.612,0,1.115-0.191,1.491-0.568
			c0.219-0.219,0.375-0.481,0.469-0.784c0.104,0.268,0.266,0.513,0.484,0.73c0.415,0.413,0.928,0.622,1.527,0.622
			c0.593,0,1.104-0.21,1.518-0.625c0.413-0.414,0.623-0.924,0.623-1.517C26.578,7.198,26.368,6.687,25.952,6.275 M12.444,8.785
			h-0.246h-1.213V8.197h1.213h0.246V8.785z M12.444,7.13h-0.246h-1.213V6.81h1.227h0.232V7.13z M13.519,6.81h0.227
			c0.268,0,0.351,0.03,0.359,0.033c0.029,0.012,0.05,0.03,0.07,0.06c0.021,0.032,0.031,0.064,0.031,0.105
			c0,0.045-0.01,0.081-0.032,0.116c-0.019,0.029-0.042,0.048-0.079,0.062c-0.022,0.009-0.115,0.039-0.362,0.039l-0.214-0.003V6.81z
			 M15.694,9.484v0.331l-0.432-0.557l-0.823-1.062c0.047-0.015,0.091-0.032,0.133-0.05c0.229-0.102,0.409-0.255,0.535-0.458
			c0.123-0.198,0.185-0.426,0.185-0.679c0-0.068-0.005-0.135-0.015-0.199h0.033h0.383L15.694,9.484L15.694,9.484z M23.513,7.257
			c0.094-0.164,0.221-0.291,0.389-0.389c0.166-0.098,0.338-0.146,0.523-0.146c0.19,0,0.366,0.048,0.538,0.146
			c0.17,0.098,0.298,0.224,0.392,0.384c0.093,0.162,0.138,0.338,0.138,0.543c0,0.206-0.045,0.387-0.14,0.553
			c-0.092,0.163-0.219,0.288-0.383,0.382c-0.168,0.096-0.347,0.142-0.545,0.142c-0.294,0-0.537-0.101-0.744-0.308
			c-0.207-0.206-0.309-0.452-0.309-0.753C23.372,7.604,23.417,7.422,23.513,7.257"/>
	</g>
</g>
<g>
	<g>
		<defs>
			<path id="SVGID_125_" d="M11.047,8.26h1.333v0.462h-1.333V8.26z M10.922,8.848h1.585V8.134h-1.585V8.848z M11.047,6.873h1.333
				v0.194h-1.333V6.873z M10.922,7.193h1.585V6.747h-1.585V7.193z M13.582,7.159V6.873h0.164c0.258,0,0.335,0.028,0.336,0.029
				c0.015,0.006,0.027,0.014,0.042,0.036c0.014,0.021,0.02,0.042,0.02,0.07c0,0.034-0.006,0.057-0.022,0.082
				c-0.01,0.015-0.021,0.027-0.049,0.038c-0.009,0.004-0.092,0.034-0.339,0.034L13.582,7.159z M13.456,6.747v0.537l0.276,0.002
				c0.251,0,0.354-0.029,0.385-0.042c0.049-0.021,0.083-0.046,0.108-0.086c0.029-0.044,0.042-0.092,0.042-0.15
				c0-0.053-0.013-0.097-0.041-0.14c-0.026-0.04-0.058-0.067-0.1-0.083c-0.022-0.009-0.115-0.038-0.382-0.038H13.456z M23.724,8.521
				c-0.193-0.193-0.289-0.425-0.289-0.709c0-0.197,0.043-0.368,0.133-0.523c0.086-0.156,0.207-0.275,0.365-0.367
				c0.156-0.092,0.318-0.136,0.492-0.136c0.18,0,0.346,0.045,0.506,0.138c0.161,0.092,0.281,0.21,0.368,0.361
				c0.087,0.151,0.13,0.318,0.13,0.511c0,0.195-0.043,0.366-0.131,0.521c-0.087,0.152-0.205,0.27-0.359,0.359
				c-0.157,0.09-0.326,0.134-0.514,0.134C24.149,8.81,23.919,8.715,23.724,8.521 M23.869,6.814
				c-0.179,0.104-0.313,0.238-0.412,0.413c-0.101,0.175-0.147,0.366-0.147,0.585c0,0.318,0.106,0.58,0.326,0.798
				c0.221,0.219,0.479,0.325,0.789,0.325c0.211,0,0.398-0.049,0.575-0.15c0.176-0.1,0.31-0.233,0.406-0.406
				c0.1-0.175,0.147-0.366,0.147-0.583c0-0.215-0.049-0.403-0.146-0.574c-0.098-0.17-0.232-0.304-0.413-0.407
				c-0.183-0.104-0.368-0.155-0.569-0.155C24.228,6.66,24.047,6.71,23.869,6.814 M14.543,8.226c0.019-0.007,0.037-0.015,0.055-0.023
				c0.241-0.106,0.43-0.269,0.563-0.483c0.129-0.208,0.194-0.447,0.194-0.712c0-0.045-0.002-0.09-0.006-0.136h0.283v2.759
				L14.543,8.226z M22.46,6.8c-0.102,0.201-0.17,0.414-0.206,0.636h-0.466L22.46,6.8z M19.894,8.673
				c-0.172-0.094-0.303-0.218-0.399-0.381c-0.097-0.162-0.144-0.326-0.144-0.502c0-0.171,0.045-0.33,0.137-0.485
				c0.092-0.155,0.22-0.277,0.391-0.37c0.178-0.096,0.357-0.142,0.551-0.142c0.152,0,0.315,0.036,0.485,0.108
				c0.172,0.074,0.336,0.186,0.483,0.332l0.207,0.203h-1.33v1.189h0.804c-0.161,0.129-0.356,0.191-0.603,0.191
				C20.261,8.817,20.069,8.769,19.894,8.673 M20.399,7.561h1.963l0.008-0.054c0.036-0.264,0.122-0.516,0.252-0.747
				c0.186-0.324,0.438-0.581,0.755-0.764c0.315-0.184,0.664-0.276,1.033-0.276c0.591,0,1.096,0.202,1.498,0.6
				c0.403,0.399,0.606,0.896,0.606,1.477c0,0.575-0.203,1.071-0.604,1.473c-0.401,0.402-0.897,0.606-1.474,0.606
				c-0.582,0-1.08-0.203-1.481-0.603c-0.212-0.21-0.37-0.449-0.472-0.709l-0.064-0.168l-0.053,0.172
				c-0.092,0.293-0.243,0.548-0.454,0.758c-0.363,0.365-0.851,0.55-1.446,0.55c-0.714,0-1.29-0.251-1.714-0.745
				c-0.178-0.207-0.308-0.436-0.39-0.681l-0.121-0.366V9.79h-0.95V6.747h-0.578V9.79h-0.957V6.747h-0.551l0.01,0.071
				c0.009,0.066,0.013,0.128,0.013,0.19c0,0.241-0.059,0.458-0.175,0.646c-0.119,0.192-0.289,0.338-0.506,0.435
				c-0.04,0.018-0.082,0.034-0.126,0.047l-0.085,0.027l1.26,1.626h-1.191l-0.948-1.224v1.224H9.973V6.274L8.443,9.79H7.967
				l-1.71-3.985H7.29l0.918,2.141l0.934-2.141h4.342c0.535,0,0.73,0.03,0.83,0.053c0.229,0.052,0.425,0.16,0.583,0.318l0.107,0.108
				V5.805h3.237v1.712l0.121-0.37c0.046-0.138,0.104-0.272,0.179-0.396c0.188-0.322,0.449-0.578,0.776-0.759
				c0.324-0.18,0.693-0.271,1.099-0.271c0.325,0,0.635,0.06,0.924,0.178c0.285,0.117,0.566,0.305,0.832,0.558l0.234,0.222
				l-0.71,0.673l-0.211-0.207c-0.16-0.157-0.336-0.277-0.524-0.357c-0.185-0.079-0.362-0.119-0.534-0.119
				c-0.214,0-0.412,0.052-0.609,0.157c-0.189,0.104-0.334,0.24-0.438,0.416c-0.104,0.176-0.154,0.356-0.154,0.55
				c0,0.199,0.053,0.385,0.16,0.567c0.109,0.182,0.256,0.321,0.447,0.427c0.195,0.107,0.407,0.159,0.645,0.159
				c0.276,0,0.5-0.074,0.687-0.225c0.045-0.035,0.083-0.074,0.118-0.114l0.089-0.104h-0.97V7.561H20.399z M23.313,5.887
				c-0.315,0.184-0.573,0.437-0.766,0.752l-0.29-0.275c-0.276-0.264-0.571-0.46-0.872-0.583c-0.304-0.124-0.631-0.187-0.971-0.187
				c-0.426,0-0.816,0.097-1.159,0.287c-0.348,0.193-0.624,0.464-0.823,0.806c-0.023,0.041-0.047,0.082-0.067,0.124V5.679h-3.487
				v0.313c-0.153-0.123-0.333-0.208-0.536-0.256c-0.106-0.024-0.311-0.057-0.858-0.057H9.06L8.21,7.63L7.373,5.679H6.066
				l1.818,4.237h0.641l1.322-3.039v3.039h3.734V8.934l0.761,0.982h1.35l0.064,0.083V9.916h1.082V6.873h0.327v3.043h1.2V8.78
				c0.079,0.152,0.175,0.297,0.292,0.432c0.447,0.523,1.056,0.789,1.809,0.789c0.631,0,1.146-0.197,1.535-0.586
				c0.188-0.187,0.332-0.407,0.432-0.657c0.105,0.219,0.252,0.421,0.435,0.604c0.427,0.424,0.955,0.64,1.571,0.64
				c0.608,0,1.136-0.217,1.562-0.643c0.426-0.426,0.642-0.952,0.642-1.562c0-0.615-0.218-1.143-0.644-1.566
				c-0.427-0.422-0.961-0.637-1.587-0.637C24.019,5.594,23.651,5.693,23.313,5.887"/>
		</defs>
		<clipPath id="SVGID_126_">
			<use xlink:href="#SVGID_125_"  overflow="visible"/>
		</clipPath>
		
			<linearGradient id="SVGID_127_" gradientUnits="userSpaceOnUse" x1="-577.4985" y1="1.0854" x2="-577.435" y2="1.0854" gradientTransform="matrix(327.6787 0 0 327.6787 189239.9844 -347.7188)">
			<stop  offset="0" style="stop-color:#A8A8A8"/>
			<stop  offset="1" style="stop-color:#E2E0FF"/>
		</linearGradient>
		<rect x="6.066" y="5.594" clip-path="url(#SVGID_126_)" fill="url(#SVGID_127_)" width="20.574" height="4.407"/>
	</g>
</g>
</svg>
