<svg width="32" height="32" viewBox="0 0 32 32" fill="none" xmlns="http://www.w3.org/2000/svg">
<g clip-path="url(#clip0_22_35)">
<path d="M16.0004 31.2194C24.4056 31.2194 31.2194 24.4056 31.2194 16.0004C31.2194 7.59521 24.4056 0.781448 16.0004 0.781448C7.5952 0.781448 0.781441 7.59521 0.781441 16.0004C0.781441 24.4056 7.5952 31.2194 16.0004 31.2194Z" fill="url(#paint0_radial_22_35)"/>
<path d="M29.0168 15.8374L16.4909 15.9548L28.8278 13.7808L28.7683 13.4613L16.4323 15.8741L28.1343 11.2849L28.0129 10.9834L16.3907 15.7943L26.9349 8.93565L26.7548 8.66512L16.3492 15.7144L25.3199 6.91075L25.0893 6.68096L16.3149 15.6207L23.5011 5.36009L23.233 5.17593L16.2172 15.6052L21.2464 4.08566L20.9466 3.95855L16.1308 15.5783L18.7367 3.27244L18.4181 3.20807L16.0452 15.5514L16.1626 2.98317H15.8374L15.9548 15.5091L13.7808 3.17221L13.4613 3.2317L15.8741 15.5669L11.2849 3.86565L10.9834 3.98707L15.7943 15.6093L8.93565 5.06511L8.66512 5.2452L15.7144 15.6508L6.91075 6.68096L6.68096 6.91075L15.6207 15.6851L5.36009 8.49889L5.17593 8.76698L15.6052 15.7828L4.08566 10.7544L3.95855 11.0534L15.5775 15.8692L3.27244 13.2633L3.20807 13.5819L15.5514 15.9556L2.98317 15.8374V16.1626L15.5091 16.0452L3.17221 18.2192L3.2317 18.5387L15.5669 16.1259L3.86565 20.7151L3.98707 21.0166L15.6093 16.2058L5.06511 23.0643L5.2452 23.3349L15.6508 16.2856L6.68096 25.0893L6.91075 25.3199L15.6851 16.3793L8.49889 26.6399L8.76698 26.8241L15.7828 16.3956L10.7544 27.9143L11.0534 28.0415L15.8692 16.4225L13.2633 28.7276L13.5819 28.7919L15.9556 16.4486L15.8374 29.0168H16.1626L16.0452 16.4909L18.2192 28.8278L18.5387 28.7683L16.1259 16.4323L20.7151 28.1343L21.0166 28.0129L16.2058 16.3907L23.0643 26.9349L23.3349 26.7548L16.2856 16.3492L25.0893 25.3199L25.3199 25.0893L16.3793 16.3149L26.6399 23.5011L26.8241 23.233L16.3948 16.2172L27.9143 21.2464L28.0415 20.9466L16.4217 16.1308L28.7276 18.7367L28.7919 18.4181L16.4486 16.0452L29.0168 16.1626V15.8374Z" fill="#AADBCD"/>
<path fill-rule="evenodd" clip-rule="evenodd" d="M29.1708 7.40619C29.2597 8.03281 29.3061 8.67247 29.3061 9.32109C29.3061 17.6277 21.7728 24.3616 12.4794 24.3616C8.58771 24.3616 5.00563 23.1801 2.15446 21.1975C4.43034 26.7336 9.87599 30.6327 16.2326 30.6327C24.6362 30.6327 31.4483 23.8205 31.4483 15.417C31.4483 12.4778 30.6139 9.7334 29.1708 7.407V7.40619Z" fill="url(#paint1_radial_22_35)"/>
<path d="M15.9817 8.22919H14.792L12.886 12.9504H15.6525L15.9817 8.22919Z" fill="#729B8F"/>
<path d="M8.50134 24.6981H14.8596L15.223 18.4792H10.8473L8.50134 24.6981Z" fill="#729B8F"/>
<path d="M19.6428 12.9504L17.7377 8.22919H16.5496L16.8902 12.9504H19.6428Z" fill="#729B8F"/>
<path d="M17.3099 18.4792L17.7002 24.6981H24.0226L21.6824 18.4792H17.3099Z" fill="#729B8F"/>
<path d="M6.10242 13.67V16.9204H7.46648V18.1247H8.52578V16.9204L10.6159 16.7827C11.6736 16.7134 12.7353 16.7142 13.793 16.7851L15.8 16.9204V18.1247H16.8593V16.9204L19.5507 16.7672C20.5896 16.7085 21.631 16.7167 22.6691 16.7933L24.395 16.9204V18.1247H25.4543V16.9204H26.6782V13.67H6.10242Z" fill="#729B8F"/>
<path fill-rule="evenodd" clip-rule="evenodd" d="M16.979 18.0636L17.3702 24.2825H23.6926L21.3523 18.0636H16.9799H16.979ZM8.17132 24.2825H14.5288L14.893 18.0636H10.5173L8.17132 24.2825ZM5.7724 13.2544V16.5048H7.13646V17.7091H8.19577V16.5048L10.2859 16.3671C11.3435 16.2978 12.4053 16.2986 13.463 16.3695L15.4699 16.5048V17.7091H16.5292V16.5048L19.2207 16.3516C20.2596 16.2929 21.301 16.3011 22.3391 16.3777L24.065 16.5048V17.7091H25.1243V16.5048H26.3482V13.2544H5.7724ZM19.3128 12.5348L17.4077 7.8136H16.2188L16.5594 12.5348H19.312H19.3128ZM15.6508 7.8136H14.4612L12.5552 12.5348H15.3224L15.6508 7.8136Z" fill="#2D2D2D"/>
<path fill-rule="evenodd" clip-rule="evenodd" d="M16.0004 0C7.16335 0 0 7.16335 0 16.0004C0 24.8375 7.16335 32.0008 16.0004 32.0008C24.8375 32.0008 32.0008 24.8375 32.0008 16.0004C32.0008 7.16335 24.8366 0 16.0004 0ZM16.0004 31.4907C7.44529 31.4907 0.510097 24.5555 0.510097 16.0004C0.510097 7.44529 7.44448 0.509282 16.0004 0.509282C24.5563 0.509282 31.4907 7.44448 31.4907 15.9996C31.4907 24.5547 24.5555 31.4899 16.0004 31.4899V31.4907Z" fill="#2D2D2D"/>
<path fill-rule="evenodd" clip-rule="evenodd" d="M16.1406 3.28548C8.88513 3.28548 3.00354 9.16707 3.00354 16.4225C3.00354 23.6779 8.88513 29.5595 16.1406 29.5595C23.396 29.5595 29.2776 23.6779 29.2776 16.4225C29.2776 9.16707 23.396 3.28548 16.1406 3.28548ZM16.1406 29.1407C9.11655 29.1407 3.42237 23.4465 3.42237 16.4225C3.42237 9.39849 9.11655 3.7035 16.1406 3.7035C23.1646 3.7035 28.8587 9.39767 28.8587 16.4217C28.8587 23.4457 23.1646 29.1399 16.1406 29.1399V29.1407Z" fill="url(#paint2_radial_22_35)"/>
<path fill-rule="evenodd" clip-rule="evenodd" d="M16.0004 2.7933C8.70668 2.7933 2.7933 8.70668 2.7933 16.0004C2.7933 23.2941 8.70668 29.2075 16.0004 29.2075C23.2941 29.2075 29.2075 23.2941 29.2075 16.0004C29.2075 8.70668 23.2941 2.7933 16.0004 2.7933ZM16.0004 28.787C8.93891 28.787 3.21377 23.0627 3.21377 16.0004C3.21377 8.93809 8.93809 3.21377 16.0004 3.21377C23.0627 3.21377 28.787 8.93809 28.787 16.0004C28.787 23.0627 23.0627 28.787 16.0004 28.787Z" fill="white"/>
<path fill-rule="evenodd" clip-rule="evenodd" d="M16.0004 0.935455C7.67997 0.935455 0.935448 7.67997 0.935448 16.0004C0.935448 24.3209 7.67997 31.0646 15.9996 31.0646C24.3192 31.0646 31.0637 24.32 31.0637 16.0004C31.0637 7.68079 24.32 0.935455 16.0004 0.935455ZM16.0004 30.5838C7.94561 30.5838 1.41621 24.0544 1.41621 15.9996C1.41621 7.9448 7.94561 1.4154 16.0004 1.4154C24.0552 1.4154 30.5846 7.9448 30.5846 15.9996C30.5846 24.0544 24.0552 30.5838 16.0004 30.5838Z" fill="#FFCE09"/>
<path fill-rule="evenodd" clip-rule="evenodd" d="M16.0004 0.485657C7.43144 0.485657 0.485649 7.43144 0.485649 16.0004C0.485649 24.5694 7.43144 31.5152 16.0004 31.5152C24.5694 31.5152 31.5152 24.5694 31.5152 16.0004C31.5152 7.43144 24.5686 0.485657 16.0004 0.485657ZM16.0004 31.0206C7.70522 31.0206 0.980263 24.2956 0.980263 16.0004C0.980263 7.70523 7.70441 0.979456 16.0004 0.979456C24.2964 0.979456 31.0205 7.70442 31.0205 15.9996C31.0205 24.2948 24.2956 31.0197 16.0004 31.0197V31.0206Z" fill="#C02328"/>
<path d="M7.42981 13.8753C7.13646 13.8753 6.91075 13.9649 6.75185 14.1442C6.59377 14.3234 6.5131 14.5475 6.5131 14.8164C6.5131 15.0853 6.59133 15.3053 6.74778 15.4903C6.90504 15.6761 7.12831 15.769 7.41351 15.769C7.71256 15.769 7.9399 15.6777 8.09635 15.4952C8.25118 15.3127 8.3294 15.087 8.3294 14.8213C8.3294 14.5744 8.25281 14.3544 8.10287 14.1637C7.95131 13.9722 7.72804 13.8769 7.43062 13.8769L7.42981 13.8753ZM7.42736 15.4178C7.16498 15.4178 7.03623 15.219 7.03623 14.8213C7.03623 14.4237 7.16498 14.2265 7.42736 14.2265C7.68974 14.2265 7.80545 14.4253 7.80545 14.8221C7.80545 15.219 7.67834 15.4178 7.42736 15.4178Z" fill="#FFCE09"/>
<path d="M9.94851 15.2173L9.52316 13.903H8.99269L9.63153 15.7405H10.1677L10.8098 13.903H10.3918L9.94851 15.2173Z" fill="#FFCE09"/>
<path d="M11.5766 15.7405H13.0946V15.3771H12.0802V14.9761H12.8763V14.6298H12.0802V14.2534H13.0946V13.903H11.5766V15.7405Z" fill="#FFCE09"/>
<path d="M15.6802 14.4538C15.6802 14.3406 15.6459 14.2379 15.5767 14.145C15.5091 14.0529 15.421 13.9894 15.3176 13.9543C15.2124 13.9201 15.0731 13.903 14.9012 13.903H13.9665V15.7388H14.4685V15.0112H14.8246L15.1521 15.7388H15.703L15.3102 14.9273C15.5563 14.8327 15.6794 14.6738 15.6794 14.453L15.6802 14.4538ZM15.1138 14.5997C15.078 14.6412 15.0389 14.6681 14.9932 14.6804C14.9476 14.6926 14.8751 14.6983 14.7749 14.6983H14.4693V14.2297H14.7626C14.8767 14.2297 14.955 14.2338 14.9973 14.2436C15.0381 14.2534 15.0772 14.2778 15.1122 14.3186C15.1481 14.3585 15.166 14.4049 15.166 14.4555C15.166 14.5092 15.1489 14.5573 15.113 14.5997H15.1138Z" fill="#FFCE09"/>
<path d="M17.9055 13.9559C17.8069 13.9201 17.6635 13.9046 17.4769 13.9046H16.6393V15.7405H17.1445V15.0576H17.4948C17.6472 15.0576 17.758 15.0503 17.8306 15.034C17.9006 15.0177 17.9748 14.9859 18.0498 14.9362C18.1264 14.8865 18.1842 14.8189 18.2258 14.7333C18.2673 14.6469 18.2893 14.5589 18.2893 14.4677C18.2893 14.3389 18.2502 14.2297 18.172 14.1409C18.0938 14.0521 18.0049 13.9893 17.9055 13.9559ZM17.7124 14.6502C17.6619 14.6999 17.5771 14.7243 17.4533 14.7243H17.129V14.2362H17.4525C17.5641 14.2362 17.6505 14.2591 17.7051 14.3031C17.7597 14.3471 17.7866 14.4066 17.7866 14.4815C17.7866 14.5451 17.7621 14.6005 17.7124 14.6502Z" fill="#FFCE09"/>
<path d="M19.6061 13.903L18.9249 15.7388H19.3617L19.4953 15.3608H20.183L20.3134 15.7388H20.8488L20.183 13.903H19.6069H19.6061ZM19.6151 15.0218L19.8408 14.3764L20.0657 15.0218H19.6151Z" fill="#FFCE09"/>
<path d="M22.8207 14.6828C22.7197 14.6445 22.5616 14.6054 22.3456 14.5679C22.2145 14.5451 22.133 14.5198 22.0963 14.488C22.0596 14.4571 22.0401 14.4204 22.0401 14.3764C22.0401 14.2656 22.1387 14.211 22.3351 14.211C22.52 14.211 22.639 14.2827 22.6977 14.4294L23.1222 14.3071C23.0032 14.0187 22.7351 13.8761 22.3171 13.8761C22.0816 13.8761 21.895 13.9323 21.7581 14.0439C21.6204 14.1556 21.552 14.2933 21.552 14.4571C21.552 14.6208 21.6098 14.7406 21.7247 14.8262C21.8388 14.9101 22.0319 14.9753 22.3033 15.0242C22.4483 15.0503 22.5461 15.078 22.5966 15.1081C22.6471 15.1375 22.6716 15.179 22.6716 15.2336C22.6716 15.2882 22.6447 15.3314 22.5877 15.3689C22.5314 15.4064 22.4475 15.4267 22.3342 15.4267C22.0979 15.4267 21.9537 15.3404 21.9024 15.1701L21.4412 15.2605C21.4909 15.4292 21.5903 15.5563 21.7435 15.6419C21.8975 15.7282 22.0825 15.7698 22.3 15.7698C22.5917 15.7698 22.8109 15.7095 22.9568 15.5881C23.1051 15.4667 23.1792 15.3232 23.1792 15.1578C23.1792 15.0511 23.145 14.9557 23.0749 14.871C23.0065 14.7846 22.9226 14.7227 22.8215 14.6836L22.8207 14.6828Z" fill="#FFCE09"/>
<path d="M25.5016 14.8693C25.4331 14.783 25.3476 14.721 25.249 14.6836C25.1471 14.6453 24.989 14.6062 24.7731 14.5687C24.6427 14.5459 24.5604 14.5206 24.5237 14.4888C24.4863 14.4578 24.4692 14.4212 24.4692 14.3772C24.4692 14.2664 24.5669 14.2118 24.7625 14.2118C24.9581 14.2118 25.0681 14.2835 25.1259 14.4301L25.548 14.3079C25.4307 14.0195 25.1618 13.8769 24.7438 13.8769C24.5091 13.8769 24.3217 13.9331 24.1848 14.0447C24.0471 14.1564 23.9786 14.2941 23.9786 14.4578C23.9786 14.6216 24.0365 14.7414 24.1514 14.827C24.2654 14.9109 24.4586 14.9761 24.7299 15.025C24.8758 15.0511 24.9735 15.0788 25.0232 15.1089C25.0746 15.1383 25.0982 15.1798 25.0982 15.2344C25.0982 15.289 25.0713 15.3322 25.0143 15.3697C24.9581 15.4072 24.8741 15.4275 24.7609 15.4275C24.5246 15.4275 24.3803 15.3411 24.329 15.1708L23.8678 15.2613C23.9159 15.43 24.0169 15.5571 24.1701 15.6426C24.3241 15.729 24.5091 15.7706 24.7266 15.7706C25.0184 15.7706 25.2376 15.7103 25.3834 15.5889C25.5325 15.4674 25.6059 15.324 25.6059 15.1586C25.6051 15.0511 25.57 14.9557 25.5016 14.8702V14.8693Z" fill="#FFCE09"/>
<path d="M7.42736 14.2265C7.16498 14.2265 7.03623 14.4253 7.03623 14.8213C7.03623 15.2173 7.16498 15.4178 7.42736 15.4178C7.68974 15.4178 7.80545 15.219 7.80545 14.8221C7.80545 14.4253 7.67996 14.2265 7.42736 14.2265ZM7.42736 15.3314C7.34262 15.3314 7.12098 15.3314 7.12098 14.8197C7.12098 14.308 7.34262 14.3104 7.42736 14.3104C7.50559 14.3104 7.71989 14.3104 7.71989 14.8213C7.72071 15.3322 7.50559 15.3322 7.42736 15.3322V15.3314Z" fill="#C02328"/>
<path d="M7.42981 13.7889C7.11283 13.7889 6.86185 13.8891 6.68829 14.0863C6.51636 14.2811 6.42917 14.5263 6.42917 14.814C6.42917 15.1016 6.51391 15.3428 6.68422 15.5433C6.85697 15.7486 7.10386 15.8529 7.41432 15.8529C7.72478 15.8529 7.98961 15.7494 8.16073 15.549C8.3294 15.351 8.41333 15.1057 8.41333 14.8197C8.41333 14.5541 8.33266 14.3153 8.16887 14.1091C8.00102 13.8965 7.75249 13.7889 7.43062 13.7889H7.42981ZM8.09554 15.4936C7.9399 15.6761 7.71256 15.7674 7.41269 15.7674C7.11283 15.7674 6.90423 15.6753 6.74696 15.4887C6.59132 15.3029 6.51228 15.078 6.51228 14.8148C6.51228 14.5516 6.59214 14.3226 6.75103 14.1426C6.90993 13.9633 7.13564 13.8737 7.42899 13.8737C7.72234 13.8737 7.94968 13.969 8.10124 14.1605C8.25199 14.352 8.32777 14.5712 8.32777 14.8181C8.32777 15.0845 8.24954 15.3094 8.09472 15.4919L8.09554 15.4936Z" fill="#C02328"/>
<path d="M10.3918 13.8182H10.3307L10.3111 13.8761L9.95014 14.9444L9.60383 13.8769L9.58427 13.8174H8.87291L8.91365 13.9307L9.5525 15.7666L9.57205 15.8244H10.2296L10.25 15.7674L10.8921 13.9299L10.9304 13.8166H10.3918V13.8182ZM10.1685 15.7397H9.63235L8.99351 13.9038H9.52316L9.94851 15.2173L10.3918 13.9038H10.8098L10.1677 15.7397H10.1685Z" fill="#C02328"/>
<path d="M12.1665 15.2915V15.0617H12.9618V14.5443H12.1665V14.3381H13.1786V13.8191H11.491V15.8277H13.1802V15.2923H12.1673L12.1665 15.2915ZM13.093 15.7405H11.5749V13.903H13.0938V14.2526H12.0802V14.6298H12.8755V14.9761H12.0802V15.3771H13.093V15.7405Z" fill="#C02328"/>
<path d="M14.9973 14.2452C14.9558 14.2355 14.8784 14.2314 14.7626 14.2314H14.4693V14.6991H14.7749C14.8751 14.6991 14.9468 14.6926 14.9916 14.6812C15.0364 14.6698 15.0764 14.6429 15.1122 14.6005C15.1481 14.559 15.166 14.5109 15.166 14.4579C15.166 14.4049 15.1481 14.3609 15.1122 14.321C15.0764 14.2803 15.0381 14.2558 14.9973 14.2461V14.2452ZM15.047 14.5451C15.0234 14.5728 14.9973 14.5915 14.9696 14.5989C14.9435 14.6062 14.8889 14.6152 14.7741 14.6152H14.554V14.3161H14.7635C14.8971 14.3161 14.955 14.3226 14.9786 14.3284C15.0014 14.3324 15.0258 14.3495 15.0487 14.3756C15.0698 14.4001 15.0796 14.4269 15.0796 14.4571C15.0796 14.4913 15.069 14.5198 15.047 14.5451Z" fill="#C02328"/>
<path d="M15.4243 14.9696C15.703 14.8295 15.7641 14.6152 15.7641 14.4538C15.7641 14.3226 15.7234 14.2012 15.6451 14.0945C15.5669 13.9877 15.4659 13.9136 15.3453 13.8728C15.2312 13.8362 15.0861 13.8182 14.902 13.8182H13.8826V15.8268H14.5549V15.0976H14.7708L15.0739 15.7747L15.0967 15.8252H15.8399L15.7796 15.703L15.4251 14.9696H15.4243ZM15.1521 15.7397L14.8246 15.012H14.4685V15.7397H13.9665V13.9038H14.902C15.0739 13.9038 15.2124 13.9209 15.3184 13.9551C15.4227 13.9894 15.5099 14.0529 15.5775 14.1458C15.6451 14.2371 15.681 14.3406 15.681 14.4546C15.681 14.6746 15.5588 14.8344 15.311 14.9289L15.7038 15.7405H15.153L15.1521 15.7397Z" fill="#C02328"/>
<path d="M17.9324 13.8745C17.8249 13.837 17.6741 13.8182 17.4769 13.8182H16.5537V15.8268H17.23V15.144H17.4957C17.6546 15.144 17.7719 15.135 17.8485 15.1179C17.93 15.1 18.0131 15.0617 18.097 15.0071C18.185 14.9492 18.2543 14.8694 18.3032 14.7692C18.3496 14.6714 18.3732 14.5695 18.3732 14.466C18.3732 14.3153 18.326 14.1874 18.2355 14.0831C18.1475 13.9828 18.0449 13.9136 17.9332 13.8736L17.9324 13.8745ZM18.2249 14.7317C18.1834 14.8181 18.1247 14.8857 18.0489 14.9346C17.974 14.9843 17.8998 15.0177 17.8297 15.0324C17.7589 15.0487 17.6472 15.056 17.494 15.056H17.1445V15.7388H16.6384V13.9038H17.4769C17.6651 13.9038 17.8077 13.9209 17.9055 13.9551C18.0058 13.9894 18.0938 14.0505 18.1712 14.1393C18.2494 14.2289 18.2885 14.3381 18.2885 14.466C18.2885 14.5573 18.2673 14.6453 18.2249 14.7317Z" fill="#C02328"/>
<path d="M17.4517 14.2363H17.1282V14.7244H17.4525C17.5763 14.7244 17.6611 14.7007 17.7116 14.6502C17.7621 14.6005 17.7857 14.5451 17.7857 14.4815C17.7857 14.4074 17.7589 14.3471 17.7043 14.3031C17.648 14.2591 17.5633 14.2363 17.4517 14.2363ZM17.6537 14.5899C17.6309 14.6127 17.5788 14.6396 17.4525 14.6396H17.2129V14.3226H17.4517C17.5429 14.3226 17.6122 14.3389 17.6513 14.3699C17.6871 14.3976 17.7026 14.4326 17.7026 14.4815C17.7026 14.5223 17.6863 14.5565 17.6529 14.5899H17.6537Z" fill="#C02328"/>
<path d="M20.2621 13.8745L20.2425 13.8182H19.5466L19.5254 13.8728L18.8442 15.7103L18.8027 15.8252H19.4211L19.4415 15.7682L19.5548 15.4471H20.1211L20.2327 15.7674L20.2531 15.8252H20.9702L20.9294 15.7111L20.2629 13.8736L20.2621 13.8745ZM20.3126 15.7397L20.1822 15.3616H19.4945L19.3608 15.7397H18.9241L19.6053 13.9038H20.1814L20.8471 15.7397H20.3118H20.3126Z" fill="#C02328"/>
<path d="M19.6143 15.0226H20.0649L19.84 14.3772L19.6143 15.0226ZM19.7332 14.9387L19.84 14.638L19.9443 14.9387H19.7332Z" fill="#C02328"/>
<path d="M22.8492 14.6029C22.7417 14.5614 22.5811 14.5231 22.3579 14.484C22.1933 14.4563 22.1533 14.4277 22.1485 14.4228C22.1273 14.4049 22.124 14.3902 22.124 14.378C22.124 14.3242 22.1941 14.2974 22.3334 14.2974C22.529 14.2974 22.5893 14.3911 22.617 14.462L22.6447 14.5337L22.7189 14.5108L23.1426 14.3894L23.2347 14.3625L23.198 14.2745C23.066 13.9535 22.7694 13.7897 22.3155 13.7897C22.0621 13.7897 21.8543 13.8533 21.7035 13.9771C21.5455 14.1059 21.4648 14.2672 21.4648 14.4563C21.4648 14.6453 21.5349 14.7928 21.6726 14.8938C21.7997 14.9859 21.9993 15.056 22.2862 15.1081C22.4614 15.1391 22.5282 15.1676 22.5526 15.1815C22.5795 15.1978 22.5852 15.2124 22.5852 15.2328C22.5852 15.2418 22.5852 15.267 22.5388 15.298C22.5094 15.3175 22.4516 15.3412 22.3326 15.3412C22.0702 15.3412 22.0067 15.2295 21.9814 15.1448L21.9586 15.0706L21.8836 15.0853L21.4224 15.1758L21.3312 15.1937L21.3572 15.2833C21.4118 15.474 21.5267 15.6199 21.6995 15.7152C21.8649 15.8073 22.0662 15.8554 22.2984 15.8554C22.608 15.8554 22.8476 15.7877 23.0098 15.6541C23.1776 15.5164 23.2624 15.3485 23.2624 15.157C23.2624 15.0315 23.2208 14.9158 23.1409 14.8164C23.0627 14.7194 22.9649 14.6477 22.8492 14.6037V14.6029ZM22.956 15.5856C22.8085 15.707 22.5893 15.7673 22.2992 15.7673C22.0816 15.7673 21.8959 15.7242 21.7427 15.6394C21.5887 15.553 21.4901 15.4267 21.4404 15.2581L21.9016 15.1676C21.9545 15.3387 22.0979 15.4243 22.3334 15.4243C22.4475 15.4243 22.5323 15.4039 22.5868 15.3664C22.6439 15.329 22.6708 15.2825 22.6708 15.2312C22.6708 15.1798 22.6463 15.1358 22.5958 15.1057C22.5445 15.0755 22.4467 15.0478 22.3025 15.0218C22.0319 14.9737 21.838 14.9077 21.7239 14.8237C21.609 14.739 21.5512 14.616 21.5512 14.4546C21.5512 14.2933 21.6196 14.1539 21.7573 14.0415C21.8942 13.9307 22.0808 13.8753 22.3163 13.8753C22.7343 13.8753 23.0024 14.0195 23.1214 14.3063L22.6969 14.4285C22.639 14.2835 22.5192 14.2102 22.3342 14.2102C22.1379 14.2102 22.0393 14.2648 22.0393 14.3756C22.0393 14.4196 22.0588 14.4563 22.0955 14.4872C22.1322 14.5174 22.2136 14.5443 22.3448 14.5671C22.5608 14.6046 22.7197 14.6437 22.8199 14.682C22.9209 14.7203 23.0049 14.7822 23.0733 14.8678C23.1418 14.9525 23.1776 15.0486 23.1776 15.1546C23.1776 15.32 23.1035 15.4642 22.9552 15.5848L22.956 15.5856Z" fill="#C02328"/>
<path d="M25.5684 14.8156C25.4902 14.7186 25.3924 14.6469 25.2767 14.6029C25.1691 14.5614 25.0086 14.5231 24.7853 14.484C24.6207 14.4563 24.5824 14.4277 24.5759 14.4228C24.5547 14.4049 24.5514 14.3902 24.5514 14.378C24.5514 14.3242 24.6215 14.2974 24.7609 14.2974C24.9572 14.2974 25.0167 14.3911 25.0436 14.462L25.073 14.5337L25.1471 14.5108L25.5716 14.3894L25.6621 14.3625L25.6262 14.2745C25.4926 13.9535 25.1952 13.7897 24.7421 13.7897C24.4895 13.7897 24.2817 13.8533 24.1294 13.9771C23.9721 14.1059 23.8914 14.2672 23.8914 14.4563C23.8914 14.6453 23.9615 14.7928 24.0992 14.8938C24.2263 14.9859 24.4268 15.056 24.712 15.1081C24.888 15.1391 24.9564 15.1676 24.9776 15.1815C25.007 15.1978 25.0118 15.2124 25.0118 15.2328C25.0118 15.2418 25.0118 15.267 24.9654 15.298C24.9377 15.3175 24.8782 15.3412 24.7592 15.3412C24.4977 15.3412 24.4349 15.2295 24.4089 15.1448L24.386 15.0706L24.3119 15.0853L23.8507 15.1758L23.7594 15.1937L23.7839 15.2833C23.8385 15.474 23.9533 15.6199 24.1261 15.7152C24.2915 15.8073 24.4936 15.8554 24.725 15.8554C25.0347 15.8554 25.2742 15.7877 25.4364 15.6541C25.6042 15.5164 25.689 15.3485 25.689 15.157C25.689 15.0315 25.6474 14.9158 25.5676 14.8164L25.5684 14.8156ZM25.3826 15.5856C25.2351 15.707 25.0167 15.7673 24.7258 15.7673C24.5083 15.7673 24.3225 15.7242 24.1693 15.6394C24.0153 15.553 23.9159 15.4267 23.867 15.2581L24.3282 15.1676C24.3811 15.3387 24.5246 15.4243 24.7601 15.4243C24.8741 15.4243 24.9589 15.4039 25.0135 15.3664C25.0705 15.329 25.0974 15.2825 25.0974 15.2312C25.0974 15.1798 25.0738 15.1358 25.0224 15.1057C24.9719 15.0755 24.8741 15.0478 24.7291 15.0218C24.4586 14.9737 24.2646 14.9077 24.1505 14.8237C24.0357 14.739 23.9778 14.616 23.9778 14.4546C23.9778 14.2933 24.0462 14.1539 24.184 14.0415C24.3208 13.9307 24.5083 13.8753 24.7429 13.8753C25.161 13.8753 25.4299 14.0195 25.5472 14.3063L25.1243 14.4285C25.0664 14.2835 24.9467 14.2102 24.7609 14.2102C24.5645 14.2102 24.4675 14.2648 24.4675 14.3756C24.4675 14.4196 24.4846 14.4563 24.5221 14.4872C24.5588 14.5174 24.6411 14.5443 24.7715 14.5671C24.9874 14.6046 25.1463 14.6437 25.2473 14.682C25.3476 14.7203 25.4315 14.7822 25.4999 14.8678C25.5684 14.9525 25.6042 15.0486 25.6042 15.1546C25.6042 15.32 25.5309 15.4642 25.3818 15.5848L25.3826 15.5856Z" fill="#C02328"/>
<path opacity="0.67" d="M6.46095 16.3329C6.46095 10.9801 11.2433 6.64103 17.142 6.64103C17.9968 6.64103 18.8288 6.7331 19.6257 6.90504C17.2259 4.33663 12.8803 3.98054 9.35856 6.23686C5.45705 8.73601 4.04329 13.4931 6.20183 16.8625C6.30042 17.0165 6.40472 17.164 6.51391 17.3066C6.47888 16.9864 6.46013 16.6612 6.46013 16.332L6.46095 16.3329Z" fill="url(#paint3_radial_22_35)"/>
</g>
<defs>
<radialGradient id="paint0_radial_22_35" cx="0" cy="0" r="1" gradientUnits="userSpaceOnUse" gradientTransform="translate(16.0004 16.0004) scale(15.219)">
<stop stop-color="#E0F1E5"/>
<stop offset="0.46" stop-color="#DEEFE3"/>
<stop offset="0.62" stop-color="#D7EADE"/>
<stop offset="0.74" stop-color="#CBE2D5"/>
<stop offset="0.83" stop-color="#BAD6C9"/>
<stop offset="0.9" stop-color="#A9CABC"/>
<stop offset="0.92" stop-color="#90BDAD"/>
<stop offset="0.95" stop-color="#72AD9A"/>
<stop offset="0.98" stop-color="#5FA38F"/>
<stop offset="1" stop-color="#59A08B"/>
</radialGradient>
<radialGradient id="paint1_radial_22_35" cx="0" cy="0" r="1" gradientUnits="userSpaceOnUse" gradientTransform="translate(14.7492 15.2954) rotate(-24.83) scale(16.6466 15.4813)">
<stop stop-color="#E0F1E5" stop-opacity="0"/>
<stop offset="0.67" stop-color="#D1E6D9" stop-opacity="0"/>
<stop offset="0.79" stop-color="#C2DACD" stop-opacity="0"/>
<stop offset="0.8" stop-color="#C1D9CC" stop-opacity="0.04"/>
<stop offset="0.81" stop-color="#BED7CA" stop-opacity="0.15"/>
<stop offset="0.83" stop-color="#BAD4C7" stop-opacity="0.32"/>
<stop offset="0.85" stop-color="#B3D1C3" stop-opacity="0.56"/>
<stop offset="0.88" stop-color="#ACCCBE" stop-opacity="0.87"/>
<stop offset="0.89" stop-color="#A9CABC"/>
<stop offset="0.91" stop-color="#90BDAD"/>
<stop offset="0.95" stop-color="#72AD9A"/>
<stop offset="0.98" stop-color="#5FA38F"/>
<stop offset="1" stop-color="#59A08B"/>
</radialGradient>
<radialGradient id="paint2_radial_22_35" cx="0" cy="0" r="1" gradientUnits="userSpaceOnUse" gradientTransform="translate(15.9026 15.7071) scale(12.8078)">
<stop stop-color="#E0F1E5" stop-opacity="0"/>
<stop offset="0.67" stop-color="#D1E6D9" stop-opacity="0"/>
<stop offset="0.79" stop-color="#C2DACD" stop-opacity="0"/>
<stop offset="0.8" stop-color="#C1D9CC" stop-opacity="0.04"/>
<stop offset="0.81" stop-color="#BED7CA" stop-opacity="0.15"/>
<stop offset="0.83" stop-color="#BAD4C7" stop-opacity="0.32"/>
<stop offset="0.85" stop-color="#B3D1C3" stop-opacity="0.56"/>
<stop offset="0.88" stop-color="#ACCCBE" stop-opacity="0.87"/>
<stop offset="0.89" stop-color="#A9CABC"/>
<stop offset="0.91" stop-color="#90BDAD"/>
<stop offset="0.95" stop-color="#72AD9A"/>
<stop offset="0.98" stop-color="#5FA38F"/>
<stop offset="1" stop-color="#59A08B"/>
</radialGradient>
<radialGradient id="paint3_radial_22_35" cx="0" cy="0" r="1" gradientUnits="userSpaceOnUse" gradientTransform="translate(9.91539 9.09919) rotate(-37.36) scale(6.76571 4.60068)">
<stop stop-color="white"/>
<stop offset="0.1" stop-color="white" stop-opacity="0.98"/>
<stop offset="0.22" stop-color="white" stop-opacity="0.92"/>
<stop offset="0.36" stop-color="white" stop-opacity="0.82"/>
<stop offset="0.5" stop-color="white" stop-opacity="0.69"/>
<stop offset="0.65" stop-color="white" stop-opacity="0.51"/>
<stop offset="0.81" stop-color="white" stop-opacity="0.3"/>
<stop offset="0.97" stop-color="white" stop-opacity="0.05"/>
<stop offset="1" stop-color="white" stop-opacity="0"/>
</radialGradient>
<clipPath id="clip0_22_35">
<rect width="32" height="32" fill="white"/>
</clipPath>
</defs>
</svg>
