<svg width="32" height="32" viewBox="0 0 32 32" fill="none" xmlns="http://www.w3.org/2000/svg">
<g clip-path="url(#clip0_133_2)">
<path d="M16.0446 29.8036L2.19678 15.9558L16.0446 2.10791L29.8925 15.9558L16.0446 29.8036Z" fill="url(#paint0_linear_133_2)"/>
<path d="M19.3246 8.6937C19.3587 8.61646 19.3468 8.51755 19.3198 8.45378C18.8047 7.23488 18.2807 6.00369 17.7912 4.85477C17.7751 4.81694 17.7542 4.78401 17.7357 4.75495C17.7285 4.74355 17.7212 4.73217 17.7144 4.72058C17.6933 4.68464 17.6549 4.66337 17.6145 4.66337C17.6062 4.66337 17.5979 4.66425 17.5897 4.66605L17.542 4.67646C17.4931 4.68712 17.4565 4.72799 17.4513 4.77778L17.0917 8.25079C17.0835 8.24839 17.0755 8.24601 17.0676 8.24356C16.696 8.12817 16.3616 8.07209 16.0455 8.07209C15.9692 8.07209 15.8928 8.07542 15.8184 8.082C15.6079 8.1006 15.3988 8.14167 15.1966 8.18137C15.1266 8.19511 15.0542 8.20932 14.9834 8.22226C14.9808 8.22274 14.9782 8.22323 14.9756 8.22373C14.942 7.86324 14.9054 7.48936 14.8639 7.08185C14.7924 6.37931 14.7156 5.63518 14.6356 4.87016C14.6313 4.82973 14.6205 4.79331 14.611 4.76118C14.6074 4.7491 14.6037 4.73701 14.6007 4.72486C14.5884 4.67667 14.5467 4.64168 14.4971 4.6379L14.4599 4.63507C14.457 4.63487 14.4541 4.63477 14.4512 4.63477C14.4055 4.63477 14.3636 4.66178 14.345 4.70417C14.3319 4.73426 14.3186 4.76433 14.3053 4.7944C14.2771 4.85832 14.2479 4.92442 14.2199 4.99013C14.0986 5.27463 13.9774 5.55918 13.8562 5.84372C13.5085 6.66 13.149 7.50406 12.7932 8.33318C12.7456 8.4443 12.7086 8.58143 12.7959 8.75584C12.9512 9.0663 13.0913 9.38529 13.2195 9.68374C13.2266 9.70031 13.2237 9.74537 13.2145 9.76151C13.1209 9.92561 13.0193 10.0884 12.921 10.2459C12.8855 10.3027 12.8503 10.3592 12.8155 10.4155C12.794 10.4504 12.7925 10.4941 12.8116 10.5304C12.8144 10.5357 12.8163 10.54 12.818 10.5436C12.8247 10.5582 12.8348 10.5803 12.8576 10.6003C12.8942 10.6324 12.9369 10.6696 12.9815 10.7054C14.4884 11.9153 15.2085 13.5402 15.1219 15.5349L15.1211 15.5526C15.1094 15.8177 15.1396 15.8638 15.3903 15.9632C15.7269 16.0968 15.8958 16.1638 16.0804 16.1638C16.2642 16.1638 16.4323 16.0969 16.7671 15.9637L16.7735 15.9612C16.8777 15.9197 16.982 15.8511 16.9659 15.6566C16.9076 14.9484 16.973 14.2606 17.1606 13.6123C17.4352 12.6631 17.9074 11.8549 18.564 11.2101C18.7108 11.0658 18.8615 10.9303 19.0211 10.7867C19.0929 10.7221 19.1672 10.6553 19.2408 10.5878C19.2818 10.5503 19.2904 10.4889 19.2612 10.4416C19.225 10.3828 19.1888 10.3234 19.1525 10.2638C19.0608 10.1135 18.966 9.9581 18.8675 9.80669C18.8418 9.76715 18.8381 9.75113 18.8647 9.69613C19.0032 9.40917 19.1494 9.09063 19.3246 8.6937Z" fill="url(#paint1_linear_133_2)"/>
<path d="M13.6333 10.7296L14.9369 12.4964H16.9907L18.4562 10.5951L17.4653 10.1547L14.0498 9.97461L13.6333 10.7296Z" fill="#1CB2F4"/>
<path d="M19.2189 8.6467C19.2369 8.60593 19.2316 8.54165 19.2134 8.49873C18.706 7.29824 18.1958 6.09902 17.6849 4.90004C17.6668 4.85741 17.6384 4.81932 17.6148 4.77911C17.5989 4.78259 17.5829 4.78607 17.567 4.78954C17.4429 5.98811 17.3188 7.18669 17.1932 8.39912C17.123 8.37937 17.078 8.36784 17.0337 8.35408C16.6407 8.23209 16.2386 8.16108 15.829 8.19728C15.5523 8.22174 15.2789 8.28599 15.0046 8.33611C14.9351 8.34881 14.8735 8.37286 14.8633 8.26369C14.827 7.87342 14.7887 7.48334 14.749 7.09342C14.6739 6.35617 14.5977 5.61904 14.5206 4.88202C14.5161 4.83845 14.4996 4.79618 14.4887 4.75331C14.4763 4.75237 14.4639 4.75143 14.4516 4.75049C14.41 4.84544 14.3676 4.94003 14.3269 5.0354C13.8517 6.15001 13.3779 7.26524 12.9001 8.3787C12.8515 8.49211 12.8405 8.58508 12.8999 8.70378C13.0529 9.00953 13.1912 9.32322 13.3263 9.63782C13.3479 9.68801 13.3426 9.77127 13.3155 9.81877C13.1872 10.0436 13.0471 10.2614 12.9145 10.4762C12.9252 10.4965 12.9277 10.5072 12.9343 10.513C12.9738 10.5476 13.0135 10.582 13.0544 10.6149C14.6164 11.869 15.3257 13.5197 15.238 15.5397C15.228 15.7718 15.2222 15.7715 15.4334 15.8553C16.0827 16.1129 16.0821 16.1114 16.731 15.8533C16.8223 15.817 16.8601 15.7787 16.8508 15.6659C16.7925 14.959 16.8521 14.2625 17.0496 13.5799C17.3225 12.6364 17.7874 11.8103 18.4831 11.1272C18.7004 10.9137 18.9311 10.7145 19.1629 10.5022C19.0345 10.2939 18.9068 10.0789 18.7707 9.8697C18.7195 9.79108 18.7194 9.73086 18.7606 9.64553C18.9199 9.31583 19.071 8.9819 19.2189 8.6467ZM15.0691 12.0758C15.0664 12.0779 15.0636 12.0799 15.0608 12.082C15.0281 11.919 15 11.7549 14.9602 11.5938C14.9467 11.539 14.9109 11.4543 14.8735 11.447C14.4621 11.3669 14.3032 11.0186 14.0887 10.6843C14.1404 10.7105 14.1713 10.7226 14.1987 10.7405C14.458 10.9103 14.718 11.0788 14.9741 11.2536C15.0154 11.2818 15.0631 11.3378 15.0649 11.3827C15.074 11.6134 15.0691 11.8447 15.0691 12.0758ZM17.5878 11.2974C17.516 11.3785 17.3791 11.4035 17.2678 11.4423C17.1762 11.4742 17.13 11.5272 17.1147 11.6263C17.0902 11.786 17.0527 11.9435 17.0207 12.102C17.0179 12.1001 17.0151 12.0981 17.0122 12.0962C17.0122 11.8654 17.0096 11.6345 17.015 11.4039C17.0159 11.3684 17.046 11.3214 17.0763 11.301C17.372 11.1018 17.6706 10.9072 17.9893 10.7294C17.8575 10.9207 17.7401 11.1253 17.5878 11.2974Z" fill="#231F20"/>
<path d="M9.36209 20.5155H22.7271L16.0446 27.198L9.36209 20.5155ZM8.14941 20.0132L16.0446 27.9084L23.9398 20.0132H8.14941Z" fill="#231F20"/>
<path d="M12.2432 10.6233L12.0891 10.149L7.10526 15.1329H5.79004L12.2432 8.67967V8.05127L4.71729 15.5772H14.0951V15.106H7.76057L12.2432 10.6233Z" fill="#231F20"/>
<path d="M15.1737 5.74893L16.0442 4.8784L16.991 5.82521L17.0437 5.24943L16.0442 4.25L15.1211 5.17315L15.1737 5.74893Z" fill="#231F20"/>
<path d="M16.8812 7.03051L16.0446 6.19385L15.2842 6.95423L15.3368 7.53L16.0446 6.82225L16.8286 7.60629L16.8812 7.03051Z" fill="#231F20"/>
<path d="M19.6169 7.82275V8.45115L26.2987 15.133H24.9835L19.8026 9.9521L19.6169 10.3948L24.3282 15.1061H17.9937V15.5773H27.3714L19.6169 7.82275Z" fill="#231F20"/>
<path opacity="0.62" d="M16.0447 27.9495L8.07959 19.9844H24.0099L16.0447 27.9495ZM8.21952 20.0423L16.0447 27.8676L23.87 20.0423H8.21952Z" fill="url(#paint2_linear_133_2)"/>
<path opacity="0.58" d="M9.29199 20.4863L16.0445 27.2388L22.7969 20.4863H9.29199ZM9.43191 20.5443H22.657L16.0445 27.1568L9.43191 20.5443Z" fill="url(#paint3_linear_133_2)"/>
<path d="M16.0446 2.79096L29.2095 15.9558L16.0446 29.1206L2.87983 15.9558L16.0446 2.79096ZM16.0446 2.10791L2.19678 15.9558L16.0446 29.8036L29.8925 15.9558L16.0446 2.10791Z" fill="#231F20"/>
<path d="M16.0447 3.01358L28.987 15.9558L16.0447 28.8981L3.10245 15.9558L16.0447 3.01358ZM16.0447 2.79102L2.87988 15.9558L16.0447 29.1206L29.2095 15.9558L16.0447 2.79102Z" fill="url(#paint4_linear_133_2)"/>
<path d="M7.42489 16.8398L8.69059 18.4652L8.1499 18.8631L7.42488 17.9022L6.69987 18.8631L6.15918 18.4652L7.42489 16.8398ZM11.5508 17.6681L10.2121 16.8404V18.7386H10.9192V18.092L12.2579 18.9198V17.0215H11.5508V17.6681ZM15.3887 17.8385C15.3887 18.111 15.1457 18.1404 15.0412 18.1404C14.9368 18.1404 14.6938 18.111 14.6938 17.8385V17.0215H13.9866V17.8979C13.9866 18.4387 14.4006 18.7881 15.0412 18.7881C15.6819 18.7881 16.0958 18.4387 16.0958 17.8979V17.0215H15.3887L15.3887 17.8385ZM19.8486 18.2108C19.8486 18.7017 19.1755 18.7585 18.6692 18.7585C18.6022 18.7585 18.5274 18.7601 18.4482 18.7618C18.3611 18.7636 18.2711 18.7655 18.1823 18.7655C18.084 18.7655 18.0022 18.7631 17.9323 18.7581L17.8245 18.7505V17.0096L17.9323 17.002C18.1532 16.9864 18.4493 16.9864 18.6452 16.9864H18.6835C19.2075 16.9864 19.8089 17.0492 19.8089 17.5395C19.8089 17.6389 19.7814 17.7617 19.6741 17.8622C19.8137 17.966 19.8486 18.1015 19.8486 18.2108ZM21.4981 18.7386H22.2052V17.0215H21.4981V18.7386ZM25.6287 17.7059L25.8557 17.1799L25.7492 17.134C25.5071 17.0295 25.2095 16.972 24.9112 16.972C24.275 16.972 23.9101 17.2041 23.9101 17.6087C23.9101 17.7715 23.9737 17.8886 24.0783 17.9735L23.8159 18.5255L23.9212 18.5751C24.1155 18.6665 24.4306 18.7881 24.9211 18.7881C25.5529 18.7881 25.9302 18.5508 25.9302 18.1533C25.9302 17.9303 25.8056 17.7925 25.6287 17.7059Z" fill="url(#paint5_linear_133_2)"/>
<path d="M7.42479 17.7096L6.67623 18.7017L6.32373 18.4423L7.42479 17.0283L8.52585 18.4423L8.17335 18.7017L7.42479 17.7096Z" fill="#231F20"/>
<path d="M10.3281 17.0728L11.6668 17.9005V17.1619H12.1421V18.7362L10.8034 17.9085V18.6471H10.3281V17.0728Z" fill="#231F20"/>
<path d="M14.5778 17.1372V17.8382C14.5778 18.0996 14.76 18.2561 15.0412 18.2561C15.3224 18.2561 15.5046 18.0996 15.5046 17.8382V17.1372H15.9799V17.8977C15.9799 18.4185 15.5601 18.672 15.0412 18.672C14.5224 18.672 14.1025 18.4185 14.1025 17.8977V17.1372H14.5778Z" fill="#231F20"/>
<path d="M17.9404 18.6423V17.1174C18.1642 17.1016 18.4697 17.1021 18.6835 17.1021C19.4876 17.1021 19.693 17.2857 19.693 17.5392C19.693 17.7135 19.5881 17.8145 19.4336 17.8719C19.6098 17.9274 19.7326 18.0284 19.7326 18.2105C19.7326 18.4739 19.4732 18.6424 18.6692 18.6424C18.4553 18.6424 18.1642 18.6581 17.9404 18.6423ZM19.2177 17.6006C19.2177 17.5234 19.1135 17.4796 18.7313 17.4796C18.6164 17.4796 18.4989 17.4778 18.4157 17.4838V17.7095C18.4989 17.7115 18.5959 17.7115 18.7147 17.7115C19.1167 17.7115 19.2177 17.6719 19.2177 17.6006ZM19.2573 18.1591C19.2573 18.0878 19.1563 18.0482 18.7147 18.0482C18.5959 18.0482 18.4989 18.0482 18.4157 18.0501V18.2759C18.4989 18.2818 18.6115 18.278 18.7263 18.278C19.1481 18.278 19.2573 18.2363 19.2573 18.1591Z" fill="#231F20"/>
<path d="M21.6138 17.1372H22.0891V18.6225H21.6138V17.1372Z" fill="#231F20"/>
<path d="M24.1425 18.1077C24.3366 18.1988 24.6019 18.2761 24.9445 18.2761C25.1287 18.2761 25.3386 18.2523 25.3386 18.1751C25.3386 18.1137 25.2059 18.1038 25.0218 18.0919C24.3405 18.0483 24.0257 17.9335 24.0257 17.6087C24.0257 17.2285 24.4376 17.0879 24.9109 17.0879C25.2218 17.0879 25.501 17.1532 25.703 17.2404L25.5465 17.6028C25.3822 17.5354 25.1386 17.4839 24.8812 17.4839C24.6851 17.4839 24.5009 17.5077 24.5009 17.5849C24.5009 17.6404 24.594 17.6543 24.7604 17.6642C25.3545 17.6978 25.8139 17.779 25.8139 18.1533C25.8139 18.5018 25.4416 18.6721 24.9208 18.6721C24.4673 18.6721 24.1722 18.5652 23.9702 18.4701L24.1425 18.1077Z" fill="#231F20"/>
<path d="M13.4154 21.3034C13.3748 21.273 13.3083 21.2563 13.2602 21.2659C13.2373 21.2705 13.2238 21.3507 13.2165 21.3982C13.2042 21.4781 13.2095 21.5614 13.1912 21.6395C13.1092 21.9902 13.0441 22.3472 12.9285 22.6868C12.8385 22.9513 12.8787 23.1351 13.1012 23.2971C13.4297 23.5362 13.5941 23.8496 13.5222 24.2684C13.5144 24.3139 13.5696 24.4102 13.6059 24.4158C13.7285 24.4345 13.6991 24.3272 13.6995 24.259C13.7019 23.8637 13.7007 23.4684 13.7007 23.0732C13.7041 23.0732 13.7102 22.2942 13.7112 21.9048C13.7118 21.6549 13.6143 21.4522 13.4154 21.3034ZM13.4238 23.3372C13.3172 23.2245 13.21 23.1122 13.1064 22.9968C13.0915 22.9802 13.0924 22.9408 13.0988 22.9151C13.1988 22.5117 13.301 22.1089 13.4026 21.7059C13.4075 21.6864 13.4361 21.6892 13.437 21.7093C13.4541 22.0788 13.4651 23.3207 13.4651 23.3207C13.4651 23.3424 13.4387 23.3529 13.4238 23.3372Z" fill="#231F20"/>
<path d="M14.4713 21.2404C14.4923 21.2522 14.5186 21.2478 14.5345 21.2296C14.5586 21.202 14.5954 21.1597 14.6285 21.1209C14.6482 21.0978 14.6836 21.097 14.7043 21.1191C14.7572 21.1756 14.8051 21.2268 14.8549 21.2799C14.8748 21.3012 14.9086 21.3014 14.9288 21.2803C14.9812 21.2254 15.0275 21.177 15.0747 21.1276C15.0947 21.1067 15.1281 21.1066 15.1481 21.1276C15.1976 21.1793 15.2468 21.2307 15.311 21.2979C15.3341 21.3221 15.3741 21.3176 15.3913 21.2889C15.4264 21.2307 15.4595 21.1757 15.4934 21.1193C15.5108 21.0903 15.5512 21.0861 15.5742 21.1109C15.6362 21.1777 15.6871 21.2325 15.7502 21.3004C15.7727 21.3245 15.8119 21.3213 15.83 21.2937C15.869 21.2345 15.9049 21.1799 15.9416 21.124C15.96 21.0961 15.9999 21.0932 16.0221 21.1182C16.0779 21.181 16.1265 21.2358 16.1891 21.3063C16.2116 21.3316 16.2523 21.3283 16.2703 21.2995C16.3092 21.2374 16.3441 21.1818 16.3788 21.1264C16.3966 21.0981 16.4364 21.0944 16.4592 21.1188C16.516 21.18 16.563 21.2305 16.6132 21.2845C16.6339 21.3068 16.6695 21.306 16.6892 21.2827C16.7387 21.2242 16.8023 21.149 16.8447 21.0989C16.8674 21.0721 16.9096 21.0758 16.9273 21.106C16.9577 21.1578 17.0024 21.2341 17.0426 21.3028C17.061 21.3342 17.1055 21.3367 17.1272 21.3075C17.1782 21.2392 17.2295 21.1704 17.2625 21.1263C17.2813 21.1011 17.3182 21.0989 17.3399 21.1216L17.5132 21.3029C17.5346 21.3253 17.5708 21.3235 17.5899 21.2991L17.7153 21.1389C17.7344 21.1144 17.7708 21.1126 17.7922 21.1352C17.8301 21.1754 17.889 21.2378 17.9427 21.2961C17.9647 21.3199 18.0031 21.3173 18.0217 21.2907C18.0636 21.2309 18.1019 21.1762 18.1419 21.1191C18.1612 21.0915 18.2014 21.09 18.2228 21.116C18.2584 21.1594 18.2939 21.2018 18.3168 21.2292C18.3318 21.2471 18.357 21.2524 18.378 21.2422L18.4282 21.2177C18.4573 21.2034 18.4659 21.166 18.4458 21.1405C18.3953 21.0768 18.306 20.9643 18.2394 20.8816C18.2216 20.8595 18.1892 20.8563 18.1674 20.8744C18.1093 20.9226 18.0512 20.9708 17.9922 21.018C17.989 21.0205 17.9848 21.0217 17.9801 21.0222C17.965 21.024 17.9501 21.0178 17.9396 21.0069C17.8847 20.95 17.8264 20.8896 17.7904 20.8524C17.7711 20.8324 17.7393 20.8316 17.7191 20.8506C17.6838 20.8839 17.6258 20.9373 17.5597 20.9935C17.5408 21.0096 17.5131 21.0098 17.4941 20.9939C17.4411 20.9496 17.3687 20.89 17.3258 20.8548C17.3055 20.8382 17.276 20.8397 17.2576 20.8584C17.2227 20.8936 17.1658 20.9502 17.1175 20.9935C17.0973 21.0117 17.0663 21.0106 17.0473 20.9912C16.9947 20.9378 16.9488 20.8865 16.9199 20.8534C16.9018 20.8326 16.8707 20.83 16.8494 20.8475C16.8091 20.8808 16.7425 20.9362 16.6765 20.9936C16.6574 21.0103 16.629 21.0103 16.6098 20.9937C16.5515 20.9434 16.4968 20.8937 16.4636 20.8631C16.4448 20.8459 16.4163 20.8452 16.3967 20.8615C16.3597 20.8925 16.2968 20.9444 16.2303 20.9965C16.2111 21.0116 16.1838 21.0108 16.1654 20.9947C16.1171 20.9522 16.056 20.8971 16.0188 20.8634C15.9995 20.846 15.9705 20.8458 15.9511 20.8631C15.9125 20.8973 15.8487 20.9538 15.8018 20.995C15.7834 21.0112 15.756 21.0119 15.7367 20.9966C15.6797 20.9512 15.609 20.8943 15.5675 20.8609C15.5476 20.8449 15.519 20.8461 15.5005 20.8639C15.4653 20.8978 15.4075 20.9531 15.3606 20.9965C15.3411 21.0146 15.3109 21.0144 15.2914 20.9962C15.2348 20.943 15.1779 20.8923 15.1434 20.8619C15.1244 20.8451 15.096 20.8449 15.0768 20.8614C15.0416 20.8917 14.9818 20.9434 14.9139 21.0035C14.8938 21.0213 14.8634 21.0204 14.8443 21.0015C14.8047 20.9621 14.7463 20.9083 14.7089 20.8743C14.6887 20.8558 14.6576 20.8567 14.6385 20.8763C14.5727 20.9436 14.4308 21.0916 14.382 21.166C14.372 21.1813 14.4307 21.2176 14.4713 21.2404Z" fill="#231F20"/>
<path d="M14.6535 22.9638C14.4326 22.9632 14.2117 22.9631 13.9909 22.9641C13.8794 22.9647 13.8285 23.024 13.8339 23.1413C13.847 23.4255 13.8548 23.7101 13.8376 23.994C13.8287 24.1397 13.9009 24.1919 14.0575 24.1705C14.229 24.1471 14.3961 24.1523 14.5741 24.1692C14.7466 24.1856 14.808 24.1333 14.8054 24.0002C14.8026 23.8607 14.8047 23.7212 14.8047 23.5817H14.8097C14.8097 23.4306 14.8089 23.2795 14.81 23.1284C14.8108 23.0218 14.762 22.9641 14.6535 22.9638ZM14.5972 23.9608H14.1209C14.0819 23.9608 14.0503 23.9292 14.0503 23.8902V23.2273C14.0503 23.1979 14.0741 23.174 14.1035 23.1738C14.2457 23.1731 14.3788 23.1703 14.5112 23.1778C14.5413 23.1795 14.5925 23.2301 14.5934 23.2594C14.6002 23.4896 14.5972 23.7201 14.5972 23.9608Z" fill="#231F20"/>
<path d="M18.608 24.4806C18.6096 23.7946 18.5646 23.1323 18.5296 22.462C18.5053 22.1751 18.5507 21.7733 18.3834 21.5349C18.321 21.5611 18.3599 21.9655 18.3364 22.032C18.1038 21.0243 18.1005 21.7548 18.1206 22.2311C17.9673 22.2741 17.6889 22.2548 17.5495 22.3523C17.5437 22.4215 17.6635 22.5992 17.7258 22.6335C17.8265 22.6763 17.9347 22.6942 18.04 22.7208C17.9142 22.9885 17.9238 23.2719 17.9021 23.5707C17.7929 23.3384 17.6632 22.8477 17.3748 22.8788C17.2906 22.9272 17.1821 22.5485 17.1669 22.4844C17.2388 22.4386 17.4755 22.4362 17.3644 22.3069C17.3596 22.3067 17.3217 22.2872 17.3183 22.2948C17.3183 22.2948 17.2051 22.3523 17.146 22.3763C17.182 22.1207 17.0143 21.659 16.7187 21.9859C16.6202 22.1431 16.823 22.3117 16.9416 22.4299C16.8561 22.4627 16.7346 22.4684 16.6772 22.5616L16.7105 22.5592C16.7276 22.5734 16.7368 22.6233 16.7676 22.6128C16.8443 22.5896 16.9241 22.5357 16.9943 22.5375C17.8778 24.7019 16.7294 24.5686 18.533 24.5507C18.533 24.5507 18.564 24.5638 18.5911 24.5219H18.5882C18.5937 24.5111 18.601 24.4959 18.608 24.4806ZM17.0327 22.3444C16.9657 22.3167 16.8205 22.1587 16.8449 22.0483C16.9127 21.9441 16.9961 22.0536 16.9973 22.1281C17.0119 22.1725 17.0462 22.288 17.0327 22.3444ZM18.2383 24.3386C17.6269 24.3601 17.6379 24.3663 17.5559 23.7592C17.5278 23.5481 17.4391 23.3471 17.4072 23.1371C17.4617 23.1262 17.5171 23.1527 17.5424 23.2033L18.0005 24.1205L18.1676 24.0841C18.1729 23.9358 18.1817 23.7831 18.1586 23.6359C18.1171 23.3747 17.9855 23.0779 18.2178 22.864C18.2695 22.8195 18.2514 22.7098 18.2566 22.6358C18.1551 22.6118 17.7712 22.562 17.7065 22.4058C17.7319 22.3838 17.9425 22.3566 18.097 22.3501L18.3449 22.3843C18.3912 22.9574 18.3723 23.5615 18.3788 24.2219C18.3878 24.271 18.3196 24.3548 18.2383 24.3386Z" fill="#231F20"/>
<path d="M16.797 23.6454C16.6652 23.1759 16.3767 22.8105 16.0144 22.4976C15.857 22.3618 15.7328 22.228 15.6872 21.9986C15.6174 21.6476 15.2891 21.5862 15.0384 21.8378C14.9812 21.8953 14.8817 21.9095 14.8034 21.9474C14.7636 21.9667 14.725 21.9885 14.6865 22.0104C14.6559 22.0279 14.6483 22.0686 14.6706 22.0959C14.7043 22.1371 14.7378 22.1787 14.7801 22.1915C14.9484 22.2423 15.0065 22.349 15.041 22.5138C15.0776 22.6886 15.1564 22.8566 15.2319 23.0207C15.4029 23.3926 15.5899 23.7574 15.7564 24.1313C15.7946 24.217 15.9244 24.3564 15.7578 24.4177C15.6429 24.4599 15.4808 24.434 15.4024 24.4531C15.3961 24.4547 15.3907 24.4601 15.384 24.4697C15.3579 24.5073 15.3859 24.5588 15.4316 24.5584C15.5332 24.5575 15.8213 24.5638 15.9046 24.5673C16.035 24.5727 16.1794 24.5584 16.2504 24.5339C16.3151 24.5116 16.22 24.3555 16.2036 24.2339C16.1997 24.2042 16.1933 24.1749 16.1859 24.142C16.1779 24.1064 16.2049 24.0726 16.2414 24.0726H16.8183C16.8542 24.0726 16.881 24.0398 16.874 24.0047C16.8477 23.8719 16.8283 23.757 16.797 23.6454ZM15.814 22.5755C15.8433 22.5992 15.8728 22.6226 15.9018 22.6464C15.9118 22.6546 15.9186 22.6661 15.9214 22.6788C15.9337 22.7338 15.9295 22.7912 15.9156 22.847C15.9031 22.8975 15.8357 22.9072 15.8105 22.8618C15.7787 22.8048 15.7534 22.7443 15.7351 22.681C15.7305 22.6651 15.7264 22.6491 15.7226 22.633C15.8003 22.5841 15.7363 22.6244 15.814 22.5755ZM15.9371 24.283C15.936 24.2782 15.936 24.2732 15.9354 24.2684C15.927 24.1965 16.0345 24.1787 16.0475 24.2498C16.0491 24.2588 16.0471 24.2682 16.0505 24.276C16.1121 24.4177 15.9775 24.4554 15.9371 24.283ZM16.5242 23.9183C16.3403 23.8866 16.1557 23.8578 15.9762 23.8098C15.9073 23.7914 15.8445 23.7071 15.8025 23.6386C15.5198 23.1771 15.2218 22.7867 15.151 22.2337C15.1473 22.2048 14.8557 22.102 14.8633 22.0676C14.8833 21.9779 15.1719 21.9905 15.1873 21.9679C15.2337 21.9002 15.3406 21.9223 15.4131 21.9607C15.4589 21.9849 15.4955 22.009 15.495 22.0323C15.4924 22.1626 15.5293 22.2635 15.5872 22.3484C15.5938 22.358 15.5975 22.3693 15.5975 22.3809C15.5975 22.4098 15.5991 22.4372 15.5996 22.457C15.6012 22.5339 15.6121 22.6113 15.6316 22.6858C15.6707 22.8358 15.7462 22.9725 15.8483 23.0886C15.8698 23.1131 15.9124 23.1053 15.9277 23.0784C15.9647 23.0131 15.996 22.941 16.0134 22.8667C16.0236 22.8231 16.0786 22.8085 16.1097 22.8408C16.3383 23.079 16.5154 23.3483 16.6206 23.6678C16.6326 23.7044 16.6427 23.7416 16.6524 23.779C16.597 23.8392 16.5796 23.858 16.5242 23.9183Z" fill="#231F20"/>
<g opacity="0.47">
<path d="M14.8249 22.9493C14.784 22.9079 14.7263 22.8869 14.6536 22.8867C14.5511 22.8865 14.4486 22.8863 14.3461 22.8863C14.2275 22.8863 14.109 22.8865 13.9904 22.8871C13.9153 22.8874 13.8564 22.9095 13.8154 22.9527C13.8008 22.9681 13.789 22.9859 13.7798 23.0058C13.7801 22.9886 13.7804 22.9689 13.7807 22.9465C13.7818 22.8673 13.7829 22.7576 13.784 22.6358C13.7861 22.3871 13.7878 22.0935 13.7883 21.9051C13.789 21.6277 13.6791 21.4044 13.4616 21.2416C13.4157 21.2073 13.3497 21.186 13.2893 21.186C13.2738 21.186 13.2589 21.1875 13.2449 21.1902C13.1735 21.2045 13.1557 21.2841 13.14 21.3866C13.1342 21.4243 13.132 21.4614 13.1298 21.4973C13.1272 21.5418 13.1247 21.5837 13.1158 21.6221C13.0949 21.7111 13.0749 21.8018 13.0556 21.8895C12.9988 22.1465 12.9402 22.4123 12.8552 22.6621C12.7511 22.9679 12.8129 23.1831 13.0556 23.3597C13.381 23.5966 13.5087 23.8897 13.4459 24.2555C13.4361 24.3124 13.468 24.3816 13.4982 24.4236C13.5273 24.4639 13.5596 24.487 13.5941 24.4923C13.6073 24.4943 13.62 24.4954 13.6319 24.4954C13.6318 24.4954 13.6319 24.4954 13.6319 24.4954C13.6878 24.4954 13.7213 24.4723 13.7395 24.453C13.7846 24.4052 13.7807 24.3385 13.7778 24.2897C13.7772 24.2792 13.7765 24.269 13.7766 24.2596C13.7769 24.214 13.777 24.1682 13.7772 24.1224C13.7867 24.1472 13.7998 24.1688 13.8169 24.187C13.8579 24.2306 13.918 24.2526 13.9955 24.2526C14.0177 24.2526 14.042 24.2509 14.0679 24.2473C14.1422 24.2372 14.2185 24.2322 14.301 24.2322C14.3805 24.2322 14.4649 24.2367 14.5667 24.2464C14.5894 24.2485 14.6109 24.2496 14.6305 24.2496C14.7168 24.2496 14.7796 24.2283 14.8226 24.1844C14.8646 24.1416 14.8842 24.0809 14.8825 23.9988C14.8806 23.9025 14.881 23.804 14.8815 23.7087C14.8815 23.6922 14.8816 23.6757 14.8817 23.6592H14.8869C14.8869 23.6592 14.8868 23.491 14.8868 23.4455C14.8866 23.3418 14.8864 23.2345 14.8872 23.1292C14.8878 23.0521 14.8668 22.9916 14.8249 22.9493ZM13.6993 24.2591C13.6989 24.3274 13.7284 24.4347 13.6057 24.4159C13.5695 24.4103 13.5143 24.314 13.5221 24.2686C13.5939 23.8498 13.4295 23.5364 13.101 23.2972C12.8785 23.1352 12.8383 22.9514 12.9283 22.687C13.0439 22.3473 13.109 21.9903 13.191 21.6396C13.2093 21.5615 13.204 21.4782 13.2163 21.3983C13.2236 21.3508 13.2372 21.2706 13.26 21.266C13.3081 21.2564 13.3746 21.2731 13.4153 21.3035C13.6141 21.4523 13.7116 21.655 13.711 21.9049C13.71 22.2943 13.7039 23.0733 13.7005 23.0733C13.7005 23.4686 13.7017 23.8638 13.6993 24.2591ZM14.8096 23.5819C14.8079 23.5819 14.8063 23.5819 14.8046 23.5819C14.8046 23.7214 14.8024 23.8609 14.8052 24.0004C14.8079 24.1335 14.7465 24.1858 14.574 24.1694C14.396 24.1525 14.2289 24.1473 14.0574 24.1707C13.9008 24.1921 13.8286 24.14 13.8374 23.9942C13.8547 23.7103 13.8469 23.4257 13.8338 23.1415C13.8284 23.0242 13.8793 22.9649 13.9908 22.9644C14.2116 22.9633 14.4325 22.9635 14.6534 22.964C14.7619 22.9643 14.8107 23.022 14.8099 23.1286C14.8088 23.2797 14.8096 23.4308 14.8096 23.5819Z" fill="url(#paint6_linear_133_2)"/>
<path d="M14.5112 23.178C14.3787 23.1704 14.2457 23.1733 14.1035 23.174C14.0741 23.1741 14.0503 23.198 14.0503 23.2274V23.8904C14.0503 23.9293 14.0819 23.9609 14.1209 23.9609H14.5971C14.5971 23.7202 14.6002 23.4897 14.5933 23.2595C14.5925 23.2303 14.5413 23.1797 14.5112 23.178ZM14.5202 23.791C14.5201 23.8217 14.52 23.8526 14.52 23.8836H14.1276V23.2511C14.1443 23.251 14.1609 23.2509 14.1774 23.2507C14.2173 23.2504 14.2566 23.2501 14.2955 23.2501C14.3772 23.2501 14.4403 23.2515 14.4986 23.2547C14.5043 23.2585 14.5121 23.2661 14.5164 23.2719C14.5213 23.4428 14.5208 23.612 14.5202 23.791Z" fill="url(#paint7_linear_133_2)"/>
<path d="M13.4025 21.7061C13.3008 22.1091 13.1987 22.512 13.0986 22.9153C13.0922 22.941 13.0913 22.9805 13.1062 22.997C13.2099 23.1125 13.3171 23.2247 13.4236 23.3374C13.4385 23.3531 13.465 23.3426 13.465 23.3209C13.465 23.3209 13.4539 22.079 13.4369 21.7095C13.4359 21.6894 13.4074 21.6866 13.4025 21.7061ZM13.1715 22.9541C13.1714 22.9486 13.1719 22.9407 13.1736 22.9339C13.2388 22.6712 13.3057 22.405 13.3717 22.1439C13.3789 22.5075 13.384 22.9628 13.3863 23.1856C13.3146 23.1096 13.2417 23.032 13.1715 22.9541Z" fill="url(#paint8_linear_133_2)"/>
<path d="M14.4331 21.3079C14.4523 21.3187 14.474 21.3243 14.496 21.3243C14.5329 21.3243 14.5681 21.3084 14.5923 21.2806C14.612 21.258 14.64 21.2258 14.6677 21.1936L14.7981 21.3328C14.8222 21.3586 14.8563 21.3734 14.8916 21.3734C14.9264 21.3734 14.9602 21.3589 14.9843 21.3338L15.111 21.2011L15.2548 21.3514C15.2791 21.3769 15.312 21.3909 15.3473 21.3909C15.3927 21.3909 15.4338 21.3677 15.4572 21.3289L15.5411 21.1894L15.6933 21.3531C15.7174 21.3791 15.7516 21.394 15.7871 21.394C15.8304 21.394 15.8705 21.3725 15.8942 21.3363L15.9869 21.1954L16.131 21.3577C16.1553 21.3851 16.1902 21.4008 16.2268 21.4008C16.2712 21.4008 16.3118 21.3783 16.3354 21.3407L16.4257 21.1968L16.5563 21.3372C16.5804 21.3632 16.6146 21.3781 16.6501 21.3781C16.6878 21.3781 16.7235 21.3616 16.7479 21.3327L16.8792 21.1775L16.9757 21.342C16.9985 21.3811 17.0409 21.4054 17.0862 21.4054C17.127 21.4054 17.1644 21.3866 17.1888 21.3538L17.3053 21.1978L17.457 21.3564C17.481 21.3816 17.5148 21.396 17.5496 21.396C17.5892 21.396 17.626 21.3781 17.6505 21.3468L17.7569 21.2109C17.7944 21.2506 17.842 21.3013 17.8856 21.3486C17.9098 21.3748 17.9441 21.3898 17.9797 21.3898C18.0215 21.3898 18.0608 21.3694 18.0847 21.3352L18.1849 21.192C18.2128 21.2258 18.239 21.2571 18.2573 21.279C18.2817 21.3081 18.3174 21.3248 18.3554 21.3248C18.3748 21.3248 18.3942 21.3202 18.4116 21.3118L18.4618 21.2873C18.4968 21.2701 18.5219 21.2385 18.5305 21.2005C18.5392 21.1625 18.5302 21.1232 18.506 21.0927C18.4202 20.9843 18.3487 20.8946 18.2992 20.8332C18.2748 20.8029 18.2384 20.7855 18.1995 20.7855C18.1697 20.7855 18.1407 20.796 18.1178 20.815L18.1072 20.8237C18.0639 20.8596 18.0194 20.8965 17.9748 20.9326L17.8457 20.7989C17.8217 20.774 17.7881 20.7597 17.7535 20.7597C17.7208 20.7597 17.6896 20.772 17.6658 20.7945C17.6329 20.8255 17.583 20.8714 17.5261 20.9204C17.4754 20.8781 17.413 20.8268 17.3745 20.7952C17.3517 20.7764 17.3228 20.7661 17.2933 20.7661C17.2589 20.7661 17.2266 20.7796 17.2023 20.8041C17.1758 20.8309 17.1282 20.8785 17.0844 20.919C17.0408 20.8739 17.003 20.8316 16.9778 20.8027C16.9535 20.7748 16.9183 20.7588 16.8813 20.7588C16.8517 20.7588 16.8228 20.7692 16.8 20.788C16.7602 20.8208 16.7021 20.8691 16.6428 20.9204C16.5894 20.8739 16.541 20.8298 16.5155 20.8064C16.4918 20.7846 16.4611 20.7726 16.4289 20.7726C16.399 20.7726 16.3699 20.7831 16.3469 20.8023C16.3108 20.8324 16.2573 20.8765 16.1996 20.9222C16.1534 20.8812 16.0999 20.8331 16.0703 20.8062C16.0467 20.7849 16.0162 20.7731 15.9844 20.7731C15.9531 20.7731 15.9229 20.7846 15.8994 20.8054C15.8653 20.8357 15.8115 20.8833 15.7671 20.9224C15.7138 20.8799 15.6529 20.8309 15.6157 20.8009C15.593 20.7826 15.5645 20.7725 15.5354 20.7725C15.5021 20.7725 15.4706 20.7853 15.4466 20.8083C15.4131 20.8406 15.3669 20.8848 15.3259 20.9231C15.2758 20.8765 15.2274 20.8333 15.1942 20.8041C15.1708 20.7834 15.1407 20.772 15.1095 20.772C15.0789 20.772 15.0493 20.783 15.0261 20.803C14.9914 20.8328 14.9393 20.8779 14.8808 20.9295C14.8431 20.8929 14.7959 20.8494 14.7606 20.8172C14.737 20.7957 14.7064 20.7839 14.6745 20.7839C14.6398 20.7839 14.6073 20.7975 14.583 20.8224C14.5056 20.9014 14.3683 21.0456 14.317 21.1238C14.304 21.1436 14.3 21.1673 14.3058 21.1907C14.3154 21.23 14.3487 21.2607 14.4331 21.3079ZM14.3816 21.1661C14.4304 21.0917 14.5723 20.9437 14.6382 20.8764C14.6573 20.8569 14.6884 20.856 14.7086 20.8744C14.746 20.9084 14.8044 20.9622 14.8439 21.0016C14.863 21.0205 14.8934 21.0214 14.9135 21.0036C14.9814 20.9436 15.0412 20.8919 15.0764 20.8616C15.0957 20.845 15.124 20.8452 15.1431 20.862C15.1776 20.8924 15.2344 20.9431 15.2911 20.9963C15.3105 21.0145 15.3407 21.0147 15.3603 20.9966C15.4071 20.9532 15.4649 20.8979 15.5002 20.864C15.5186 20.8462 15.5472 20.845 15.5672 20.8611C15.6086 20.8944 15.6793 20.9513 15.7364 20.9967C15.7556 21.012 15.783 21.0113 15.8015 20.9951C15.8484 20.9539 15.9121 20.8974 15.9507 20.8632C15.9701 20.846 15.9992 20.8461 16.0184 20.8635C16.0556 20.8972 16.1167 20.9523 16.165 20.9948C16.1834 21.011 16.2107 21.0118 16.2299 20.9967C16.2964 20.9445 16.3593 20.8926 16.3964 20.8616C16.4159 20.8453 16.4444 20.846 16.4632 20.8632C16.4964 20.8938 16.5512 20.9435 16.6094 20.9939C16.6286 21.0104 16.657 21.0104 16.6762 20.9937C16.7421 20.9363 16.8087 20.8809 16.8491 20.8476C16.8703 20.8301 16.9015 20.8328 16.9196 20.8535C16.9484 20.8866 16.9944 20.9379 17.0469 20.9913C17.066 21.0107 17.0969 21.0118 17.1172 20.9936C17.1654 20.9503 17.2224 20.8937 17.2572 20.8585C17.2757 20.8398 17.3052 20.8383 17.3255 20.8549C17.3683 20.8901 17.4408 20.9497 17.4938 20.994C17.5128 21.0099 17.5405 21.0097 17.5593 20.9936C17.6254 20.9374 17.6834 20.884 17.7187 20.8507C17.739 20.8317 17.7708 20.8325 17.7901 20.8525C17.826 20.8897 17.8843 20.9501 17.9392 21.007C17.9497 21.0179 17.9647 21.0241 17.9797 21.0223C17.9844 21.0218 17.9886 21.0206 17.9918 21.0181C18.0508 20.971 18.1089 20.9227 18.167 20.8745C18.1888 20.8564 18.2212 20.8596 18.239 20.8817C18.3056 20.9644 18.3949 21.0769 18.4454 21.1406C18.4656 21.1661 18.457 21.2036 18.4278 21.2178L18.3777 21.2423C18.3567 21.2525 18.3314 21.2472 18.3164 21.2293C18.2935 21.2019 18.2581 21.1595 18.2224 21.1161C18.2011 21.0901 18.1608 21.0916 18.1415 21.1192C18.1016 21.1763 18.0633 21.231 18.0214 21.2908C18.0028 21.3174 17.9644 21.32 17.9424 21.2962C17.8886 21.2379 17.8298 21.1755 17.7918 21.1353C17.7704 21.1128 17.7341 21.1145 17.7149 21.139L17.5895 21.2992C17.5705 21.3236 17.5342 21.3254 17.5128 21.303L17.3395 21.1217C17.3178 21.099 17.2809 21.1012 17.2621 21.1264C17.2291 21.1705 17.1778 21.2393 17.1268 21.3076C17.1051 21.3368 17.0607 21.3343 17.0423 21.3029C17.002 21.2342 16.9573 21.1579 16.9269 21.1061C16.9092 21.0759 16.867 21.0722 16.8443 21.099C16.8019 21.1491 16.7384 21.2243 16.6888 21.2828C16.6691 21.3061 16.6336 21.3069 16.6128 21.2846C16.5626 21.2306 16.5156 21.1801 16.4588 21.1189C16.436 21.0945 16.3962 21.0982 16.3785 21.1265C16.3437 21.1819 16.3089 21.2375 16.2699 21.2996C16.2519 21.3284 16.2112 21.3317 16.1887 21.3064C16.1262 21.2359 16.0775 21.1811 16.0217 21.1183C15.9995 21.0933 15.9596 21.0962 15.9412 21.1241C15.9045 21.18 15.8686 21.2346 15.8296 21.2938C15.8115 21.3214 15.7723 21.3246 15.7499 21.3005C15.6867 21.2326 15.6359 21.1778 15.5738 21.111C15.5508 21.0862 15.5104 21.0904 15.493 21.1194C15.4591 21.1758 15.426 21.2308 15.391 21.289C15.3737 21.3178 15.3337 21.3222 15.3106 21.298C15.2464 21.2308 15.1972 21.1794 15.1478 21.1277C15.1277 21.1068 15.0943 21.1068 15.0743 21.1277C15.0271 21.1771 14.9808 21.2256 14.9284 21.2804C14.9082 21.3015 14.8744 21.3013 14.8545 21.28C14.8047 21.2269 14.7568 21.1757 14.7039 21.1192C14.6832 21.0971 14.6478 21.0979 14.6281 21.121C14.595 21.1598 14.5582 21.2021 14.5341 21.2297C14.5182 21.2479 14.4919 21.2523 14.4709 21.2405C14.4303 21.2178 14.3716 21.1814 14.3816 21.1661Z" fill="url(#paint9_linear_133_2)"/>
<path d="M16.844 22.0487C16.8196 22.1591 16.9649 22.317 17.0318 22.3448C17.0454 22.2883 17.0111 22.1729 16.9965 22.1285C16.9953 22.054 16.9119 21.9445 16.844 22.0487Z" fill="url(#paint10_linear_133_2)"/>
<path d="M18.6846 24.445C18.6846 23.8915 18.6545 23.345 18.6254 22.8161C18.6189 22.697 18.6123 22.5778 18.6061 22.4584L18.6059 22.4559C18.6 22.3865 18.5984 22.3096 18.5966 22.2282C18.5912 21.9754 18.5849 21.6889 18.446 21.4909L18.4103 21.4399L18.3529 21.464C18.3161 21.4794 18.2951 21.5121 18.283 21.564C18.2411 21.4661 18.206 21.4495 18.1621 21.4495C18.1371 21.4495 18.1134 21.4599 18.0953 21.4787C18.068 21.5072 18.0179 21.5595 18.0402 22.1695C18.0005 22.176 17.9548 22.1806 17.9074 22.1855C17.7678 22.1997 17.6096 22.2159 17.5046 22.2894L17.4749 22.3101L17.4719 22.3461C17.4628 22.4524 17.6061 22.6565 17.6878 22.7016L17.6913 22.7034L17.6949 22.705C17.7734 22.7384 17.8544 22.7574 17.9329 22.7754C17.8769 22.9261 17.8561 23.0784 17.8444 23.2354C17.7488 23.0198 17.6171 22.8005 17.4001 22.8005C17.3903 22.8005 17.3803 22.801 17.3703 22.8019C17.3378 22.7611 17.2892 22.6346 17.2589 22.5318C17.2651 22.53 17.2713 22.5283 17.277 22.5267C17.354 22.5051 17.4413 22.4805 17.465 22.402C17.4792 22.3552 17.4648 22.3064 17.4223 22.257L17.4009 22.232L17.3796 22.2308C17.3591 22.2224 17.3416 22.2161 17.3218 22.2161C17.3047 22.2161 17.2887 22.2211 17.2755 22.2299C17.2659 22.2347 17.2474 22.244 17.2257 22.2546C17.2172 22.1254 17.1755 21.98 17.0948 21.8873C17.043 21.8276 16.9796 21.7961 16.9113 21.7961C16.828 21.7961 16.7437 21.8427 16.6608 21.9345L16.6562 21.9395L16.6526 21.9453C16.5477 22.1125 16.6749 22.2735 16.7934 22.3936C16.7267 22.4147 16.6563 22.4475 16.6108 22.5215L16.5317 22.6499L16.67 22.6399C16.6858 22.6633 16.713 22.692 16.7588 22.692C16.7694 22.692 16.7799 22.6903 16.7903 22.6869C16.8222 22.6771 16.8527 22.6637 16.8821 22.6507C16.9035 22.6412 16.9253 22.6316 16.9454 22.6248C17.261 23.4154 17.2967 23.882 17.3183 24.1635C17.333 24.3548 17.3418 24.4702 17.4313 24.5477C17.5182 24.6229 17.6565 24.6361 17.9149 24.6361C18.0005 24.6361 18.1013 24.6345 18.2179 24.6327C18.3089 24.6313 18.4103 24.6297 18.5235 24.6285C18.5295 24.6296 18.5364 24.6303 18.5441 24.6303C18.5876 24.6303 18.6282 24.6062 18.6554 24.5642L18.6846 24.445ZM18.5905 24.5222C18.5633 24.5642 18.5323 24.5511 18.5323 24.5511C16.7288 24.5689 17.8772 24.7023 16.9937 22.5378C16.9234 22.5361 16.8436 22.59 16.7669 22.6132C16.7362 22.6237 16.7269 22.5738 16.7099 22.5596L16.6766 22.562C16.7339 22.4688 16.8554 22.463 16.9409 22.4303C16.8224 22.3121 16.6195 22.1435 16.7181 21.9863C17.0137 21.6594 17.1813 22.1211 17.1453 22.3767C17.2045 22.3527 17.3164 22.2958 17.3176 22.2951C17.3211 22.2876 17.359 22.3071 17.3637 22.3073C17.4748 22.4366 17.2382 22.439 17.1663 22.4848C17.1814 22.5489 17.29 22.9276 17.3742 22.8792C17.6625 22.8481 17.7923 23.3388 17.9015 23.5711C17.9232 23.2723 17.9135 22.9889 18.0394 22.7212C17.9341 22.6946 17.8258 22.6767 17.7251 22.6339C17.6628 22.5996 17.543 22.4219 17.5489 22.3527C17.6882 22.2552 17.9666 22.2745 18.12 22.2315C18.0999 21.7552 18.1031 21.0247 18.3357 22.0324C18.3592 21.9659 18.3203 21.5615 18.3828 21.5353C18.55 21.7737 18.5046 22.1755 18.5289 22.4624C18.5639 23.1327 18.6089 23.795 18.6073 24.481C18.6003 24.4963 18.5931 24.5115 18.5876 24.5222L18.5905 24.5222Z" fill="url(#paint11_linear_133_2)"/>
<path d="M18.3445 22.3848L18.0965 22.3506C17.942 22.3571 17.7314 22.3843 17.706 22.4064C17.7707 22.5625 18.1546 22.6123 18.2561 22.6363C18.251 22.7103 18.269 22.82 18.2173 22.8645C17.985 23.0784 18.1167 23.3752 18.1581 23.6364C18.1812 23.7836 18.1724 23.9363 18.1672 24.0846L18.0001 24.121L17.5419 23.2039C17.5166 23.1532 17.4612 23.1267 17.4067 23.1376C17.4386 23.3476 17.5273 23.5486 17.5554 23.7597C17.6375 24.3669 17.6264 24.3607 18.2378 24.3391C18.3191 24.3554 18.3873 24.2716 18.3783 24.2225C18.3719 23.562 18.3907 22.958 18.3445 22.3848ZM18.2094 22.5479C18.1402 22.5344 17.97 22.5013 17.8638 22.4491C17.9285 22.4402 18.0113 22.4318 18.0929 22.4281L18.2722 22.4528C18.2748 22.4892 18.2772 22.5257 18.2794 22.5624L18.2739 22.5611C18.2574 22.5572 18.2362 22.5531 18.2094 22.5479ZM18.2586 24.2639L18.2531 24.2633L18.2442 24.2615L18.2158 24.2625C18.1247 24.2658 18.0461 24.2685 17.9815 24.2685C17.8058 24.2685 17.757 24.2458 17.7284 24.2039C17.6847 24.1399 17.6663 24.0039 17.6359 23.7788L17.632 23.7495C17.6167 23.6347 17.5847 23.5238 17.5537 23.4165C17.5501 23.4038 17.5465 23.3913 17.5429 23.3788L17.9578 24.2093L18.2422 24.1473L18.2459 24.0451C18.2511 23.9074 18.2565 23.765 18.2345 23.6243C18.2261 23.5718 18.2143 23.518 18.2029 23.466C18.1557 23.2507 18.1149 23.0647 18.2689 22.9221C18.2783 22.9138 18.2864 22.9047 18.2933 22.895C18.3001 23.1485 18.2998 23.4094 18.2996 23.6792C18.2994 23.8553 18.2992 24.0375 18.301 24.2232L18.3011 24.2299L18.3014 24.2315C18.2974 24.2426 18.2783 24.2639 18.2586 24.2639Z" fill="url(#paint12_linear_133_2)"/>
<path d="M16.1093 22.8413C16.0782 22.8089 16.0232 22.8235 16.013 22.8672C15.9957 22.9415 15.9644 23.0136 15.9273 23.0789C15.912 23.1058 15.8695 23.1136 15.8479 23.0891C15.7458 22.973 15.6704 22.8362 15.6312 22.6862C15.6118 22.6118 15.6008 22.5344 15.5992 22.4575C15.5988 22.4377 15.5972 22.4102 15.5972 22.3814C15.5972 22.3697 15.5934 22.3585 15.5869 22.3489C15.529 22.2639 15.492 22.1631 15.4947 22.0328C15.4951 22.0095 15.4585 21.9854 15.4128 21.9612C15.3402 21.9228 15.2333 21.9007 15.187 21.9684C15.1716 21.9909 14.8829 21.9784 14.8629 22.0681C14.8553 22.1024 15.1469 22.2053 15.1506 22.2341C15.2214 22.7872 15.5194 23.1776 15.8021 23.6391C15.8441 23.7076 15.907 23.7918 15.9758 23.8102C16.1553 23.8582 16.34 23.887 16.5238 23.9187C16.5792 23.8585 16.5966 23.8396 16.652 23.7794C16.6423 23.7421 16.6323 23.7048 16.6202 23.6683C16.5151 23.3488 16.3379 23.0795 16.1093 22.8413ZM16.4954 23.8355L16.4651 23.8303C16.3094 23.8038 16.1485 23.7764 15.9958 23.7356C15.9835 23.7323 15.9379 23.7127 15.868 23.5987C15.8241 23.527 15.7795 23.4565 15.7363 23.3883C15.5042 23.0215 15.2849 22.675 15.2272 22.2243C15.2201 22.1687 15.1746 22.1477 15.053 22.0914C15.0416 22.0861 15.0281 22.0799 15.0142 22.0734C15.0507 22.0673 15.0895 22.0632 15.1107 22.061C15.1871 22.053 15.2255 22.0489 15.2507 22.012C15.2524 22.0096 15.2576 22.0021 15.2815 22.0021C15.3086 22.0021 15.3442 22.0123 15.3766 22.0295C15.3978 22.0407 15.4102 22.0485 15.4173 22.0535C15.4186 22.1772 15.4523 22.2869 15.5199 22.3878C15.52 22.4054 15.5207 22.4224 15.5212 22.4373C15.5215 22.4453 15.5218 22.4527 15.5219 22.4592C15.5237 22.5419 15.5353 22.6249 15.5564 22.7058C15.5981 22.8651 15.6766 23.0113 15.7899 23.1402C15.8128 23.1662 15.8464 23.1812 15.8821 23.1812C15.929 23.1812 15.972 23.1566 15.9945 23.1171C16.0319 23.0513 16.0601 22.9856 16.0787 22.9214C16.3013 23.1597 16.4546 23.4123 16.5468 23.6925C16.554 23.7141 16.5604 23.7363 16.5665 23.7583L16.4954 23.8355Z" fill="url(#paint13_linear_133_2)"/>
<path d="M16.9332 23.9067C16.9143 23.8084 16.8965 23.7156 16.871 23.6252C16.7491 23.1908 16.4853 22.803 16.0645 22.4398C15.903 22.3003 15.8018 22.181 15.7626 21.9841C15.7165 21.7521 15.5626 21.6079 15.3609 21.6079C15.2305 21.6079 15.0963 21.6704 14.9833 21.7839C14.9586 21.8086 14.913 21.8244 14.8648 21.8411C14.8333 21.852 14.8008 21.8633 14.7694 21.8785C14.7288 21.8982 14.6903 21.9197 14.6479 21.9439C14.6135 21.9635 14.5896 21.9971 14.5823 22.0361C14.5751 22.0749 14.5854 22.1148 14.6104 22.1454L14.6118 22.1472C14.65 22.1938 14.6932 22.2467 14.7574 22.2661C14.879 22.3027 14.9313 22.3694 14.965 22.5303C15.0022 22.7079 15.0793 22.8754 15.1539 23.0375L15.1613 23.0536C15.2367 23.2175 15.3163 23.3824 15.3933 23.5419C15.4912 23.7449 15.5925 23.9547 15.6855 24.1634C15.6946 24.1838 15.7065 24.2042 15.719 24.2257C15.7326 24.2491 15.7688 24.3112 15.7628 24.3273C15.7628 24.3273 15.7542 24.3371 15.7308 24.3457C15.6744 24.3664 15.5963 24.3672 15.5273 24.3679C15.4718 24.3684 15.4238 24.3689 15.3838 24.3787C15.3469 24.3876 15.3274 24.4158 15.3201 24.4263C15.2918 24.4672 15.2886 24.52 15.3117 24.5641C15.335 24.6087 15.3806 24.6363 15.4319 24.6363L15.4524 24.6362C15.5693 24.6362 15.8247 24.6419 15.9011 24.6451C15.9207 24.6459 15.9406 24.6463 15.9606 24.6463C16.0853 24.6463 16.2059 24.6315 16.2752 24.6077C16.3887 24.5685 16.3442 24.4371 16.3148 24.3501C16.3001 24.3066 16.2849 24.2617 16.2799 24.2242C16.2766 24.1995 16.2719 24.1756 16.2665 24.1505H16.818C16.8582 24.1505 16.896 24.1327 16.9215 24.1016C16.9471 24.0705 16.9573 24.0299 16.9494 23.9903C16.9438 23.9616 16.9384 23.9338 16.9332 23.9067ZM16.818 24.0733H16.241C16.2046 24.0733 16.1776 24.1071 16.1855 24.1426C16.1929 24.1756 16.1993 24.2049 16.2033 24.2345C16.2197 24.3561 16.3148 24.5123 16.25 24.5346C16.179 24.559 16.0347 24.5733 15.9043 24.5679C15.821 24.5644 15.5328 24.5582 15.4313 24.559C15.3855 24.5594 15.3576 24.5079 15.3836 24.4704C15.3903 24.4607 15.3957 24.4553 15.4021 24.4538C15.4805 24.4347 15.6425 24.4605 15.7574 24.4183C15.9241 24.3571 15.7943 24.2176 15.7561 24.1319C15.5895 23.758 15.4026 23.3933 15.2315 23.0213C15.1561 22.8572 15.0772 22.6892 15.0407 22.5145C15.0061 22.3496 14.9481 22.2429 14.7797 22.1921C14.7375 22.1793 14.7039 22.1377 14.6702 22.0965C14.6479 22.0692 14.6555 22.0285 14.6862 22.011C14.7247 21.9891 14.7633 21.9673 14.8031 21.948C14.8813 21.9101 14.9808 21.8959 15.038 21.8384C15.2887 21.5868 15.6171 21.6483 15.6868 21.9992C15.7324 22.2286 15.8567 22.3625 16.014 22.4983C16.3763 22.8111 16.6648 23.1765 16.7967 23.6461C16.828 23.7577 16.8474 23.8726 16.8736 24.0053C16.8806 24.0405 16.8538 24.0733 16.818 24.0733Z" fill="url(#paint14_linear_133_2)"/>
<path d="M15.8105 22.862C15.8358 22.9075 15.9031 22.8977 15.9156 22.8472C15.9295 22.7914 15.9337 22.7339 15.9214 22.679C15.9186 22.6663 15.9118 22.6548 15.9018 22.6466C15.8728 22.6228 15.8433 22.5994 15.814 22.5757C15.7363 22.6246 15.8004 22.5843 15.7227 22.6332C15.7264 22.6493 15.7305 22.6653 15.7351 22.6812C15.7534 22.7445 15.7787 22.805 15.8105 22.862ZM15.8473 22.7019C15.8513 22.723 15.8524 22.7458 15.8504 22.7701C15.8362 22.7391 15.824 22.7072 15.8139 22.6748C15.825 22.6838 15.8362 22.6928 15.8473 22.7019Z" fill="url(#paint15_linear_133_2)"/>
<path d="M16.0471 24.2503C16.0342 24.1791 15.9266 24.197 15.935 24.2688C15.9356 24.2737 15.9356 24.2787 15.9368 24.2835C15.9771 24.4559 16.1117 24.4181 16.0501 24.2765C16.0467 24.2687 16.0487 24.2592 16.0471 24.2503Z" fill="url(#paint16_linear_133_2)"/>
</g>
<path opacity="0.53" d="M7.45546 17.005L7.42497 16.9658L7.39448 17.005L6.29342 18.4189L6.26904 18.4503L6.30102 18.4738L6.65352 18.7332L6.68427 18.7558L6.70727 18.7254L7.42499 17.7741L8.14271 18.7254L8.16571 18.7558L8.19646 18.7332L8.54896 18.4738L8.58094 18.4503L8.55655 18.4189L7.45546 17.005ZM8.17354 18.7021L7.42497 17.71L6.67641 18.7021L6.32391 18.4427L7.42497 17.0287L8.52603 18.4427L8.17354 18.7021ZM11.6668 17.1238H11.6282V17.1624V17.8317L10.3485 17.0404L10.2895 17.004V17.0733V18.6476V18.6863H10.3281H10.8034H10.8421V18.6476V17.9783L12.1218 18.7696L12.1808 18.8061V18.7367V17.1624V17.1238H12.1421H11.6668ZM12.1421 18.7367L10.8034 17.909V18.6476H10.3281V17.0733L11.6668 17.9011V17.1624H12.1421V18.7367ZM25.524 17.7451C25.3145 17.6661 25.0217 17.6405 24.763 17.6258C24.6935 17.6217 24.623 17.6162 24.5786 17.6045C24.5503 17.597 24.54 17.5889 24.54 17.5852C24.54 17.572 24.598 17.5228 24.8816 17.5228C25.1119 17.5228 25.3551 17.5662 25.5323 17.6388L25.5674 17.6531L25.5825 17.6183L25.7389 17.2559L25.7542 17.2204L25.7187 17.2051C25.4861 17.1048 25.1993 17.0495 24.9113 17.0495C24.3242 17.0495 23.9875 17.2534 23.9875 17.6089C23.9875 17.9884 24.3824 18.0899 25.0197 18.1307C25.1072 18.1363 25.173 18.141 25.2241 18.1497C25.2919 18.1612 25.3003 18.175 25.3006 18.1756C25.3004 18.1913 25.2129 18.2377 24.945 18.2377C24.6564 18.2377 24.3921 18.1823 24.1594 18.073L24.1245 18.0567L24.108 18.0914L23.9357 18.4538L23.9191 18.4888L23.9542 18.5054C24.1418 18.5936 24.4462 18.711 24.9212 18.711C25.5046 18.711 25.853 18.5026 25.853 18.1535C25.853 17.9621 25.7453 17.8285 25.524 17.7451ZM24.9212 18.6724C24.4677 18.6724 24.1726 18.5655 23.9706 18.4704L24.1429 18.108C24.337 18.1991 24.6024 18.2763 24.945 18.2763C25.1291 18.2763 25.339 18.2526 25.339 18.1753C25.339 18.1139 25.2064 18.104 25.0222 18.0921C24.341 18.0486 24.0261 17.9337 24.0261 17.6089C24.0261 17.2287 24.438 17.0881 24.9113 17.0881C25.2222 17.0881 25.5014 17.1535 25.7034 17.2406L25.547 17.603C25.3826 17.5357 25.139 17.4842 24.8816 17.4842C24.6855 17.4842 24.5014 17.5079 24.5014 17.5852C24.5014 17.6406 24.5945 17.6545 24.7608 17.6644C25.3549 17.6981 25.8143 17.7793 25.8143 18.1535C25.8143 18.5021 25.442 18.6724 24.9212 18.6724ZM19.5335 17.8691C19.6652 17.7957 19.7318 17.6852 19.7318 17.5396C19.7318 17.2106 19.4085 17.0638 18.6837 17.0638H18.6649H18.6452C18.4504 17.0638 18.156 17.0638 17.9378 17.0793L17.9019 17.0818V17.1178V18.6427V18.6787L17.9378 18.6812C18.0059 18.686 18.086 18.6884 18.1825 18.6884C18.2704 18.6884 18.3601 18.6865 18.4467 18.6847C18.5263 18.683 18.6015 18.6814 18.6693 18.6814C19.0619 18.6814 19.3397 18.642 19.5185 18.5608C19.6863 18.4847 19.7714 18.367 19.7714 18.211C19.7714 18.0564 19.6915 17.9417 19.5335 17.8691ZM18.6693 18.6428C18.527 18.6428 18.3506 18.6497 18.1825 18.6497C18.0979 18.6497 18.0155 18.648 17.9406 18.6427V17.1178C18.1512 17.1029 18.4343 17.1025 18.6452 17.1025C18.6583 17.1025 18.6711 17.1025 18.6837 17.1025C19.4877 17.1025 19.6932 17.2862 19.6932 17.5396C19.6932 17.7139 19.5882 17.8149 19.4337 17.8723C19.61 17.9278 19.7328 18.0288 19.7328 18.211C19.7327 18.4744 19.4733 18.6428 18.6693 18.6428ZM21.6141 17.099H21.5754V17.1376V18.6229V18.6615H21.6141H22.0893H22.128V18.6229V17.1376V17.099H22.0893H21.6141ZM22.0893 18.6229H21.6141V17.1376H22.0893V18.6229ZM15.5047 17.099H15.4661V17.1376V17.8387C15.4661 18.0761 15.3073 18.2179 15.0413 18.2179C14.7754 18.2179 14.6166 18.0761 14.6166 17.8387V17.1376V17.099H14.5779H14.1027H14.064V17.1376V17.8981C14.064 18.1557 14.1643 18.3678 14.3541 18.5114C14.5268 18.642 14.7644 18.711 15.0413 18.711C15.3183 18.711 15.5559 18.642 15.7286 18.5114C15.9183 18.3678 16.0187 18.1557 16.0187 17.8981V17.1376V17.099H15.98H15.5047ZM15.98 17.8981C15.98 18.4189 15.5602 18.6724 15.0413 18.6724C14.5225 18.6724 14.1027 18.4189 14.1027 17.8981V17.1376H14.5779V17.8387C14.5779 18.1001 14.7601 18.2565 15.0413 18.2565C15.3226 18.2565 15.5047 18.1001 15.5047 17.8387V17.1376H15.98V17.8981ZM18.7149 18.0486C18.596 18.0486 18.499 18.0486 18.4158 18.0506V18.2763C18.4521 18.2789 18.494 18.2796 18.5392 18.2796C18.5977 18.2796 18.6617 18.2784 18.7264 18.2784C19.1482 18.2784 19.2575 18.2367 19.2575 18.1595C19.2575 18.0882 19.1565 18.0486 18.7149 18.0486ZM18.7264 18.2398C18.6931 18.2398 18.66 18.2401 18.6277 18.2404C18.5973 18.2407 18.5676 18.241 18.5392 18.241C18.5055 18.241 18.4781 18.2406 18.4545 18.2397V18.0884C18.5283 18.0872 18.6124 18.0872 18.7149 18.0872C19.0493 18.0872 19.2188 18.1115 19.2188 18.1595C19.2188 18.2128 19.0532 18.2398 18.7264 18.2398ZM19.2179 17.601C19.2179 17.5238 19.1136 17.48 18.7314 17.48C18.6885 17.48 18.6452 17.4798 18.6035 17.4798C18.5335 17.4798 18.4679 17.4805 18.4158 17.4842V17.71C18.499 17.7119 18.596 17.7119 18.7149 17.7119C19.1169 17.7119 19.2179 17.6723 19.2179 17.601ZM18.4545 17.5207C18.5004 17.5187 18.5527 17.5184 18.6035 17.5184C18.6242 17.5184 18.6452 17.5185 18.6664 17.5185C18.688 17.5186 18.7097 17.5187 18.7314 17.5187C19.0285 17.5187 19.1792 17.5464 19.1792 17.601C19.1792 17.634 19.0987 17.6733 18.7149 17.6733C18.6124 17.6733 18.5283 17.6733 18.4545 17.6721V17.5207Z" fill="url(#paint17_linear_133_2)"/>
<path d="M9.57756 12.6412L9.49561 12.7231L12.2126 15.4401L12.2945 15.3582L9.57756 12.6412Z" fill="#231F20"/>
<path d="M22.5119 12.7127L19.7949 15.4297L19.8769 15.5116L22.5938 12.7947L22.5119 12.7127Z" fill="#231F20"/>
</g>
<defs>
<linearGradient id="paint0_linear_133_2" x1="16.0446" y1="2.31075" x2="16.0446" y2="29.4104" gradientUnits="userSpaceOnUse">
<stop stop-color="#D8EDF0"/>
<stop offset="0.35381" stop-color="#E8EEF1"/>
<stop offset="0.50558" stop-color="#F0EFF1"/>
<stop offset="0.51763" stop-color="#E1E1E3"/>
<stop offset="0.53432" stop-color="#C6C8C8"/>
<stop offset="0.59918" stop-color="#989896"/>
<stop offset="0.6237" stop-color="#858482"/>
<stop offset="0.64558" stop-color="#828082"/>
<stop offset="0.70498" stop-color="#807D82"/>
<stop offset="0.83587" stop-color="#94847A"/>
<stop offset="0.90048" stop-color="#937D72"/>
<stop offset="1" stop-color="#927B6F"/>
</linearGradient>
<linearGradient id="paint1_linear_133_2" x1="16.0443" y1="3.62497" x2="16.0443" y2="21.0624" gradientUnits="userSpaceOnUse">
<stop stop-color="#FEFDFF"/>
<stop offset="0.11323" stop-color="#EFEFF0"/>
<stop offset="0.32954" stop-color="#C9CACB"/>
<stop offset="0.34278" stop-color="#C6C8C8"/>
<stop offset="0.72248" stop-color="#A99D96"/>
<stop offset="1" stop-color="#927B6F"/>
</linearGradient>
<linearGradient id="paint2_linear_133_2" x1="15.9016" y1="29.0701" x2="16.0517" y2="19.5382" gradientUnits="userSpaceOnUse">
<stop stop-color="#E2EEF0"/>
<stop offset="0.50558" stop-color="#F0EFF1"/>
<stop offset="0.51763" stop-color="#E1E1E3"/>
<stop offset="0.53432" stop-color="#C6C8C8"/>
<stop offset="0.59918" stop-color="#989896"/>
<stop offset="0.6237" stop-color="#858482"/>
<stop offset="0.64558" stop-color="#828082"/>
<stop offset="0.70498" stop-color="#807D82"/>
<stop offset="0.83587" stop-color="#94847A"/>
<stop offset="0.90048" stop-color="#937D72"/>
<stop offset="1" stop-color="#927B6F"/>
</linearGradient>
<linearGradient id="paint3_linear_133_2" x1="16.1509" y1="15.4517" x2="15.9107" y2="26.8099" gradientUnits="userSpaceOnUse">
<stop stop-color="#E2EEF0"/>
<stop offset="0.50558" stop-color="#F0EFF1"/>
<stop offset="0.51763" stop-color="#E1E1E3"/>
<stop offset="0.53432" stop-color="#C6C8C8"/>
<stop offset="0.59918" stop-color="#989896"/>
<stop offset="0.6237" stop-color="#858482"/>
<stop offset="0.64558" stop-color="#828082"/>
<stop offset="0.70498" stop-color="#807D82"/>
<stop offset="0.83587" stop-color="#94847A"/>
<stop offset="0.84123" stop-color="#8F8076"/>
<stop offset="0.87204" stop-color="#7A6B61"/>
<stop offset="0.90589" stop-color="#6A5C52"/>
<stop offset="0.94476" stop-color="#61534A"/>
<stop offset="1" stop-color="#5E5047"/>
</linearGradient>
<linearGradient id="paint4_linear_133_2" x1="15.9744" y1="2.40146" x2="16.1262" y2="31.6586" gradientUnits="userSpaceOnUse">
<stop stop-color="white"/>
<stop offset="0.49762" stop-color="#F0EFF1"/>
<stop offset="0.50558" stop-color="#F0EFF1"/>
<stop offset="0.51763" stop-color="#E1E1E3"/>
<stop offset="0.53432" stop-color="#C6C8C8"/>
<stop offset="0.59918" stop-color="#989896"/>
<stop offset="0.6237" stop-color="#858482"/>
<stop offset="0.64558" stop-color="#828082"/>
<stop offset="0.70498" stop-color="#807D82"/>
<stop offset="0.83587" stop-color="#94847A"/>
<stop offset="0.84823" stop-color="#A08978"/>
<stop offset="0.87768" stop-color="#B59375"/>
<stop offset="0.91004" stop-color="#C59A73"/>
<stop offset="0.94721" stop-color="#CE9E71"/>
<stop offset="1" stop-color="#D19F71"/>
</linearGradient>
<linearGradient id="paint5_linear_133_2" x1="16.0447" y1="21.0076" x2="16.0447" y2="16.0088" gradientUnits="userSpaceOnUse">
<stop stop-color="#D8EDF0"/>
<stop offset="0.17509" stop-color="#E8EEF1"/>
<stop offset="0.2502" stop-color="#F0EFF1"/>
<stop offset="0.29513" stop-color="#E1E1E2"/>
<stop offset="0.32682" stop-color="#D4D5D5"/>
<stop offset="0.41301" stop-color="#CCCDCD"/>
<stop offset="0.50239" stop-color="#C6C8C8"/>
<stop offset="0.57653" stop-color="#989896"/>
<stop offset="0.60454" stop-color="#858482"/>
<stop offset="0.62081" stop-color="#8B8580"/>
<stop offset="0.70722" stop-color="#A48875"/>
<stop offset="0.79715" stop-color="#B68B6E"/>
<stop offset="0.892" stop-color="#C18C69"/>
<stop offset="1" stop-color="#C48D68"/>
</linearGradient>
<linearGradient id="paint6_linear_133_2" x1="13.9307" y1="28.0357" x2="13.7867" y2="19.4193" gradientUnits="userSpaceOnUse">
<stop stop-color="#E2EEF0"/>
<stop offset="0.50558" stop-color="#F0EFF1"/>
<stop offset="0.51763" stop-color="#E1E1E3"/>
<stop offset="0.53432" stop-color="#C6C8C8"/>
<stop offset="0.59918" stop-color="#989896"/>
<stop offset="0.6237" stop-color="#858482"/>
<stop offset="0.64558" stop-color="#828082"/>
<stop offset="0.70498" stop-color="#807D82"/>
<stop offset="0.83587" stop-color="#94847A"/>
<stop offset="0.90048" stop-color="#937D72"/>
<stop offset="1" stop-color="#927B6F"/>
</linearGradient>
<linearGradient id="paint7_linear_133_2" x1="14.3381" y1="22.7147" x2="14.3181" y2="23.9355" gradientUnits="userSpaceOnUse">
<stop stop-color="#E2EEF0"/>
<stop offset="0.50558" stop-color="#F0EFF1"/>
<stop offset="0.51763" stop-color="#E1E1E3"/>
<stop offset="0.53432" stop-color="#C6C8C8"/>
<stop offset="0.59918" stop-color="#989896"/>
<stop offset="0.6237" stop-color="#858482"/>
<stop offset="0.64558" stop-color="#828082"/>
<stop offset="0.70498" stop-color="#807D82"/>
<stop offset="0.83587" stop-color="#94847A"/>
<stop offset="0.90048" stop-color="#937D72"/>
<stop offset="1" stop-color="#927B6F"/>
</linearGradient>
<linearGradient id="paint8_linear_133_2" x1="12.6644" y1="20.6219" x2="13.7318" y2="23.6708" gradientUnits="userSpaceOnUse">
<stop stop-color="#E2EEF0"/>
<stop offset="0.25834" stop-color="#F0EFF1"/>
<stop offset="0.35269" stop-color="#E1E1E3"/>
<stop offset="0.48329" stop-color="#C6C8C8"/>
<stop offset="0.58519" stop-color="#989896"/>
<stop offset="0.6237" stop-color="#858482"/>
<stop offset="0.64558" stop-color="#828082"/>
<stop offset="0.70498" stop-color="#807D82"/>
<stop offset="0.83587" stop-color="#94847A"/>
<stop offset="0.90048" stop-color="#937D72"/>
<stop offset="1" stop-color="#927B6F"/>
</linearGradient>
<linearGradient id="paint9_linear_133_2" x1="16.3886" y1="22.4799" x2="16.442" y2="20.1382" gradientUnits="userSpaceOnUse">
<stop stop-color="#E2EEF0"/>
<stop offset="0.50558" stop-color="#F0EFF1"/>
<stop offset="0.51763" stop-color="#E1E1E3"/>
<stop offset="0.53432" stop-color="#C6C8C8"/>
<stop offset="0.59918" stop-color="#989896"/>
<stop offset="0.6237" stop-color="#858482"/>
<stop offset="0.64558" stop-color="#828082"/>
<stop offset="0.70498" stop-color="#807D82"/>
<stop offset="0.83587" stop-color="#94847A"/>
<stop offset="0.90048" stop-color="#937D72"/>
<stop offset="1" stop-color="#927B6F"/>
</linearGradient>
<linearGradient id="paint10_linear_133_2" x1="16.9287" y1="21.6733" x2="16.942" y2="22.4072" gradientUnits="userSpaceOnUse">
<stop stop-color="#E2EEF0"/>
<stop offset="0.50558" stop-color="#F0EFF1"/>
<stop offset="0.51763" stop-color="#E1E1E3"/>
<stop offset="0.53432" stop-color="#C6C8C8"/>
<stop offset="0.59918" stop-color="#989896"/>
<stop offset="0.6237" stop-color="#858482"/>
<stop offset="0.64558" stop-color="#828082"/>
<stop offset="0.70498" stop-color="#807D82"/>
<stop offset="0.83587" stop-color="#94847A"/>
<stop offset="0.90048" stop-color="#937D72"/>
<stop offset="1" stop-color="#927B6F"/>
</linearGradient>
<linearGradient id="paint11_linear_133_2" x1="17.6001" y1="26.4968" x2="17.6134" y2="21.6533" gradientUnits="userSpaceOnUse">
<stop stop-color="#E2EEF0"/>
<stop offset="0.50558" stop-color="#F0EFF1"/>
<stop offset="0.51763" stop-color="#E1E1E3"/>
<stop offset="0.53432" stop-color="#C6C8C8"/>
<stop offset="0.59918" stop-color="#989896"/>
<stop offset="0.6237" stop-color="#858482"/>
<stop offset="0.64558" stop-color="#828082"/>
<stop offset="0.70498" stop-color="#807D82"/>
<stop offset="0.83587" stop-color="#94847A"/>
<stop offset="0.86158" stop-color="#85746B"/>
<stop offset="0.89918" stop-color="#75645B"/>
<stop offset="0.94185" stop-color="#6C5B52"/>
<stop offset="1" stop-color="#69584F"/>
</linearGradient>
<linearGradient id="paint12_linear_133_2" x1="17.5816" y1="21.1139" x2="18.2955" y2="25.1168" gradientUnits="userSpaceOnUse">
<stop stop-color="#E2EEF0"/>
<stop offset="0.12164" stop-color="#E2EEF0"/>
<stop offset="0.14166" stop-color="#E2EEF0"/>
<stop offset="0.23798" stop-color="#E1ECEE"/>
<stop offset="0.27418" stop-color="#DBE6E7"/>
<stop offset="0.30026" stop-color="#D2DBDB"/>
<stop offset="0.32147" stop-color="#C4CBCA"/>
<stop offset="0.33971" stop-color="#B3B6B4"/>
<stop offset="0.35592" stop-color="#9E9C98"/>
<stop offset="0.37063" stop-color="#847D78"/>
<stop offset="0.38374" stop-color="#685B53"/>
<stop offset="0.39385" stop-color="#4D3B31"/>
<stop offset="0.40272" stop-color="#6E5F57"/>
<stop offset="0.41377" stop-color="#908580"/>
<stop offset="0.42552" stop-color="#AEA6A3"/>
<stop offset="0.43789" stop-color="#C6C1BF"/>
<stop offset="0.45109" stop-color="#D9D5D5"/>
<stop offset="0.46552" stop-color="#E6E4E5"/>
<stop offset="0.48207" stop-color="#EEECEE"/>
<stop offset="0.50558" stop-color="#F0EFF1"/>
<stop offset="0.51763" stop-color="#E1E1E3"/>
<stop offset="0.53432" stop-color="#C6C8C8"/>
<stop offset="0.59918" stop-color="#989896"/>
<stop offset="0.6237" stop-color="#858482"/>
<stop offset="0.64558" stop-color="#828082"/>
<stop offset="0.70498" stop-color="#807D82"/>
<stop offset="0.83587" stop-color="#4D3B31"/>
<stop offset="0.85351" stop-color="#604C42"/>
<stop offset="0.88069" stop-color="#756055"/>
<stop offset="0.91057" stop-color="#856E63"/>
<stop offset="0.94487" stop-color="#8E766B"/>
<stop offset="0.99361" stop-color="#91796E"/>
</linearGradient>
<linearGradient id="paint13_linear_133_2" x1="16.8364" y1="20.1198" x2="15.2419" y2="24.2628" gradientUnits="userSpaceOnUse">
<stop stop-color="#E2EEF0"/>
<stop offset="0.50558" stop-color="#F0EFF1"/>
<stop offset="0.51763" stop-color="#E1E1E3"/>
<stop offset="0.53432" stop-color="#C6C8C8"/>
<stop offset="0.59918" stop-color="#989896"/>
<stop offset="0.6237" stop-color="#858482"/>
<stop offset="0.64558" stop-color="#828082"/>
<stop offset="0.70498" stop-color="#807D82"/>
<stop offset="0.83587" stop-color="#94847A"/>
<stop offset="0.90048" stop-color="#937D72"/>
<stop offset="1" stop-color="#927B6F"/>
</linearGradient>
<linearGradient id="paint14_linear_133_2" x1="15.8474" y1="27.9088" x2="15.715" y2="19.9849" gradientUnits="userSpaceOnUse">
<stop stop-color="#E2EEF0"/>
<stop offset="0.28062" stop-color="#E2EEF0"/>
<stop offset="0.32682" stop-color="#E2EEF0"/>
<stop offset="0.37728" stop-color="#E1ECEE"/>
<stop offset="0.39684" stop-color="#DCE6E7"/>
<stop offset="0.41103" stop-color="#D5DBDB"/>
<stop offset="0.42264" stop-color="#CACCCA"/>
<stop offset="0.43266" stop-color="#BCB8B3"/>
<stop offset="0.44157" stop-color="#AB9F98"/>
<stop offset="0.4495" stop-color="#978378"/>
<stop offset="0.45132" stop-color="#927B6F"/>
<stop offset="0.45236" stop-color="#9B867B"/>
<stop offset="0.45558" stop-color="#B1A29A"/>
<stop offset="0.45922" stop-color="#C5BAB6"/>
<stop offset="0.46334" stop-color="#D5CECC"/>
<stop offset="0.46814" stop-color="#E1DDDD"/>
<stop offset="0.47409" stop-color="#EAE7E8"/>
<stop offset="0.48243" stop-color="#EFEDEF"/>
<stop offset="0.50558" stop-color="#F0EFF1"/>
<stop offset="0.51763" stop-color="#E1E1E3"/>
<stop offset="0.53432" stop-color="#C6C8C8"/>
<stop offset="0.59918" stop-color="#989896"/>
<stop offset="0.6237" stop-color="#858482"/>
<stop offset="0.64558" stop-color="#828082"/>
<stop offset="0.70498" stop-color="#807D82"/>
<stop offset="0.83587" stop-color="#94847A"/>
<stop offset="0.90048" stop-color="#937D72"/>
<stop offset="1" stop-color="#927B6F"/>
</linearGradient>
<linearGradient id="paint15_linear_133_2" x1="15.6857" y1="22.1188" x2="15.9192" y2="23.0394" gradientUnits="userSpaceOnUse">
<stop stop-color="#E2EEF0"/>
<stop offset="0.50558" stop-color="#F0EFF1"/>
<stop offset="0.51763" stop-color="#E1E1E3"/>
<stop offset="0.53432" stop-color="#C6C8C8"/>
<stop offset="0.59918" stop-color="#989896"/>
<stop offset="0.6237" stop-color="#858482"/>
<stop offset="0.64558" stop-color="#828082"/>
<stop offset="0.70498" stop-color="#807D82"/>
<stop offset="0.83587" stop-color="#94847A"/>
<stop offset="0.90048" stop-color="#937D72"/>
<stop offset="1" stop-color="#927B6F"/>
</linearGradient>
<linearGradient id="paint16_linear_133_2" x1="15.9568" y1="24.0249" x2="16.0102" y2="24.3652" gradientUnits="userSpaceOnUse">
<stop stop-color="#E2EEF0"/>
<stop offset="0.50558" stop-color="#F0EFF1"/>
<stop offset="0.51763" stop-color="#E1E1E3"/>
<stop offset="0.53432" stop-color="#C6C8C8"/>
<stop offset="0.59918" stop-color="#989896"/>
<stop offset="0.6237" stop-color="#858482"/>
<stop offset="0.64558" stop-color="#828082"/>
<stop offset="0.70498" stop-color="#807D82"/>
<stop offset="0.83587" stop-color="#94847A"/>
<stop offset="0.90048" stop-color="#937D72"/>
<stop offset="1" stop-color="#927B6F"/>
</linearGradient>
<linearGradient id="paint17_linear_133_2" x1="16.061" y1="16.0792" x2="16.061" y2="19.6854" gradientUnits="userSpaceOnUse">
<stop stop-color="#D8EDF0"/>
<stop offset="0.35381" stop-color="#E8EEF1"/>
<stop offset="0.50558" stop-color="#F0EFF1"/>
<stop offset="0.51763" stop-color="#E1E1E3"/>
<stop offset="0.53432" stop-color="#C6C8C8"/>
<stop offset="0.59918" stop-color="#989896"/>
<stop offset="0.6237" stop-color="#858482"/>
<stop offset="0.64558" stop-color="#828082"/>
<stop offset="0.70498" stop-color="#807D82"/>
<stop offset="0.83587" stop-color="#94847A"/>
<stop offset="0.90048" stop-color="#937D72"/>
<stop offset="1" stop-color="#927B6F"/>
</linearGradient>
<clipPath id="clip0_133_2">
<rect width="32" height="32" fill="white"/>
</clipPath>
</defs>
</svg>
