<?xml version="1.0" encoding="utf-8"?>
<!-- Generator: Adobe Illustrator 23.0.2, SVG Export Plug-In . SVG Version: 6.00 Build 0)  -->
<svg version="1.1" id="Layer_1" xmlns="http://www.w3.org/2000/svg" xmlns:xlink="http://www.w3.org/1999/xlink" x="0px" y="0px"
	 width="32px" height="32px" viewBox="0 0 32 32" enable-background="new 0 0 32 32" xml:space="preserve">
<path fill="#30302F" d="M31.361,13.876L31.361,13.876c-0.036-0.042-0.079-0.078-0.129-0.107c-0.25-0.145-0.521-0.223-0.824-0.239
	c-0.169-0.439-0.139-0.992-0.106-1.583c0.024-0.42,0.051-0.896-0.007-1.356c-0.017-0.122-0.076-0.233-0.17-0.314
	c-0.342-0.294-0.755-0.365-1.131-0.194c-0.159,0.073-0.294,0.182-0.407,0.306c-0.021-0.068-0.039-0.135-0.056-0.198
	c0.344-0.092,0.65-0.267,0.914-0.52c0.666-0.641,0.927-1.688,0.633-2.547c-0.255-0.741-0.867-1.243-1.694-1.405
	c0.118-0.129,0.246-0.298,0.264-0.529c0.012-0.142-0.039-0.283-0.138-0.385c-0.1-0.104-0.263-0.167-0.378-0.153
	c-0.393,0.014-0.798,0.154-1.173,0.4c0-0.012,0-0.023,0-0.035c-0.003-0.403-0.006-0.819,0.159-1.131
	c0.136-0.426-0.014-0.657-0.162-0.774c-0.097-0.077-0.359-0.229-0.747-0.001c-0.401,0.239-1.059,0.982-1.477,1.88
	c0-0.004-0.001-0.009-0.001-0.014c-0.108-0.498-0.562-0.607-0.78-0.66c-0.037-0.009-0.149-0.036-0.167-0.046
	c-0.001-0.002-0.006-0.012-0.021-0.072c-0.308-0.837-1.066-0.797-1.521-0.773c-0.339,0.013-0.506,0.007-0.577-0.077
	c-0.023-0.028-0.051-0.053-0.081-0.075c-0.001-0.014-0.003-0.027-0.007-0.042c-0.137-0.648-0.52-1.2-1.023-1.474
	c-0.417-0.23-0.884-0.257-1.348-0.08c-0.166,0.063-0.283,0.208-0.314,0.376C18.579,1.967,18.215,1.947,17.811,2
	c-0.135,0.018-0.258,0.091-0.336,0.198c-0.066,0.089-0.101,0.199-0.099,0.311c-0.143-0.024-0.287-0.031-0.432-0.021
	c-0.169-0.503-0.593-0.912-1.12-1.074c-0.489-0.149-0.994-0.063-1.337,0.223c-0.209,0.14-0.33,0.311-0.403,0.469
	c-0.065-0.03-0.138-0.058-0.22-0.083c-0.729-0.132-1.096,0.148-1.274,0.405c-0.075,0.108-0.119,0.225-0.146,0.33
	c-0.08-0.001-0.187-0.005-0.322-0.013c-0.459-0.022-1.126-0.054-1.473,0.326c-0.055-0.013-0.109-0.016-0.166-0.01
	c-0.674,0.08-1.319,0.347-1.895,0.795C8.572,3.812,8.55,3.772,8.523,3.734C7.958,2.957,7.321,3.118,7.14,3.186
	C6.576,3.399,6.201,4.095,6.267,4.804c0.008,0.09,0.026,0.177,0.053,0.265C5.851,5.111,5.48,5.487,5.399,6.021
	C5.346,6.366,5.437,6.691,5.64,6.918C5.4,7.195,5.416,7.462,5.484,7.653C5.39,7.745,5.292,7.845,5.2,7.952
	C4.829,7.803,4.344,8.001,4.155,8.38C4.087,8.516,4.01,8.767,4.146,9.077C3.998,9.148,3.869,9.259,3.767,9.406
	c-0.285,0.409-0.328,1.018-0.221,1.422c0.134,0.392,0.463,0.549,0.688,0.626c-0.002,0-0.004,0-0.006,0
	c-0.525,0-1.048,0.489-1.377,0.974c-0.155,0.229-0.48,0.784-0.35,1.278c-0.009,0.014-0.018,0.028-0.025,0.045
	c-0.478,1.008-0.354,1.956-0.243,2.811c0.005,0.038,0.01,0.076,0.015,0.114c-0.095-0.042-0.196-0.073-0.304-0.091
	c-0.559-0.092-1.121,0.174-1.399,0.659c-0.271,0.522-0.246,1.104,0.067,1.597c0.354,0.557,0.998,0.903,1.68,0.903l0.075-0.001
	c0.324-0.01,0.606-0.082,0.845-0.214c0.065,0.531,0.307,0.9,0.689,1.038c-0.036,0.361,0.179,0.739,0.32,0.986l0.038,0.065
	c0.021,0.036,0.041,0.065,0.036,0.048c0.039,0.171,0.122,0.317,0.243,0.428C4.41,22.275,4.335,22.49,4.328,22.7
	c-0.007,0.199,0.047,0.872,1.085,1.138l0.066,0.001c0.163,0,0.326-0.031,0.481-0.092c0.059,0.116,0.148,0.218,0.267,0.306
	c0,0.001,0.001,0.001,0.001,0.001c-0.028,0.299,0.045,0.58,0.213,0.836l0.056,0.141c0.114,0.292,0.314,0.807,0.695,1.008
	c0.01,0.075,0.036,0.148,0.079,0.213c0.38,0.575,0.918,1.036,1.568,1.343c-0.203,0.239-0.314,0.568-0.285,0.894
	c0.042,0.462,0.398,0.979,1.293,1.047c0.754-0.013,1.438-0.64,1.563-1.461c0.23,0.496,0.76,0.881,1.666,1.211
	c0.054,0.02,0.111,0.029,0.17,0.029s0.17-0.021,0.216-0.036c0.146-0.049,0.26-0.162,0.312-0.304c0.29,0.212,0.69,0.236,1.001,0.255
	c0.083,0.005,0.254,0.015,0.329,0.035c0.086,0.021,0.174,0.021,0.252,0.001c0.002-0.001,0.004-0.001,0.006-0.002
	c0.039,0.12,0.094,0.231,0.162,0.325c0.167,0.229,0.415,0.365,0.663,0.365c0.032,0,0.063-0.003,0.054-0.006
	c0.457,0.037,0.87-0.175,1.118-0.566c0.228-0.359,0.268-0.825,0.114-1.225c0.007-0.002,0.014-0.003,0.021-0.005
	c0.35,0.96,1.188,1.027,2.073,1.099l0.252,0.018c0.343-0.012,0.523-0.167,0.615-0.295c0.202-0.286,0.111-0.626,0.035-0.863
	c0.047-0.013,0.092-0.033,0.134-0.06c-0.01,0.062-0.014,0.125-0.012,0.19c0.017,0.486,0.359,0.934,0.796,1.04
	c0.076,0.019,0.163,0.02,0.225,0.003c1.012-0.215,1.238-0.758,1.283-1.063c0.074-0.506-0.243-1.034-0.812-1.346
	c-0.003-0.001-0.005-0.003-0.008-0.004c0.196-0.101,0.398-0.208,0.604-0.326c0.127,0.059,0.256,0.076,0.373,0.064
	c0.264-0.012,0.493-0.145,0.652-0.372c0.03,0.014,0.062,0.026,0.095,0.037c0.107,0.035,0.217,0.033,0.325-0.006
	c1.211-0.44,1.671-0.776,1.762-1.284c0.036-0.206-0.016-0.383-0.085-0.523c0.257-0.248,0.415-0.594,0.565-0.934
	c0.238,0.323,0.653,0.438,1.115,0.304c0.394-0.112,0.729-0.463,0.853-0.894c0.115-0.401,0.031-0.796-0.229-1.082
	c-0.042-0.047-0.094-0.086-0.156-0.117l-0.113-0.055c0.073-0.116,0.143-0.252,0.177-0.414c0.003-0.016,0.005-0.03,0.006-0.044
	c0.646-0.297,1.117-0.976,1.437-1.437c0.12-0.176,0.116-0.41-0.011-0.582c-0.024-0.033-0.05-0.062-0.075-0.086
	c0.384-0.654,0.325-1.374,0.274-1.961c0.102,0.029,0.2,0.036,0.276,0.021c0.486-0.001,0.886-0.295,1.044-0.766
	c0.059-0.174,0.079-0.359,0.063-0.545c0.277-0.073,0.492-0.266,0.602-0.544C31.821,14.836,31.644,14.205,31.361,13.876z
	 M21.716,21.769c-0.169-0.178-0.444-0.208-0.64-0.074c-0.079,0.053-0.267,0.176-0.301,0.424c-0.024,0.182,0.043,0.314,0.112,0.41
	c-0.09,0.06-0.182,0.115-0.273,0.172c-0.096,0.058-0.19,0.116-0.283,0.177c-0.036,0.023-0.069,0.053-0.098,0.086
	c-0.472-0.057-0.974,0.199-1.382,0.413c-0.28,0.146-0.597,0.312-0.782,0.315c-0.111-0.179-0.3-0.407-0.646-0.362
	c-0.174,0.03-0.374,0.16-0.44,0.434c-0.194,0.03-0.39,0.057-0.586,0.08c-0.051,0.006-0.1,0.021-0.147,0.045
	c-0.341-0.176-0.89-0.234-1.778-0.279l-0.076-0.004c-0.118-0.006-0.271-0.014-0.389-0.022c-0.007-0.093-0.031-0.179-0.074-0.258
	c-0.056-0.104-0.194-0.285-0.485-0.332c-0.194-0.035-0.387,0.046-0.501,0.217c-0.003,0.004-0.006,0.009-0.009,0.014
	c-0.139-0.028-0.268-0.069-0.384-0.123c0.004-0.114-0.031-0.228-0.101-0.318c-0.306-0.406-0.801-0.707-1.303-1.013
	c-0.23-0.141-0.45-0.274-0.619-0.403c0.009-0.057,0.008-0.113-0.003-0.167c-0.069-0.333-0.305-0.447-0.42-0.484
	c0.375-0.09,0.648-0.332,0.757-0.687c0.138-0.451-0.05-0.986-0.438-1.245c-0.202-0.136-0.432-0.184-0.66-0.153
	c0.473-0.171,0.644-0.479,0.705-0.676c0.13-0.42-0.048-0.904-0.445-1.205c-0.292-0.222-0.64-0.299-0.969-0.225
	C9.013,16.068,9.004,15.563,9,15.298c0-0.054-0.001-0.103-0.002-0.151c0.753-0.016,1.096-0.425,1.172-0.827
	c0.039,0.009,0.08,0.016,0.123,0.022c0.529-0.002,0.951-0.306,1.1-0.793c0.176-0.575-0.042-1.248-0.508-1.566
	c-0.095-0.065-0.296-0.175-0.565-0.178c0.09-0.109,0.214-0.215,0.386-0.301c0.155,0.172,0.428,0.214,0.632,0.091
	c0.02-0.012,0.039-0.025,0.059-0.04l0.004,0.004l0.089-0.079c0.012-0.011,0.024-0.021,0.036-0.032l0.018-0.016
	c0.121,0.039,0.243,0.058,0.377,0.058c0,0,0,0,0.001,0c0.267-0.009,0.832-0.18,1.159-0.51c0.011,0.003,0.022,0.006,0.033,0.009
	c0.443,0.093,0.945-0.227,1.177-0.546c0.269-0.37,0.15-0.668,0.087-0.78c-0.088-0.153-0.223-0.254-0.396-0.301
	c0.21-0.115,0.426-0.22,0.646-0.315c0.199,0.255,0.491,0.355,0.759,0.27c0.041-0.014,0.08-0.033,0.117-0.057
	c0.066-0.044,0.122-0.095,0.166-0.152c0.341,0.191,0.7,0.273,1.072,0.274c-0.331,0.296-0.587,0.641-0.728,0.992
	c-0.133,0.184-0.122,0.447,0.026,0.624c0.09,0.108,0.227,0.171,0.347,0.171c0.002,0,0.005,0,0.007,0l0.128-0.005
	c0.12-0.018,0.231-0.07,0.332-0.118c0.251-0.119,0.737-0.34,1.229-0.307c-0.122,0.113-0.225,0.23-0.307,0.349
	c-0.3,0.431-0.407,0.91-0.313,1.384c0.036,0.178,0.165,0.323,0.341,0.38c0.174,0.051,0.364,0.009,0.494-0.116
	c0.368-0.351,0.849-0.565,1.351-0.61c-0.042,0.183-0.04,0.359,0.003,0.517c0.012,0.155,0.1,0.299,0.235,0.385
	c0.206,0.132,0.513,0.076,0.664-0.12c0.287-0.367,0.742-0.608,1.18-0.615c0.328,0,0.625,0.148,0.858,0.428
	c0,0.001,0.001,0.002,0.002,0.002c-0.051,0.311,0.048,0.581,0.194,0.81c-0.232,0.038-0.436,0.139-0.585,0.298
	c-0.166,0.176-0.408,0.57-0.165,1.238c0.025,0.067,0.063,0.127,0.114,0.179c0.535,0.536,1.064,0.443,1.356,0.201
	c0.018-0.015,0.035-0.031,0.052-0.047c0.044,0.091,0.067,0.163,0.071,0.206c0.001,0.012,0.003,0.024,0.005,0.036
	c-0.085,0.087-0.149,0.185-0.193,0.292l-0.025,0.073c-0.046,0.182-0.054,0.366-0.024,0.563c-0.089-0.019-0.174-0.023-0.252-0.017
	c-0.261,0.012-0.748,0.138-1.088,0.869c-0.139,0.426-0.039,0.833,0.273,1.117c0.316,0.285,0.799,0.372,1.177,0.21
	c0.005-0.002,0.009-0.004,0.014-0.006c-0.006,0.021-0.01,0.043-0.012,0.065c-0.061,0.062-0.105,0.14-0.127,0.22
	c-0.038,0.127-0.021,0.267,0.042,0.38c0.034,0.063,0.081,0.116,0.143,0.16c-0.045,0.12-0.101,0.239-0.166,0.356
	c-0.012,0.022-0.021,0.044-0.026,0.065c-0.005,0.002-0.009,0.004-0.014,0.007c-0.486,0.271-0.787,0.709-1.078,1.134
	c-0.172,0.251-0.337,0.49-0.523,0.674C21.738,21.793,21.727,21.78,21.716,21.769z"/>
<linearGradient id="SVGID_1_" gradientUnits="userSpaceOnUse" x1="16.0335" y1="5.4208" x2="16.0335" y2="27.5461">
	<stop  offset="0" style="stop-color:#FFF7C4"/>
	<stop  offset="0.2318" style="stop-color:#D6BE77"/>
	<stop  offset="0.3855" style="stop-color:#FFF7C4"/>
	<stop  offset="0.6006" style="stop-color:#A5935C"/>
	<stop  offset="0.7402" style="stop-color:#423B27"/>
	<stop  offset="0.7667" style="stop-color:#48402A"/>
	<stop  offset="0.8025" style="stop-color:#595033"/>
	<stop  offset="0.8435" style="stop-color:#766943"/>
	<stop  offset="0.8882" style="stop-color:#9D8C58"/>
	<stop  offset="0.8966" style="stop-color:#A5935C"/>
	<stop  offset="1" style="stop-color:#A8A66A"/>
</linearGradient>
<path fill="url(#SVGID_1_)" d="M14.463,8.571c-0.606,0.253-1.219,0.552-1.714,0.986c-0.111-0.159-0.289-0.287-0.483-0.348
	c0.532-0.356,1.193-0.517,1.579-1.058c0.059-0.083,0.213-0.329,0.176-0.403c-0.461-0.925-0.783-1.969-1.226-2.922
	c0.099,0.015,0.293-0.165,0.373,0.012c0.306,0.944,0.662,1.91,1.058,2.871C14.226,7.709,14.514,8.55,14.463,8.571z M12.812,10.386
	c-0.173-0.435-0.441-1.081-0.956-0.861c-0.608,0.481,0.081,1.285,0.234,0.696c-0.005-0.114-0.273-0.081-0.244-0.241
	c0.291-0.546,0.843,0.42,0.344,0.662c-0.565,0.36-1.109-0.479-0.809-0.959c0.427-0.972,1.869-1,2.29-1.944l-0.227-0.548
	c-0.45,1.086-2.05,1.367-2.628,2.306c0.167,0.156,0.08,0.434-0.128,0.525c0.341,0.42,0.724,0.976,1.216,0.971
	C12.14,10.983,12.911,10.706,12.812,10.386z M13.214,10.5c0.53,0.176,1.257-0.853,0.457-0.773c-0.091-0.03-0.279,0.209-0.135,0.204
	c0.154-0.111,0.344,0.145,0.175,0.252c-0.339,0.243-0.75-0.259-0.436-0.541l-0.042-0.077c-0.12,0.081-0.232,0.173-0.336,0.263
	c0.077,0.188,0.211,0.405,0.233,0.61C13.17,10.478,13.125,10.498,13.214,10.5z M12.578,26.658c0.315-0.781,0.431-1.647,0.729-2.434
	c0.029-0.212,0.404-0.684,0.058-0.74c-0.266,0.402-0.294,1.026-0.444,1.489C12.873,25.531,12.439,26.114,12.578,26.658z
	 M12.054,23.083c-0.406-0.537-1.357-0.935-1.896-1.376c-0.177,0.193-0.632,0.614-0.886,0.852c0.633,0.67,1.263,1.12,2.052,1.239
	C11.787,23.874,12.025,23.258,12.054,23.083z M12.841,27.639c0.092,0.015,0.109-0.037,0.129-0.147
	c0.181-0.65,0.167-1.398,0.603-1.946c-0.107-0.027-0.213-0.056-0.319-0.088c-0.201,0.404-0.155,1.563-0.74,1.507
	C12.462,27.36,12.323,27.604,12.841,27.639z M8.128,21.69c-0.039,0.07-0.087,0.135-0.144,0.193l0.146,0.178
	C8.166,21.948,8.143,21.814,8.128,21.69z M16.157,24.414c-0.204-0.342-2.105-0.271-2.454-0.37c-0.095,0.25-0.335,0.964-0.368,1.119
	c0.712,0.203,1.183,0.276,1.898,0.276C16.118,25.48,16.393,25.293,16.157,24.414z M8.421,20.497
	c0.044,0.001,0.069-0.008,0.082-0.004l0.011-0.018c0.192-0.032,0.48-0.157,0.54-0.371c-0.424-0.683-0.871-1.374-1.139-2.152
	c-0.137,0.039-1.045,0.29-1.114,0.309C6.873,18.934,7.583,20.319,8.421,20.497z M7.936,22.307L7.725,22.05
	c-0.126,0.05-0.279,0.067-0.416,0.044c-0.06,0.027-0.175,0.042-0.206,0.044c-0.046,0.19-0.153,0.358-0.256,0.504
	c0.082,0.106,0.178,0.202,0.251,0.316C7.331,22.761,7.659,22.523,7.936,22.307z M7.381,16.293c0.238-0.004,0.486-0.015,0.439-0.371
	c-0.053-0.862-0.059-1.672,0.1-2.404c-0.207-0.039-0.911-0.159-1.127-0.195C6.646,14.142,6.29,16.172,7.381,16.293z M7.208,16.586
	c0.009,0.241,0.036,0.479,0.08,0.712c0.175-0.052,0.36-0.104,0.537-0.154l-0.097-0.581C7.556,16.6,7.379,16.61,7.208,16.586z
	 M8.513,22.081L8.46,22.017c-0.008,0.064-0.026,0.126-0.054,0.188C8.442,22.164,8.478,22.123,8.513,22.081z M8.976,21.569
	c-0.133-0.144-0.521-0.571-0.159-0.654c0.193,0.039,0.211,0.331,0.369,0.433c0.1-0.106,0.203-0.213,0.315-0.311L9.104,20.55
	c-0.009,0.002-0.02,0.003-0.033,0.003c-0.626,0.472-1.202,0.16-1.655-0.362c0.278,0.394,0.661,0.939,1.303,1.66
	C8.799,21.759,8.883,21.669,8.976,21.569z M9.134,21.346l-0.037,0.032v0.001L9.134,21.346z M22.36,6.95
	c-0.097,0.211-0.168,0.448-0.298,0.573c0.142,0.118,0.256,0.252,0.409,0.388C22.665,7.588,22.565,7.069,22.36,6.95z M6.493,6.91
	C6.255,7.05,5.83,7.259,5.96,7.506c0.311,0.49,0.968,0.659,1.398,1.036c1.687,1.04-0.338,2.666-0.288,4.124
	c0.072,0.014,0.328,0.068,0.328,0.068c0.03-0.212,0.057-0.432,0.154-0.624c-0.554-1.33,1.983-2.572,0.424-3.495
	c-0.729-0.618-2.51-1.386-0.475-1.732c0.633,0.106,1.314,1.091,1.837,1.452c0.03-0.037,0.061-0.073,0.092-0.109
	C8.42,7.708,7.797,5.816,6.493,6.91z M23.268,7.222c-0.119,0.337-0.348,0.607-0.598,0.85c0.247,0.129,0.48,0.233,0.771,0.27
	C23.527,7.969,23.458,7.566,23.268,7.222z M22.106,6.533c0.01-0.044,0.017-0.098,0.011-0.143c-0.225-0.004-0.45-0.007-0.674-0.011
	C21.374,6.837,22.025,6.923,22.106,6.533z M21.431,6.957c-0.065,0.054-0.095,0.185-0.123,0.321c0.102,0.051,0.567,0.171,0.567,0.171
	C22.09,6.98,21.715,6.718,21.431,6.957z M22.936,7.204c0.111-0.148,0.29-0.452,0.27-0.857c-0.21-0.003-0.421-0.006-0.631-0.008
	C22.674,6.492,22.743,7.359,22.936,7.204z M23.913,7.221c0.156-0.234,0.182-0.538,0.18-0.811c-0.188-0.01-0.369-0.01-0.555-0.012
	c0.149,0.309,0.22,0.691,0.215,1.034C23.815,7.385,23.871,7.284,23.913,7.221z M24.495,6.058c-0.243,0.018-1.021,0.016-2.165,0.016
	c-1.244,0-1.881-0.074-1.969,0.109c-0.147,0.305-0.304,0.853-0.604,0.981c-0.3,0.128-1.801-0.016-2.139-0.027
	C17.376,7.13,17.518,6.804,17.09,6.78s-0.445,0.221-0.456,0.358c-0.011,0.125,0.055,0.42,0.419,0.45
	c0.336,0.028,0.287-0.225,0.658-0.216c0.371,0.009,1.619,0.155,1.925,0.159c0.213,0.003,1.363,0.04,1.786,0.225
	c0.373,0.163,0.426,0.315,0.797,0.537c0.36,0.215,0.878,0.575,2.057,0.561c-0.013-0.041-0.021-0.081-0.038-0.121
	c-0.866,0.115-1.652-0.241-2.213-0.893c-0.431-0.555-2.058-0.155-1.8-0.848c0.353-0.669,0.192-0.961,1.148-0.839
	C21.818,6.061,24.447,6.398,24.495,6.058z M23.949,7.531c-0.112,0.448-0.146,0.748-0.209,0.921c0.15,0.018,0.33,0.025,0.454,0.043
	c0,0,0.091-0.216,0.092-0.216C24.377,8.033,24.198,7.697,23.949,7.531z M20.906,4.343c0.368,0.376,0.444,1.082,0.192,1.456
	c-0.104,0-0.13,0.003-0.233,0.001c0-0.001-0.026-0.001-0.026-0.002C20.752,5.808,20.572,5.8,20.441,5.8
	c-0.05,0.007-0.257,0.012-0.377,0.114c-0.048,0.034-0.103,0.138-0.1,0.138c-0.044,0.082-0.067,0.142-0.084,0.24
	c-1.125-0.27-1.18-1.631-0.385-2.108c0.053-0.032,0.481-0.134,0.852-0.01C20.551,4.242,20.743,4.288,20.906,4.343z M20.645,5.192
	c0-0.294-0.238-0.533-0.533-0.533c-0.294,0-0.533,0.238-0.533,0.533c0,0.294,0.238,0.533,0.533,0.533S20.646,5.486,20.645,5.192z
	 M15.609,2.983c-0.072-0.071-0.161,0.044-0.152,0.12c0.042,0.151,0.294,0.098,0.416,0.103c0.517-0.415-0.702-1.17-0.956-0.381
	c-0.183,0.568,0.268,0.677,1.165,0.901s1.118,2.062,2.592,0.787c-0.119-0.052-0.195-0.165-0.258-0.28
	c-0.172,0.116-0.615,0.368-0.662,0.331c-0.795,0.062-0.752-1.336-1.925-1.141c-0.997,0.151-0.487-1.114-0.05-0.532
	C15.783,2.977,15.685,3.058,15.609,2.983z M24.701,8.616c0.081,0.256,0.141,0.554-0.09,0.752c-0.004,0.003-0.008,0.004-0.011,0.007
	c0.704,0.601,1.316,1.307,1.763,2.109c0.162,0.291,0.245,0.218,0.165-0.114c-0.033-0.136-0.011-0.335-0.051-0.462
	C26.196,10.012,25.711,9.326,24.701,8.616z M24.791,10.859c0.307-0.075,0.591,0.015,0.841,0.178c0.177,0.116,0.217,0.01,0.072-0.185
	c-0.378-0.506-0.826-0.96-1.308-1.371c-0.189,0.093-0.234,0.374-0.299,0.55C24.372,10.267,24.624,10.54,24.791,10.859z
	 M26.654,10.262c-0.016-0.182-0.024-0.365-0.029-0.547c-0.188-0.1-0.367-0.216-0.54-0.345c0.012,0.101,0.036,0.202,0.041,0.303
	c0.147,0.187,0.278,0.386,0.388,0.596C26.59,10.415,26.668,10.414,26.654,10.262z M17.341,8.741
	c3.163-0.959,1.529,0.828,2.879,1.292c-0.306-0.512-0.362-1.342-0.772-1.749c-0.771-0.175-1.528-0.127-2.221,0.257
	c-2.432,0.407-2.673-3.595-0.029-2.867c0.581,0.327,1.151,0.469,1.824,0.433c-0.262-0.301-0.443-0.717-0.413-1.12
	c0.004-0.053-0.076-0.076-0.128-0.037c-0.1,0.076-0.205,0.143-0.327,0.182c-0.029,0.159,0.313,0.625-0.042,0.522
	c-0.803-0.805-1.764-0.636-2.715,0.147C14.101,7.098,15.596,9.485,17.341,8.741z M18.501,10.312
	c0.148,0.044,0.296,0.087,0.433,0.156c0.269-0.171,0.673-0.068,0.365-0.474c-0.13-0.299-0.144-0.898-0.518-1.007
	c-0.98,0.034-2.002,0.743-2.351,1.666c-0.006,0.005-0.012,0.01-0.018,0.015c0.003,0.003,0.005,0.006,0.008,0.008
	c0.006-0.004,0.013-0.007,0.019-0.011C16.495,10.726,17.474,10.004,18.501,10.312z M18.972,28.031
	c0.198,0.042-0.026-0.391-0.224-0.936c-0.055-0.15-0.095-0.117-0.116,0.034c-0.022,0.155-0.086,0.286-0.217,0.375
	C18.45,27.894,18.589,28.028,18.972,28.031z M17.256,24.834c-0.042-0.152-0.066-0.445-0.129-0.588
	c-0.222,0.036-0.446,0.066-0.669,0.093c0.065,0.159,0.091,0.297,0.083,0.436c0,0.02-0.001,0.04-0.002,0.061L17.256,24.834z
	 M18.517,26.098c-0.006-0.222,0.035-0.427,0.153-0.594c-0.105,0.031-0.21,0.063-0.315,0.088c0.007,0.137,0.057,0.321,0.114,0.522
	C18.498,26.217,18.52,26.207,18.517,26.098z M20.502,23.638c-0.576-0.636-1.681,0.57-2.456,0.554
	c0.051,0.234,0.196,0.894,0.242,1.102C19.032,24.974,21.086,24.882,20.502,23.638z M10.039,21.301
	c-0.148-0.706-2.152,2.069-2.442,2.367c0.011,0.025,0.015,0.053,0.018,0.08C8.353,22.892,9.392,22.207,10.039,21.301z M7.414,21.8
	c0.253-0.004,0.491-0.174,0.503-0.448c-0.636-0.586-1.087-2.191-2.141-1.532C6.247,20.533,6.592,21.532,7.414,21.8z M5.384,19.996
	c0.233,0.797,1.148,1.418,1.348,2.253c0.3-0.597-0.977-1.422-1.235-2.302C5.459,19.963,5.421,19.98,5.384,19.996z M7.413,24.048
	c-0.029,0.212,0.02,0.417,0.136,0.569c0.505-0.583,0.896-1.447,1.692-1.645c-0.065-0.066-0.129-0.133-0.19-0.202
	C8.514,23.113,8.073,24.107,7.413,24.048z M27.674,20.378c1.198-1.046-1.476-0.614-1.735-1.284c-0.02,0.058-0.097,0.26-0.097,0.26
	c0.43,0.219,1.909,0.25,1.596,0.959C27.515,20.341,27.6,20.379,27.674,20.378z M28.501,11.87c0.084,0.654,0.241,1.353,0.479,2.138
	c0.177-0.044,0.783-0.185,0.991-0.225c-0.398-0.919-0.041-2.091-0.172-3.128C29.097,10.049,28.498,11.257,28.501,11.87z
	 M22.931,23.414c0.259,0.457,1.265,1.022,0.82,1.589c0.065,0.069,0.164,0.108,0.273,0.108c1.035-0.29-0.998-1.308-0.823-1.97
	C23.115,23.233,23.021,23.325,22.931,23.414z M23.853,19.33c1.079,0.306,2.07,0.57,3.128,0.892c0.888-0.196-2.862-0.938-3.12-1.07
	L23.853,19.33z M25.45,20.694c0.086,0.036,0.175,0.072,0.26,0.109l0.144-0.238C25.693,20.521,25.481,20.511,25.45,20.694z
	 M26.316,21.518c0.276-0.108,0.689,0.027,0.942,0.124c0.102-0.149,0.23-0.303,0.268-0.478c-0.603-0.14-0.144-0.025-1.377-0.494
	l-0.179,0.296C26.069,21.055,26.289,21.254,26.316,21.518z M25.318,20.965c-0.185,0.35-0.443,0.765-0.786,1.19
	c-0.508,0.548-0.634,0.879,0.21,1.463C25.166,22.838,26.913,21.436,25.318,20.965z M3.887,13.157
	c0.829,0.252,1.746,0.062,2.549,0.349c0.014-0.061,0.054-0.231,0.054-0.231c-0.467-0.203-2.109,0.102-1.767-0.737
	C4.313,12.359,4.033,12.84,3.887,13.157z M7.762,7.316c-0.263-0.272-0.605-0.01-0.896,0.093c0.663,0.565,1.379,0.985,1.935,1.696
	c0.045-0.058,0.091-0.119,0.145-0.17C8.67,8.587,7.098,7.567,7.762,7.316z M7.698,12.796c0.085,0.017,0.459,0.092,0.459,0.092
	l0.04-0.292c-0.154-0.035-0.279-0.107-0.42-0.218C7.739,12.521,7.716,12.666,7.698,12.796z M8.62,11.986
	c0.351-0.881,0.779-1.608,1.306-2.22C9.843,9.691,9.733,9.585,9.643,9.507L9.64,9.51C9.51,9.403,9.32,9.227,9.183,9.122
	c-0.401,0.661-2.248,2.726-0.893,3.176C8.454,12.298,8.561,12.122,8.62,11.986z M10.13,10.527c-0.079-0.076-0.166-0.145-0.251-0.212
	c-0.614,0.629-0.727,1.735-1.374,2.248c-0.005,0.145-0.042,0.29-0.055,0.435c0.193,0.119,0.156,0.436-0.053,0.517
	c0.026,0.437,0.11,0.954,0.498,1.131c1.565,0.047,0.371-1.809,0.098-0.96c-0.13,0.289,0.218,0.513,0.267,0.251
	c-0.154-0.058-0.087-0.297,0.064-0.292c0.241,0.026,0.351,0.37,0.181,0.543c-0.463,0.371-0.866-0.084-0.826-0.766
	C8.77,12.233,9.31,11.156,10.13,10.527z M11.218,11.051c-0.324-0.275-0.586-0.613-0.849-0.938c-0.084-0.011-0.163-0.073-0.223-0.132
	c-0.027,0.032-0.054,0.064-0.081,0.097c0.408,0.289,0.702,0.707,1.011,1.091C11.125,11.139,11.172,11.092,11.218,11.051z
	 M9.761,20.253c1.163,0.007,0.574-1.65-0.257-0.967c0.025,0.176,0.421,0.601,0.483,0.23c-0.007-0.03-0.026-0.03-0.049-0.028
	c-0.275,0.081-0.257-0.356,0.015-0.312c1.035,0.288-0.514,1.93-1.019-0.634c-0.177-0.03-0.342-0.124-0.498-0.287
	c-0.05-0.052-0.092-0.017-0.057,0.063c0.247,0.573,0.703,1.152,0.976,1.766C9.479,20.223,9.644,20.253,9.761,20.253z M8.12,17.063
	c0.475-0.151,0.792,0.435,0.324,0.706c0.208,0.327,0.419,0.486,0.644,0.486c1.713-0.081,0.674-1.674-0.13-1.154
	c0.041,0.264,0.251,0.617,0.46,0.406c0.016-0.017-0.003-0.039-0.029-0.041c-0.129-0.006-0.233-0.195-0.087-0.277
	c0.282-0.181,0.591,0.186,0.407,0.447c-1.382,1.093-1.16-2.042-1.228-2.91c-0.161-0.214-0.276-0.46-0.337-0.715
	C7.945,14.792,8.3,15.662,8.01,16.405L8.12,17.063z M9.857,12.493c-0.331,0.83,0.471,0.65,0.5,0.482
	c0.006-0.033-0.078-0.029-0.101-0.01c-0.119,0.094-0.336-0.079-0.26-0.211c0.142-0.338,0.761-0.171,0.667,0.219
	c-0.855,1.543-1.9-1.159-0.098-1.955c-0.072-0.09-0.146-0.18-0.223-0.267c-0.687,0.506-1.171,1.391-1.338,2.445
	c0.294-0.11,0.649,0.066,0.794,0.334c0.167,0.09,0.3,0.282,0.492,0.313C11.478,13.838,10.899,11.666,9.857,12.493z M9.846,7.641
	c0.644-0.154,1.137-0.734,1.707-1.081c0.364-0.263,0.084-0.686-0.069-0.978C10.994,5.961,8.502,7.038,9.846,7.641z M7.999,7.536
	C7.95,7.578,7.896,7.598,7.841,7.621C8.66,8.393,9.64,8.999,10.409,9.814c0.053-0.04,0.123-0.056,0.106-0.118
	C10.421,9.36,8.917,8.406,7.999,7.536z M8.226,13.079c-0.735-0.144-2.373-0.304-3.203-0.443c-0.067,0.077-0.079,0.158,0.013,0.219
	c0.144,0.072,0.292,0.101,0.509,0.117c1.113,0.082,2.66,0.398,2.698,0.322C8.288,13.204,8.304,13.185,8.226,13.079z M7.945,6.413
	c0.466,0.395,0.899,1.042,1.424,1.401c0.075,0.051,0.114,0.042,0.03-0.032C9.193,7.6,9.094,7.294,9.184,7.028
	C8.724,6.928,8.438,5.872,7.945,6.413z M4.731,18.423c-0.196,0.057-0.41,0.128-0.372,0.365c0.01,0.14-0.026,0.339,0.04,0.418
	c0.745-0.097,1.372-0.593,2.13-0.67c-0.002-0.013-0.026-0.17-0.028-0.188C5.879,18.374,4.901,19.339,4.731,18.423z M5.035,18.317
	c0.011,0.06,0.015,0.131,0.028,0.189C9.361,17.249,9.322,16.922,5.035,18.317z M8.651,6.127c0.197,0.262,0.377,0.419,0.611,0.606
	h0.003L9.27,6.734V6.732c0.02,0.001,0.049-0.005,0.063,0.006c0.534-0.646,1.328-0.974,2.012-1.426
	c-0.127-0.25-0.22-0.473-0.375-0.724C10.165,5.034,9.268,5.416,8.651,6.127z M6.218,12.041c0.084,0.02,0.163,0.04,0.255,0.043
	c0.103,0.003,0.234-0.013,0.286-0.095c-0.173,0.005-0.336-0.05-0.492-0.147L6.218,12.041z M7.376,10.663
	c0.251-0.449,0.515-0.929,0.265-1.39L7.64,9.275C7.541,9.067,7.363,8.946,7.194,8.8c-0.34,0.677-1.594,2.556-0.503,2.88
	C7.131,11.667,7.107,10.956,7.376,10.663z M5.106,20.111c-0.014,0.005-0.118,0.042-0.118,0.042c-0.222-0.066-0.466,0.184-0.565,0.35
	c-0.183,0.242,0.314,0.879,0.359,1.054c0.071,0.315,0.451,0.29,0.707,0.249c0.695,0.131,0.723,1.175,0.044,1.202
	C5.354,23.02,4.993,22.8,5.07,22.553c0.061-0.098,0.233-0.094,0.278,0.019c0.123,0.247,0.465,0.083,0.37-0.159
	c-0.393-0.89-1.623,0.565-0.279,0.923c0.353,0.019,0.671-0.197,0.842-0.483C6.838,21.819,5.314,21.105,5.106,20.111z M6.655,22.887
	c-0.21,0.22-0.454,0.524-0.133,0.763c0.104-0.175,0.216-0.343,0.362-0.489C6.789,23.087,6.73,22.978,6.655,22.887z M8.237,25.008
	c1.135-2.393,2.666-0.635,4.389-0.114c0.054-0.214,0.229-0.91,0.289-1.166c-0.253-0.044-0.485-0.122-0.69-0.232
	c-0.617,1.341-1.995,0.112-2.847-0.24c-0.771,0.054-1.205,1.355-1.817,1.745c-1.076-0.625-0.033-1.82,0.522-2.417
	c-0.666,0.505-1.795,1.152-1.179,2.118c0.145,0.352,0.335,0.974,0.681,0.937C7.819,25.649,8.075,25.371,8.237,25.008z M7.08,19.736
	c-0.2-0.311-0.361-0.638-0.472-0.9c-0.674-0.104-2.318,1.319-2.543,0.31c-0.072-0.425,0.003-0.898,0.5-0.993
	c0.597-0.208,1.21-0.392,1.807-0.579c-0.031-0.062-0.059-0.124-0.084-0.187c-0.587,0.453-1.517,0.264-2.14,0.677
	c-0.492,0.142-0.682,1.833-0.069,2.035C6.271,19.34,6.574,19.125,7.08,19.736z M7.917,25.804c-0.068,0.061-0.143,0.118-0.229,0.172
	c0.363,0.551,0.906,0.993,1.534,1.247c0.606,0.126,1.553,0.813,0.838,1.407c-0.284,0.27-1.044-0.289-0.561-0.493
	c0.066,0,0.138,0.041,0.15,0.133c0.068,0.245,0.411,0.057,0.353-0.121c-0.567-1.237-1.739,0.762-0.164,0.885
	c0.517-0.009,0.994-0.454,1.073-0.967C10.895,26.882,8.517,26.89,7.917,25.804z M4.013,17.308c-0.002,0.147,0.044,0.294,0.098,0.432
	c0.067-0.032,0.136-0.059,0.205-0.086c-0.026-0.093-0.106-0.352-0.139-0.475C4.104,17.19,4.053,17.267,4.013,17.308z M11.166,25.25
	c0.238-0.026,0.503-0.148,0.615-0.355c-0.775-0.247-2.01-1.451-2.664-0.581C9.772,24.672,10.433,25.09,11.166,25.25z M10.464,26.861
	c0.253,0.014,0.329-0.265,0.328-0.348c-0.072-0.824-1.596-1.052-2.168-1.536C7.706,26.139,9.671,26.591,10.464,26.861z
	 M4.608,17.561c0.08-0.022,0.16-0.042,0.24-0.061c-0.043-0.179-0.079-0.36-0.106-0.54c-0.078,0.075-0.166,0.13-0.263,0.164
	L4.608,17.561z M5,11.757c0.067,0.014,0.685,0.138,0.921,0.211c0.033-0.125,0.063-0.296,0.11-0.397
	c-0.034-0.1-0.055-0.197-0.065-0.291c-0.272,0.128-0.626,0.208-0.94,0.149C5.017,11.538,5.02,11.648,5,11.757z M3.439,14.174
	c-0.175-0.023-0.381-0.015-0.511-0.209c-0.774,1.634,0.286,3.207-0.309,4.329c-0.536,0.793-1.784-0.079-1.058-0.761
	c0.103-0.08,0.255-0.022,0.296,0.099c0.069,0.138-0.148,0.224-0.129,0.348c0.089,0.568,0.851,0.073,0.708-0.324
	c-0.152-0.778-1.134-0.724-1.447-0.181c-0.474,0.915,0.42,1.807,1.362,1.77C4.747,19.173,2.524,15.647,3.439,14.174z M4.61,11.049
	c0.229,0.048,0.472,0.093,0.702,0.093C6.318,11.221,6.22,9.37,6.943,8.623c-0.2-0.135-0.402-0.256-0.615-0.384
	c-0.875,0.548-0.658,2.484-1.519,2.522c-0.503,0.053-0.813-0.798-0.218-0.867c0.266-0.017,0.248,0.368-0.011,0.318
	c-0.055,0.127,0.12,0.254,0.217,0.24c0.248-0.001,0.282-0.287,0.342-0.474C5.27,9.726,4.755,9.495,4.504,9.483
	c-0.461,0.045-0.579,0.825-0.484,1.184C4.115,10.946,4.447,10.986,4.61,11.049z M3.93,17.027c0.192,0.01,0.423-0.176,0.575-0.218
	c0.414-0.581-0.072-1.861,0.069-2.622c-0.948-0.306-1.037,0.468-0.934,1.19C3.75,15.784,3.511,16.884,3.93,17.027z M5.28,9.497
	c0.149-0.495,0.362-1.038,0.783-1.429C6.01,8.031,5.954,7.99,5.903,7.942c-0.183,0.18-0.371,0.365-0.49,0.56
	c0.043,0.301-0.427,0.521-0.599,0.241c-0.06-0.148,0.125-0.286,0.254-0.176C5.222,8.136,3.733,8.597,5.28,9.497z M6.667,17.483
	l0.327-0.098c-0.059-0.271-0.089-0.564-0.092-0.893c-0.735-0.58-0.576-1.795-0.524-2.66c-0.8-0.41-2.074,0.014-2.768-0.522
	c-0.104-0.657,0.782-1.43,1.435-0.982c0.579,0.081,1.158,0.176,1.723,0.281c0.008-0.092,0.019-0.183,0.033-0.275
	c-0.8,0.183-1.71-0.38-2.522-0.377c-0.664-0.111-2.105,2.012-0.756,1.863C7.505,13.783,5.6,14.853,6.667,17.483z M4.848,14.221
	c-0.026,1.026,0.137,2.104,0.297,3.209c0.267-0.113,0.895-0.002,0.936-0.414c0,0-0.089-1.196-0.125-1.567
	c-0.04-0.386,0.066-1.165-0.467-1.145v-0.002C5.355,14.28,4.988,14.237,4.848,14.221z M11.892,25.257
	c-0.927,0.753-2.046-0.258-2.962-0.697c-0.045,0.057-0.089,0.115-0.131,0.174c4.036,1.765,1.13,1.885,2.701,2.602
	C11.448,26.679,12.222,25.832,11.892,25.257z M21.972,24.377c0.4,1.163-1.512,1.601-2.24,2.088c0.02,0.079,0.043,0.158,0.067,0.236
	c0.683-0.27,1.38-0.622,2.187-1.105c0.265-0.177,0.489-0.004,0.643,0.232c0.191,0.35,0.561,0.396,0.728,0.017
	c-0.517-0.455-0.94-1.031-1.298-1.544C22.03,24.327,22.001,24.352,21.972,24.377z M20.251,27.465l0.086,0.162
	c0.461-0.356,1.718-0.188,1.687,0.515c-0.106,0.242-0.609,0.388-0.635-0.1c-0.015-0.059,0.019-0.187-0.019-0.225
	c-0.487,0.155-0.263,0.879,0.139,0.977C23.604,28.347,21.547,26.346,20.251,27.465z M23.948,23.323
	c-0.625-0.84,1.31-2.168,1.449-3.338c-0.198-0.075-0.38-0.142-0.566-0.196c-0.154,0.275-0.292,0.555-0.419,0.857
	c0.417,1.206-1.687,2.062-0.561,3.118c0.537,0.442,1.362,1.482,0.158,1.664c-0.734-0.152-1.088-1.001-1.614-1.476
	c-0.031,0.05-0.076,0.088-0.116,0.13c0.563,0.7,0.91,1.463,1.676,1.717C26.395,24.912,25.292,24.568,23.948,23.323z M22.235,25.822
	c-0.764,0.411-1.523,0.859-2.342,1.172l0.091,0.26c0.809-0.285,1.616-0.662,2.463-1.152C22.39,26.019,22.31,25.831,22.235,25.822z
	 M26.582,21.779c-0.579,0.152-1.062,1.662-1.537,2.074c0.094,0.078,0.217,0.187,0.336,0.313c0.591-0.447,0.662-1.937,1.548-1.943
	c0.26-0.02,0.542,0.066,0.63,0.339c0.218,0.725-1.066,0.58-0.504,0.179c0.134,0.075,0.298,0.01,0.176-0.152
	c-0.688-0.25-0.793,1.026,0.116,0.761c0.434-0.123,0.732-0.781,0.389-1.159C27.362,22.013,27.012,21.82,26.582,21.779z
	 M30.982,14.203c-0.805-0.464-1.802,0.101-2.812,0.412c-0.341,0.141-0.422,0.491-0.253,1.106c0.21,1.002,0.157,2.041,0.065,3.017
	c0.084,0.009,0.169,0.021,0.253,0.033l0.082,0.012c0.601-1.341-1.021-4.602,1.653-3.956c0.077-0.537,0.843-0.638,0.997-0.072
	c0.083,0.192-0.066,0.53-0.281,0.331c-0.044-0.104-0.003-0.255-0.078-0.362c-0.106-0.091-0.264-0.04-0.316,0.085
	c-0.046,0.23,0.34,0.542,0.543,0.588C31.363,15.338,31.255,14.52,30.982,14.203z M17.447,25.699c0,0-0.099-0.44-0.125-0.562
	c-0.205,0.008-0.618,0.003-0.828,0.003c-0.259,1.155-1.851,0.322-2.674,0.579c-0.422,0.542-0.361,1.31-0.58,1.938
	c-0.117,0.441-0.609,0.274-0.922,0.14c-0.43-0.357,0.107-2.098,0.24-2.606c-0.162-0.059-0.322-0.12-0.482-0.182
	c0.917,1.396-1.867,2.697,1.171,3.803c0.027,0,0.049-0.008,0.058-0.011C14.104,24.799,13.671,26.074,17.447,25.699z M26.284,17.999
	c-0.131-1.284,0.251-2.755-0.611-3.851c-0.549-0.747-1.811-2.851-2.572-1.432c-0.264,0.823,1.498,1.384,1.639,2.835
	c1.389,0.398,1.487,1.625,1.341,2.939c-0.057,1.059,1.565,0.554,2.097,1.092c0.229,0.36-0.024,1.092-0.494,1.112
	c-0.204-0.022-0.428-0.131-0.62-0.169c-0.493-0.014-0.931-0.268-1.383-0.429c-0.016,0.047-0.031,0.093-0.048,0.14
	c0.698,0.009,1.302,0.568,1.987,0.624c0.607-0.157,1.074-0.848,1.424-1.352C28.374,18.599,26.427,19.505,26.284,17.999z
	 M28.631,15.655c-0.015,1.069,0.385,2.142-0.016,3.196c0.088,0.027,0.175,0.063,0.264,0.109c0.672-0.983-0.048-2.216,0.363-3.199
	c0.408-0.62,1.336,0.049,0.81,0.578c-0.141,0.141-0.358-0.096-0.208-0.225c0.207-0.231-0.193-0.42-0.342-0.192
	c-0.302,0.322,0.106,0.812,0.417,0.759c0.688-0.002,0.802-0.968,0.326-1.328C29.833,14.916,28.733,14.879,28.631,15.655z
	 M14.028,27.682c-0.112,0.02-0.15,0.171-0.15,0.171c-0.042,0.181,0.012,0.44,0.095,0.615c0.199,0.325,0.912,0.217,1.258,0.313
	c0.343-0.089,0.182-0.62,0.862-0.633c0.805-0.015,0.944,0.99,0.128,1.011c-0.269,0.042-0.253-0.353,0.027-0.3
	c0.232-0.009,0.279-0.343,0.034-0.4c-0.139-0.024-0.35-0.014-0.434,0.106c-0.14,0.295-0.003,0.939,0.42,0.884
	c0.67,0.031,0.972-0.683,0.692-1.212C16.441,27.211,14.899,28.054,14.028,27.682z M13.969,26.929c0.21,0.009,0.42,0.013,0.63,0.013
	c0.664-0.006,1.36-0.032,2.027-0.136c0.173-0.139,0.027-0.53,0.034-0.739C15.79,26.255,14.075,25.632,13.969,26.929z M17.017,26.761
	c0.116-0.012,0.223-0.021,0.339-0.035c-0.027-0.145-0.101-0.563-0.124-0.701c-0.071,0-0.173,0.011-0.267,0.021
	C16.98,26.227,17.011,26.613,17.017,26.761z M21.724,24.571c-0.598,0.564-1.823,0.76-2.058,1.582
	C20.297,25.782,21.89,25.245,21.724,24.571z M22.196,23.727l-0.366-0.415c-0.291,0.228-0.595,0.444-0.905,0.643
	c0.112,1.231-1.518,0.97-2.003,1.72c-0.418,0.898,0.524,1.675,0.428,2.509c-0.216,0.279-0.771,0.138-1.041-0.033
	c-0.131-0.171-0.135-0.396-0.197-0.594c-0.153-0.037-0.235-0.162-0.286-0.301c0.088,1.437,0.697,1.405,1.978,1.511
	c0.306-0.009,0.292-0.194,0.193-0.504C18.473,24.748,20.202,25.765,22.196,23.727z M13.937,27.233l-0.021,0.264
	c0.989,0.124,2.213-0.352,3.071,0.204c0.203,0.006,0.428-0.021,0.611-0.091c-0.042-0.184-0.094-0.376-0.158-0.585
	C16.294,27.157,15.133,27.303,13.937,27.233z M21.625,23.082c-0.079-0.089-0.174-0.219-0.25-0.283
	c-0.247,0.185-0.516,0.331-0.773,0.497c0.115,0.109,0.185,0.203,0.243,0.342C21.108,23.464,21.369,23.277,21.625,23.082z
	 M22.501,14.896c0.78,0.784,1.125-0.573,0.506-0.225c0.302,0.281-0.309,0.418-0.328,0.058c-0.009-1.237,1.399,0.339,1.444,0.833
	c0.1-0.033,0.2-0.05,0.297-0.052C24.09,13.674,21.918,13.574,22.501,14.896z M24.173,18.922c0.594-0.961-0.982-2.761-1.649-1.344
	c-0.26,0.796,0.98,1.026,0.983,0.383c-0.16,0.033-0.433,0.111-0.544-0.044c-0.089-0.158-0.064-0.406,0.07-0.48
	c0.697-0.194,1.176,0.977,0.96,1.443L24.173,18.922z M23.898,16.13c-0.238,0.935,1.15,1.845,0.575,2.864
	c0.213,0.054,0.881,0.226,1.074,0.278c0.326-0.834,0.528-2.254-0.219-3.025C25.116,15.931,24.138,15.546,23.898,16.13z
	 M24.523,19.705c-0.147-0.039-0.294-0.078-0.439-0.125c-0.062,0.2-0.148,0.399-0.255,0.591c0.148,0.058,0.277,0.152,0.36,0.223
	C24.287,20.159,24.414,19.932,24.523,19.705z M23.733,11.955c-0.024-0.026-0.054-0.047-0.083-0.069
	c-1.2,0.186-1.596-0.78-2.707-0.662c-0.409,0.334-0.975,0.812-0.791,1.376c-0.002,0.004-0.004,0.007-0.006,0.011
	c0.003-0.003,0.006-0.006,0.008-0.01c0.638-0.82,1.967-1.22,2.816-0.199C23.145,12.161,23.426,11.95,23.733,11.955z M24.592,10.929
	c-0.154-0.246-0.342-0.47-0.555-0.667c-0.121,0.47-0.016,0.964,0.063,1.18C24.151,11.326,24.303,11.051,24.592,10.929z
	 M23.923,9.121c-0.774-0.049-1.558-0.172-2.081-0.803c-0.734-0.615-1.768-0.428-2.657-0.532c-0.511,0.01-1.056-0.163-1.55-0.084
	c-0.546,0.44-1.411,0.106-1.348-0.644c0.062-0.673,1.091-0.756,1.411-0.223c0.657-0.04,1.734,0.389,2.127-0.297
	c-0.656-0.317-1.45-0.132-2.113-0.361c-0.406-0.261-0.855-0.46-1.349-0.351c-1.787,0.431-0.507,3.13,1.011,2.441
	c0.594-0.428,1.302-0.278,1.983-0.222c0.352,0.003,0.451,0.353,0.571,0.623c0.274,0.631,0.65,2.339,1.546,1.944
	c-0.015-0.368-0.03-0.955,0.218-1.242c0.069-0.127,0.391-0.468,0.433-0.162c-0.284,1.26,0.179,2.402,1.443,2.196
	c-0.159-0.715-0.025-1.487,0.336-2.122C23.918,9.23,23.925,9.176,23.923,9.121z M21.081,7.253c-0.009-0.407-0.491-0.256-0.523,0.003
	C20.691,7.255,20.882,7.255,21.081,7.253z M18.597,4.113c0.044,0.068,0.092,0.154,0.143,0.194c0.002,0,0.009,0.003,0.012,0.004
	c1.287-0.994,2.348,0.218,2.306-0.427c0.004-0.026,0.007-0.053,0.009-0.079c-0.405-0.107-0.843-0.252-1.265-0.207
	C19.367,3.673,18.967,3.878,18.597,4.113z M23.596,20.436c-0.711,0.397-0.995,1.351-1.678,1.888
	c0.163,0.166,0.651,0.685,0.812,0.862C23.231,22.597,25.042,20.812,23.596,20.436z M17.951,12.374
	c0.568-0.541,1.378-0.852,2.193-0.752c0.054-0.23,0.608-0.323,0.448-0.555c-0.489-0.197-0.495-0.483-0.899-0.618
	C18.79,10.595,17.758,11.41,17.951,12.374z M20.986,6.341c-0.174,0-0.298,0.115-0.361,0.267c-0.013,0.031-0.027,0.061-0.034,0.095
	c0.004,0.002,0.007,0.004,0.011,0.006C20.624,6.766,21.081,6.584,20.986,6.341z M17.737,24.197l-0.041,0.027
	c0.003-0.032,0.008-0.121,0.017-0.148c-0.719-1.345,0.286,3.069,0.489,3.175C18.625,27.259,17.742,24.636,17.737,24.197z
	 M23.633,24.731c-0.416-0.842-1.409-1.57-1.981-2.239c-0.079-0.098-0.212-0.287-0.3-0.38c-0.106,0.07-0.103,0.076-0.02,0.171
	c0.741,0.796,1.444,1.726,2.211,2.472L23.633,24.731z M26.511,15.383c0.237-0.294,0.722-0.327,1.01-0.174
	c-0.237-1.431-0.987-3.687-2.521-4.097c-0.529-0.036-0.864,0.579-0.679,1.032C25.336,12.985,26.308,14.173,26.511,15.383z
	 M25.903,7.36c0.002-0.104,0.003-0.207,0.004-0.239c0.031-0.242,0.237-0.871,0.475-1.145c0.186-0.61-0.071-1.658,0.259-2.243
	c0.266-0.832-1.298,0.607-1.702,2.119c-0.028,0.103,0.094,0.143,0.018,0.31c-0.025,0.054-0.1,0.118-0.105,0.177
	c-0.014,0.17-0.008,0.339,0.021,0.501C25.247,6.952,25.585,7.138,25.903,7.36z M14.937,8.625c0.045,0.103,0.158,0.26,0.288,0.217
	c0.034-0.022,0.031-0.103,0-0.23c-0.055-0.225-0.322-0.568-0.508-1.015c-0.145-0.35-0.211-0.898-0.394-1.305
	c-0.779-1.724-1.425-3.32-0.875-3.469c0.384-0.104,0.527,0.32,0.19,0.227c-0.009,0.014-0.022,0.026-0.04,0.032
	c0.106,0.871,1.205-0.225,0.179-0.568c-1.392-0.242-0.839,1.377-0.438,2.07c0.393,0.981,0.683,1.862,1.034,2.795
	C14.533,7.802,14.784,8.2,14.937,8.625z M17.726,4.237c0.992-0.766,2.112-1.304,3.36-0.902c-0.166-0.794-0.839-1.519-1.704-1.19
	c0.008,0.184,0.469,1.278,0.027,0.976c-0.215-0.628-0.946-0.703-1.533-0.625c0.034,0.2,0.732,1.193,0.232,1.015
	c-0.316-0.455-0.945-0.653-1.463-0.453c-0.007-0.003-0.021,0.015-0.025,0.019c-0.004,0.009-0.006,0.018-0.006,0.027
	c0.001,0.002,0.003,0.008,0.003,0.012c0.066,0.145,0.355,0.425,0.582,0.7c0.14,0.17,0.252,0.341,0.333,0.432
	C17.57,4.292,17.692,4.263,17.726,4.237z M14.952,2.439c0.608-0.429,1.306,0.026,1.24,0.725c-0.005,0.013,0.239,0.057,0.227,0.022
	c0.022-0.019,0.035-0.05,0.044-0.078c0,0,0.001,0,0.002,0.001c0.052-0.141,0.06-0.297,0.02-0.422
	c-0.206-0.7-1.125-1.121-1.719-0.634c-0.527,0.35-0.194,1.118-0.605,1.476c-0.202,0.131-0.472,0.089-0.652-0.061
	c0.425,1.105,0.725,1.714,1.108,2.792c0.138-1.085,1.14-1.307,2.216-1.456c0,0-0.498-0.754-0.833-0.854
	c-0.335-0.1-1.081-0.2-1.241-0.497C14.583,3.127,14.606,2.641,14.952,2.439z M16.638,3.059c0.002-0.001,0.005,0,0.007-0.001
	c0,0,0.001-0.001,0.001-0.001C16.644,3.058,16.642,3.058,16.638,3.059z M9.631,8.459c0.53,0.397,0.652,0.488,0.984,0.8
	c0.52-1.017,2.78-1.287,2.562-2.71l-0.664-1.608c-0.179-0.299,0.153-0.453,0.377-0.423c0.029-0.012,0.058-0.034,0.052-0.108
	l0.021-0.034c-0.168-0.306-0.301-0.803-0.372-1.128c-0.408,0.055-1.545-0.191-1.664,0.263c0.119,0.871,0.874,1.75,1.115,2.614
	C11.922,7.261,10.219,7.54,9.631,8.459z M16.636,3.059L16.634,3.06L16.636,3.059L16.636,3.059z M7.607,5.624
	c1.112-0.334,1.759-1.591,2.986-1.787c-0.025-0.089-0.041-0.182-0.051-0.281C9.886,3.633,9.247,3.921,8.739,4.368
	C8.348,4.847,7.328,5.4,7.105,4.485c-0.088-0.358,0.63-0.784,0.708-0.324c-0.022,0.123-0.139,0.146-0.24,0.113
	C6.927,4.679,8.371,4.991,8.119,4.028C7.088,2.609,5.93,5.328,7.607,5.624z M8.011,5.996c0.121-0.055,0.253-0.078,0.378-0.042
	c0.654-0.76,1.583-1.171,2.442-1.639c-0.035-0.075-0.063-0.145-0.084-0.21C9.723,4.643,8.838,5.232,7.979,5.939
	C7.852,6.044,7.87,6.06,8.011,5.996z M28.096,11.132c-0.059-0.416-0.36-0.602-0.631-0.602c-1.544,0.385,0.182,3.04,0.253,4.035
	c0.255-0.29,0.747-0.409,0.968-0.468C28.273,12.821,28.073,11.15,28.096,11.132z M27.353,9.995
	c-0.175-0.036-0.347-0.099-0.509-0.171c0.007,0.169,0.018,0.338,0.035,0.507c0.005,0.051,0.089,0.093,0.129,0.069
	c0.132-0.082,0.289-0.133,0.442-0.131C27.446,10.256,27.392,10.104,27.353,9.995z M27.679,18.711
	c-0.013-0.701,0.386-3.119-0.454-3.269c-0.258,0.012-0.547,0.052-0.685,0.395C26.756,16.922,25.93,18.565,27.679,18.711z
	 M28.001,10.094c-0.175-0.01-0.23-0.024-0.402-0.061c0.03,0.083,0.059,0.166,0.089,0.249c0.151,0.021,0.176,0.071,0.297,0.162
	c0.049,0.037,0.096-0.002,0.079-0.067C28.039,10.284,28.019,10.189,28.001,10.094z M22.211,4.727
	c-0.181,0.105-0.538,0.039-0.726-0.068c0.247,0.43,0.12,0.858-0.045,1.14c0.931-0.003,1.861-0.004,2.792-0.011
	c-0.15-0.205,0.007-0.482,0.011-0.705c-0.092-0.42-0.823-0.125-0.951-0.712c-0.326-0.896-1.485-0.07-2.013-0.702
	c-0.005,0.136-0.005,0.334-0.098,0.447c-0.022,0.027,0.283,0.209,0.362,0.243C21.938,4.531,22.242,4.371,22.211,4.727z M6.211,6.72
	C6.317,6.653,6.439,6.581,6.56,6.515c-0.015-0.012-0.03-0.026-0.043-0.04C6.163,6.481,5.996,5.876,6.374,5.788
	c0.113-0.03,0.23,0.178,0.111,0.266c-0.061,0.04,0.014,0.132,0.074,0.119C7.004,6.11,6.702,5.555,6.416,5.565
	C5.844,5.54,5.67,6.576,6.211,6.72z M26.29,7.649c-0.041-0.61,0.226-1.215,0.744-1.574c0.215-0.149,0.451-0.234,0.693-0.275
	c0.016-0.25,0.406-0.441,0.421-0.65C27.068,5.19,26,6.436,26.113,7.512C26.172,7.557,26.232,7.602,26.29,7.649z M26.828,7.956
	c0.421,0.673,1.942,0.285,1.503-0.601c-0.139-0.352-0.81-0.081-0.615,0.214c0.116,0.077-0.023,0.243-0.138,0.167
	c-0.144-0.095-0.18-0.242-0.149-0.381c0.104-0.475,0.806-0.56,1.072-0.19c0.676,0.979-0.553,1.699-1.353,1.35
	C26.203,8.2,25.551,7.31,24.185,7.163c-0.001,0.002-0.001,0.004-0.002,0.005c0.335,0.323,0.411,0.746,0.418,0.845
	c0.669,0.12,2.208,1.441,2.592,1.604c2.557,0.991,3.663-3.148,0.856-3.444C27.121,6.038,26.302,7.148,26.828,7.956z"/>
<linearGradient id="SVGID_2_" gradientUnits="userSpaceOnUse" x1="16.6016" y1="13.4223" x2="16.8244" y2="8.3431" gradientTransform="matrix(1 0 0 -1 0 34)">
	<stop  offset="0" style="stop-color:#FFF7C4"/>
	<stop  offset="0.5223" style="stop-color:#A5935C"/>
	<stop  offset="1" style="stop-color:#FFF7C4"/>
</linearGradient>
<rect x="2.26" y="20.143" fill="url(#SVGID_2_)" width="28.845" height="4.556"/>
<g>
	<rect x="2.64" y="20.552" fill="#30302F" width="3.781" height="3.781"/>
	<rect x="6.662" y="20.552" fill="#30302F" width="3.781" height="3.781"/>
	<rect x="10.703" y="20.552" fill="#30302F" width="3.781" height="3.781"/>
	<rect x="14.74" y="20.552" fill="#30302F" width="3.781" height="3.781"/>
	<rect x="18.781" y="20.552" fill="#30302F" width="3.781" height="3.781"/>
	<rect x="22.799" y="20.552" fill="#30302F" width="3.781" height="3.781"/>
	<rect x="26.84" y="20.552" fill="#30302F" width="3.781" height="3.781"/>
</g>
<linearGradient id="SVGID_3_" gradientUnits="userSpaceOnUse" x1="16.5495" y1="9.7871" x2="16.5495" y2="13.2217" gradientTransform="matrix(1 0 0 -1 0 34)">
	<stop  offset="0" style="stop-color:#3B3421;stop-opacity:0"/>
	<stop  offset="0.2211" style="stop-color:#353229;stop-opacity:0.3006"/>
	<stop  offset="0.5223" style="stop-color:#30302F;stop-opacity:0.71"/>
	<stop  offset="0.9709" style="stop-color:#3A3422;stop-opacity:0.0432"/>
	<stop  offset="1" style="stop-color:#3B3421;stop-opacity:0"/>
</linearGradient>
<rect x="2.797" y="20.732" opacity="0.77" fill="url(#SVGID_3_)" enable-background="new    " width="27.505" height="3.515"/>
<g>
	
		<linearGradient id="SVGID_4_" gradientUnits="userSpaceOnUse" x1="8.666" y1="12.0149" x2="8.666" y2="9.359" gradientTransform="matrix(1 0 0 -1 0 34)">
		<stop  offset="0" style="stop-color:#FFF7C4"/>
		<stop  offset="0.5223" style="stop-color:#A5935C"/>
		<stop  offset="1" style="stop-color:#FFF7C4"/>
	</linearGradient>
	<polygon fill="url(#SVGID_4_)" points="9.325,23.149 7.974,21.014 7.61,21.014 7.61,23.871 8.007,23.871 8.007,21.768 
		9.354,23.871 9.722,23.871 9.722,21.014 9.325,21.014 	"/>
	
		<linearGradient id="SVGID_5_" gradientUnits="userSpaceOnUse" x1="4.6815" y1="12.0149" x2="4.6815" y2="9.359" gradientTransform="matrix(1 0 0 -1 0 34)">
		<stop  offset="0" style="stop-color:#FFF7C4"/>
		<stop  offset="0.5223" style="stop-color:#A5935C"/>
		<stop  offset="1" style="stop-color:#FFF7C4"/>
	</linearGradient>
	<path fill="url(#SVGID_5_)" d="M4.511,21.013l-1.054,2.859H3.89l0.215-0.627h1.154l0.215,0.627h0.432l-1.054-2.859H4.511z
		 M4.236,22.914l0.446-1.298l0.446,1.298H4.236z"/>
	
		<linearGradient id="SVGID_6_" gradientUnits="userSpaceOnUse" x1="12.6932" y1="12.0149" x2="12.6932" y2="9.359" gradientTransform="matrix(1 0 0 -1 0 34)">
		<stop  offset="0" style="stop-color:#FFF7C4"/>
		<stop  offset="0.5223" style="stop-color:#A5935C"/>
		<stop  offset="1" style="stop-color:#FFF7C4"/>
	</linearGradient>
	<path fill="url(#SVGID_6_)" d="M13.274,21.811h0.411c-0.12-0.919-1.439-1.176-1.856-0.342c-0.188,0.304-0.108,0.993-0.124,1.345
		c-0.048,1.291,1.746,1.458,1.98,0.216h-0.411c-0.2,0.724-1.208,0.535-1.158-0.216c0.018-0.247-0.053-0.924,0.073-1.139
		C12.403,21.175,13.161,21.303,13.274,21.811z"/>
	
		<linearGradient id="SVGID_7_" gradientUnits="userSpaceOnUse" x1="28.7335" y1="12.0149" x2="28.7335" y2="9.359" gradientTransform="matrix(1 0 0 -1 0 34)">
		<stop  offset="0" style="stop-color:#FFF7C4"/>
		<stop  offset="0.5223" style="stop-color:#A5935C"/>
		<stop  offset="1" style="stop-color:#FFF7C4"/>
	</linearGradient>
	<polygon fill="url(#SVGID_7_)" points="27.725,21.013 27.725,21.394 28.533,21.394 28.533,23.872 28.934,23.872 28.934,21.394 
		29.742,21.394 29.742,21.013 	"/>
	
		<linearGradient id="SVGID_8_" gradientUnits="userSpaceOnUse" x1="16.6395" y1="12.0149" x2="16.6395" y2="9.359" gradientTransform="matrix(1 0 0 -1 0 34)">
		<stop  offset="0" style="stop-color:#FFF7C4"/>
		<stop  offset="0.5223" style="stop-color:#A5935C"/>
		<stop  offset="1" style="stop-color:#FFF7C4"/>
	</linearGradient>
	<polygon fill="url(#SVGID_8_)" points="16.022,21.394 16.439,21.394 16.439,23.49 16.022,23.49 16.022,23.872 17.257,23.872 
		17.257,23.49 16.84,23.49 16.84,21.394 17.257,21.394 17.257,21.013 16.022,21.013 	"/>
	
		<linearGradient id="SVGID_9_" gradientUnits="userSpaceOnUse" x1="24.688" y1="12.0149" x2="24.688" y2="9.359" gradientTransform="matrix(1 0 0 -1 0 34)">
		<stop  offset="0" style="stop-color:#FFF7C4"/>
		<stop  offset="0.5223" style="stop-color:#A5935C"/>
		<stop  offset="1" style="stop-color:#FFF7C4"/>
	</linearGradient>
	<polygon fill="url(#SVGID_9_)" points="25.346,23.149 23.996,21.014 23.632,21.014 23.632,23.871 24.029,23.871 24.029,21.768 
		25.376,23.871 25.744,23.871 25.744,21.014 25.346,21.014 	"/>
	
		<linearGradient id="SVGID_10_" gradientUnits="userSpaceOnUse" x1="20.7125" y1="12.0149" x2="20.7125" y2="9.359" gradientTransform="matrix(1 0 0 -1 0 34)">
		<stop  offset="0" style="stop-color:#FFF7C4"/>
		<stop  offset="0.5223" style="stop-color:#A5935C"/>
		<stop  offset="1" style="stop-color:#FFF7C4"/>
	</linearGradient>
	<polygon fill="url(#SVGID_10_)" points="19.794,23.872 21.631,23.872 21.631,23.49 20.195,23.49 20.195,22.643 21.414,22.643 
		21.414,22.261 20.195,22.261 20.195,21.394 21.631,21.394 21.631,21.013 19.794,21.013 	"/>
</g>
</svg>
