<svg width="285" height="285" viewBox="0 0 285 285" fill="none" xmlns="http://www.w3.org/2000/svg">
<path d="M210.615 22.2656H73.2541C63.4661 22.2656 55.5396 30.5484 55.5396 40.8352V242.375C55.5396 252.59 63.4572 260.944 73.2541 260.944H210.615C220.403 260.944 228.33 252.661 228.33 242.375V40.8352C228.33 30.6197 220.403 22.2656 210.615 22.2656ZM139.998 56.0559C134.021 56.0559 129.239 50.9794 129.239 44.7895C129.239 38.5997 134.093 33.5231 139.998 33.5231C145.902 33.5231 150.756 38.5908 150.756 44.7895C150.756 50.9883 145.902 56.0559 139.998 56.0559Z" fill="url(#paint0_linear_98_219)"/>
<path d="M210.57 22.8623H74.1267C64.3833 22.8623 56.519 31.065 56.519 41.2893V241.484C56.519 251.628 64.3833 259.911 74.1267 259.911H210.57C220.314 259.911 228.178 251.628 228.178 241.484V41.2893C228.178 31.1451 220.314 22.8623 210.57 22.8623ZM140.362 56.43C134.44 56.43 129.648 51.4336 129.648 45.2437C129.648 39.0539 134.44 34.0575 140.362 34.0575C146.285 34.0575 151.077 39.0539 151.077 45.2437C151.077 51.4336 146.285 56.43 140.362 56.43Z" fill="url(#paint1_linear_98_219)"/>
<g clip-path="url(#clip0_98_219)">
<path d="M66.3772 73C67.3867 73.0887 68.2349 73.1589 69.0815 73.2409C69.953 73.3245 70.3298 74.0137 70.5112 74.7848C70.6849 75.5259 71.1176 75.8855 71.699 76.195C75.1229 78.025 78.6057 79.7429 81.9349 81.7569C84.9881 83.6053 87.9313 85.6694 90.2169 88.6637C92.9135 92.1965 92.0498 96.1677 89.5315 99.09C85.4611 103.812 80.4695 106.703 74.8763 108.638C73.7661 109.023 72.7861 109.836 71.6866 110.272C70.8291 110.614 69.8817 110.737 68.9637 110.833C68.6039 110.869 68.1791 110.62 67.8441 110.396C67.4534 110.135 67.151 109.727 66.7726 109.439C66.1167 108.939 65.7663 108.372 66.0547 107.455C66.1524 107.144 66.0361 106.746 65.9911 106.393C65.6251 103.447 65.1801 100.51 64.8979 97.5544C64.4823 93.1851 64.1675 88.8042 63.8388 84.4266C63.7287 82.9579 63.6992 81.4825 63.6419 80.0088C63.6 78.9266 63.2433 78.6455 62.2494 78.868C61.3655 79.0654 60.477 79.2394 59.5854 79.3866C58.9031 79.5003 58.3107 79.2477 58.0688 78.5318C57.8083 77.7607 58.3681 77.401 58.9108 77.1819C60.063 76.7169 61.2275 76.2769 62.4075 75.8989C62.9286 75.7316 63.2852 75.6262 63.2108 74.8835C63.1162 73.9535 63.6605 73.4316 64.4622 73.2676C65.1429 73.1288 65.8391 73.0719 66.3772 73ZM72.234 94.4665L72.1999 94.4698C72.1999 94.8328 72.1999 95.1941 72.1999 95.5571C72.1999 95.6959 72.1968 95.8348 72.1953 95.9753C72.1766 95.8465 72.1534 95.716 72.1425 95.5872C71.8355 91.872 71.5316 88.1568 71.2199 84.4433C71.2059 84.276 71.1222 84.1171 71.071 83.9549C71.0307 84.1088 70.9501 84.2643 70.9563 84.4166C70.9997 85.5005 71.0292 86.5861 71.1207 87.6667C71.5068 92.1949 71.2556 96.7816 72.2247 101.261C72.5116 102.586 72.6263 103.954 72.8279 105.301C72.9551 106.149 73.3769 106.279 74.0359 105.88C74.9368 105.336 75.8517 104.819 76.7542 104.282C79.412 102.701 81.8574 100.784 83.4499 97.9659C85.8472 93.7221 85.4657 91.4421 81.9861 88.7992C79.0879 86.5961 75.8827 84.8582 72.7814 82.973C71.561 82.2319 71.4416 82.3674 71.5424 83.888C71.775 87.4158 72.003 90.942 72.2325 94.4698L72.234 94.4665ZM86.3682 102.178C86.3481 102.119 86.3279 102.061 86.3077 102.002C86.1294 102.077 85.9418 102.134 85.7759 102.233C84.0112 103.268 82.2745 104.366 80.4757 105.331C79.4895 105.861 78.401 106.171 77.3636 106.591C77.2612 106.632 77.1884 106.756 77.1015 106.843C77.2194 106.848 77.3481 106.89 77.4551 106.855C80.5005 105.833 83.4204 104.525 86.0209 102.486C86.1418 102.39 86.2535 102.282 86.3682 102.178Z" fill="black"/>
<path d="M179.098 87.8624C179.103 89.0116 178.987 90.1775 179.139 91.305C179.529 94.2239 180.035 97.1245 180.505 100.032C180.581 100.502 180.708 100.962 180.813 101.427C181.021 100.942 181.309 100.477 181.424 99.9682C181.936 97.6966 182.378 95.4066 182.887 93.1333C183.062 92.3521 183.397 91.6127 183.583 90.8332C183.806 89.8998 184.389 89.6105 185.189 89.6088C186.144 89.6071 187.101 89.5988 188.056 89.6071C189.253 89.6172 189.875 90.0705 190.22 91.3317C190.713 93.1467 191.131 94.985 191.593 96.81C191.643 97.0057 191.767 97.178 191.857 97.362C191.916 97.1696 192.034 96.9739 192.026 96.7849C191.859 92.8656 191.696 88.9464 191.485 85.0305C191.424 83.9147 191.635 83.4447 192.67 83.3259C193.767 83.2005 194.881 83.1202 195.982 83.1603C196.7 83.1871 197.242 83.6923 197.351 84.5169C197.57 86.1679 197.833 87.8206 197.922 89.4817C198.137 93.4779 198.343 97.4791 198.39 101.482C198.415 103.556 198.108 105.639 197.919 107.713C197.829 108.707 197.056 109.06 196.343 109.371C195.461 109.755 194.526 109.996 193.64 110.378C192.18 111.007 191.041 110.488 190.167 109.237C189.255 107.929 188.442 106.539 187.582 105.189C187.427 104.946 187.245 104.722 187.076 104.49C186.963 104.751 186.821 105.001 186.74 105.274C186.276 106.838 185.82 108.406 185.375 109.976C185.051 111.119 184.222 111.686 183.263 111.992C182.231 112.321 181.161 112.549 180.094 112.715C178.694 112.93 177.884 112.397 177.191 111.06C175.755 108.295 175.067 105.269 174.53 102.198C173.71 97.4958 172.938 92.7837 172.144 88.0765C171.968 87.0344 172.475 86.0843 173.451 85.994C174.778 85.8719 176.127 85.8618 177.451 85.9856C177.881 86.0257 178.295 86.6079 178.659 87.0026C178.866 87.2251 178.959 87.5697 179.103 87.8591L179.1 87.8624H179.098ZM196.221 95.2744C196.267 95.2627 196.312 95.2527 196.359 95.241C196.014 92.2417 195.67 89.2425 195.329 86.2432C195.304 86.0241 195.281 85.8049 195.275 85.5841C195.268 85.3583 195.282 85.1325 195.287 84.9067C195.192 84.9351 195.037 84.9368 195.013 84.9987C194.927 85.2094 194.825 85.4486 194.842 85.6661C195.062 88.5148 195.327 91.3618 195.527 94.2122C195.636 95.7645 195.639 97.3252 195.695 98.8809C195.698 98.9862 195.737 99.09 195.76 99.1953C195.791 99.1017 195.839 99.0113 195.85 98.916C195.977 97.7032 196.1 96.4905 196.224 95.2761L196.221 95.2744ZM192.936 97.8521C192.888 97.8521 192.842 97.8521 192.794 97.8521C192.794 95.8515 192.853 93.8475 192.775 91.8486C192.711 90.1859 192.501 88.5282 192.327 86.8722C192.297 86.5878 192.122 86.3218 192.014 86.0492C192.015 86.3335 191.995 86.6212 192.024 86.9023C192.065 87.2887 192.184 87.6684 192.2 88.0548C192.376 92.4424 192.539 96.8301 192.704 101.218C192.715 101.524 192.702 101.83 192.719 102.134C192.724 102.226 192.795 102.315 192.835 102.404C192.87 102.305 192.932 102.205 192.932 102.106C192.938 100.689 192.936 99.2706 192.936 97.8521ZM194.344 89.015C194.251 88.6704 194.163 88.3358 194.073 88.0029C194.045 88.1284 193.978 88.2589 193.994 88.3776C194.042 88.7574 194.119 89.1321 194.185 89.5101C194.236 89.3529 194.285 89.1956 194.344 89.0166V89.015Z" fill="black"/>
<path d="M206.027 106.579C206.027 108.164 206.016 109.752 206.036 111.338C206.041 111.664 206.075 112.047 206.233 112.306C206.81 113.25 206.371 113.761 205.582 113.947C204.257 114.258 202.911 114.486 201.564 114.64C200.976 114.707 200.216 113.534 200.129 112.477C199.889 109.538 199.657 106.599 199.491 103.653C199.376 101.626 199.291 99.5882 199.348 97.5609C199.399 95.7024 199.66 93.8507 199.826 91.9973C199.922 90.9133 200.601 90.3847 201.483 90.3396C202.631 90.2794 203.806 90.3128 204.935 90.5236C205.721 90.6708 206.241 91.3499 206.341 92.3051C206.377 92.6363 206.506 92.9926 206.689 93.2602C207.534 94.5031 208.568 95.6272 209.25 96.962C210.724 99.8509 212.169 102.735 214.406 105.043C214.613 105.256 214.898 105.376 215.148 105.538C215.196 105.245 215.306 104.948 215.282 104.663C215.016 101.42 214.718 98.1798 214.448 94.938C214.251 92.5827 214.093 90.2242 213.898 87.8689C213.75 86.0991 213.572 84.3327 213.406 82.5646C213.33 81.755 213.543 81.1143 214.337 80.8902C215.918 80.4452 217.48 80.8015 218.841 81.561C219.896 82.1498 220.091 83.5315 220.133 84.7961C220.192 86.5959 220.182 88.4009 220.311 90.194C220.503 92.8554 220.641 95.5385 221.068 98.1614C221.944 103.544 222.031 108.961 221.995 114.395C221.987 115.546 221.801 115.826 220.75 116.001C219.423 116.224 218.094 116.451 216.759 116.585C216.483 116.614 215.917 116.242 215.917 116.053C215.906 113.9 214.358 112.954 213.096 111.833C210.711 109.718 208.52 107.422 206.718 104.705C206.552 104.454 206.269 104.295 206.039 104.093C205.974 104.419 205.873 104.744 205.853 105.073C205.82 105.572 205.845 106.075 205.845 106.577C205.907 106.577 205.968 106.577 206.03 106.577L206.027 106.579Z" fill="black"/>
<path d="M136.238 95.808C136.238 97.924 136.238 100.042 136.238 102.158C136.238 102.268 136.229 102.38 136.224 102.491C136.215 102.389 136.201 102.287 136.199 102.185C136.191 101.822 136.199 101.459 136.181 101.097C136.164 100.766 136.123 100.438 136.094 100.107C135.999 100.43 135.835 100.749 135.819 101.077C135.515 107.117 135.435 113.154 136.219 119.166C136.303 119.804 136.173 120.326 135.607 120.535C134.182 121.06 132.752 121.605 131.288 121.97C130.603 122.14 130.038 121.558 129.914 120.791C129.603 118.879 129.258 116.963 129.11 115.033C128.942 112.872 128.958 110.692 128.933 108.519C128.924 107.701 128.71 107.594 127.954 107.767C125.968 108.218 123.958 108.693 121.941 108.819C119.393 108.978 116.794 106.815 115.766 104.291C114.425 100.997 114.399 97.5978 114.724 94.1218C115.033 90.8349 115.772 87.7169 117.503 84.9384C118.626 83.1385 120.266 82.2403 122.203 82.1148C123.594 82.0245 125.052 81.7485 126.376 82.5932C127.097 83.0532 127.157 83.3677 126.461 83.8411C125.856 84.2526 125.143 84.4751 124.52 84.8598C124.05 85.1509 123.532 85.4821 123.24 85.9454C122.722 86.7684 122.296 87.6767 121.946 88.6001C121.268 90.3916 120.485 92.1714 120.083 94.0416C119.452 96.9705 119.905 99.8494 121.083 102.593C121.704 104.035 122.749 104.98 124.101 105.385C124.729 105.572 125.532 105.354 126.187 105.108C128.485 104.242 128.922 103.519 128.922 100.952C128.922 99.836 128.919 98.7219 128.914 97.6062C128.911 96.9271 128.677 96.8384 128.086 97.086C126.748 97.6463 125.394 98.2084 124 98.5429C123.506 98.6617 122.736 98.2753 122.343 97.8504C121.845 97.3118 122.166 96.6226 122.6 96.0572C123.823 94.4597 125.501 93.5882 127.154 92.6699C127.864 92.2751 128.55 91.8118 129.289 91.499C129.9 91.2414 130.572 91.0574 131.225 91.0239C132.723 90.9486 134.303 90.512 135.635 91.6361C135.99 91.9356 136.298 92.4892 136.356 92.966C136.469 93.8977 136.388 94.8562 136.388 95.8046C136.337 95.8046 136.286 95.8046 136.236 95.8046L136.238 95.808ZM115.163 100.544C115.079 99.8594 115.023 99.3408 114.947 98.8256C114.932 98.7169 114.85 98.6182 114.797 98.5145C114.766 98.6132 114.701 98.7152 114.707 98.8122C114.741 99.3325 114.774 99.8544 114.847 100.37C114.878 100.597 115 100.81 115.081 101.027C115.117 100.815 115.152 100.6 115.161 100.542L115.163 100.544Z" fill="black"/>
<path d="M99.7405 109.744C97.5727 109.612 95.6142 109.138 94.0062 107.469C93.0665 106.494 92.6463 105.324 92.6354 103.956C92.6044 100.104 93.2123 96.345 94.3024 92.7001C94.9815 90.4318 95.8794 88.2338 96.7632 86.0442C97.6673 83.8027 99.4428 82.9245 101.594 82.7488C102.235 82.697 102.879 82.6267 103.523 82.6067C103.904 82.5949 104.377 82.5264 104.656 82.7271C106.073 83.7508 107.65 84.6474 108.778 85.9756C110.857 88.4262 111.439 91.6445 111.884 94.8362C112.234 97.347 112.146 99.8327 111.288 102.243C110.009 105.841 107.345 107.735 104.129 108.83C102.718 109.312 101.207 109.448 99.742 109.742L99.7405 109.744ZM98.1216 101.362C98.1216 101.945 98.0735 102.536 98.1309 103.113C98.3263 105.125 100.407 106.559 102.175 105.937C103.69 105.403 104.378 104.046 104.872 102.603C106.562 97.6447 105.382 93.0848 103.09 88.7038C103.077 88.6804 103.059 88.6587 103.045 88.6369C102.671 88.0414 102.335 87.9478 102.026 88.7022C101.818 89.2107 101.58 89.7058 101.355 90.2077C101.223 90.5004 101.093 90.7931 100.962 91.0875C101.062 90.7747 101.18 90.4669 101.251 90.1458C101.296 89.9467 101.268 89.7309 101.273 89.5218C101.156 89.654 100.997 89.766 100.933 89.9233C99.4521 93.5816 98.0131 97.255 98.1232 101.362H98.1216Z" fill="black"/>
<path d="M160.242 112.382C157.465 112.378 155.282 110.625 154.706 107.577C154.404 105.977 154.345 104.229 154.595 102.623C154.999 100.027 155.651 97.4606 156.384 94.9448C156.939 93.0462 157.668 91.1777 158.532 89.418C159.867 86.6997 161.301 86.1461 164.157 86.4421C167.037 86.7399 168.781 88.6217 170.152 91.0389C171.681 93.737 172.371 96.8015 172.306 99.8995C172.199 104.983 170.019 108.837 165.632 111.047C163.923 111.906 162.135 112.393 160.242 112.383V112.382ZM165.826 100.277C165.888 97.8955 165.393 95.664 164.537 93.5179C164.433 93.2586 164.212 93.0529 164.044 92.8237C163.892 93.0328 163.681 93.2185 163.598 93.456C162.883 95.4834 162.191 97.5208 161.492 99.5549C161.456 99.6586 161.416 99.7606 161.377 99.8643C161.377 99.7439 161.359 99.6168 161.385 99.503C161.61 98.5311 161.847 97.5626 162.066 96.5891C162.103 96.4218 162.069 96.2361 162.067 96.0605C161.968 96.2127 161.825 96.3499 161.777 96.5188C161.292 98.22 160.712 99.8995 160.377 101.636C159.995 103.613 159.937 105.615 161.002 107.46C161.728 108.715 162.259 108.802 163.176 107.688C164.92 105.568 165.95 103.148 165.823 100.281L165.826 100.277Z" fill="black"/>
<path d="M156.391 80.6279C157.935 80.8203 159.495 81.0076 161.052 81.2167C161.263 81.2452 161.463 81.3807 161.667 81.466C161.523 81.6784 161.421 81.9962 161.229 82.0849C160.094 82.6135 158.972 83.2558 157.78 83.5469C154.713 84.298 151.616 84.9152 148.521 85.5224C147.662 85.6914 147.539 86.1631 147.584 86.9777C147.769 90.2279 147.905 93.483 148.057 96.7349C148.064 96.8721 148.047 97.0109 148.04 97.1481C148.022 96.9992 147.994 96.852 147.984 96.7031C147.895 95.2043 147.814 93.7039 147.715 92.2051C147.699 91.9709 147.605 91.7434 147.546 91.5125C147.498 91.7701 147.401 92.0294 147.411 92.2854C147.459 93.6487 147.527 95.0103 147.598 96.3719C147.733 98.9212 147.891 101.47 148 104.021C148.026 104.642 147.893 105.271 147.839 105.897C147.828 106.02 147.797 106.219 147.853 106.263C148.741 106.935 147.924 107.111 147.569 107.404C146.38 108.382 144.927 108.456 143.539 108.687C142.587 108.846 142.055 108.379 141.945 107.323C141.604 104.065 141.297 100.803 141.025 97.5378C140.878 95.7647 140.779 93.9849 140.746 92.2051C140.718 90.6494 140.799 89.0887 140.864 87.5314C140.901 86.6666 140.62 86.3906 139.808 86.5846C137.465 87.1433 135.111 87.6485 132.759 88.1603C132.486 88.2189 132.166 88.2774 131.923 88.1787C131.589 88.0433 131.115 87.8074 131.051 87.523C130.966 87.14 131.084 86.4976 131.343 86.2718C132.016 85.6847 132.777 85.1745 133.57 84.7948C137.097 83.1086 140.853 82.3191 144.651 81.8357C148.54 81.3405 152.449 81.026 156.384 80.6279H156.391ZM156.304 83.5703C156.522 83.5034 156.76 83.4315 156.997 83.3579C156.891 83.3227 156.783 83.2458 156.684 83.2575C156.358 83.2926 156.035 83.3595 155.713 83.4131C155.897 83.4616 156.082 83.5101 156.305 83.5703H156.304Z" fill="black"/>
<path d="M179.101 87.8606C179.325 89.4447 179.548 91.0271 179.77 92.6112C179.781 92.6898 179.77 92.7718 179.77 92.8504C179.734 92.75 179.678 92.653 179.666 92.551C179.473 90.9886 179.286 89.4263 179.097 87.8622L179.1 87.8589L179.101 87.8606Z" fill="black"/>
</g>
<path d="M56.2163 242.606C56.2163 252.305 63.8401 260.134 73.1827 260.134H210.464C219.806 260.134 227.43 252.305 227.43 242.606V155.779H56.2163V242.606Z" fill="#FA5647"/>
<path d="M210.17 23.3877H74.0822C64.3654 23.3877 56.519 31.2964 56.519 40.9954V48.9754L129.835 48.8239C129.239 47.4791 128.936 45.9918 128.936 44.4243C128.936 38.3057 133.941 33.3093 140.069 33.3093C146.196 33.3093 151.201 38.3057 151.201 44.4243C151.201 45.9918 150.899 47.4791 150.302 48.8239L227.724 48.9754V40.9954C227.724 31.2964 219.877 23.4679 210.161 23.4679V23.3966L210.17 23.3877Z" fill="#FA5647"/>
<path d="M192.536 52.9209L190.22 57.6234H189.543L191.707 53.295H188.795V52.7695H192.536V52.9209Z" fill="#434549"/>
<path d="M193.426 57.4006V56.8039C193.8 57.1067 194.245 57.178 194.771 57.178C195.145 57.178 195.519 57.1067 195.742 56.9553C195.964 56.8039 196.116 56.5812 196.116 56.2873C196.116 55.6906 195.59 55.3166 194.468 55.3166H194.023V54.8712H194.468C195.439 54.8712 195.884 54.5773 195.884 53.9806C195.884 53.4552 195.51 53.1612 194.762 53.1612C194.388 53.1612 193.942 53.3127 193.568 53.5353V53.0098C193.568 53.0098 194.388 52.707 194.913 52.707C195.439 52.707 195.813 52.7783 196.107 53.0098C196.41 53.2325 196.552 53.5353 196.552 53.8292C196.552 54.4972 196.178 54.8712 195.359 55.0939C195.804 55.0939 196.107 55.2453 196.329 55.468C196.552 55.6906 196.703 55.9133 196.703 56.2873C196.703 56.7327 196.552 57.1067 196.107 57.3294C195.733 57.6322 195.207 57.7034 194.61 57.7034C194.085 57.7034 193.64 57.6322 193.266 57.4808L193.417 57.4095L193.426 57.4006Z" fill="#434549"/>
<path d="M198.057 57.4721V56.8754C198.431 57.098 198.876 57.1693 199.251 57.1693C199.625 57.1693 199.999 57.098 200.221 56.8754C200.444 56.6527 200.595 56.43 200.595 56.1272C200.595 55.8244 200.444 55.5305 200.221 55.3791C199.999 55.2277 199.625 55.0763 199.108 55.0763H198.217V52.6182H201.05V53.1436H198.885V54.5597H199.411C200.008 54.5597 200.533 54.7111 200.827 54.9338C201.13 55.2277 201.352 55.5305 201.352 55.9758C201.352 56.4211 201.201 56.7952 200.827 57.098C200.453 57.4008 199.936 57.5433 199.34 57.5433C198.814 57.5433 198.369 57.5433 198.146 57.3207L198.075 57.4721H198.057Z" fill="#434549"/>
<path d="M202.546 57.4721V56.8754C202.92 57.098 203.365 57.1693 203.739 57.1693C204.113 57.1693 204.487 57.098 204.71 56.8754C204.933 56.6527 205.084 56.43 205.084 56.1272C205.084 55.8244 204.933 55.5305 204.71 55.3791C204.487 55.2277 204.113 55.0763 203.597 55.0763H202.706V52.6182H205.538V53.1436H203.374V54.5597H203.9C204.496 54.5597 205.022 54.7111 205.316 54.9338C205.61 55.2277 205.841 55.5305 205.841 55.9758C205.841 56.4211 205.69 56.7952 205.316 57.098C204.942 57.4008 204.416 57.5433 203.828 57.5433C203.303 57.5433 202.858 57.5433 202.635 57.3207L202.564 57.4721H202.546Z" fill="#434549"/>
<path d="M210.089 52.7694V53.2948C210.089 53.2948 209.493 53.0722 209.119 53.0722C208.593 53.0722 208.219 53.2948 207.845 53.6689C207.542 54.043 207.4 54.5684 207.4 55.2364C207.702 54.7911 208.148 54.5684 208.744 54.5684C209.27 54.5684 209.644 54.7198 209.938 54.9425C210.241 55.2364 210.383 55.5392 210.383 56.0647C210.383 56.5902 210.232 56.9642 209.858 57.2581C209.484 57.5609 209.11 57.7034 208.584 57.7034C207.987 57.7034 207.533 57.4808 207.239 57.1067C206.937 56.7327 206.714 56.2072 206.714 55.468C206.714 54.6486 206.937 53.9005 207.391 53.4552C207.836 52.9297 208.362 52.707 209.11 52.707C209.484 52.707 209.858 52.707 210.08 52.8584V52.7872L210.089 52.7694ZM208.673 55.0137C208.673 55.0137 208.077 55.085 207.854 55.3077C207.631 55.5303 207.551 55.753 207.551 55.9756C207.551 56.2695 207.622 56.5723 207.854 56.795C208.077 57.0177 208.379 57.1691 208.673 57.1691C208.967 57.1691 209.27 57.0978 209.493 56.8752C209.715 56.6525 209.787 56.4298 209.787 56.127C209.787 55.753 209.715 55.5303 209.493 55.3077C209.27 55.085 209.047 55.0137 208.673 55.0137Z" fill="#434549"/>
<path d="M213.011 57.6234C212.414 57.6234 211.96 57.4007 211.666 57.0266C211.363 56.5813 211.221 55.9846 211.221 55.2365C211.221 54.3459 211.372 53.7402 211.746 53.2949C212.12 52.8496 212.566 52.627 213.242 52.627C214.436 52.627 215.033 53.4463 215.033 55.0851C215.033 55.9045 214.881 56.5012 214.507 56.9465C214.133 57.3918 213.688 57.6145 213.082 57.6145L213.011 57.6234ZM213.082 53.0723C212.263 53.0723 211.809 53.7402 211.809 55.1563C211.809 56.5012 212.183 57.0979 213.002 57.0979C213.821 57.0979 214.195 56.4299 214.195 55.0851C214.195 53.7402 213.821 53.001 213.002 53.001L213.082 53.0723Z" fill="#434549"/>
<path d="M216.965 55.0139C216.288 54.7111 215.914 54.346 215.914 53.8205C215.914 53.4464 216.066 53.1525 216.359 52.921C216.662 52.6983 217.108 52.6182 217.633 52.6182C218.078 52.6182 218.452 52.6894 218.755 52.921C219.058 53.1436 219.201 53.3663 219.201 53.7404C219.201 54.2658 218.826 54.7111 218.15 55.005C218.969 55.3079 219.423 55.673 219.423 56.3499C219.423 56.7239 219.272 57.098 218.898 57.3207C218.524 57.5433 218.078 57.6947 217.473 57.6947C216.947 57.6947 216.573 57.5433 216.279 57.3207C215.976 57.098 215.834 56.7952 215.834 56.4211C215.834 55.8244 216.279 55.3791 217.108 55.0763L216.956 55.005L216.965 55.0139ZM217.491 55.3079C216.742 55.5305 216.368 55.9046 216.368 56.3499C216.368 56.5725 216.44 56.7952 216.671 56.9466C216.903 57.098 217.197 57.1693 217.491 57.1693C217.784 57.1693 218.087 57.098 218.31 56.9466C218.533 56.7952 218.613 56.5725 218.613 56.3499C218.613 55.8244 218.239 55.5305 217.419 55.2277L217.491 55.3079ZM218.461 53.8205C218.461 53.8205 218.39 53.4464 218.239 53.295C218.087 53.1436 217.865 53.0724 217.562 53.0724C217.259 53.0724 217.036 53.0724 216.894 53.295C216.742 53.4464 216.591 53.5889 216.591 53.8205C216.591 54.2658 216.894 54.5686 217.562 54.7913C218.239 54.5686 218.533 54.2658 218.533 53.8205H218.461Z" fill="#434549"/>
<path d="M190.442 241.787H203.668L195.67 258.344H182.445L190.442 241.787ZM81.1093 258.273H84.5471L92.545 241.716H89.1071L81.1093 258.273ZM126.246 258.273H127.965L135.963 241.716H134.244L126.246 258.273ZM122.88 258.273H124.599L132.596 241.716H130.877L122.88 258.273ZM111.302 258.273H113.02L121.018 241.716H119.299L111.302 258.273ZM225.863 241.787H218.987L211.069 258.201C219.067 257.159 225.346 250.293 225.863 241.787ZM69.4511 257.596L77.0748 241.787H63.849L59.8857 250.07C62.05 253.65 65.4165 256.402 69.4511 257.596ZM159.048 258.273H172.274L180.272 241.716H167.046L159.048 258.273ZM133.638 258.273H155.984L163.982 241.716H141.636L133.638 258.273Z" fill="url(#paint2_linear_98_219)"/>
<path d="M218.016 136.907H216.52V153.615H218.016V136.907Z" fill="#434549"/>
<path d="M214.276 136.907H212.779V153.615H214.276V136.907Z" fill="#434549"/>
<path d="M210.321 136.907H208.825V153.615H210.321V136.907Z" fill="#434549"/>
<path d="M115.336 34.9481C115.336 34.9481 115.185 34.7255 115.113 34.6453C115.113 34.574 114.962 34.4939 114.891 34.4226C114.819 34.4226 114.739 34.2712 114.588 34.2712C114.588 34.2712 115.033 34.1198 115.185 34.0486C115.336 33.9773 115.487 33.8259 115.63 33.6745C115.781 33.5231 115.853 33.3717 115.924 33.149C115.924 32.9976 115.995 32.775 115.995 32.5523C115.995 32.2584 115.995 32.0269 115.844 31.8042C115.772 31.5815 115.621 31.4301 115.47 31.2787C115.318 31.1273 115.095 31.0561 114.873 30.9848C114.65 30.9848 114.347 30.9136 114.125 30.9136H112.254V37.2548H113.003V34.574H113.973C114.045 34.574 114.196 34.6453 114.267 34.7254C114.338 34.7254 114.49 34.8769 114.57 35.0194C114.641 35.1708 114.793 35.242 114.873 35.4647L115.915 37.2548H116.814L115.621 35.3133C115.621 35.3133 115.47 35.0194 115.398 34.9392H115.327L115.336 34.9481ZM114.508 33.7547C114.508 33.7547 114.205 33.8259 113.982 33.8259H112.931V31.5103H113.982C114.428 31.5103 114.73 31.5815 114.953 31.8042C115.176 32.0269 115.256 32.2495 115.256 32.6236C115.256 32.8462 115.256 32.9976 115.185 33.149C115.185 33.3004 115.033 33.4519 114.882 33.5231C114.73 33.5944 114.659 33.6745 114.436 33.7458L114.508 33.7547Z" fill="#515253"/>
<path d="M100.462 34.3512H102.698V33.6833H100.462V31.519H102.921V30.8511H99.7144V37.2636H103.072V36.5956H100.462V34.3512Z" fill="#515253"/>
<path d="M86.3374 31.519H88.1276V37.2636H88.8757V31.519H90.746V30.8511H86.3374V31.519Z" fill="#515253"/>
<path d="M76.6205 35.3221V36.2929C76.6205 36.2929 76.4691 36.0702 76.3979 35.8476L73.1827 30.8512H72.2119V37.1924H72.96V31.6705C72.96 31.6705 73.1114 31.9644 73.1827 32.0446L76.4691 37.1122H77.3686V30.771H76.6205V35.3221Z" fill="#515253"/>
<path d="M141.788 33.3804L142.233 32.0356C142.233 32.0356 142.233 31.8129 142.304 31.5903C142.304 31.5903 142.304 31.9644 142.375 32.0356L142.972 33.7545C142.972 33.7545 143.569 33.9772 143.943 34.1286L142.678 30.8511H141.93L141.04 33.238C141.04 33.238 141.485 33.3092 141.708 33.3894H141.779L141.788 33.3804Z" fill="#515253"/>
<path d="M62.6466 30.8423H61.8984V37.1835H62.6466V30.8423Z" fill="#515253"/>
<path d="M179.229 30.771C178.258 30.771 177.51 31.0649 176.985 31.6616C176.459 32.2583 176.166 33.0777 176.166 34.1197C176.166 35.0905 176.468 35.8387 176.985 36.4354C177.51 37.0321 178.258 37.3349 179.149 37.3349C180.04 37.3349 180.797 37.0321 181.393 36.4354C181.99 35.8387 182.213 35.0193 182.213 33.9772C182.213 33.0065 181.919 32.2583 181.393 31.6616C180.868 31.0649 180.12 30.771 179.301 30.771H179.229ZM180.726 35.9901C180.351 36.4354 179.755 36.658 179.078 36.658C178.401 36.658 177.884 36.4354 177.51 35.9099C177.136 35.4646 176.914 34.7877 176.914 34.0485C176.914 33.3093 177.136 32.6324 177.51 32.1871C177.956 31.7418 178.481 31.439 179.158 31.439C179.835 31.439 180.351 31.6616 180.806 32.1069C181.18 32.5522 181.402 33.2291 181.402 34.0485C181.402 34.8679 181.18 35.5447 180.806 35.9901H180.726Z" fill="#515253"/>
<path d="M207.774 30.8423L205.307 37.1835H206.126L206.803 35.3934H209.493L210.161 37.1835H210.98L208.513 30.8423H207.765H207.774ZM207.026 34.7967L207.996 32.1159C207.996 32.1159 207.996 31.8932 208.068 31.6706C208.068 31.6706 208.068 32.0446 208.139 32.1159L209.11 34.7967H206.865H207.017H207.026Z" fill="#515253"/>
<path d="M220.626 36.5868V30.8423H219.877V37.2548H223.155V36.5868H220.626Z" fill="#515253"/>
<path d="M195.742 35.3221V36.2929C195.742 36.2929 195.59 36.0702 195.519 35.8476L192.304 30.8512H191.333V37.1924H192.081V31.6705C192.081 31.6705 192.233 31.9644 192.304 32.0446L195.59 37.1122H196.49V30.771H195.742V35.3221Z" fill="#515253"/>
<path d="M166.903 30.8423H166.155V37.1835H166.903V30.8423Z" fill="#515253"/>
<path d="M126.54 32.1872L129.827 37.2548H130.726V30.9136H129.978V36.3553C129.978 36.3553 129.827 36.1326 129.755 35.91L126.54 30.9136H125.569V37.2548H126.317V31.7329C126.317 31.7329 126.469 32.0269 126.54 32.107V32.1783V32.1872Z" fill="#515253"/>
<path d="M152.849 31.519H154.639V37.2636H155.387V31.519H157.258V30.8511H152.849V31.519Z" fill="#515253"/>
<path d="M140.068 33.897C133.941 33.897 128.936 38.8934 128.936 45.1634C128.936 51.4334 133.941 56.4298 140.068 56.4298C146.196 56.4298 151.201 51.4334 151.201 45.1634C151.201 38.8934 146.196 33.897 140.068 33.897ZM140.068 55.8331C134.164 55.8331 129.452 51.0593 129.452 45.0921C129.452 39.1249 134.235 34.3512 140.068 34.3512C145.902 34.3512 150.685 39.1249 150.685 45.0921C150.685 51.0593 145.902 55.8331 140.068 55.8331Z" fill="url(#paint3_linear_98_219)"/>
<path opacity="0.31" d="M225.186 170.546V222.683C219.806 220.296 207.4 176.807 200.079 173.306C188.421 167.713 171.828 204.487 159.876 185.766C144.477 161.746 127.217 158.985 118.248 158.985C110.847 158.985 101.13 190.389 90.523 186.657C70.3414 179.568 62.121 187.405 57.6411 184.867V148.396C57.6411 136.684 65.3361 127.733 74.8302 128.33L207.925 148.324C217.419 148.921 225.114 158.914 225.114 170.554L225.186 170.546Z" fill="url(#paint4_linear_98_219)"/>
<path d="M95.1546 216.573L90.6748 198.369L90.8262 234.84H80.584V173.975H92.2423L99.0466 198.289L105.771 173.975H117.135V234.84L107.347 235.143L107.044 199.411L102.707 216.644H95.306L95.1546 216.573Z" fill="#E4DFD0"/>
<path d="M152.546 234.769L150.382 220.296H138.724L136.257 234.769H125.195L136.854 173.903H152.475L164.133 234.769H152.475H152.546ZM148.815 209.858L145.003 184.199L140.665 209.858H148.886H148.815Z" fill="#E4DFD0"/>
<path d="M171.908 234.769V173.903H189.169C194.397 173.903 198.511 175.248 201.495 178.009C204.487 180.699 205.903 184.876 205.903 190.469V200.088C205.903 205.529 204.487 209.564 201.566 212.093C198.725 214.632 194.539 215.896 189.24 215.896H183.86V234.84H171.899L171.908 234.769ZM183.86 205.529H188.421C190.068 205.529 191.333 205.084 192.161 204.113C192.981 203.143 193.435 201.352 193.435 198.743V191.582C193.435 188.821 192.989 186.96 192.161 185.989C191.342 185.018 190.068 184.493 188.421 184.493H183.86V205.601V205.529Z" fill="#E4DFD0"/>
<path d="M83.1931 171.223C82.1511 171.223 81.403 171 80.8775 170.475C80.3521 169.949 80.1294 169.21 80.1294 168.159V165.104C80.1294 164.062 80.3521 163.314 80.8775 162.789C81.403 162.263 82.1511 161.969 83.1931 161.969C84.2352 161.969 84.912 162.192 85.3574 162.717C85.8027 163.243 86.1055 164.062 86.1055 165.175H84.0125C84.0125 164.579 83.9413 164.053 83.7899 163.831C83.6385 163.608 83.4158 163.457 83.113 163.457C82.7389 163.457 82.5163 163.608 82.3649 163.831C82.2135 164.053 82.1422 164.579 82.1422 165.175V167.865C82.1422 168.462 82.1422 168.907 82.3649 169.21C82.5875 169.513 82.7389 169.584 83.113 169.584C83.4158 169.584 83.6385 169.433 83.7899 169.281C83.9413 169.059 84.0125 168.613 84.0125 167.865L86.1055 168.017C86.1055 169.139 85.8027 169.958 85.3574 170.475C84.912 171 84.1639 171.223 83.113 171.223H83.1931Z" fill="#E4DFD0"/>
<path d="M97.55 171.223C96.6505 171.223 95.9024 170.929 95.3858 170.403C94.8603 169.878 94.6377 169.139 94.6377 168.239V164.962C94.6377 163.991 94.8603 163.243 95.3858 162.726C95.9113 162.201 96.5793 161.907 97.55 161.907C98.5208 161.907 99.1977 162.21 99.7143 162.726C100.24 163.252 100.462 163.991 100.462 164.962V168.239C100.462 169.139 100.24 169.878 99.7143 170.403C99.1888 170.929 98.5208 171.223 97.55 171.223ZM97.55 169.655C97.55 169.655 98.0755 169.504 98.1468 169.352C98.2982 169.13 98.2982 168.684 98.2982 168.088V165.175C98.2982 164.579 98.2982 164.133 98.1468 163.911C97.9954 163.688 97.8439 163.537 97.55 163.537C97.2561 163.537 97.0246 163.608 96.9533 163.911C96.8019 164.133 96.8019 164.579 96.8019 165.175V168.088C96.8019 168.684 96.8019 169.13 96.9533 169.352C97.1047 169.575 97.2561 169.655 97.55 169.655Z" fill="#E4DFD0"/>
<path d="M111.444 168.391L110.696 165.256L110.919 171.071H109.048V162.049H110.919L112.041 166.226L113.163 162.049H114.953V171.071H113.083L113.306 165.407L112.557 168.391H111.284H111.444Z" fill="#E4DFD0"/>
<path d="M125.943 168.391L125.195 165.256L125.418 171.071H123.547V162.049H125.418L126.54 166.226L127.662 162.049H129.452V171.071H127.582L127.805 165.407L127.056 168.391H125.783H125.943Z" fill="#E4DFD0"/>
<path d="M141.111 171.223C140.069 171.223 139.392 170.92 138.866 170.403C138.421 169.878 138.118 169.059 138.118 167.945V162.049H140.211V167.945C140.211 168.542 140.211 168.987 140.363 169.21C140.514 169.433 140.656 169.513 141.031 169.513C141.405 169.513 141.556 169.442 141.707 169.21C141.859 168.987 141.859 168.542 141.859 167.945V162.049H143.952V167.945C143.952 169.067 143.729 169.887 143.204 170.403C142.678 170.929 142.01 171.223 140.959 171.223H141.111Z" fill="#E4DFD0"/>
<path d="M156.136 171.151L154.417 165.033V171.151H152.626V162.129H154.871L156.741 168.542V162.129H158.531V171.151H156.136Z" fill="#E4DFD0"/>
<path d="M167.197 171.152V169.584H169.068V163.688H167.197V162.121H173.102V163.688H171.232V169.584H173.102V171.152H167.197Z" fill="#E4DFD0"/>
<path d="M183.638 171.151V163.697H181.545V162.129H187.824V163.697H185.731V171.151H183.638Z" fill="#E4DFD0"/>
<path d="M200.23 171.151H198.137V167.794L195.893 162.129H197.986L199.179 165.71L200.373 162.129H202.466L200.222 167.794L200.23 171.151Z" fill="#E4DFD0"/>
<defs>
<linearGradient id="paint0_linear_98_219" x1="222.478" y1="26.8167" x2="61.3909" y2="256.402" gradientUnits="userSpaceOnUse">
<stop stop-color="#FDF9F0"/>
<stop offset="1" stop-color="#A29884"/>
</linearGradient>
<linearGradient id="paint1_linear_98_219" x1="222.184" y1="27.2442" x2="62.504" y2="255.511" gradientUnits="userSpaceOnUse">
<stop stop-color="#EDE8D9"/>
<stop offset="0.36" stop-color="#F4EEE0"/>
<stop offset="1" stop-color="#FFF7EB"/>
</linearGradient>
<linearGradient id="paint2_linear_98_219" x1="59.8768" y1="250.025" x2="225.863" y2="250.025" gradientUnits="userSpaceOnUse">
<stop stop-color="#C9C5B8"/>
<stop offset="1" stop-color="#E4DFD0"/>
</linearGradient>
<linearGradient id="paint3_linear_98_219" x1="133.024" y1="56.7593" x2="147.184" y2="33.4606" gradientUnits="userSpaceOnUse">
<stop stop-color="#FDF9F0"/>
<stop offset="1" stop-color="#A29884"/>
</linearGradient>
<linearGradient id="paint4_linear_98_219" x1="141.164" y1="190.772" x2="144.246" y2="123.262" gradientUnits="userSpaceOnUse">
<stop offset="0.05" stop-color="#FFFAEB" stop-opacity="0.7"/>
<stop offset="0.68" stop-color="#FFEDCF" stop-opacity="0"/>
</linearGradient>
<clipPath id="clip0_98_219">
<rect width="164" height="49" fill="white" transform="translate(58 73)"/>
</clipPath>
</defs>
</svg>
