<?xml version="1.0" encoding="UTF-8"?>
<svg id="Layer_1" xmlns="http://www.w3.org/2000/svg" width="32" height="32" version="1.1" xmlns:xlink="http://www.w3.org/1999/xlink" viewBox="0 0 32 32">
  <!-- Generator: Adobe Illustrator 29.5.0, SVG Export Plug-In . SVG Version: 2.1.0 Build 137)  -->
  <defs>
    <linearGradient id="linear-gradient" x1="24.98" y1="30.989" x2="6.893" y2="5.211" gradientTransform="translate(0 34) scale(1 -1)" gradientUnits="userSpaceOnUse">
      <stop offset="0" stop-color="#fdf9f0"/>
      <stop offset="1" stop-color="#a29884"/>
    </linearGradient>
    <linearGradient id="linear-gradient1" x1="24.947" y1="30.941" x2="7.018" y2="5.311" gradientTransform="translate(0 34) scale(1 -1)" gradientUnits="userSpaceOnUse">
      <stop offset="0" stop-color="#ede8d9"/>
      <stop offset=".36" stop-color="#f4eee0"/>
      <stop offset="1" stop-color="#fff7eb"/>
    </linearGradient>
    <linearGradient id="linear-gradient2" x1="6.723" y1="5.927" x2="25.36" y2="5.927" gradientTransform="translate(0 34) scale(1 -1)" gradientUnits="userSpaceOnUse">
      <stop offset="0" stop-color="#c9c5b8"/>
      <stop offset="1" stop-color="#e4dfd0"/>
    </linearGradient>
    <linearGradient id="linear-gradient3" x1="14.936" y1="27.627" x2="16.526" y2="30.243" gradientTransform="translate(0 34) scale(1 -1)" gradientUnits="userSpaceOnUse">
      <stop offset="0" stop-color="#fdf9f0"/>
      <stop offset="1" stop-color="#a29884"/>
    </linearGradient>
    <linearGradient id="linear-gradient4" x1="15.85" y1="12.58" x2="16.196" y2="20.16" gradientTransform="translate(0 34) scale(1 -1)" gradientUnits="userSpaceOnUse">
      <stop offset=".05" stop-color="#fffaeb" stop-opacity=".7"/>
      <stop offset=".68" stop-color="#ffedcf" stop-opacity="0"/>
    </linearGradient>
  </defs>
  <path d="M23.648,2.5h-15.423c-1.099,0-1.989.93-1.989,2.085v22.629c0,1.147.889,2.085,1.989,2.085h15.423c1.099,0,1.989-.93,1.989-2.085V4.585c0-1.147-.89-2.085-1.989-2.085ZM15.719,6.294c-.671,0-1.208-.57-1.208-1.265s.545-1.265,1.208-1.265,1.208.569,1.208,1.265-.545,1.265-1.208,1.265Z" style="fill: url(#linear-gradient);"/>
  <path d="M23.643,2.567h-15.32c-1.094,0-1.977.921-1.977,2.069v22.478c0,1.139.883,2.069,1.977,2.069h15.32c1.094,0,1.977-.93,1.977-2.069V4.636c0-1.139-.883-2.069-1.977-2.069ZM15.76,6.336c-.665,0-1.203-.561-1.203-1.256s.538-1.256,1.203-1.256,1.203.561,1.203,1.256-.538,1.256-1.203,1.256Z" style="fill: url(#linear-gradient1);"/>
  <path d="M6.312,27.24c0,1.089.856,1.968,1.905,1.968h15.414c1.049,0,1.905-.879,1.905-1.968v-9.749H6.312v9.749Z" style="fill: #a261b5;"/>
  <path d="M23.598,2.626h-15.28c-1.091,0-1.972.888-1.972,1.977v.896l8.232-.017c-.067-.151-.101-.318-.101-.494,0-.687.562-1.248,1.25-1.248s1.25.561,1.25,1.248c0,.176-.034.343-.101.494l8.693.017v-.896c0-1.089-.881-1.968-1.972-1.968v-.008Z" style="fill: #a261b5;"/>
  <path d="M21.618,5.942l-.26.528h-.076l.243-.486h-.327v-.059h.42v.017Z" style="fill: #434549;"/>
  <path d="M21.718,6.445v-.067c.042.034.092.042.151.042.042,0,.084-.008.109-.025.025-.017.042-.042.042-.075,0-.067-.059-.109-.185-.109h-.05v-.05h.05c.109,0,.159-.033.159-.1,0-.059-.042-.092-.126-.092-.042,0-.092.017-.134.042v-.059s.092-.034.151-.034.101.008.134.034c.034.025.05.059.05.092,0,.075-.042.117-.134.142.05,0,.084.017.109.042.025.025.042.05.042.092,0,.05-.017.092-.067.117-.042.034-.101.042-.168.042-.059,0-.109-.008-.151-.025l.017-.008Z" style="fill: #434549;"/>
  <path d="M22.238,6.453v-.067c.042.025.092.033.134.033s.084-.008.109-.033c.025-.025.042-.05.042-.084s-.017-.067-.042-.084c-.025-.017-.067-.034-.125-.034h-.1v-.276h.318v.059h-.243v.159h.059c.067,0,.126.017.159.042.034.033.059.067.059.117s-.017.092-.059.126c-.042.034-.1.05-.167.05-.059,0-.109,0-.134-.025l-.008.017Z" style="fill: #434549;"/>
  <path d="M22.742,6.453v-.067c.042.025.092.033.134.033s.084-.008.109-.033c.025-.025.042-.05.042-.084s-.017-.067-.042-.084c-.025-.017-.067-.034-.125-.034h-.1v-.276h.318v.059h-.243v.159h.059c.067,0,.126.017.159.042.033.033.059.067.059.117s-.017.092-.059.126c-.042.034-.101.05-.167.05-.059,0-.109,0-.134-.025l-.008.017Z" style="fill: #434549;"/>
  <path d="M23.589,5.925v.059s-.067-.025-.109-.025c-.059,0-.101.025-.143.067-.034.042-.05.101-.05.176.034-.05.084-.075.151-.075.059,0,.101.017.134.042.034.033.05.067.05.126s-.017.101-.059.134c-.042.034-.084.05-.143.05-.067,0-.118-.025-.151-.067-.034-.042-.059-.101-.059-.184,0-.092.025-.176.076-.226.05-.059.109-.084.193-.084.042,0,.084,0,.109.017v-.008ZM23.43,6.177s-.067.008-.092.033c-.025.025-.034.05-.034.075,0,.033.008.067.034.092.025.025.059.042.092.042s.067-.008.092-.033c.025-.025.033-.05.033-.084,0-.042-.008-.067-.033-.092-.025-.025-.05-.033-.092-.033Z" style="fill: #434549;"/>
  <path d="M23.917,6.47c-.067,0-.118-.025-.151-.067-.034-.05-.05-.117-.05-.201,0-.1.017-.168.059-.218.042-.05.092-.075.168-.075.134,0,.201.092.201.276,0,.092-.017.159-.059.209-.042.05-.092.075-.16.075h-.008ZM23.925,5.959c-.092,0-.143.075-.143.234,0,.151.042.218.134.218s.134-.075.134-.226-.042-.234-.134-.234l.008.008Z" style="fill: #434549;"/>
  <path d="M24.361,6.177c-.076-.034-.118-.075-.118-.134,0-.042.017-.075.05-.101.034-.025.084-.034.143-.034.05,0,.092.008.126.034.034.025.05.05.05.092,0,.059-.042.109-.118.142.092.034.143.075.143.151,0,.042-.017.084-.059.109-.042.025-.092.042-.16.042-.059,0-.101-.017-.134-.042-.034-.025-.05-.059-.05-.101,0-.067.05-.117.143-.151l-.017-.008ZM24.42,6.21c-.084.025-.126.067-.126.117,0,.025.008.05.034.067s.059.025.092.025.067-.008.092-.025.034-.042.034-.067c0-.059-.042-.092-.134-.126l.008.008ZM24.529,6.043s-.008-.042-.025-.059c-.017-.017-.042-.025-.076-.025s-.059,0-.075.025c-.017.017-.034.033-.034.059,0,.05.034.084.109.109.076-.025.109-.059.109-.109h-.008Z" style="fill: #434549;"/>
  <path d="M21.383,27.148h1.485l-.898,1.859h-1.485l.898-1.859ZM9.107,28.999h.386l.898-1.859h-.386l-.898,1.859ZM14.175,28.999h.193l.898-1.859h-.193l-.898,1.859ZM13.797,28.999h.193l.898-1.859h-.193l-.898,1.859ZM12.497,28.999h.193l.898-1.859h-.193l-.898,1.859ZM25.36,27.148h-.772l-.889,1.843c.898-.117,1.603-.888,1.661-1.843ZM7.798,28.923l.856-1.775h-1.485l-.445.93c.243.402.621.712,1.074.846ZM17.858,28.999h1.485l.898-1.859h-1.485l-.898,1.859ZM15.005,28.999h2.509l.898-1.859h-2.509l-.898,1.859Z" style="fill: url(#linear-gradient2);"/>
  <path d="M24.479,15.372h-.168v1.876h.168v-1.876Z" style="fill: #434549;"/>
  <path d="M24.059,15.372h-.168v1.876h.168v-1.876Z" style="fill: #434549;"/>
  <path d="M23.615,15.372h-.168v1.876h.168v-1.876Z" style="fill: #434549;"/>
  <path d="M12.95,3.924s-.017-.025-.025-.034c0-.008-.017-.017-.025-.025-.008,0-.017-.017-.034-.017,0,0,.05-.017.067-.025.017-.008.034-.025.05-.042.017-.017.025-.034.033-.059,0-.017.008-.042.008-.067,0-.033,0-.059-.017-.084-.008-.025-.025-.042-.042-.059-.017-.017-.042-.025-.067-.033-.025,0-.059-.008-.084-.008h-.21v.712h.084v-.301h.109c.008,0,.025.008.033.017.008,0,.025.017.034.033.008.017.025.025.034.05l.117.201h.101l-.134-.218s-.017-.033-.025-.042h-.008ZM12.857,3.79s-.034.008-.059.008h-.118v-.26h.118c.05,0,.084.008.109.033.025.025.034.05.034.092,0,.025,0,.042-.008.059,0,.017-.017.034-.034.042-.017.008-.025.017-.05.025h.008Z" style="fill: #515253;"/>
  <path d="M11.28,3.857h.251v-.075h-.251v-.243h.276v-.075h-.36v.72h.377v-.075h-.293v-.251Z" style="fill: #515253;"/>
  <path d="M9.694,3.539h.201v.645h.084v-.645h.21v-.075h-.495v.075Z" style="fill: #515253;"/>
  <path d="M8.603,3.966v.109s-.017-.025-.025-.05l-.361-.561h-.109v.712h.084v-.62s.017.033.025.042l.369.569h.101v-.712h-.084v.511Z" style="fill: #515253;"/>
  <path d="M15.92,3.748l.05-.151s0-.025.008-.05c0,0,0,.042.008.05l.067.193s.067.025.109.042l-.142-.368h-.084l-.1.268s.05.008.075.017h.008Z" style="fill: #515253;"/>
  <path d="M7.034,3.463h-.084v.712h.084v-.712Z" style="fill: #515253;"/>
  <path d="M20.124,3.455c-.109,0-.193.033-.252.1-.059.067-.092.159-.092.276,0,.109.034.193.092.26.059.067.143.101.243.101s.185-.034.252-.101c.067-.067.092-.159.092-.276,0-.109-.033-.193-.092-.26-.059-.067-.143-.1-.235-.1h-.008ZM20.292,4.041c-.042.05-.109.075-.185.075s-.134-.025-.176-.084c-.042-.05-.067-.126-.067-.209s.025-.159.067-.209c.05-.05.109-.084.185-.084s.134.025.185.075c.042.05.067.126.067.218s-.025.168-.067.218h-.008Z" style="fill: #515253;"/>
  <path d="M23.329,3.463l-.277.712h.092l.076-.201h.302l.075.201h.092l-.277-.712h-.084ZM23.245,3.907l.109-.301s0-.025.008-.05c0,0,0,.042.008.05l.109.301h-.252.017Z" style="fill: #515253;"/>
  <path d="M24.772,4.108v-.645h-.084v.72h.368v-.075h-.285Z" style="fill: #515253;"/>
  <path d="M21.978,3.966v.109s-.017-.025-.025-.05l-.361-.561h-.109v.712h.084v-.62s.017.033.025.042l.369.569h.101v-.712h-.084v.511Z" style="fill: #515253;"/>
  <path d="M18.74,3.463h-.084v.712h.084v-.712Z" style="fill: #515253;"/>
  <path d="M14.208,3.614l.369.569h.101v-.712h-.084v.611s-.017-.025-.025-.05l-.361-.561h-.109v.712h.084v-.62s.017.033.025.042v.008Z" style="fill: #515253;"/>
  <path d="M17.162,3.539h.201v.645h.084v-.645h.21v-.075h-.495v.075Z" style="fill: #515253;"/>
  <path d="M15.727,3.806c-.688,0-1.25.561-1.25,1.265s.562,1.265,1.25,1.265,1.25-.561,1.25-1.265-.562-1.265-1.25-1.265ZM15.727,6.269c-.663,0-1.192-.536-1.192-1.206s.537-1.206,1.192-1.206,1.192.536,1.192,1.206-.537,1.206-1.192,1.206Z" style="fill: url(#linear-gradient3);"/>
  <path d="M25.284,19.149v5.854c-.604-.268-1.997-5.151-2.819-5.544-1.309-.628-3.172,3.501-4.514,1.399-1.729-2.697-3.667-3.007-4.674-3.007-.831,0-1.922,3.526-3.113,3.107-2.266-.796-3.189.084-3.692-.201v-4.095c0-1.315.864-2.32,1.93-2.253l14.944,2.245c1.066.067,1.93,1.189,1.93,2.496h.008Z" style="fill: url(#linear-gradient4); isolation: isolate; opacity: .31;"/>
  <path d="M10.684,24.317l-.503-2.044.017,4.095h-1.15v-6.834h1.309l.764,2.73.755-2.73h1.276v6.834l-1.099.034-.034-4.012-.487,1.935h-.831l-.017-.008Z" style="fill: #e4dfd0;"/>
  <path d="M17.128,26.36l-.243-1.625h-1.309l-.277,1.625h-1.242l1.309-6.834h1.754l1.309,6.834h-1.309.008ZM16.709,23.563l-.428-2.881-.487,2.881h.923-.008Z" style="fill: #e4dfd0;"/>
  <path d="M19.302,26.36v-6.834h1.938c.587,0,1.049.151,1.384.461.336.302.495.771.495,1.399v1.08c0,.611-.159,1.064-.487,1.348-.319.285-.789.427-1.384.427h-.604v2.127h-1.343v-.008ZM20.644,23.077h.512c.185,0,.327-.05.42-.159.092-.109.143-.31.143-.603v-.804c0-.31-.05-.519-.143-.628-.092-.109-.235-.168-.42-.168h-.512v2.37-.008Z" style="fill: #e4dfd0;"/>
  <path d="M9.341,19.225c-.117,0-.201-.025-.26-.084-.059-.059-.084-.142-.084-.26v-.343c0-.117.025-.201.084-.26.059-.059.143-.092.26-.092s.193.025.243.084c.05.059.084.151.084.276h-.235c0-.067-.008-.126-.025-.151-.017-.025-.042-.042-.076-.042-.042,0-.067.017-.084.042-.017.025-.025.084-.025.151v.302c0,.067,0,.117.025.151.025.034.042.042.084.042.034,0,.059-.017.076-.034.017-.025.025-.075.025-.159l.235.017c0,.126-.034.218-.084.276-.05.059-.134.084-.252.084h.008Z" style="fill: #e4dfd0;"/>
  <path d="M10.953,19.225c-.101,0-.185-.033-.243-.092-.059-.059-.084-.142-.084-.243v-.368c0-.109.025-.193.084-.251.059-.059.134-.092.243-.092s.185.034.243.092c.059.059.084.142.084.251v.368c0,.101-.025.184-.084.243-.059.059-.134.092-.243.092ZM10.953,19.049s.059-.017.067-.034c.017-.025.017-.075.017-.142v-.327c0-.067,0-.117-.017-.142-.017-.025-.034-.042-.067-.042s-.059.008-.067.042c-.017.025-.017.075-.017.142v.327c0,.067,0,.117.017.142.017.025.034.034.067.034Z" style="fill: #e4dfd0;"/>
  <path d="M12.513,18.907l-.084-.352.025.653h-.21v-1.013h.21l.126.469.126-.469h.201v1.013h-.21l.025-.636-.084.335h-.143.017Z" style="fill: #e4dfd0;"/>
  <path d="M14.141,18.907l-.084-.352.025.653h-.21v-1.013h.21l.126.469.126-.469h.201v1.013h-.21l.025-.636-.084.335h-.143.017Z" style="fill: #e4dfd0;"/>
  <path d="M15.844,19.225c-.117,0-.193-.034-.252-.092-.05-.059-.084-.151-.084-.276v-.662h.235v.662c0,.067,0,.117.017.142.017.025.033.034.075.034s.059-.008.076-.034c.017-.025.017-.075.017-.142v-.662h.235v.662c0,.126-.025.218-.084.276-.059.059-.134.092-.252.092h.017Z" style="fill: #e4dfd0;"/>
  <path d="M17.531,19.217l-.193-.687v.687h-.201v-1.013h.252l.21.72v-.72h.201v1.013h-.269Z" style="fill: #e4dfd0;"/>
  <path d="M18.773,19.217v-.176h.21v-.662h-.21v-.176h.663v.176h-.21v.662h.21v.176h-.663Z" style="fill: #e4dfd0;"/>
  <path d="M20.619,19.217v-.837h-.235v-.176h.705v.176h-.235v.837h-.235Z" style="fill: #e4dfd0;"/>
  <path d="M22.482,19.217h-.235v-.377l-.252-.636h.235l.134.402.134-.402h.235l-.252.636v.377Z" style="fill: #e4dfd0;"/>
  <g>
    <path d="M10.248,9.046c-.008.007-.191.044-.22.045-.356.011-.575-.216-.943.013-.709.441-1.057,2.181-.955,2.953.136,1.028.847,1.676,1.894,1.706.377.011.819-.285.834-.688.018-.482-.514-1.34-1.009-1.433-.2-.037-.37.092-.551.087-.207-.007-.342-.222-.141-.331.151-.082.5-.21.673-.269.33-.113,1.031-.26,1.35-.121.029.012.007.056.019.068.01.01.141.019.178.077.054.084-.142.107-.187.128-.149.071-.221.133-.405.126.137.151.322.315.434.484.047.07.24.43.256.495.016.066-.02.151-.026.217-.08-.065-.053-.159-.106-.255-.013-.024-.006-.075-.051-.022l.121.507-.024.109-.024-.121v.362l.036-.169c.083-.071.045.187.037.226-.003.014-.096.026-.049.064.115.091.12-.3.193-.314-.025.435-.256.783-.67.937-1,.373-2.465.267-3.184-.598-.72-.866-.584-2.138-.206-3.13.403-1.056.936-1.508,2.089-1.535.336-.008.695.017.979.206l-.275.063c-.055.011-.053.1-.068.113ZM10.495,13.786c.169-.056.323-.246.386-.41-.092.052-.13.192-.2.258-.043.041-.16.067-.186.152Z"/>
    <path d="M16.124,9.147c.005.006.086-.068.133-.063.008,0,.145.063.151.069.011.011.093.225.122.276.293.518.586.905.956,1.363.089.11.187.294.279.39.079.083.226.143.322.216.295.223.803.654.994.963.031.05.035.085.041.141l.069.003c-.043.15.167.28.235.405.025.045.107.259.077.294-.054-.002-.119.037-.166.039-.037.001-.056-.036-.062-.036-.022.001-.038.069-.059.082-.054.033-.288-.031-.338-.073-.028-.023-.089-.173-.133-.229-.103-.132-.298-.264-.424-.397-.302-.319-.89-1.095-1.364-1.096-.176,0-.335.137-.448.254l.048.866c.081.221.062.472.003.697-.077.073-.232-.012-.283-.003-.026.004-.025.063-.05.068-.03.006-.078-.019-.117-.021-.024-.001-.052.018-.073.016-.053-.005-.086-.055-.132-.077-.023-.011-.069.015-.099-.025-.145-.669-.275-1.349-.336-2.033-.049-.546-.029-1.098-.074-1.642l.025-.666c.092.049.148-.076.254-.074.048,0,.161.084.251.088.056.002.151-.079.216.052l-.021.152ZM16.293,11.249l-.048-.64-.048-.23c.004.277.014.559.048.834.004.033.017.077.048.036ZM17.646,11.153l-.7-.773c0,.049.044.095.073.132.138.181.3.347.446.521.056.067.033.129.182.119ZM16.293,10.645v-.169h-.024v.169h.024ZM16.84,10.92c-.077-.084-.253-.248-.342-.322-.022-.018-.14-.115-.156-.097,0,.137.12.66.061.75-.016.024-.068.009-.061.047.205-.018.41-.145.604-.218.006-.008-.087-.14-.105-.16Z"/>
    <path d="M12.035,8.769c.006.003.005.036.023.04.142.032.328-.004.469.085v.057c.149.073.569.165.674.257.046.04.042.085.075.119.067.07.196.119.276.183.285.23.591.557.689.917l.072-.072c.032.07,0,.142.006.199.002.02.038.042.041.077.003.044-.058.108.026.134l.024-.072v.145s.048-.048.048-.048l-.024.169.072-.072c0,.326-.07.518-.393.633-.051.018-.184.004-.162.055.623.637,1.314,1.221,1.897,1.897.137.159.505.597.552.779.016.06-.016.18-.06.081-.223-.504-.509-.839-.917-1.21-.257-.319-.578-.582-.881-.858l-.036.012.62.601c.313.406.733.772,1,1.211.051.083.121.176.11.278-.018.036-.218.105-.262.093-.036-.01-.069-.068-.102-.094-.025-.02-.071-.017-.087-.039-.019-.026-.022-.103-.042-.146-.281-.62-1.317-1.503-1.849-1.956-.189-.161-.387-.315-.584-.467l.036.096c-.071.051-.239-.223-.278-.072-.027-.011-.072-.186-.085-.084.133.292.228.597.315.906.061.019-.045-.178.036-.097.076.075.065.197.106.25.021.028.111.018.099.076-.019.086-.139.04-.17.05-.037.012-.085.094-.158.106-.136.024-.161-.056-.219-.065-.036-.006-.101.034-.128.016-.032-.021-.021-.197-.031-.247-.035-.176-.215-.804-.308-.942-.02-.03-.062-.01-.093-.057-.126-.194-.258-.596-.378-.83-.231-.45-.8-1.276-.868-1.722-.011-.075-.104-.14.057-.199.084-.031.751-.192.791-.173ZM12.379,9.316c-.073-.083-.234-.092-.338-.12.073.083.234.092.338.12ZM12.862,9.534l-.845-.265c-.028.023.292.607.328.651.064.077.186.116.223.188.057.11.035.266.059.376.04.184.118.378.141.572.086.044.171-.07.181-.071.23-.007.456.21.693.214.223-.156.291-.449.257-.707-.059-.44-.742-.924-1.133-1.066-.023-.008-.079-.032-.073.013l.169.097ZM12.645,9.365l-.169-.024.137.069c.041.022.041-.035.032-.044ZM14.046,10.67c.02-.199-.075-.421-.217-.556l.217.556Z"/>
    <path d="M25.112,12.095c-.003.029.009.065-.005.091-.041.074-.711.204-.831.219-.127.016-.275.041-.395.003l.344-.072.042-.072c-.078-.013-.152.022-.229.025-.747.032-1.622-.159-2.325.14-.077.033-.146.124-.247.099-.026-.148-.056-.3-.073-.449-.01-.086-.012-.169-.024-.264-.124-1.023-.537-2.114-.812-3.126-.023-.084-.097-.315-.062-.376.076-.131.144-.078.22-.098.05-.013.076-.098.157-.01l.024-.048.084.097.015-.072c.173.057.019-.178.034-.194l.145.048-.012-.072.09.104c.442,1.328.772,2.689,1.033,4.065.184-.021.383-.112.569-.112.542-.001,1.136.126,1.667.125.09,0,.55-.095.592-.05Z"/>
    <path d="M20.352,13.472c-.07-.005-.137.031-.157-.048-.024.024-.05.05-.084.061-.215.068-.297.071-.481-.065.041-.146-.02-.271-.058-.412-.222-.814-.556-1.587-.797-2.393-.174-.583-.251-1.199-.522-1.747.003-.025.259-.097.289-.097.067,0,.106.055.167.061l-.024-.096c.346-.058.432.355.514.61.133.41.218.838.344,1.251.209.685.461,1.362.652,2.054.074.268.175.539.157.821Z"/>
    <path d="M23.058,12.385l-.61.103c-.145.135-.302.121-.454.174-.052.018-.077.076-.133.086-.066.012-.391-.003-.422-.061-.023-.042.045-.044.068-.052.173-.062.353-.161.53-.195.326-.063.69-.052,1.02-.054Z"/>
  </g>
</svg>