<?xml version="1.0" encoding="UTF-8"?>
<svg id="Layer_1" xmlns="http://www.w3.org/2000/svg" width="32" height="32" version="1.1" xmlns:xlink="http://www.w3.org/1999/xlink" viewBox="0 0 32 32">
  <!-- Generator: Adobe Illustrator 29.5.0, SVG Export Plug-In . SVG Version: 2.1.0 Build 137)  -->
  <defs>
    <linearGradient id="linear-gradient" x1="24.98" y1="30.989" x2="6.893" y2="5.211" gradientTransform="translate(0 34) scale(1 -1)" gradientUnits="userSpaceOnUse">
      <stop offset="0" stop-color="#fdf9f0"/>
      <stop offset="1" stop-color="#a29884"/>
    </linearGradient>
    <linearGradient id="linear-gradient1" x1="24.947" y1="30.941" x2="7.018" y2="5.311" gradientTransform="translate(0 34) scale(1 -1)" gradientUnits="userSpaceOnUse">
      <stop offset="0" stop-color="#ede8d9"/>
      <stop offset=".36" stop-color="#f4eee0"/>
      <stop offset="1" stop-color="#fff7eb"/>
    </linearGradient>
    <linearGradient id="linear-gradient2" x1="6.723" y1="5.927" x2="25.36" y2="5.927" gradientTransform="translate(0 34) scale(1 -1)" gradientUnits="userSpaceOnUse">
      <stop offset="0" stop-color="#c9c5b8"/>
      <stop offset="1" stop-color="#e4dfd0"/>
    </linearGradient>
    <linearGradient id="linear-gradient3" x1="14.936" y1="27.627" x2="16.526" y2="30.243" gradientTransform="translate(0 34) scale(1 -1)" gradientUnits="userSpaceOnUse">
      <stop offset="0" stop-color="#fdf9f0"/>
      <stop offset="1" stop-color="#a29884"/>
    </linearGradient>
    <linearGradient id="linear-gradient4" x1="15.85" y1="12.58" x2="16.196" y2="20.16" gradientTransform="translate(0 34) scale(1 -1)" gradientUnits="userSpaceOnUse">
      <stop offset=".05" stop-color="#fffaeb" stop-opacity=".7"/>
      <stop offset=".68" stop-color="#ffedcf" stop-opacity="0"/>
    </linearGradient>
  </defs>
  <path d="M23.648,2.5h-15.423c-1.099,0-1.989.93-1.989,2.085v22.629c0,1.147.889,2.085,1.989,2.085h15.423c1.099,0,1.989-.93,1.989-2.085V4.585c0-1.147-.89-2.085-1.989-2.085ZM15.719,6.294c-.671,0-1.208-.57-1.208-1.265s.545-1.265,1.208-1.265,1.208.569,1.208,1.265-.545,1.265-1.208,1.265Z" style="fill: url(#linear-gradient);"/>
  <path d="M23.643,2.567h-15.32c-1.094,0-1.977.921-1.977,2.069v22.478c0,1.139.883,2.069,1.977,2.069h15.32c1.094,0,1.977-.93,1.977-2.069V4.636c0-1.139-.883-2.069-1.977-2.069ZM15.76,6.336c-.665,0-1.203-.561-1.203-1.256s.538-1.256,1.203-1.256,1.203.561,1.203,1.256-.538,1.256-1.203,1.256Z" style="fill: url(#linear-gradient1);"/>
  <path d="M6.312,27.24c0,1.089.856,1.968,1.905,1.968h15.414c1.049,0,1.905-.879,1.905-1.968v-9.749H6.312v9.749Z" style="fill: #4b7dc4;"/>
  <path d="M23.598,2.626h-15.28c-1.091,0-1.972.888-1.972,1.977v.896l8.232-.017c-.067-.151-.101-.318-.101-.494,0-.687.562-1.248,1.25-1.248s1.25.561,1.25,1.248c0,.176-.034.343-.101.494l8.693.017v-.896c0-1.089-.881-1.968-1.972-1.968v-.008Z" style="fill: #4b7dc4;"/>
  <path d="M21.618,5.942l-.26.528h-.076l.243-.486h-.327v-.059h.42v.017Z" style="fill: #434549;"/>
  <path d="M21.718,6.445v-.067c.042.034.092.042.151.042.042,0,.084-.008.109-.025.025-.017.042-.042.042-.075,0-.067-.059-.109-.185-.109h-.05v-.05h.05c.109,0,.159-.033.159-.1,0-.059-.042-.092-.126-.092-.042,0-.092.017-.134.042v-.059s.092-.034.151-.034.101.008.134.034c.034.025.05.059.05.092,0,.075-.042.117-.134.142.05,0,.084.017.109.042.025.025.042.05.042.092,0,.05-.017.092-.067.117-.042.034-.101.042-.168.042-.059,0-.109-.008-.151-.025l.017-.008Z" style="fill: #434549;"/>
  <path d="M22.238,6.453v-.067c.042.025.092.033.134.033s.084-.008.109-.033c.025-.025.042-.05.042-.084s-.017-.067-.042-.084c-.025-.017-.067-.034-.125-.034h-.1v-.276h.318v.059h-.243v.159h.059c.067,0,.126.017.159.042.034.033.059.067.059.117s-.017.092-.059.126c-.042.034-.1.05-.167.05-.059,0-.109,0-.134-.025l-.008.017Z" style="fill: #434549;"/>
  <path d="M22.742,6.453v-.067c.042.025.092.033.134.033s.084-.008.109-.033c.025-.025.042-.05.042-.084s-.017-.067-.042-.084c-.025-.017-.067-.034-.125-.034h-.1v-.276h.318v.059h-.243v.159h.059c.067,0,.126.017.159.042.033.033.059.067.059.117s-.017.092-.059.126c-.042.034-.101.05-.167.05-.059,0-.109,0-.134-.025l-.008.017Z" style="fill: #434549;"/>
  <path d="M23.589,5.925v.059s-.067-.025-.109-.025c-.059,0-.101.025-.143.067-.034.042-.05.101-.05.176.034-.05.084-.075.151-.075.059,0,.101.017.134.042.034.033.05.067.05.126s-.017.101-.059.134c-.042.034-.084.05-.143.05-.067,0-.118-.025-.151-.067-.034-.042-.059-.101-.059-.184,0-.092.025-.176.076-.226.05-.059.109-.084.193-.084.042,0,.084,0,.109.017v-.008ZM23.43,6.177s-.067.008-.092.033c-.025.025-.034.05-.034.075,0,.033.008.067.034.092.025.025.059.042.092.042s.067-.008.092-.033c.025-.025.033-.05.033-.084,0-.042-.008-.067-.033-.092-.025-.025-.05-.033-.092-.033Z" style="fill: #434549;"/>
  <path d="M23.917,6.47c-.067,0-.118-.025-.151-.067-.034-.05-.05-.117-.05-.201,0-.1.017-.168.059-.218.042-.05.092-.075.168-.075.134,0,.201.092.201.276,0,.092-.017.159-.059.209-.042.05-.092.075-.16.075h-.008ZM23.925,5.959c-.092,0-.143.075-.143.234,0,.151.042.218.134.218s.134-.075.134-.226-.042-.234-.134-.234l.008.008Z" style="fill: #434549;"/>
  <path d="M24.361,6.177c-.076-.034-.118-.075-.118-.134,0-.042.017-.075.05-.101.034-.025.084-.034.143-.034.05,0,.092.008.126.034.034.025.05.05.05.092,0,.059-.042.109-.118.142.092.034.143.075.143.151,0,.042-.017.084-.059.109-.042.025-.092.042-.16.042-.059,0-.101-.017-.134-.042-.034-.025-.05-.059-.05-.101,0-.067.05-.117.143-.151l-.017-.008ZM24.42,6.21c-.084.025-.126.067-.126.117,0,.025.008.05.034.067s.059.025.092.025.067-.008.092-.025.034-.042.034-.067c0-.059-.042-.092-.134-.126l.008.008ZM24.529,6.043s-.008-.042-.025-.059c-.017-.017-.042-.025-.076-.025s-.059,0-.075.025c-.017.017-.034.033-.034.059,0,.05.034.084.109.109.076-.025.109-.059.109-.109h-.008Z" style="fill: #434549;"/>
  <path d="M21.383,27.148h1.485l-.898,1.859h-1.485l.898-1.859ZM9.107,28.999h.386l.898-1.859h-.386l-.898,1.859ZM14.175,28.999h.193l.898-1.859h-.193l-.898,1.859ZM13.797,28.999h.193l.898-1.859h-.193l-.898,1.859ZM12.497,28.999h.193l.898-1.859h-.193l-.898,1.859ZM25.36,27.148h-.772l-.889,1.843c.898-.117,1.603-.888,1.661-1.843ZM7.798,28.923l.856-1.775h-1.485l-.445.93c.243.402.621.712,1.074.846ZM17.858,28.999h1.485l.898-1.859h-1.485l-.898,1.859ZM15.005,28.999h2.509l.898-1.859h-2.509l-.898,1.859Z" style="fill: url(#linear-gradient2);"/>
  <path d="M24.479,15.372h-.168v1.876h.168v-1.876Z" style="fill: #434549;"/>
  <path d="M24.059,15.372h-.168v1.876h.168v-1.876Z" style="fill: #434549;"/>
  <path d="M23.615,15.372h-.168v1.876h.168v-1.876Z" style="fill: #434549;"/>
  <path d="M12.95,3.924s-.017-.025-.025-.034c0-.008-.017-.017-.025-.025-.008,0-.017-.017-.034-.017,0,0,.05-.017.067-.025.017-.008.034-.025.05-.042.017-.017.025-.034.033-.059,0-.017.008-.042.008-.067,0-.033,0-.059-.017-.084-.008-.025-.025-.042-.042-.059-.017-.017-.042-.025-.067-.033-.025,0-.059-.008-.084-.008h-.21v.712h.084v-.301h.109c.008,0,.025.008.033.017.008,0,.025.017.034.033.008.017.025.025.034.05l.117.201h.101l-.134-.218s-.017-.033-.025-.042h-.008ZM12.857,3.79s-.034.008-.059.008h-.118v-.26h.118c.05,0,.084.008.109.033.025.025.034.05.034.092,0,.025,0,.042-.008.059,0,.017-.017.034-.034.042-.017.008-.025.017-.05.025h.008Z" style="fill: #515253;"/>
  <path d="M11.28,3.857h.251v-.075h-.251v-.243h.276v-.075h-.36v.72h.377v-.075h-.293v-.251Z" style="fill: #515253;"/>
  <path d="M9.694,3.539h.201v.645h.084v-.645h.21v-.075h-.495v.075Z" style="fill: #515253;"/>
  <path d="M8.603,3.966v.109s-.017-.025-.025-.05l-.361-.561h-.109v.712h.084v-.62s.017.033.025.042l.369.569h.101v-.712h-.084v.511Z" style="fill: #515253;"/>
  <path d="M15.92,3.748l.05-.151s0-.025.008-.05c0,0,0,.042.008.05l.067.193s.067.025.109.042l-.142-.368h-.084l-.1.268s.05.008.075.017h.008Z" style="fill: #515253;"/>
  <path d="M7.034,3.463h-.084v.712h.084v-.712Z" style="fill: #515253;"/>
  <path d="M20.124,3.455c-.109,0-.193.033-.252.1-.059.067-.092.159-.092.276,0,.109.034.193.092.26.059.067.143.101.243.101s.185-.034.252-.101c.067-.067.092-.159.092-.276,0-.109-.033-.193-.092-.26-.059-.067-.143-.1-.235-.1h-.008ZM20.292,4.041c-.042.05-.109.075-.185.075s-.134-.025-.176-.084c-.042-.05-.067-.126-.067-.209s.025-.159.067-.209c.05-.05.109-.084.185-.084s.134.025.185.075c.042.05.067.126.067.218s-.025.168-.067.218h-.008Z" style="fill: #515253;"/>
  <path d="M23.329,3.463l-.277.712h.092l.076-.201h.302l.075.201h.092l-.277-.712h-.084ZM23.245,3.907l.109-.301s0-.025.008-.05c0,0,0,.042.008.05l.109.301h-.252.017Z" style="fill: #515253;"/>
  <path d="M24.772,4.108v-.645h-.084v.72h.368v-.075h-.285Z" style="fill: #515253;"/>
  <path d="M21.978,3.966v.109s-.017-.025-.025-.05l-.361-.561h-.109v.712h.084v-.62s.017.033.025.042l.369.569h.101v-.712h-.084v.511Z" style="fill: #515253;"/>
  <path d="M18.74,3.463h-.084v.712h.084v-.712Z" style="fill: #515253;"/>
  <path d="M14.208,3.614l.369.569h.101v-.712h-.084v.611s-.017-.025-.025-.05l-.361-.561h-.109v.712h.084v-.62s.017.033.025.042v.008Z" style="fill: #515253;"/>
  <path d="M17.162,3.539h.201v.645h.084v-.645h.21v-.075h-.495v.075Z" style="fill: #515253;"/>
  <path d="M15.727,3.806c-.688,0-1.25.561-1.25,1.265s.562,1.265,1.25,1.265,1.25-.561,1.25-1.265-.562-1.265-1.25-1.265ZM15.727,6.269c-.663,0-1.192-.536-1.192-1.206s.537-1.206,1.192-1.206,1.192.536,1.192,1.206-.537,1.206-1.192,1.206Z" style="fill: url(#linear-gradient3);"/>
  <path d="M25.284,19.149v5.854c-.604-.268-1.997-5.151-2.819-5.544-1.309-.628-3.172,3.501-4.514,1.399-1.729-2.697-3.667-3.007-4.674-3.007-.831,0-1.922,3.526-3.113,3.107-2.266-.796-3.189.084-3.692-.201v-4.095c0-1.315.864-2.32,1.93-2.253l14.944,2.245c1.066.067,1.93,1.189,1.93,2.496h.008Z" style="fill: url(#linear-gradient4); isolation: isolate; opacity: .31;"/>
  <path d="M10.684,24.317l-.503-2.044.017,4.095h-1.15v-6.834h1.309l.764,2.73.755-2.73h1.276v6.834l-1.099.034-.034-4.012-.487,1.935h-.831l-.017-.008Z" style="fill: #e4dfd0;"/>
  <path d="M17.128,26.36l-.243-1.625h-1.309l-.277,1.625h-1.242l1.309-6.834h1.754l1.309,6.834h-1.309.008ZM16.709,23.563l-.428-2.881-.487,2.881h.923-.008Z" style="fill: #e4dfd0;"/>
  <path d="M19.302,26.36v-6.834h1.938c.587,0,1.049.151,1.384.461.336.302.495.771.495,1.399v1.08c0,.611-.159,1.064-.487,1.348-.319.285-.789.427-1.384.427h-.604v2.127h-1.343v-.008ZM20.644,23.077h.512c.185,0,.327-.05.42-.159.092-.109.143-.31.143-.603v-.804c0-.31-.05-.519-.143-.628-.092-.109-.235-.168-.42-.168h-.512v2.37-.008Z" style="fill: #e4dfd0;"/>
  <path d="M9.341,19.225c-.117,0-.201-.025-.26-.084-.059-.059-.084-.142-.084-.26v-.343c0-.117.025-.201.084-.26.059-.059.143-.092.26-.092s.193.025.243.084c.05.059.084.151.084.276h-.235c0-.067-.008-.126-.025-.151-.017-.025-.042-.042-.076-.042-.042,0-.067.017-.084.042-.017.025-.025.084-.025.151v.302c0,.067,0,.117.025.151.025.034.042.042.084.042.034,0,.059-.017.076-.034.017-.025.025-.075.025-.159l.235.017c0,.126-.034.218-.084.276-.05.059-.134.084-.252.084h.008Z" style="fill: #e4dfd0;"/>
  <path d="M10.953,19.225c-.101,0-.185-.033-.243-.092-.059-.059-.084-.142-.084-.243v-.368c0-.109.025-.193.084-.251.059-.059.134-.092.243-.092s.185.034.243.092c.059.059.084.142.084.251v.368c0,.101-.025.184-.084.243-.059.059-.134.092-.243.092ZM10.953,19.049s.059-.017.067-.034c.017-.025.017-.075.017-.142v-.327c0-.067,0-.117-.017-.142-.017-.025-.034-.042-.067-.042s-.059.008-.067.042c-.017.025-.017.075-.017.142v.327c0,.067,0,.117.017.142.017.025.034.034.067.034Z" style="fill: #e4dfd0;"/>
  <path d="M12.513,18.907l-.084-.352.025.653h-.21v-1.013h.21l.126.469.126-.469h.201v1.013h-.21l.025-.636-.084.335h-.143.017Z" style="fill: #e4dfd0;"/>
  <path d="M14.141,18.907l-.084-.352.025.653h-.21v-1.013h.21l.126.469.126-.469h.201v1.013h-.21l.025-.636-.084.335h-.143.017Z" style="fill: #e4dfd0;"/>
  <path d="M15.844,19.225c-.117,0-.193-.034-.252-.092-.05-.059-.084-.151-.084-.276v-.662h.235v.662c0,.067,0,.117.017.142.017.025.033.034.075.034s.059-.008.076-.034c.017-.025.017-.075.017-.142v-.662h.235v.662c0,.126-.025.218-.084.276-.059.059-.134.092-.252.092h.017Z" style="fill: #e4dfd0;"/>
  <path d="M17.531,19.217l-.193-.687v.687h-.201v-1.013h.252l.21.72v-.72h.201v1.013h-.269Z" style="fill: #e4dfd0;"/>
  <path d="M18.773,19.217v-.176h.21v-.662h-.21v-.176h.663v.176h-.21v.662h.21v.176h-.663Z" style="fill: #e4dfd0;"/>
  <path d="M20.619,19.217v-.837h-.235v-.176h.705v.176h-.235v.837h-.235Z" style="fill: #e4dfd0;"/>
  <path d="M22.482,19.217h-.235v-.377l-.252-.636h.235l.134.402.134-.402h.235l-.252.636v.377Z" style="fill: #e4dfd0;"/>
  <g>
    <path d="M9.382,11.134c.145.021.331-.152.456-.061.179.131.11.549.101.743-.062.086-.304.223-.289.321l.523.975c.005.086-.033.025-.054-.005-.138-.204-.245-.435-.357-.654-.061-.003-.017.082-.006.109.071.177.232.433.334.603.216.358.459.736.775,1.012.128.025.319-.421.488-.373.06.017.104.131.107.189.005.126-.032.347-.096.457-.167.287-.41.211-.664.097-.594-.268-1.184-1.537-1.486-2.116-.024-.047-.086-.048-.067-.154-.321.075-.678.184-1.011.147-.115-.013-.211-.094-.317-.062-.049.038-.083.268-.109.332-.157.387-.123.384-.183.79-.068.452-.245.134-.513.048-.027-.148.012-.291.039-.435.051-.27.271-.832.278-1.043.003-.078-.064-.123-.053-.195.013-.088.158-.245.202-.357.201-.52.315-1.197.482-1.745.101-.332.302-1.066.512-1.305.319-.364.407.1.534.317.09.154.261.285.258.475-.001.077-.05.137-.056.207-.05.545.187,1.136.174,1.682ZM8.766,11.427c-.034-.07-.14-.487-.219-.468-.066.036-.051.169-.082.199-.012.012-.057-.001-.081.025-.056.062-.103.245-.123.266-.026.026-.13.008-.109.095l.615-.117Z"/>
    <path d="M14.739,10.69c-.006.012-.172.113-.141.209.325-.099.646-.209.995-.174.038.178.146.32.027.507-.07.109-.527.238-.68.316-.175.088-.31.21-.483.293l-.004.376.1-.025.115.11c.21-.181,1.132-.712,1.367-.599.152.073.095.431-.029.528-.097.075-.434.193-.576.273-.168.094-.584.342-.711.461-.1.094-.125.314-.248.306-.046-.003-.337-.153-.37-.19-.055-.063-.065-.163-.079-.243-.115-.66-.142-1.49-.127-2.161.003-.123.051-.244.032-.381-.021-.156-.218-.202-.095-.414.03-.052.17-.24.211-.287.044-.05.144-.158.203-.177.132-.043.22.032.331.011.147-.028.503-.234.703-.295.183-.056.807-.227.944-.079.007.007.093.158.096.167.022.062.008.149.025.216.03.119.152.356.039.42-.257.071-.518.134-.768.229-.147.056-.804.352-.869.45-.052.078-.002.143-.008.154Z"/>
    <path d="M23.714,11.578l-.035.978c-.014.078.163.405,0,.382-.326-.216-.557-.222-.681-.638-.032-.109-.06-.479-.092-.523-.028-.039-.092-.026-.133-.028l.085-.106c-.1-.142-.046-.287-.085-.45-.111.164-.434-.1-.483-.206-.043-.092.028-.171.009-.27-.024-.127-.191-.307-.204-.458-.256.036-.161-.194-.178-.332-.029-.233-.155-.21.036-.447.352-.439.514.158.69.392.156.207.289.403.447.608.054.07.046.184.132.152.083-.031.284-.366.333-.458.26-.494.427-1.442.873-1.765.243-.176.268.157.331.285.067.137.155.281.236.411.009.033-.021.206-.033.249-.164.608-.657,1.513-1.003,2.044l-.245.18Z"/>
    <path d="M21.609,9.308c.042.033.104.035.137.083-.095.084-.161.048-.185.195-.042.253.241.433.052.639-.097.106-.249.074-.376.122-.363.136-.945.671-1.189.979-.152.192-.277.273-.045.483.252.228.344.141.615.144.107.001.222.06.323.061.234.003.62-.128.82-.119.023.001.295.094.308.104.094.069-.028.23-.048.3-.054.19.008.222-.226.336-.244.12-.855.074-1.148.053-.542-.039-1.576-.277-1.598-.954-.003-.096.069-.501.096-.607.126-.509.742-1.279,1.214-1.511.264-.13.523-.265.801-.371.099-.038.128-.134.261-.087.088.03.136.111.187.151Z"/>
    <path d="M17.703,11.925l-.351-.439c.052.205.201.397.338.555.055.064.147-.146.165-.184.298-.617.256-1.225.321-1.877.022-.227.068-.525.335-.574.288-.053.192.164.225.329.025.124.202.305.193.409-.237.556-.238,1.158-.449,1.721-.047.127-.34.769-.426.807-.026.011-.037.013-.065.009-.059-.008-.473-.233-.541-.282-.243-.173-.341-.389-.506-.622l-.152,1.064-.043.046c-.188-.016-.454-.045-.452-.276.003-.327.099-.739.119-1.084.038-.64.045-1.235.11-1.883.005-.047-.021-.089-.015-.132.01-.068.162-.251.226-.272.381-.126.357.25.465.506.033.079.131.179.145.236.023.088.087.53.084.614-.01.318-.129.613.064.938l.21.39Z"/>
    <path d="M11.744,11.065c-.04.054-.142.109-.179.158-.106.142-.339.748-.303.916.063.287.594.585.881.541.226-.035.611-.373.681-.374.197-.002.09.432.042.534-.098.206-.493.381-.716.377-.355-.007-1.152-.441-1.319-.764-.297-.573.105-1.518.371-2.062.181-.37.602-1.072.984-1.242.538-.24.645.41.669.784-.223.081-.355.2-.515.365-.239.246-.397.497-.596.766Z"/>
    <path d="M13.022,12.856c-.155-.133.235-.883.139-1.106-.325.057-.652.209-.974.08-.079-.031-.376-.204-.398-.277-.057-.193.17-.403.36-.391.092.006.162.062.263.061.264-.004,1.063-.302,1.243.017.055.098.043.724.029.872-.026.269-.126.447-.224.684-.025.061-.029.193-.083.212-.095.019-.16-.065-.236-.111-.037-.023-.1-.025-.119-.041Z"/>
  </g>
</svg>