<svg width="32" height="32" viewBox="0 0 32 32" fill="none" xmlns="http://www.w3.org/2000/svg">
<g clip-path="url(#clip0_90_69)">
<path d="M23.4 3H7.99C6.89 3 6 3.93 6 5.09V27.75C6 28.9 6.89 29.84 7.99 29.84H23.4C24.5 29.84 25.39 28.91 25.39 27.75V5.09C25.39 3.94 24.5 3 23.4 3ZM15.47 6.8C14.8 6.8 14.26 6.23 14.26 5.53C14.26 4.83 14.8 4.26 15.47 4.26C16.14 4.26 16.68 4.83 16.68 5.53C16.68 6.23 16.14 6.8 15.47 6.8Z" fill="url(#paint0_linear_90_69)"/>
<path d="M23.34 3.06H8.08C6.99 3.06 6.11 3.99 6.11 5.14V27.64C6.11 28.78 6.99 29.71 8.08 29.71H23.35C24.44 29.71 25.32 28.78 25.32 27.64V5.14C25.32 4 24.44 3.07 23.35 3.07L23.34 3.06ZM15.49 6.84C14.83 6.84 14.29 6.28 14.29 5.58C14.29 4.88 14.83 4.32 15.49 4.32C16.15 4.32 16.69 4.88 16.69 5.58C16.69 6.28 16.15 6.84 15.49 6.84Z" fill="url(#paint1_linear_90_69)"/>
<path d="M6.07 27.77C6.07 28.86 6.92 29.74 7.97 29.74H23.37C24.42 29.74 25.27 28.86 25.27 27.77V18.01H6.07V27.77Z" fill="#7B8BBF"/>
<path d="M23.35 3.13H8.08C6.99 3.13 6.11 4.01 6.11 5.1V6H14.34C14.27 5.83 14.24 5.67 14.24 5.49C14.24 4.8 14.8 4.24 15.49 4.24C16.18 4.24 16.74 4.8 16.74 5.49C16.74 5.67 16.7 5.83 16.64 5.98H25.32V5.1C25.32 4.01 24.44 3.13 23.35 3.13Z" fill="#7B8BBF"/>
<path d="M21.37 6.44L21.11 6.97H21.03L21.27 6.48H20.94V6.42H21.36V6.44H21.37Z" fill="#444549"/>
<path d="M21.47 6.95V6.88C21.47 6.88 21.56 6.92 21.62 6.92C21.67 6.92 21.7 6.92 21.73 6.89C21.76 6.87 21.77 6.85 21.77 6.81C21.77 6.74 21.71 6.7 21.59 6.7H21.54V6.65H21.59C21.7 6.65 21.75 6.62 21.75 6.55C21.75 6.49 21.71 6.46 21.63 6.46C21.58 6.46 21.54 6.47 21.5 6.5V6.44C21.5 6.44 21.59 6.41 21.65 6.41C21.71 6.41 21.75 6.42 21.78 6.45C21.81 6.47 21.83 6.51 21.83 6.54C21.83 6.61 21.79 6.66 21.7 6.68C21.7 6.68 21.78 6.7 21.81 6.72C21.84 6.74 21.85 6.77 21.85 6.81C21.85 6.86 21.83 6.9 21.79 6.93C21.75 6.96 21.69 6.98 21.62 6.98C21.56 6.98 21.51 6.98 21.47 6.95Z" fill="#444549"/>
<path d="M21.99 6.96V6.89C21.99 6.89 22.08 6.93 22.13 6.93C22.18 6.93 22.21 6.92 22.24 6.9C22.27 6.88 22.28 6.85 22.28 6.81C22.28 6.77 22.27 6.75 22.24 6.73C22.21 6.71 22.17 6.7 22.12 6.7C22.1 6.7 22.07 6.7 22.02 6.7V6.43H22.34V6.49H22.09V6.65C22.09 6.65 22.13 6.65 22.15 6.65C22.22 6.65 22.27 6.66 22.31 6.69C22.35 6.72 22.37 6.76 22.37 6.81C22.37 6.86 22.35 6.91 22.31 6.94C22.27 6.97 22.21 6.99 22.14 6.99C22.08 6.99 22.03 6.99 22 6.97L21.99 6.96Z" fill="#444549"/>
<path d="M22.49 6.96V6.89C22.49 6.89 22.58 6.93 22.63 6.93C22.68 6.93 22.71 6.92 22.74 6.9C22.77 6.88 22.78 6.85 22.78 6.81C22.78 6.77 22.77 6.75 22.74 6.73C22.71 6.71 22.67 6.7 22.62 6.7C22.6 6.7 22.57 6.7 22.52 6.7V6.43H22.84V6.49H22.59V6.65C22.59 6.65 22.63 6.65 22.65 6.65C22.72 6.65 22.77 6.66 22.81 6.69C22.85 6.72 22.87 6.76 22.87 6.81C22.87 6.86 22.85 6.91 22.81 6.94C22.77 6.97 22.71 6.99 22.64 6.99C22.58 6.99 22.53 6.99 22.5 6.97L22.49 6.96Z" fill="#444549"/>
<path d="M23.34 6.43V6.49C23.34 6.49 23.27 6.47 23.23 6.47C23.17 6.47 23.13 6.49 23.09 6.53C23.06 6.57 23.04 6.63 23.04 6.7C23.07 6.65 23.12 6.62 23.19 6.62C23.25 6.62 23.29 6.64 23.33 6.67C23.36 6.7 23.38 6.74 23.38 6.79C23.38 6.84 23.36 6.89 23.32 6.92C23.28 6.95 23.23 6.97 23.17 6.97C23.1 6.97 23.05 6.95 23.02 6.9C22.98 6.86 22.96 6.8 22.96 6.72C22.96 6.62 22.98 6.55 23.03 6.49C23.08 6.43 23.14 6.4 23.22 6.4C23.27 6.4 23.3 6.4 23.33 6.42L23.34 6.43ZM23.18 6.68C23.18 6.68 23.11 6.69 23.09 6.71C23.07 6.73 23.05 6.76 23.05 6.79C23.05 6.83 23.06 6.86 23.09 6.89C23.11 6.92 23.15 6.93 23.18 6.93C23.21 6.93 23.25 6.92 23.27 6.9C23.29 6.88 23.3 6.85 23.3 6.81C23.3 6.77 23.29 6.74 23.27 6.72C23.25 6.7 23.22 6.69 23.18 6.69V6.68Z" fill="#444549"/>
<path d="M23.66 6.98C23.6 6.98 23.55 6.96 23.51 6.91C23.47 6.86 23.46 6.8 23.46 6.71C23.46 6.61 23.48 6.54 23.52 6.49C23.56 6.44 23.61 6.42 23.68 6.42C23.82 6.42 23.88 6.51 23.88 6.7C23.88 6.79 23.86 6.86 23.82 6.91C23.78 6.96 23.73 6.98 23.66 6.98ZM23.67 6.47C23.58 6.47 23.53 6.55 23.53 6.71C23.53 6.86 23.58 6.93 23.67 6.93C23.76 6.93 23.81 6.85 23.81 6.7C23.81 6.55 23.77 6.47 23.68 6.47H23.67Z" fill="#444549"/>
<path d="M24.11 6.68C24.03 6.65 23.99 6.6 23.99 6.55C23.99 6.51 24.01 6.48 24.04 6.45C24.08 6.42 24.12 6.41 24.18 6.41C24.23 6.41 24.27 6.42 24.31 6.45C24.34 6.47 24.36 6.5 24.36 6.54C24.36 6.6 24.32 6.65 24.24 6.68C24.34 6.71 24.38 6.76 24.38 6.83C24.38 6.88 24.36 6.91 24.32 6.94C24.28 6.97 24.23 6.98 24.16 6.98C24.1 6.98 24.06 6.97 24.02 6.94C23.98 6.91 23.97 6.88 23.97 6.84C23.97 6.77 24.02 6.72 24.11 6.69V6.68ZM24.17 6.71C24.09 6.74 24.05 6.78 24.05 6.83C24.05 6.86 24.06 6.88 24.09 6.9C24.11 6.92 24.15 6.93 24.19 6.93C24.23 6.93 24.26 6.93 24.28 6.9C24.3 6.88 24.32 6.86 24.32 6.84C24.32 6.79 24.28 6.74 24.19 6.72L24.17 6.71ZM24.28 6.55C24.28 6.55 24.28 6.51 24.25 6.49C24.22 6.47 24.21 6.47 24.17 6.47C24.14 6.47 24.11 6.47 24.09 6.49C24.07 6.51 24.06 6.52 24.06 6.55C24.06 6.6 24.1 6.63 24.17 6.66C24.24 6.64 24.28 6.6 24.28 6.55Z" fill="#444549"/>
<path d="M20.39 29.64H21.87L22.77 27.79H21.28L20.39 29.64Z" fill="#EEE4D7"/>
<path d="M9.02 29.64H9.41L10.3 27.79H9.91L9.02 29.64Z" fill="#EEE4D7"/>
<path d="M14.08 29.64H14.27L15.17 27.79H14.97L14.08 29.64Z" fill="#EEE4D7"/>
<path d="M13.71 29.64H13.9L14.79 27.79H14.6L13.71 29.64Z" fill="#EEE4D7"/>
<path d="M12.4 29.64H12.59L13.49 27.79H13.3L12.4 29.64Z" fill="#EEE4D7"/>
<path d="M25.26 27.79H24.49L23.6 29.63C24.5 29.51 25.2 28.74 25.26 27.79Z" fill="#EEE4D7"/>
<path d="M7.71 29.56L8.56 27.78H7.08L6.63 28.71C6.87 29.11 7.25 29.42 7.7 29.56H7.71Z" fill="#EEE4D7"/>
<path d="M17.77 29.64H19.25L20.14 27.79H18.66L17.77 29.64Z" fill="#EEE4D7"/>
<path d="M14.91 29.64H17.42L18.32 27.79H15.81L14.91 29.64Z" fill="#EEE4D7"/>
<path d="M24.23 15.89H24.06V17.77H24.23V15.89Z" fill="#444549"/>
<path d="M23.81 15.89H23.64V17.77H23.81V15.89Z" fill="#444549"/>
<path d="M23.37 15.89H23.2V17.77H23.37V15.89Z" fill="#444549"/>
<path d="M12.71 4.43C12.71 4.43 12.69 4.41 12.69 4.4C12.69 4.4 12.67 4.38 12.66 4.38C12.66 4.38 12.64 4.37 12.63 4.36C12.63 4.36 12.68 4.34 12.7 4.33C12.72 4.32 12.74 4.3 12.75 4.29C12.76 4.27 12.77 4.26 12.78 4.23C12.78 4.21 12.79 4.19 12.79 4.16C12.79 4.13 12.79 4.1 12.77 4.08C12.76 4.06 12.74 4.04 12.72 4.02C12.7 4 12.68 3.99 12.65 3.98C12.62 3.98 12.59 3.97 12.56 3.97H12.35V4.69H12.43V4.39H12.5C12.5 4.39 12.53 4.39 12.54 4.39C12.55 4.39 12.56 4.39 12.57 4.41C12.58 4.41 12.59 4.43 12.6 4.44C12.61 4.45 12.62 4.47 12.63 4.49L12.75 4.69H12.85L12.72 4.47C12.72 4.47 12.7 4.44 12.69 4.43H12.71ZM12.61 4.3C12.61 4.3 12.57 4.3 12.55 4.3H12.44V4.04H12.55C12.55 4.04 12.63 4.05 12.66 4.07C12.68 4.09 12.7 4.12 12.7 4.16C12.7 4.18 12.7 4.2 12.69 4.22C12.69 4.24 12.67 4.25 12.66 4.26C12.65 4.27 12.63 4.28 12.61 4.29V4.3Z" fill="#515153"/>
<path d="M11.03 4.36H11.29V4.28H11.03V4.04H11.31V3.97H10.95V4.68H11.33V4.61H11.03V4.36Z" fill="#515153"/>
<path d="M9.45 4.04H9.66V4.68H9.74V4.04H9.95V3.97H9.45V4.04Z" fill="#515153"/>
<path d="M8.37 4.47C8.37 4.47 8.37 4.55 8.37 4.58C8.37 4.58 8.36 4.56 8.34 4.53L7.98 3.97H7.87V4.69H7.95V4.17C7.95 4.12 7.95 4.09 7.95 4.07C7.95 4.07 7.96 4.1 7.97 4.11L8.34 4.68H8.44V3.96H8.36V4.46L8.37 4.47Z" fill="#515153"/>
<path d="M15.68 4.25L15.73 4.1C15.73 4.1 15.73 4.07 15.74 4.05C15.74 4.05 15.74 4.09 15.75 4.1L15.82 4.29C15.82 4.29 15.89 4.32 15.93 4.33L15.79 3.96H15.7L15.6 4.23C15.6 4.23 15.65 4.23 15.68 4.25Z" fill="#515153"/>
<path d="M6.79 3.97H6.71V4.69H6.79V3.97Z" fill="#515153"/>
<path d="M19.87 3.95C19.76 3.95 19.68 3.98 19.62 4.05C19.56 4.12 19.53 4.21 19.53 4.33C19.53 4.44 19.56 4.52 19.62 4.59C19.68 4.66 19.76 4.69 19.86 4.69C19.96 4.69 20.05 4.66 20.11 4.59C20.17 4.52 20.2 4.43 20.2 4.31C20.2 4.2 20.17 4.12 20.11 4.05C20.05 3.98 19.97 3.95 19.87 3.95ZM20.04 4.54C19.99 4.59 19.93 4.62 19.85 4.62C19.78 4.62 19.72 4.59 19.67 4.54C19.62 4.49 19.6 4.42 19.6 4.33C19.6 4.24 19.62 4.17 19.67 4.12C19.72 4.07 19.78 4.04 19.85 4.04C19.92 4.04 19.99 4.07 20.03 4.12C20.07 4.17 20.1 4.24 20.1 4.34C20.1 4.44 20.08 4.5 20.03 4.56L20.04 4.54Z" fill="#515153"/>
<path d="M23.08 3.97L22.81 4.69H22.9L22.97 4.49H23.27L23.35 4.69H23.44L23.16 3.97H23.07H23.08ZM23 4.41L23.11 4.11C23.11 4.11 23.11 4.08 23.12 4.06C23.12 4.06 23.12 4.1 23.13 4.11L23.24 4.41H22.99H23Z" fill="#515153"/>
<path d="M24.52 4.61V3.97H24.44V4.68H24.81V4.61H24.52Z" fill="#515153"/>
<path d="M21.73 4.47C21.73 4.47 21.73 4.55 21.73 4.58C21.73 4.58 21.72 4.56 21.7 4.53L21.34 3.97H21.23V4.69H21.31V4.17C21.31 4.12 21.31 4.09 21.31 4.07C21.31 4.07 21.32 4.1 21.33 4.11L21.7 4.68H21.8V3.96H21.72V4.46L21.73 4.47Z" fill="#515153"/>
<path d="M18.49 3.97H18.41V4.69H18.49V3.97Z" fill="#515153"/>
<path d="M13.96 4.11L14.33 4.68H14.43V3.96H14.35V4.46C14.35 4.46 14.35 4.54 14.35 4.57C14.35 4.57 14.34 4.55 14.32 4.52L13.96 3.96H13.85V4.68H13.93V4.16C13.93 4.11 13.93 4.08 13.93 4.06C13.93 4.06 13.94 4.09 13.95 4.1L13.96 4.11Z" fill="#515153"/>
<path d="M16.91 4.04H17.12V4.68H17.2V4.04H17.41V3.97H16.91V4.04Z" fill="#515153"/>
<path d="M15.48 4.31C14.79 4.31 14.23 4.88 14.23 5.57C14.23 6.26 14.79 6.83 15.48 6.83C16.17 6.83 16.73 6.26 16.73 5.57C16.73 4.88 16.17 4.31 15.48 4.31ZM15.48 6.78C14.82 6.78 14.29 6.24 14.29 5.57C14.29 4.9 14.82 4.36 15.48 4.36C16.14 4.36 16.67 4.9 16.67 5.57C16.67 6.24 16.14 6.78 15.48 6.78Z" fill="url(#paint2_linear_90_69)"/>
<path d="M10.44 24.84L9.93 22.79L9.95 26.89H8.8V20.05H10.11L10.87 22.78L11.62 20.05H12.89V26.89L11.79 26.92L11.75 22.9L11.26 24.83H10.43L10.44 24.84Z" fill="#EDE2D5"/>
<path d="M16.88 26.89L16.64 25.26H15.34L15.06 26.89H13.82L15.12 20.05H16.88L18.19 26.89H16.89H16.88ZM16.46 24.08L16.03 21.2L15.54 24.08H16.46Z" fill="#EDE2D5"/>
<path d="M19.05 26.89V20.05H20.99C21.58 20.05 22.04 20.2 22.37 20.51C22.7 20.82 22.87 21.28 22.87 21.91V22.99C22.87 23.61 22.71 24.06 22.39 24.34C22.07 24.63 21.61 24.77 21 24.77H20.4V26.9H19.06L19.05 26.89ZM20.39 23.6H20.9C21.09 23.6 21.23 23.55 21.32 23.44C21.41 23.33 21.46 23.13 21.46 22.83V22.03C21.46 21.72 21.41 21.51 21.32 21.4C21.23 21.29 21.09 21.23 20.9 21.23H20.39V23.6Z" fill="#EDE2D5"/>
<path d="M9.1 19.74C8.98 19.74 8.9 19.71 8.84 19.65C8.78 19.59 8.75 19.51 8.75 19.39V19.04C8.75 18.92 8.78 18.84 8.84 18.78C8.9 18.72 8.98 18.69 9.1 18.69C9.22 18.69 9.29 18.72 9.35 18.78C9.4 18.84 9.43 18.93 9.44 19.06H9.2C9.2 18.99 9.19 18.94 9.18 18.91C9.17 18.88 9.14 18.87 9.1 18.87C9.06 18.87 9.03 18.88 9.02 18.91C9 18.94 9 18.99 9 19.06V19.36C9 19.43 9 19.48 9.02 19.51C9.03 19.54 9.06 19.55 9.1 19.55C9.14 19.55 9.16 19.54 9.17 19.51C9.18 19.49 9.19 19.43 9.2 19.35H9.44C9.44 19.49 9.41 19.58 9.35 19.64C9.3 19.7 9.21 19.72 9.1 19.72V19.74Z" fill="#EDE2D5"/>
<path d="M10.71 19.74C10.61 19.74 10.52 19.71 10.47 19.65C10.41 19.59 10.39 19.51 10.39 19.41V19.04C10.39 18.93 10.42 18.85 10.47 18.79C10.53 18.73 10.61 18.7 10.71 18.7C10.81 18.7 10.9 18.73 10.95 18.79C11 18.85 11.03 18.93 11.03 19.04V19.41C11.03 19.51 11 19.6 10.95 19.65C10.89 19.71 10.81 19.74 10.71 19.74ZM10.71 19.56C10.71 19.56 10.77 19.55 10.78 19.52C10.79 19.5 10.8 19.45 10.8 19.38V19.05C10.8 18.98 10.8 18.93 10.78 18.9C10.77 18.87 10.74 18.86 10.71 18.86C10.68 18.86 10.65 18.87 10.64 18.9C10.63 18.93 10.62 18.97 10.62 19.05V19.38C10.62 19.45 10.62 19.5 10.64 19.52C10.65 19.54 10.68 19.56 10.71 19.56Z" fill="#EDE2D5"/>
<path d="M12.27 19.43L12.18 19.08L12.21 19.74H12V18.72H12.21L12.34 19.19L12.47 18.72H12.67V19.74H12.46L12.49 19.1L12.41 19.44H12.27V19.43Z" fill="#EDE2D5"/>
<path d="M13.9 19.43L13.81 19.08L13.84 19.74H13.63V18.72H13.84L13.97 19.19L14.1 18.72H14.3V19.74H14.09L14.12 19.1L14.04 19.44H13.9V19.43Z" fill="#EDE2D5"/>
<path d="M15.6 19.74C15.49 19.74 15.4 19.71 15.35 19.65C15.3 19.59 15.27 19.5 15.27 19.37V18.71H15.51V19.37C15.51 19.44 15.51 19.49 15.53 19.51C15.54 19.54 15.57 19.55 15.6 19.55C15.63 19.55 15.66 19.54 15.67 19.51C15.68 19.48 15.69 19.44 15.69 19.37V18.71H15.93V19.37C15.93 19.49 15.9 19.59 15.85 19.65C15.8 19.71 15.71 19.74 15.6 19.74Z" fill="#EDE2D5"/>
<path d="M17.29 19.73L17.1 19.04V19.73H16.9V18.71H17.15L17.36 19.43V18.71H17.56V19.73H17.29Z" fill="#EDE2D5"/>
<path d="M18.53 19.73V19.55H18.74V18.89H18.53V18.71H19.19V18.89H18.98V19.55H19.19V19.73H18.53Z" fill="#EDE2D5"/>
<path d="M20.37 19.73V18.89H20.14V18.71H20.84V18.89H20.61V19.73H20.37Z" fill="#EDE2D5"/>
<path d="M22.24 19.73H22V19.35L21.75 18.72H21.98L22.11 19.12L22.25 18.72H22.48L22.23 19.35V19.73H22.24Z" fill="#EDE2D5"/>
<path opacity="0.61" d="M23.22 3.64H8.25C7.18 3.64 6.31 4.55 6.31 5.68V19.27C11.2 19.93 8.03 20.64 10.37 20.89C16.56 21.56 14.01 23.68 17.67 23.58C17.78 23.58 17.89 23.58 18 23.57L18.11 23.07C18.11 22.99 18.48 22.79 18.55 22.79L19.25 22.62C19.33 22.62 19.39 22.68 19.39 22.76V23.43C22.17 22.95 21.1 21.62 23.48 22.3L23.59 22.33V20.06C23.59 19.66 23.91 19.3 24.31 19.26L25.09 19.18L25.15 5.67C25.15 4.55 24.28 3.64 23.22 3.64ZM15.52 7.34C14.87 7.34 14.35 6.79 14.35 6.11C14.35 5.43 14.88 4.88 15.52 4.88C16.16 4.88 16.69 5.43 16.69 6.11C16.69 6.79 16.16 7.34 15.52 7.34Z" fill="url(#paint3_linear_90_69)"/>
<path d="M17.95 11.1C18.25 10.78 18.35 10.44 18 10.09C17.97 10.06 17.92 10.03 17.89 9.99C17.87 9.97 17.85 9.94 17.83 9.92C17.84 9.91 17.86 9.9 17.87 9.89C17.98 10.01 18.1 10.14 18.23 10.28C18.18 10.17 18.14 10.06 18.09 9.98C17.96 9.77 17.74 9.67 17.52 9.59C17.36 9.53 17.19 9.48 17.02 9.43C17 9.43 16.96 9.47 16.91 9.51C16.74 9.47 16.53 9.43 16.33 9.36C16.27 9.34 16.23 9.27 16.18 9.22C16.18 9.21 16.2 9.2 16.2 9.19C16.73 9.21 17.21 9.43 17.71 9.61C17.71 9.61 17.71 9.59 17.72 9.58C17.59 9.51 17.47 9.45 17.34 9.38C17.34 9.38 17.34 9.36 17.35 9.35C17.4 9.37 17.46 9.39 17.51 9.4C17.5 9.37 17.48 9.35 17.45 9.34C17.12 9.22 16.79 9.09 16.46 8.98C16.39 8.95 16.32 8.94 16.38 8.84C16.32 8.84 16.27 8.84 16.23 8.85C16.1 8.9 15.97 8.93 15.83 8.91C15.73 8.9 15.64 8.99 15.66 9.09C15.68 9.2 15.63 9.28 15.58 9.37C15.54 9.45 15.51 9.54 15.48 9.63C15.47 9.67 15.45 9.7 15.43 9.74C15.39 9.68 15.37 9.63 15.33 9.59C15.12 9.39 14.88 9.25 14.59 9.22C14.57 9.22 14.55 9.21 14.53 9.2C14.48 9.17 14.44 9.13 14.39 9.11C14.34 9.08 14.28 9.06 14.22 9.04C14.22 9.02 14.22 9.01 14.23 8.99C14.47 9.04 14.71 9.09 14.94 9.14C14.86 9.1 14.77 9.04 14.68 9C14.33 8.86 13.96 8.82 13.58 8.86C13.24 8.9 12.92 9.01 12.82 9.4C12.82 9.41 12.81 9.42 12.8 9.43C12.72 9.65 12.61 9.87 12.58 10.09C12.5 10.62 12.57 11.13 13.03 11.5C13.14 11.59 13.23 11.69 13.35 11.75C13.66 11.89 13.98 11.89 14.28 11.73C14.69 11.53 15.07 11.3 15.28 10.87C15.28 10.86 15.31 10.85 15.32 10.83C15.33 10.85 15.35 10.86 15.35 10.87C15.44 11.12 15.61 11.3 15.82 11.47C16.11 11.7 16.41 11.82 16.78 11.71C16.86 11.68 16.94 11.66 17.02 11.63C17.35 11.5 17.67 11.36 17.91 11.1H17.95ZM13.47 9.3C13.7 9.13 13.98 9.12 14.25 9.16C14.26 9.16 14.27 9.17 14.27 9.2C14.21 9.2 14.15 9.2 14.08 9.21C13.95 9.23 13.81 9.23 13.69 9.27C13.5 9.33 13.36 9.44 13.31 9.65C13.26 9.48 13.36 9.37 13.46 9.3H13.47ZM14.37 9.37C14.28 9.38 14.19 9.39 14.1 9.4C14.01 9.41 13.92 9.42 13.83 9.45C13.74 9.48 13.66 9.52 13.56 9.56C13.63 9.39 14.07 9.29 14.37 9.37ZM13.15 11C13.03 10.66 13.02 10.32 13.2 9.99C13.18 10.33 13.17 10.66 13.15 11ZM14.93 9.94C14.88 10.39 14.69 10.76 14.29 11C14.06 11.13 13.83 11.26 13.56 11.26C13.31 11.26 13.26 11.2 13.24 10.96C13.24 10.9 13.24 10.84 13.23 10.78C13.24 10.43 13.29 10.09 13.5 9.78C13.67 9.53 13.82 9.49 14.09 9.63C14.13 9.65 14.2 9.65 14.25 9.63C14.27 9.63 14.26 9.56 14.28 9.53C14.3 9.5 14.33 9.46 14.36 9.46C14.55 9.49 14.74 9.53 14.87 9.67C14.93 9.73 14.95 9.85 14.94 9.94H14.93ZM15.71 10.38C15.71 10.38 15.7 10.38 15.69 10.38V10.03C15.69 10.03 15.7 10.03 15.71 10.03V10.38ZM15.88 10.43C15.9 10.38 15.92 10.32 15.93 10.27C15.97 10.11 16 9.95 16.04 9.79C16.06 9.73 16.11 9.69 16.14 9.64L16.17 9.66C15.99 10.05 15.94 10.47 15.94 10.91C15.84 10.79 15.81 10.56 15.87 10.43H15.88ZM16.3 11.15C16.09 11.15 15.99 11.09 15.98 10.89C15.96 10.53 16.02 10.18 16.17 9.85C16.19 9.81 16.22 9.77 16.24 9.73C16.3 9.62 16.37 9.58 16.5 9.63C16.81 9.74 17.13 9.83 17.44 9.94C17.64 10.01 17.66 10.08 17.61 10.29C17.55 10.53 17.39 10.7 17.18 10.83C16.89 11.01 16.5 11.15 16.29 11.16L16.3 11.15Z" fill="#282828"/>
<path d="M16.14 13.18C16.18 13.31 16.23 13.44 16.27 13.57C16.26 13.57 16.24 13.58 16.23 13.59C16.21 13.56 16.19 13.53 16.18 13.5C16.1 13.21 15.9 12.98 15.71 12.76C15.53 12.55 15.36 12.55 15.16 12.74C15.14 12.76 15.12 12.78 15.1 12.81C14.82 13.11 14.67 13.48 14.58 13.88C14.49 14.31 14.43 14.74 14.38 15.18C14.35 15.47 14.38 15.75 14.44 16.04C14.5 16.28 14.85 16.46 15.05 16.44C15.05 16.35 15.05 16.27 15.03 16.18C14.96 15.79 15.02 15.41 15.03 15.02C15.03 14.98 15.05 14.91 15.09 14.89C15.36 14.72 15.64 14.59 15.98 14.61C16.07 14.61 16.11 14.64 16.12 14.73C16.15 14.97 16.2 15.2 16.2 15.44C16.2 15.74 16.54 15.91 16.79 15.91C16.73 15.44 16.78 14.97 16.67 14.5C16.54 13.95 16.29 13.27 16.14 13.19V13.18ZM15.81 13.99C15.66 13.99 15.5 13.99 15.35 13.99C15.27 13.99 15.22 13.98 15.25 13.88C15.32 13.67 15.42 13.47 15.58 13.31C15.63 13.26 15.68 13.25 15.71 13.31C15.8 13.52 15.88 13.74 15.98 13.98C15.89 13.98 15.85 13.98 15.81 13.98V13.99ZM16.3 15.57C16.28 15.48 16.34 15.41 16.47 15.37C16.4 15.45 16.36 15.5 16.3 15.57Z" fill="#282828"/>
<path d="M11.8 9.97C11.67 10.02 11.54 10.06 11.42 10.11C11.19 10.2 10.96 10.29 10.7 10.3C10.66 10.3 10.62 10.3 10.59 10.29C10.8 10.2 11.03 10.19 11.19 10.03C11.12 10.06 11.05 10.08 10.97 10.11C10.97 10.1 10.95 10.08 10.94 10.07C11.55 9.8 12.04 9.38 12.49 8.86V9.02C12.71 8.82 12.85 8.61 12.85 8.34C12.85 8.24 12.76 8.09 12.67 8.06C12.55 8.02 12.52 7.95 12.47 7.86C12.44 7.8 12.39 7.75 12.34 7.7C12.05 7.43 11.68 7.41 11.31 7.41C11.29 7.41 11.27 7.41 11.26 7.42C11.18 7.45 11.11 7.49 11.03 7.5C10.79 7.54 10.58 7.64 10.47 7.87C10.4 8.02 10.36 8.19 10.3 8.35C10.29 8.38 10.27 8.44 10.25 8.44C10.21 8.44 10.16 8.42 10.12 8.41C10.12 8.41 10.11 8.39 10.1 8.38C10.03 8.31 10 8.32 9.94 8.41C9.88 8.51 9.96 8.57 9.98 8.65C10.1 9.03 10.23 9.4 10.36 9.77C10.42 9.95 10.38 10.01 10.19 10C10.17 10 10.15 9.99 10.13 10C10.09 10 10.05 10.02 10.01 10.03C10.02 10.07 10.03 10.12 10.06 10.15C10.11 10.22 10.19 10.27 10.23 10.35C10.29 10.46 10.38 10.5 10.49 10.5C10.6 10.5 10.64 10.55 10.66 10.65C10.73 10.96 10.81 11.28 10.89 11.59C10.89 11.63 10.91 11.68 10.93 11.69C11.06 11.78 11.19 11.86 11.33 11.93C11.36 11.95 11.41 11.93 11.44 11.91C11.53 11.85 11.53 11.75 11.42 11.62C11.42 11.66 11.42 11.71 11.41 11.75C11.41 11.75 11.39 11.75 11.38 11.75C11.36 11.6 11.31 11.44 11.33 11.3C11.34 11.19 11.32 11.11 11.28 11.02C11.24 10.9 11.19 10.78 11.15 10.66C11.14 10.63 11.15 10.59 11.15 10.56C11.15 10.53 11.18 10.49 11.16 10.47C11.14 10.45 11.1 10.43 11.06 10.43C10.98 10.43 10.91 10.44 10.84 10.45C11.16 10.3 11.47 10.16 11.79 10.01C11.79 10 11.78 9.98 11.77 9.97H11.8ZM10.91 8.24C10.91 8.24 10.99 8.19 11.01 8.15C11.08 8.05 11.17 8.01 11.29 7.98C11.58 7.91 11.85 7.96 12.13 8.03C12.22 8.05 12.27 8.12 12.26 8.2C12.26 8.3 12.23 8.41 12.19 8.5C11.99 8.97 11.6 9.28 11.19 9.57C11.1 9.63 11.01 9.69 10.88 9.66C10.73 9.19 10.77 8.71 10.91 8.24Z" fill="#282828"/>
<path d="M13.05 12.69C12.84 12.57 12.44 12.66 12.32 12.94C12.28 13.02 12.23 13.11 12.22 13.2C12.19 13.42 12.18 13.64 12.15 13.86C12.15 13.91 12.15 13.97 12.12 14C12.05 14.1 12.04 14.21 12.07 14.33C12.17 14.68 12.26 15.03 12.36 15.37C12.39 15.49 12.41 15.59 12.38 15.72C12.35 15.83 12.35 15.95 12.35 16.06C12.35 16.12 12.38 16.21 12.43 16.24C12.54 16.33 12.67 16.41 12.8 16.46C12.88 16.49 13 16.5 13.07 16.46C13.25 16.35 13.35 16.17 13.47 15.98C13.32 16.12 13.19 16.24 13.04 16.38C13 16.28 12.97 16.21 12.96 16.15C12.96 16.11 12.96 16.04 13 16.01C13.25 15.77 13.46 15.51 13.63 15.21C13.69 15.1 13.75 14.99 13.81 14.88C13.82 14.88 13.83 14.89 13.84 14.9C13.78 15.05 13.72 15.2 13.66 15.35H13.69C13.78 15.17 13.87 14.97 13.96 14.77C13.98 14.81 13.99 14.83 14.01 14.88C14.02 14.8 14.01 14.75 14.04 14.71C14.15 14.42 14.14 14.12 14.06 13.83C13.91 13.29 13.51 12.96 13.04 12.7L13.05 12.69ZM13.21 15.09C13.15 15.21 13.07 15.32 13 15.44C12.98 15.44 12.97 15.44 12.95 15.43C12.92 15.32 12.89 15.21 12.87 15.1C12.82 14.77 12.78 14.45 12.75 14.12C12.72 13.83 12.77 13.55 12.96 13.31C13.07 13.17 13.2 13.16 13.31 13.31C13.39 13.44 13.47 13.59 13.49 13.74C13.57 14.22 13.43 14.67 13.21 15.09Z" fill="#282828"/>
<path d="M21.3 10.88C21.23 10.87 21.15 10.85 21.08 10.86C20.73 10.91 20.39 10.95 20.05 11.01C19.76 11.07 19.47 11.16 19.18 11.22C19.04 11.25 19 11.22 19.02 11.07C19.05 10.85 19.09 10.63 19.12 10.41C19.18 9.96 19.24 9.51 19.29 9.06C19.29 8.98 19.26 8.88 19.22 8.8C19.16 8.69 19.08 8.59 19 8.5C18.98 8.47 18.91 8.46 18.88 8.47C18.79 8.51 18.72 8.56 18.71 8.68C18.68 9.02 18.63 9.35 18.58 9.69C18.52 10.13 18.47 10.57 18.42 11.01C18.44 11.11 18.44 11.2 18.47 11.29C18.56 11.54 18.79 11.67 18.98 11.83C19.02 11.87 19.1 11.88 19.16 11.88C19.29 11.88 19.43 11.88 19.56 11.84C20.21 11.68 20.84 11.48 21.51 11.41C21.59 11.41 21.64 11.34 21.64 11.26C21.64 11.05 21.51 10.9 21.3 10.87V10.88ZM20.36 11.18C20.6 11.13 20.84 11.07 21.1 11.14C20.84 11.15 20.6 11.16 20.36 11.18Z" fill="#282828"/>
<path d="M19.1 12.76C19.04 12.72 19 12.65 18.95 12.61C18.92 12.59 18.87 12.56 18.84 12.57C18.65 12.65 18.6 12.82 18.68 13.01C18.7 13.06 18.72 13.13 18.7 13.17C18.6 13.43 18.51 13.7 18.38 13.94C18.29 14.13 18.1 14.15 17.93 14.04C17.89 14.01 17.84 13.98 17.81 13.95C17.62 13.71 17.39 13.51 17.24 13.24C17.23 13.22 17.22 13.2 17.2 13.18C17.15 13.13 17.1 13.04 17.01 13.1C16.88 13.18 16.84 13.28 16.9 13.37C17.02 13.58 17.14 13.79 17.29 13.98C17.5 14.24 17.75 14.45 18.07 14.57C18.16 14.6 18.29 14.6 18.34 14.67C18.39 14.74 18.36 14.86 18.36 14.96C18.36 14.96 18.36 14.96 18.35 14.96C18.36 15.11 18.37 15.27 18.39 15.42C18.41 15.68 18.43 15.93 18.46 16.19C18.48 16.36 18.58 16.48 18.76 16.53C18.93 16.57 19.03 16.51 18.97 16.34C18.91 16.17 18.94 16.01 18.94 15.84C18.94 15.68 18.94 15.53 18.95 15.37C18.95 15.19 18.96 15.02 18.96 14.84C18.96 14.79 18.98 14.73 18.96 14.69C18.83 14.47 18.94 14.3 19.06 14.12C19.07 14.1 19.08 14.09 19.09 14.07C19.23 13.79 19.32 13.5 19.31 13.19C19.31 13.03 19.25 12.88 19.11 12.77L19.1 12.76Z" fill="#282828"/>
<path d="M12.18 9.59C12.44 9.47 12.49 9.42 12.68 9.18C12.84 8.97 12.95 8.69 12.9 8.55C12.76 8.98 12.5 9.31 12.18 9.59Z" fill="#282828"/>
</g>
<defs>
<linearGradient id="paint0_linear_90_69" x1="24.75" y1="3.53" x2="6.64" y2="29.3" gradientUnits="userSpaceOnUse">
<stop stop-color="#FDFAF1"/>
<stop offset="1" stop-color="#A29885"/>
</linearGradient>
<linearGradient id="paint1_linear_90_69" x1="24.7" y1="3.6" x2="6.72" y2="29.18" gradientUnits="userSpaceOnUse">
<stop stop-color="#F8F3EB"/>
<stop offset="1" stop-color="#EDE2D5"/>
</linearGradient>
<linearGradient id="paint2_linear_90_69" x1="14.69" y1="6.87" x2="16.28" y2="4.26" gradientUnits="userSpaceOnUse">
<stop stop-color="#FDFAF1"/>
<stop offset="1" stop-color="#A29885"/>
</linearGradient>
<linearGradient id="paint3_linear_90_69" x1="15.69" y1="24.74" x2="15.72" y2="10.47" gradientUnits="userSpaceOnUse">
<stop stop-color="#FFFBEC" stop-opacity="0.7"/>
<stop offset="1" stop-color="white" stop-opacity="0"/>
</linearGradient>
<clipPath id="clip0_90_69">
<rect width="19.39" height="26.83" fill="white" transform="translate(6 3)"/>
</clipPath>
</defs>
</svg>
