<svg width="32" height="32" viewBox="0 0 32 32" fill="none" xmlns="http://www.w3.org/2000/svg">
<g clip-path="url(#clip0_25_184)">
<path d="M28.48 15.8V1.86C28.48 1.57 28.27 1.33 28.02 1.33H4.13C3.88 1.33 3.67 1.57 3.67 1.86V15.8C3.67 24.27 15.94 30.74 15.94 30.74C16.02 30.79 16.12 30.79 16.2 30.74C16.2 30.74 28.48 24.15 28.48 15.8Z" fill="url(#paint0_linear_25_184)"/>
<path d="M6.08 3.53999H6.89V7.03999H6.08V3.53999ZM7.54 3.45999H7.59L9.43 4.88999V3.53999H10.24V7.03999H9.43V5.83999L8.35 4.96999V7.03999H7.54V3.45999ZM10.89 3.53999H12.93V4.28999H11.7V5.19999H13.11V5.92999H11.7V7.04999H10.89V3.54999V3.53999ZM13.62 3.53999H15.61V4.28999H14.42V5.13999H15.79V5.82999H14.42V6.29999H16.06V7.04999H13.62V3.54999V3.53999ZM16.53 3.53999H17.74C18.19 3.53999 18.54 3.63999 18.79 3.84999C19.04 4.05999 19.16 4.35999 19.16 4.73999C19.16 4.94999 19.12 5.12999 19.03 5.28999C18.95 5.44999 18.83 5.57999 18.67 5.68999L19.28 7.02999H18.42L17.96 5.91999C17.88 5.91999 17.8 5.92999 17.72 5.92999H17.34V7.02999H16.53V3.52999V3.53999ZM17.67 5.25999C18.1 5.25999 18.32 5.08999 18.32 4.74999C18.32 4.40999 18.1 4.24999 17.67 4.24999H17.34V5.25999H17.67ZM19.68 3.45999H19.73L21.57 4.88999V3.53999H22.38V7.03999H21.57V5.83999L20.49 4.96999V7.03999H19.68V3.45999ZM23.14 6.23999C22.98 5.95999 22.9 5.63999 22.9 5.27999C22.9 4.91999 22.98 4.59999 23.14 4.31999C23.3 4.03999 23.52 3.82999 23.8 3.66999C24.08 3.50999 24.41 3.42999 24.78 3.42999C25.15 3.42999 25.48 3.50999 25.76 3.66999C26.04 3.82999 26.26 4.03999 26.42 4.31999C26.58 4.59999 26.66 4.91999 26.66 5.27999C26.66 5.63999 26.58 5.95999 26.42 6.23999C26.26 6.51999 26.04 6.73999 25.76 6.88999C25.48 7.04999 25.15 7.12999 24.78 7.12999C24.41 7.12999 24.09 7.04999 23.8 6.88999C23.52 6.72999 23.3 6.50999 23.14 6.23999ZM25.69 5.82999C25.78 5.66999 25.82 5.48999 25.82 5.27999C25.82 5.06999 25.78 4.88999 25.69 4.72999C25.6 4.56999 25.48 4.44999 25.32 4.35999C25.16 4.26999 24.98 4.22999 24.78 4.22999C24.58 4.22999 24.4 4.26999 24.24 4.35999C24.08 4.44999 23.96 4.56999 23.87 4.72999C23.78 4.88999 23.74 5.06999 23.74 5.27999C23.74 5.48999 23.78 5.66999 23.87 5.82999C23.96 5.98999 24.08 6.10999 24.24 6.19999C24.4 6.28999 24.57 6.32999 24.78 6.32999C24.99 6.32999 25.17 6.28999 25.32 6.19999C25.48 6.10999 25.6 5.98999 25.69 5.82999Z" fill="#5E1014"/>
<path d="M16.02 30.49C15.99 30.47 12.9 28.83 9.85 26.18C8.07 24.63 6.65 23.03 5.63 21.45C4.37 19.48 3.73 17.52 3.73 15.62V1.53C3.73 1.38 3.83 1.25 3.94 1.25H28.13C28.24 1.25 28.34 1.38 28.34 1.53V15.62C28.34 17.49 27.7 19.44 26.44 21.4C25.42 22.98 24 24.58 22.22 26.14C19.17 28.81 16.07 30.48 16.04 30.5L16.02 30.49ZM15.72 29.85C15.81 29.9 15.91 29.93 16.01 29.93C16.11 29.93 16.21 29.9 16.3 29.85C16.42 29.78 19.28 28.2 22.11 25.71C25.94 22.34 27.96 18.85 27.96 15.62V1.99C27.96 1.85 27.85 1.74 27.71 1.74H4.35C4.21 1.74 4.1 1.85 4.1 1.99V15.62C4.1 18.72 6.12 22.17 9.93 25.59C12.75 28.12 15.6 29.78 15.72 29.85Z" fill="#831922"/>
<path d="M14.12 9.54C18.43 7.2 23.16 6.82 26.87 8.16V2.85C26.87 2.59 26.69 2.38 26.46 2.38H5.31C5.09 2.38 4.9 2.59 4.9 2.85V15.2C4.9 16.71 5.34 18.15 6.05 19.49C6.95 15.65 9.83 11.89 14.13 9.54H14.12Z" fill="url(#paint1_radial_25_184)"/>
<path d="M17.92 11.96L16.47 11.25L16.04 11.43L15.97 11.1L15.39 10.9V11.25L14.99 11.21L14.72 10.96L13.49 11.75C13.49 11.75 12.98 12.57 13.03 12.89C13.08 13.21 13.62 12.81 13.62 12.81L13.47 14.01L13.9 13.79C13.9 13.79 13.5 14.53 13.76 14.96C14.02 15.39 14.22 14.56 14.56 14.89C14.9 15.22 14.76 15.95 14.76 15.95L14.1 16.63L14.87 16.84L14.08 17.33L13.51 17.78L13.13 17.8L12.64 17.53L12.57 17.08L12.8 16.52L13.38 15.76L12.65 16.22L12.2 16.78L12.09 17.35L12.44 17.92L12.81 18.23L12.92 18.43C12.92 18.43 13.21 18.76 13.5 19.33C13.79 19.9 14.03 20.36 14.03 20.36C14.03 20.36 13.47 20.69 13.11 20.9C12.75 21.11 12.62 21.25 12.62 21.25C12.62 21.25 12.89 21.54 12.87 21.82C12.85 22.1 12.29 23.17 12.29 23.17L14.95 23.83L14.8 23.25L13.92 22.81C13.75 22.73 13.64 22.57 13.61 22.39L13.56 22.11C13.54 21.98 13.58 21.84 13.67 21.74L14.03 21.28L14.93 20.98L15.64 19.39L16.74 19.28C16.74 19.28 16.98 19.35 16.63 19.88C16.28 20.41 16.03 20.52 16.03 20.52C16.03 20.52 16.49 20.57 16.95 20.99C17.41 21.41 17.59 21.75 17.59 21.75V22.23L20.14 21.8L19.81 21.42L19.03 21.31C18.81 21.28 18.39 21.22 18.22 21.07L17.57 20.06L18.64 18.52L17.5 17.99L16.42 17.95L17.56 17.22L18.68 17.53L19.3 17.28H19.96L20.76 16.62L20.68 16.2L20.04 15.95L19.38 16.4L18.37 16.69L18.25 16.62C18.18 16.58 18.15 16.57 18.17 16.49L18.37 15.47L19.26 15.68L19.33 15.21L20.18 13.26L19.85 13.36L19.61 12.92L19.86 12.27L20.16 12.16L19.76 11.97C19.62 11.95 19.26 12.11 19.16 12.21L18.88 12.49L19.02 13.48L18.44 14.41L17.23 13.88L16.7 13.43L17.62 13.45L17.65 12.96H16.76L16.74 12.63C16.73 12.47 16.85 12.33 17.01 12.32L17.42 12.29L17.72 12.6L18.08 12.4L17.97 12.19L18.13 12.01L17.93 11.96H17.92Z" fill="url(#paint2_linear_25_184)"/>
<path d="M20.85 16.53C20.81 16.43 20.79 16.32 20.73 16.23C20.71 16.2 20.68 16.17 20.63 16.13C20.5 16.03 20.35 15.96 20.19 15.92C20.04 15.88 19.92 15.87 19.75 15.86C19.72 15.86 19.67 15.86 19.64 15.89C19.49 16.03 19.31 16.16 19.16 16.3C19.11 16.34 19.06 16.39 19 16.41C18.79 16.5 18.57 16.49 18.35 16.48C18.33 16.48 18.31 16.47 18.28 16.45C18.45 16.19 18.54 15.91 18.49 15.6C18.53 15.61 18.55 15.62 18.57 15.62C18.73 15.66 18.88 15.71 19.04 15.75C19.09 15.76 19.14 15.79 19.18 15.81C19.2 15.82 19.22 15.84 19.25 15.86C19.27 15.84 19.28 15.81 19.3 15.79H19.57C19.57 15.79 19.5 15.72 19.48 15.68C19.45 15.61 19.42 15.54 19.4 15.47C19.39 15.42 19.4 15.37 19.41 15.32C19.43 15.24 19.44 15.16 19.47 15.08C19.51 14.97 19.56 14.86 19.61 14.75C19.65 14.66 19.68 14.57 19.71 14.48C19.79 14.51 19.82 14.61 19.92 14.59C19.91 14.56 19.89 14.53 19.89 14.49C19.86 14.22 19.91 13.98 20.03 13.73C20.12 13.53 20.19 13.33 20.27 13.12C20.28 13.09 20.29 13.07 20.3 13.04C20.3 13.04 20.28 13.02 20.27 13.02C20.19 13.05 20.12 13.07 20.05 13.1C19.99 13.12 19.93 13.14 19.88 13.16C19.83 13.09 19.81 13.02 19.81 12.94C19.91 12.92 19.99 12.9 20.09 12.88C20.03 12.79 19.97 12.72 19.92 12.65C20.04 12.6 20.16 12.54 20.29 12.49C20.19 12.41 20.1 12.34 20.01 12.26C20.11 12.22 20.2 12.19 20.3 12.15C20.25 12.11 20.22 12.09 20.19 12.06C20.04 11.94 19.89 11.83 19.68 11.86C19.63 11.86 19.58 11.86 19.53 11.86C19.44 11.86 19.36 11.87 19.29 11.93C19.11 12.1 18.92 12.27 18.74 12.44C18.73 12.45 18.72 12.48 18.73 12.5C18.78 12.71 18.83 12.92 18.9 13.13C18.93 13.25 18.94 13.35 18.9 13.47C18.81 13.72 18.69 13.95 18.51 14.16C18.48 14.2 18.43 14.22 18.38 14.2C18.32 14.18 18.25 14.17 18.18 14.15C17.96 14.09 17.74 14.03 17.54 13.9C17.33 13.76 17.12 13.61 16.91 13.47C17.2 13.43 17.48 13.5 17.75 13.63C17.8 13.33 17.85 13.05 17.9 12.75C17.88 12.75 17.87 12.75 17.87 12.75C17.86 12.75 17.85 12.75 17.84 12.75C17.61 12.82 17.37 12.87 17.12 12.86C17.06 12.86 16.99 12.84 16.94 12.81C16.88 12.79 16.86 12.74 16.9 12.68C16.99 12.53 17.11 12.4 17.29 12.36C17.45 12.32 17.59 12.4 17.63 12.55C17.63 12.58 17.63 12.61 17.64 12.64C17.69 12.62 17.73 12.61 17.78 12.59C17.9 12.54 18.03 12.49 18.12 12.39C18.15 12.35 18.22 12.32 18.18 12.25C18.16 12.21 18.17 12.18 18.21 12.15C18.36 12.06 18.33 11.85 18.18 11.79C17.96 11.7 17.75 11.6 17.54 11.5C17.21 11.35 16.88 11.2 16.55 11.05C16.52 11.04 16.48 11.05 16.45 11.05C16.38 11.08 16.31 11.11 16.24 11.14C16.22 11.08 16.21 11.02 16.18 10.96C16.17 10.93 16.14 10.91 16.12 10.9C15.97 10.84 15.81 10.78 15.66 10.73C15.52 10.68 15.37 10.62 15.22 10.57C15.24 10.7 15.26 10.82 15.28 10.94C15.28 10.97 15.3 11.01 15.26 11.01C15.22 11.01 15.16 11.05 15.15 10.97C15.14 10.91 15.12 10.84 15.09 10.78C15.09 10.76 15.05 10.74 15.04 10.74C14.95 10.76 14.86 10.78 14.78 10.81C14.29 10.96 13.86 11.21 13.53 11.61C13.34 11.84 13.17 12.08 13.07 12.36C12.97 12.63 12.94 12.9 13.04 13.18C13.22 13.09 13.4 13.01 13.6 12.91C13.59 13.41 13.39 13.84 13.25 14.3C13.42 14.19 13.58 14.08 13.74 13.98C13.56 14.36 13.5 14.72 13.78 15.07C13.95 14.98 14.13 14.91 14.32 14.89C14.51 14.86 14.67 14.93 14.73 15.12C14.8 15.36 14.76 15.59 14.67 15.81C14.55 16.08 14.34 16.27 14.1 16.44C14 16.51 13.89 16.56 13.79 16.63C13.79 16.63 13.79 16.65 13.79 16.66C14.01 16.71 14.22 16.77 14.44 16.82C14.42 16.85 14.39 16.88 14.37 16.91C14.24 17.05 14.09 17.15 13.92 17.22C13.7 17.31 13.49 17.41 13.39 17.67C13.28 17.64 13.17 17.62 13.06 17.58C12.92 17.52 12.79 17.43 12.75 17.27C12.71 17.14 12.72 17.02 12.75 16.89C12.79 16.73 12.9 16.62 13.01 16.51C13.23 16.29 13.47 16.09 13.63 15.82C13.72 15.66 13.77 15.49 13.71 15.31C13.6 15 13.39 14.79 13.08 14.69C12.77 14.58 12.44 14.5 12.13 14.41C11.91 14.35 11.69 14.28 11.46 14.22C11.26 14.16 11.06 14.1 10.89 13.98C10.73 13.86 10.62 13.71 10.62 13.51C10.62 13.22 10.76 13.01 11.01 12.88C11.09 12.84 11.19 12.8 11.27 12.81C11.57 12.83 11.69 13.14 11.53 13.37C11.47 13.45 11.39 13.5 11.28 13.48C11.19 13.46 11.14 13.39 11.12 13.3C11.12 13.26 11.12 13.22 11.12 13.18C11.04 13.25 10.98 13.36 10.99 13.43C11.01 13.6 11.18 13.73 11.33 13.74C11.46 13.75 11.57 13.69 11.67 13.61C11.79 13.85 12.1 13.73 12.21 13.58C12.18 13.58 12.14 13.58 12.11 13.58C11.96 13.58 11.85 13.45 11.87 13.31C11.87 13.25 11.88 13.19 11.88 13.13C11.88 12.83 11.68 12.6 11.4 12.53C11.34 12.51 11.33 12.49 11.34 12.45C11.35 12.31 11.31 12.18 11.2 12.07C11.2 12.11 11.2 12.13 11.2 12.16C11.18 12.34 11.11 12.49 10.94 12.58C10.78 12.66 10.64 12.75 10.53 12.89C10.31 13.17 10.25 13.49 10.37 13.82C10.47 14.09 10.67 14.28 10.94 14.38C11.22 14.48 11.5 14.57 11.78 14.67C12.11 14.78 12.44 14.89 12.77 14.99C12.92 15.04 13.07 15.09 13.17 15.23C13.26 15.35 13.28 15.56 13.19 15.66C13.09 15.77 12.97 15.87 12.85 15.98C12.79 15.83 12.66 15.73 12.52 15.71C12.52 15.71 12.5 15.71 12.49 15.7C12.49 15.7 12.49 15.71 12.5 15.72C12.51 15.74 12.52 15.76 12.53 15.78C12.58 15.88 12.62 15.99 12.56 16.1C12.51 16.18 12.46 16.26 12.4 16.33C12.3 16.46 12.17 16.56 12.12 16.72C12.05 16.92 12 17.12 12.05 17.34C12.12 17.62 12.22 17.87 12.46 18.06C12.21 18.16 12.11 18.26 12.14 18.38C12.21 18.36 12.28 18.34 12.36 18.33C12.61 18.3 12.78 18.41 12.92 18.61C13.14 18.94 13.37 19.26 13.58 19.59C13.7 19.78 13.79 19.99 13.89 20.19C13.31 20.44 12.85 20.82 12.39 21.24C12.43 21.26 12.47 21.29 12.51 21.3C12.59 21.33 12.63 21.38 12.65 21.45C12.67 21.54 12.69 21.63 12.7 21.71C12.71 21.96 12.58 22.14 12.49 22.37C12.43 22.52 12.37 22.68 12.32 22.83C12.28 22.95 12.27 22.87 12.23 22.99C12.57 23.06 12.87 23.34 13.21 23.42C13.25 23.42 13.28 23.42 13.32 23.42C13.85 23.53 14.37 23.65 14.9 23.76C14.93 23.76 14.95 23.77 14.98 23.78C14.97 23.62 14.95 23.46 14.94 23.3C14.94 23.26 14.91 23.22 14.89 23.18C14.81 23.04 14.69 22.98 14.55 22.92C14.28 22.81 14.01 22.68 13.78 22.5C13.7 22.44 13.74 22.22 13.72 22.1C13.71 22.02 13.7 21.94 13.72 21.87C13.76 21.67 13.88 21.51 14.06 21.39C14.3 21.23 14.56 21.13 14.84 21.07C14.9 21.06 14.98 21.04 15.01 21C15.11 20.87 15.19 20.73 15.27 20.59C15.45 20.27 15.61 19.94 15.73 19.6C15.74 19.57 15.78 19.53 15.81 19.52C16.09 19.44 16.38 19.41 16.68 19.44C16.6 19.66 16.5 19.86 16.35 20.04C16.2 20.22 16.02 20.37 15.81 20.51C15.84 20.51 15.85 20.51 15.86 20.51C16.15 20.63 16.44 20.76 16.7 20.93C16.93 21.08 17.16 21.29 17.36 21.49C17.42 21.55 17.5 21.6 17.5 21.69C17.5 21.87 17.49 22.04 17.48 22.22C17.51 22.22 17.55 22.22 17.58 22.22C17.85 22.19 18.12 22.15 18.38 22.11C18.63 22.08 18.88 22.04 19.13 22.01C19.4 21.97 19.67 21.94 19.95 21.9C19.99 21.9 20.02 21.89 20.06 21.88C20.15 21.88 20.24 21.87 20.33 21.86C20.27 21.73 20.22 21.6 20.17 21.48C20.09 21.32 19.96 21.21 19.78 21.19C19.38 21.16 19 21.07 18.63 20.93C18.38 20.83 18.23 20.8 18.07 20.59C17.94 20.41 17.84 20.22 17.76 20.01C17.78 19.99 17.79 19.96 17.81 19.94C18.17 19.47 18.52 18.99 18.88 18.52C18.9 18.49 18.91 18.47 18.88 18.44C18.8 18.37 18.74 18.29 18.66 18.23C18.3 17.96 17.88 17.85 17.43 17.81C17.25 17.79 17.07 17.8 16.89 17.79C16.84 17.79 16.79 17.79 16.74 17.81C16.74 17.81 16.74 17.81 16.74 17.8C17.04 17.64 17.34 17.48 17.64 17.32C17.8 17.37 17.98 17.42 18.15 17.47C18.34 17.52 18.54 17.57 18.73 17.63C18.77 17.64 18.78 17.63 18.79 17.59C18.8 17.55 18.82 17.51 18.85 17.49C19.05 17.38 19.26 17.29 19.5 17.3C19.62 17.3 19.72 17.31 19.78 17.43C19.84 17.41 19.8867 17.3733 19.92 17.32C19.99 17.22 20.02 17.22 20.11 17.3C20.12 17.3 20.13 17.32 20.14 17.33C20.17 17.33 20.2 17.35 20.22 17.34C20.23 17.34 20.24 17.3 20.24 17.28C20.24 17.21 20.24 17.15 20.26 17.08C20.26 17.05 20.29 17.02 20.31 17.01C20.32 17.01 20.36 17.01 20.38 17.04C20.42 17.08 20.45 17.13 20.5 17.18C20.6 17.08 20.57 16.95 20.59 16.8C20.66 16.88 20.72 16.94 20.78 17C20.78 17 20.79 17 20.8 16.99C20.8 16.88 20.8 16.78 20.8 16.67C20.8 16.64 20.82 16.6 20.85 16.58C20.9 16.54 20.94 16.49 20.92 16.44L20.85 16.53ZM19.9 12.17C19.75 12.24 19.75 12.24 19.62 12.09C19.73 12.09 19.83 12.06 19.9 12.17ZM18.26 14.51C18.34 14.53 18.43 14.56 18.51 14.58C18.53 14.58 18.57 14.57 18.58 14.55C18.74 14.38 18.89 14.19 18.99 13.98C19.07 13.81 19.15 13.64 19.23 13.47C19.23 13.46 19.23 13.44 19.23 13.42C19.19 13.24 19.15 13.05 19.1 12.87C19.08 12.78 19.06 12.7 19.03 12.61C19.01 12.56 19.01 12.53 19.06 12.5C19.18 12.41 19.28 12.3 19.39 12.21C19.39 12.21 19.43 12.21 19.44 12.21C19.5 12.27 19.56 12.33 19.62 12.4C19.62 12.41 19.62 12.44 19.62 12.46C19.57 12.57 19.52 12.68 19.48 12.8C19.47 12.83 19.47 12.86 19.48 12.89C19.54 13.05 19.62 13.2 19.68 13.35C19.74 13.49 19.73 13.49 19.89 13.44C19.9 13.44 19.92 13.44 19.93 13.44C19.93 13.44 19.94 13.45 19.95 13.46C19.86 13.61 19.77 13.75 19.7 13.9C19.63 14.04 19.58 14.19 19.52 14.34C19.43 14.56 19.34 14.79 19.24 15C19.21 15.06 19.16 15.1 19.12 15.15C19.06 15.21 19.05 15.37 19.09 15.44C19.11 15.47 19.11 15.5 19.12 15.55C18.98 15.51 18.86 15.47 18.73 15.43C18.65 15.4 18.58 15.37 18.51 15.35C18.46 15.34 18.45 15.31 18.46 15.27C18.48 15.22 18.44 15.19 18.42 15.15C18.29 14.93 18.15 14.72 18.05 14.47C18.12 14.49 18.18 14.51 18.25 14.52L18.26 14.51ZM17.61 16.04C17.81 15.77 17.9 15.47 17.85 15.14C17.82 14.93 17.74 14.73 17.68 14.52C17.68 14.5 17.67 14.48 17.66 14.45C18.24 14.93 18.32 15.78 18.07 16.38C18 16.36 17.94 16.35 17.87 16.33C17.74 16.29 17.66 16.19 17.58 16.09C17.58 16.09 17.58 16.05 17.6 16.03L17.61 16.04ZM15.87 11.21C15.87 11.21 15.9 11.24 15.9 11.26C15.94 11.38 15.98 11.5 16.02 11.62C16.15 11.56 16.27 11.52 16.38 11.45C16.44 11.42 16.48 11.42 16.53 11.45C16.92 11.62 17.31 11.8 17.69 11.97C17.76 12 17.83 12.03 17.91 12.07C17.86 12.11 17.82 12.14 17.78 12.17C17.8 12.22 17.82 12.27 17.85 12.33C17.82 12.35 17.79 12.38 17.76 12.4C17.72 12.35 17.68 12.3 17.63 12.26C17.48 12.13 17.3 12.13 17.13 12.19C16.85 12.28 16.67 12.48 16.58 12.76C16.55 12.86 16.62 13.01 16.73 13.08C16.83 13.15 16.95 13.19 17.08 13.18C17.23 13.18 17.38 13.17 17.53 13.16C17.53 13.21 17.51 13.26 17.5 13.31C17.41 13.31 17.32 13.28 17.23 13.28C17.05 13.28 16.87 13.31 16.69 13.37C16.65 13.38 16.63 13.38 16.6 13.35C16.34 13.1 16.15 12.81 16 12.48C15.81 12.07 15.67 11.64 15.57 11.21C15.57 11.17 15.55 11.14 15.54 11.09C15.65 11.13 15.75 11.17 15.85 11.21H15.87ZM14.71 16.26C14.87 16.12 14.94 15.93 14.97 15.74C15 15.57 15 15.4 15 15.23C15 15.15 14.95 15.07 14.91 14.99C14.77 14.67 14.47 14.62 14.2 14.67C14.09 14.69 13.98 14.72 13.86 14.75C13.82 14.61 13.84 14.47 13.92 14.33C14.04 14.12 14.16 13.92 14.27 13.71C14.35 13.56 14.37 13.39 14.39 13.23C14.4 13.12 14.42 13 14.43 12.89C14.17 13.44 13.93 13.62 13.76 13.66C13.79 13.53 13.82 13.4 13.84 13.27C13.87 13.04 13.84 12.82 13.73 12.62C13.73 12.61 13.68 12.6 13.66 12.61C13.52 12.67 13.39 12.74 13.25 12.81C13.25 12.67 13.3 12.54 13.36 12.42C13.5 12.12 13.7 11.85 13.96 11.64C14.2 11.43 14.49 11.29 14.8 11.18C14.81 11.18 14.83 11.18 14.85 11.18C14.87 11.25 14.88 11.34 14.92 11.37C14.97 11.4 15.06 11.38 15.13 11.39C15.22 11.39 15.31 11.4 15.39 11.41C15.48 11.71 15.55 12.01 15.65 12.31C15.77 12.68 15.93 13.03 16.18 13.32C16.3 13.47 16.45 13.59 16.59 13.72C16.78 13.88 17 14.02 17.16 14.22C17.33 14.42 17.45 14.66 17.51 14.91C17.55 15.06 17.58 15.21 17.58 15.36C17.58 15.59 17.49 15.79 17.31 15.95C17.15 16.1 16.98 16.23 16.78 16.32C16.68 16.37 16.58 16.4 16.47 16.43C16.56 16.28 16.62 16.13 16.65 15.97C16.69 15.74 16.67 15.52 16.61 15.3C16.55 15.09 16.46 14.89 16.35 14.71C16.34 14.69 16.33 14.68 16.31 14.66C16.33 14.86 16.36 15.05 16.36 15.24C16.36 15.47 16.27 15.68 16.11 15.86C15.98 16.01 15.82 16.14 15.64 16.23C15.45 16.32 15.26 16.38 15.05 16.4C14.9 16.41 14.74 16.43 14.59 16.44C14.59 16.44 14.59 16.43 14.59 16.42C14.64 16.37 14.68 16.32 14.73 16.28L14.71 16.26ZM12.75 17.93C12.58 17.84 12.46 17.73 12.36 17.56C12.29 17.43 12.25 17.3 12.25 17.16C12.25 16.97 12.32 16.79 12.42 16.62C12.54 16.43 12.71 16.3 12.88 16.17C12.93 16.14 12.97 16.1 13.02 16.07C13.04 16.06 13.07 16.05 13.09 16.04C13.09 16.04 13.09 16.05 13.1 16.06C13.08 16.08 13.07 16.09 13.05 16.11C12.91 16.25 12.77 16.39 12.64 16.53C12.47 16.73 12.41 16.97 12.44 17.23C12.46 17.41 12.53 17.56 12.67 17.68C12.81 17.8 12.99 17.86 13.17 17.9C13.2 17.9 13.23 17.91 13.26 17.92V18.01C13.08 17.99 12.9 18.01 12.73 17.92L12.75 17.93ZM14.49 23.27C14.58 23.3 14.61 23.36 14.63 23.45C14.48 23.42 14.34 23.39 14.2 23.36C14.19 23.36 14.17 23.33 14.17 23.31C14.16 23.25 14.15 23.19 14.14 23.12C14.26 23.17 14.37 23.23 14.49 23.27ZM19.7 21.56C19.75 21.56 19.8 21.62 19.85 21.65C19.85 21.66 19.85 21.67 19.84 21.68C19.79 21.68 19.73 21.68 19.68 21.68C19.6 21.69 19.51 21.7 19.43 21.72C19.39 21.72 19.37 21.72 19.36 21.68C19.33 21.62 19.3 21.55 19.27 21.49C19.41 21.51 19.56 21.52 19.71 21.54L19.7 21.56ZM16.72 18.18C16.94 18.15 17.15 18.16 17.37 18.18C17.57 18.2 17.76 18.23 17.95 18.3C18.13 18.36 18.31 18.45 18.46 18.57C18.37 18.69 18.29 18.8 18.2 18.92C17.93 19.28 17.66 19.63 17.4 19.99C17.39 20.01 17.38 20.04 17.39 20.07C17.47 20.36 17.5 20.62 17.72 20.83C17.89 20.99 18.09 21.12 18.31 21.22C18.35 21.24 18.4 21.28 18.43 21.32C18.5 21.44 18.63 21.48 18.75 21.53C18.81 21.56 18.88 21.59 18.94 21.61C19.02 21.64 19.07 21.71 19.1 21.79L17.73 22C17.73 21.9 17.73 21.81 17.74 21.72C17.75 21.65 17.74 21.6 17.7 21.55C17.57 21.36 17.4 21.22 17.21 21.1C16.91 20.91 16.68 20.65 16.36 20.49C16.36 20.49 16.36 20.49 16.35 20.47C16.73 20.08 16.97 19.63 16.97 19.07C16.59 19.01 16.21 19.03 15.82 19.14C15.82 19.09 15.82 19.05 15.84 19.01C15.87 18.85 15.88 18.69 15.85 18.53C15.84 18.46 15.94 18.34 16.02 18.32C16.25 18.27 16.48 18.21 16.71 18.18H16.72ZM16.91 17.42C16.62 17.57 16.32 17.71 16.05 17.9C15.99 17.94 15.94 17.99 15.88 18.03C15.84 18.05 15.8 18.07 15.77 18.08C15.59 17.76 15.36 17.52 15.02 17.4C14.99 17.4 14.96 17.4 14.93 17.4C14.94 17.43 14.94 17.46 14.96 17.48C15.16 17.68 15.33 17.89 15.46 18.14C15.57 18.35 15.58 18.57 15.55 18.8C15.52 19 15.49 19.2 15.44 19.4C15.34 19.77 15.15 20.11 14.93 20.42C14.89 20.48 14.86 20.54 14.81 20.59C14.78 20.62 14.74 20.65 14.69 20.67C14.39 20.76 14.1 20.86 13.85 21.05C13.61 21.22 13.43 21.43 13.4 21.72C13.38 21.91 13.24 22.19 13.29 22.39C13.31 22.47 13.35 22.54 13.4 22.6C13.53 22.77 13.67 22.92 13.8 23.09C13.84 23.14 13.85 23.2 13.88 23.25C13.88 23.25 13.87 23.25 13.86 23.26L12.56 22.98C12.63 22.79 12.7 22.61 12.76 22.42C12.83 22.23 12.98 22.03 12.98 21.83C12.98 21.62 12.98 21.4 12.84 21.22C13.27 20.89 13.68 20.54 14.22 20.41C13.98 19.6 13.57 18.9 13 18.29C13.2 18.19 13.4 18.21 13.59 18.28C13.59 18.19 13.59 18.11 13.59 18.02C13.59 17.77 13.7 17.6 13.92 17.49C14.11 17.4 14.31 17.33 14.5 17.25C14.67 17.18 14.82 17.09 14.92 16.93C14.93 16.91 14.96 16.89 14.98 16.89C15.25 16.89 15.5 16.81 15.75 16.75C15.85 16.73 15.96 16.7 16.07 16.68C16.05 16.8 16.02 16.91 16 17.03C16.11 16.99 16.2 16.97 16.29 16.93C16.43 16.87 16.43 16.87 16.51 17C16.55 17.06 16.57 17.14 16.62 17.18C16.67 17.22 16.76 17.21 16.83 17.22C16.88 17.22 16.93 17.24 16.98 17.25C17.03 17.26 17.08 17.27 17.15 17.29C17.07 17.34 17 17.38 16.92 17.41L16.91 17.42ZM20.61 16.56C20.56 16.59 20.54 16.57 20.5 16.52C20.45 16.45 20.38 16.39 20.31 16.33C20.29 16.31 20.26 16.32 20.22 16.31C20.29 16.42 20.34 16.51 20.39 16.58C20.31 16.64 20.25 16.68 20.19 16.73C20.14 16.77 20.11 16.79 20.05 16.74C20 16.7 19.95 16.66 19.9 16.62C19.88 16.6 19.85 16.59 19.81 16.56C19.81 16.6 19.81 16.62 19.81 16.63C19.85 16.71 19.89 16.79 19.92 16.88C19.92 16.9 19.92 16.93 19.9 16.94C19.81 17.02 19.72 17.1 19.63 17.17C19.54 17.11 19.45 17.05 19.35 16.99C19.34 16.99 19.32 16.97 19.31 16.97C19.28 16.97 19.25 16.97 19.22 16.97C19.22 17 19.22 17.04 19.24 17.07C19.25 17.11 19.28 17.14 19.29 17.16C19.11 17.19 18.93 17.21 18.76 17.24C18.7 17.24 18.65 17.27 18.59 17.28C18.59 17.28 18.57 17.28 18.57 17.29C18.56 17.42 18.47 17.35 18.43 17.33C18.16 17.26 17.9 17.17 17.64 17.1C17.56 17.08 17.47 17.07 17.39 17.05C17.32 17.03 17.26 16.98 17.19 16.96C17.07 16.93 16.94 16.9 16.82 16.87C16.8 16.87 16.78 16.85 16.77 16.84C16.74 16.8 16.71 16.75 16.69 16.71C16.91 16.58 17.13 16.48 17.31 16.28C17.58 16.52 17.89 16.69 18.26 16.72C18.27 16.72 18.29 16.72 18.3 16.72C18.3 16.72 18.32 16.72 18.33 16.72C18.43 16.72 18.53 16.72 18.63 16.72C18.64 16.72 18.66 16.72 18.67 16.72C18.67 16.72 18.68 16.72 18.69 16.72C18.81 16.7 18.92 16.68 19.04 16.68C19.16 16.68 19.21 16.61 19.28 16.54C19.43 16.4 19.59 16.27 19.73 16.13C19.8 16.05 19.88 16 19.98 16.02C20.15 16.04 20.33 16.08 20.47 16.18C20.54 16.23 20.57 16.32 20.62 16.4C20.64 16.43 20.64 16.46 20.65 16.49C20.63 16.49 20.62 16.49 20.6 16.51L20.61 16.56Z" fill="#231F20"/>
<path d="M16.83 11.96C16.82 11.83 16.76 11.73 16.64 11.69C16.59 11.67 16.53 11.69 16.47 11.68C16.48 11.74 16.49 11.8 16.52 11.85C16.59 11.97 16.7 11.98 16.83 11.96Z" fill="#231F20"/>
<path d="M16.05 30.33C16.02 30.31 13 28.7 10.01 26.08C8.27 24.55 6.88 22.98 5.88 21.42C4.65 19.48 4.02 17.55 4.02 15.68V1.8C4.02 1.65 4.11 1.52 4.23 1.52H27.9C28.01 1.52 28.11 1.65 28.11 1.8V15.67C28.11 17.52 27.48 19.43 26.25 21.36C25.25 22.92 23.86 24.49 22.12 26.03C19.13 28.66 16.11 30.31 16.08 30.32L16.05 30.33ZM15.75 29.7C15.84 29.75 15.94 29.78 16.04 29.78C16.14 29.78 16.23 29.75 16.32 29.7C16.44 29.63 19.24 28.07 22 25.62C25.74 22.3 27.72 18.86 27.72 15.68V2.26C27.72 2.12 27.61 2.01 27.47 2.01H4.63C4.49 2.01 4.38 2.12 4.38 2.26V15.69C4.38 18.75 6.35 22.14 10.09 25.51C12.85 28 15.64 29.64 15.75 29.7Z" fill="#231F20"/>
<path d="M15.5 30.22L15.93 30.5L16.95 29.97C15.04 27.95 13.27 26.85 11.58 26.06C10.52 25.56 9.42 25.16 8.3 24.85L9.83 26.18C10.27 26.36 10.6 26.79 11.03 27C12.26 27.61 14.21 28.67 15.5 30.21V30.22Z" fill="#231F20"/>
<path d="M6.78 23.1L7.24 23.84C8.88 24.14 10.5 24.62 12.05 25.3C14.15 26.21 16.37 27.81 18.14 29.36L19.06 28.88L19.22 28.74C17.24 27 14.97 25.58 12.49 24.58C10.64 23.84 8.72 23.34 6.78 23.1Z" fill="#231F20"/>
<path d="M6.38 22.46C8.6 22.64 10.79 23.12 12.9 23.91C15.51 24.89 17.89 26.32 19.99 28.09L21.48 26.83C21.01 26.81 20.54 26.8 20.07 26.81C19.82 26.62 19.57 26.44 19.31 26.26C20.27 26.19 21.24 26.18 22.2 26.22L23.42 25.18C23.67 24.84 23.94 24.53 24.24 24.25L25.35 22.87C23.96 23.39 22.74 24.23 21.77 25.52C21.36 25.52 20.94 25.52 20.53 25.55C21.94 23.86 23.69 22.93 25.67 22.48L26.07 21.98C24.92 21.75 23.76 21.62 22.59 21.6C19.58 21.56 16.75 22.27 14.36 23.58C14.02 23.44 13.68 23.31 13.33 23.19C10.94 22.35 8.46 21.89 5.97 21.81L6.37 22.46H6.38ZM25.57 22.26C23.16 22.62 20.94 23.62 19.19 25.66C18.97 25.68 18.75 25.71 18.53 25.74C18.43 25.68 18.33 25.61 18.23 25.55C20.14 23.55 22.39 22.52 24.79 22.16C25.05 22.19 25.31 22.22 25.57 22.26ZM22.75 22.05C23.08 22.05 23.4 22.05 23.73 22.07C21.57 22.45 19.46 23.4 17.54 25.14C17.33 25.02 17.03 24.8 16.81 24.68C18.58 23.25 20.6 22.49 22.38 22.05C22.55 22.05 22.57 22.05 22.74 22.05H22.75ZM18.3 22.68C19.01 22.48 19.75 22.32 20.5 22.22C19.15 22.68 17.62 23.25 16.17 24.32C15.98 24.22 15.64 24.09 15.45 24C16.35 23.37 17.01 23.1 18.3 22.68Z" fill="#231F20"/>
<path d="M16.05 31.07C16.05 31.07 15.98 31.06 15.96 31.05C15.93 31.03 12.77 29.36 9.62 26.61C7.79 25.01 6.33 23.37 5.28 21.73C3.98 19.69 3.31 17.65 3.31 15.67V1.26C3.31 1.01 3.48 0.800003 3.7 0.800003H28.41C28.62 0.800003 28.8 1.01 28.8 1.26V15.68C28.8 17.63 28.14 19.65 26.83 21.69C25.78 23.32 24.32 24.97 22.49 26.58C19.36 29.33 16.18 31.04 16.15 31.06C16.12 31.08 16.09 31.09 16.06 31.09L16.05 31.07ZM4.13 1.65C4.13 1.65 4.04 1.69 4.04 1.74V15.69C4.04 18.82 6.08 22.3 9.94 25.77C12.8 28.34 15.7 30.03 15.82 30.11C15.89 30.15 15.96 30.17 16.04 30.17C16.12 30.17 16.18 30.15 16.25 30.11C16.38 30.04 19.28 28.42 22.15 25.89C26.02 22.47 28.07 18.95 28.07 15.69V1.74C28.07 1.74 28.03 1.65 27.98 1.65H4.13Z" fill="url(#paint3_linear_25_184)"/>
<path d="M8.78 19.86C8.78 20.87 8.51 21.69 8.18 21.69C7.85 21.69 7.58 20.87 7.58 19.86C7.58 18.85 8.18 17.21 8.18 17.21C8.18 17.21 8.78 18.85 8.78 19.86Z" fill="#231F20"/>
<path d="M9.59 20.61C9.59 21.28 9.36 21.82 9.08 21.82C8.8 21.82 8.57 21.28 8.57 20.61C8.57 19.94 9.08 18.58 9.08 18.58C9.08 18.58 9.59 19.94 9.59 20.61Z" fill="#231F20"/>
<path d="M11.1 21.23C11.1 21.72 10.93 22.12 10.72 22.12C10.51 22.12 10.34 21.72 10.34 21.23C10.34 20.74 10.72 19.52 10.72 19.52C10.72 19.52 11.1 20.74 11.1 21.23Z" fill="#231F20"/>
<path d="M7.37 20.3C7.37 21.05 7.11 21.66 6.79 21.66C6.47 21.66 6.21 21.05 6.21 20.3C6.21 19.55 6.79 18.11 6.79 18.11C6.79 18.11 7.37 19.54 7.37 20.3Z" fill="#231F20"/>
<path d="M9.15 21.84C9.14 21.36 9.08 20.99 9.08 20.99C9.08 20.99 9.02 21.35 9.01 21.83C9.06 21.83 9.11 21.84 9.15 21.85V21.84Z" fill="#BE2126"/>
<path d="M10.77 22.17C10.77 22.17 10.77 22.15 10.77 22.13C10.77 21.75 10.72 21.44 10.72 21.44C10.72 21.44 10.67 21.75 10.67 22.13C10.7 22.14 10.74 22.15 10.77 22.16V22.17Z" fill="#BE2126"/>
<path d="M8.1 21.76C8.1 21.76 8.17 21.76 8.2 21.76C8.2 21.64 8.2 21.51 8.2 21.37C8.2 20.64 8.12 20.04 8.12 20.04C8.12 20.04 8.04 20.63 8.04 21.37C8.04 21.5 8.04 21.63 8.04 21.75C8.05 21.75 8.06 21.75 8.08 21.75L8.1 21.76Z" fill="#BE2126"/>
<path d="M6.88 21.78C6.88 21.72 6.88 21.66 6.88 21.59C6.88 21.02 6.8 20.55 6.8 20.55C6.8 20.55 6.72 21.01 6.72 21.59C6.72 21.66 6.72 21.73 6.72 21.79C6.77 21.79 6.82 21.79 6.86 21.78H6.88Z" fill="#BE2126"/>
<path d="M25.57 21.9L22.89 21.58V20.27H25.57V21.9Z" fill="#231F20"/>
<path d="M25.99 20.41H22.64L23.05 19.77H25.59L25.99 20.41Z" fill="#231F20"/>
<path d="M23.67 21.63L21.86 21.65V20.95H23.67V21.63Z" fill="#231F20"/>
<path d="M23.95 21.04H21.69L21.97 20.61H23.68L23.95 21.04Z" fill="#231F20"/>
<path d="M24.25 21.24H24.26C24.35 21.24 24.43 21.32 24.43 21.41V21.71H24.08V21.41C24.08 21.32 24.16 21.24 24.25 21.24Z" fill="#BE2126"/>
<path d="M22.55 21.34H22.56C22.65 21.34 22.73 21.42 22.73 21.51V21.63H22.38V21.51C22.38 21.42 22.46 21.34 22.55 21.34Z" fill="#BE2126"/>
<path opacity="0.29" fill-rule="evenodd" clip-rule="evenodd" d="M4.82 11.43C4.85 11.52 4.99 11.52 5.03 11.43C5.89 9.33999 9.05 6.88999 13.32 5.30999C19.49 3.02999 23.2 2.60999 23.13 2.49999C23.12 2.47999 23.16 2.38999 23.14 2.38999C20.59 2.27999 19.24 2.38999 14.3 2.41999C14.23 2.41999 14.16 2.41999 14.1 2.41999C14.03 2.41999 13.96 2.41999 13.9 2.41999C9.55 2.47999 6.94 2.48999 5.44 2.51999C5.13 2.51999 4.93 2.86999 4.92 3.14999C4.87 4.28999 4.83 11.42 4.83 11.42L4.82 11.43Z" fill="url(#paint4_linear_25_184)"/>
<path d="M5.85 3.10001H6.66V6.60001H5.85V3.10001ZM7.31 3.02001H7.36L9.2 4.45001V3.10001H10.01V6.60001H9.2V5.40001L8.12 4.53001V6.60001H7.31V3.02001ZM10.66 3.10001H12.7V3.85001H11.47V4.76001H12.88V5.49001H11.47V6.61001H10.66V3.11001V3.10001ZM13.39 3.10001H15.38V3.85001H14.19V4.70001H15.56V5.39001H14.19V5.86001H15.83V6.61001H13.39V3.11001V3.10001ZM16.3 3.10001H17.51C17.96 3.10001 18.31 3.20001 18.56 3.41001C18.81 3.62001 18.93 3.92001 18.93 4.30001C18.93 4.51001 18.89 4.69001 18.8 4.85001C18.72 5.01001 18.6 5.14001 18.44 5.25001L19.05 6.59001H18.19L17.73 5.48001C17.65 5.48001 17.57 5.49001 17.49 5.49001H17.11V6.59001H16.3V3.09001V3.10001ZM17.44 4.82001C17.87 4.82001 18.09 4.65001 18.09 4.31001C18.09 3.97001 17.87 3.81001 17.44 3.81001H17.11V4.82001H17.44ZM19.45 3.02001H19.5L21.34 4.45001V3.10001H22.15V6.60001H21.34V5.40001L20.26 4.53001V6.60001H19.45V3.02001ZM22.91 5.80001C22.75 5.52001 22.67 5.20001 22.67 4.84001C22.67 4.48001 22.75 4.16001 22.91 3.88001C23.07 3.60001 23.29 3.39001 23.57 3.23001C23.85 3.07001 24.18 2.99001 24.55 2.99001C24.92 2.99001 25.25 3.07001 25.53 3.23001C25.81 3.39001 26.03 3.60001 26.19 3.88001C26.35 4.16001 26.43 4.48001 26.43 4.84001C26.43 5.20001 26.35 5.52001 26.19 5.80001C26.03 6.08001 25.81 6.30001 25.53 6.45001C25.25 6.61001 24.92 6.69001 24.55 6.69001C24.18 6.69001 23.86 6.61001 23.57 6.45001C23.29 6.29001 23.07 6.07001 22.91 5.80001ZM25.46 5.39001C25.55 5.23001 25.59 5.05001 25.59 4.84001C25.59 4.63001 25.55 4.45001 25.46 4.29001C25.37 4.13001 25.25 4.01001 25.09 3.92001C24.93 3.83001 24.75 3.79001 24.55 3.79001C24.35 3.79001 24.17 3.83001 24.01 3.92001C23.85 4.01001 23.73 4.13001 23.64 4.29001C23.55 4.45001 23.51 4.63001 23.51 4.84001C23.51 5.05001 23.55 5.23001 23.64 5.39001C23.73 5.55001 23.85 5.67001 24.01 5.76001C24.17 5.85001 24.34 5.89001 24.55 5.89001C24.76 5.89001 24.94 5.85001 25.09 5.76001C25.25 5.67001 25.37 5.55001 25.46 5.39001Z" fill="url(#paint5_linear_25_184)"/>
<path d="M13.75 9.97C13.79 10.05 13.84 10.05 13.9 10.05C14.02 10.03 14.14 10.01 14.26 9.99C14.57 9.96 14.89 9.93 15.2 9.91C15.48 9.9 15.75 9.91 16.03 9.91C16.38 9.91 16.73 9.93 17.08 9.95C17.24 9.95 17.4 9.99 17.56 10.01C17.71 10.03 17.86 10.04 18 10.05C18.09 9.89 18.17 9.73 18.25 9.57C18.33 9.41 18.41 9.25 18.5 9.08C18.32 9.13 18.15 9.17 17.98 9.22C18.09 9.46 18.04 9.65 17.83 9.72C17.62 9.79 17.38 9.74 17.31 9.51C17.28 9.42 17.29 9.32 17.31 9.23C17.36 9.08 17.51 9.03 17.65 9.01C17.62 8.78 17.59 8.55 17.55 8.31C17.35 8.47 17.17 8.61 16.99 8.75C17 8.77 17.01 8.78 17.01 8.79C17.01 8.8 17.02 8.81 17.03 8.82C17.12 8.96 17.13 9.1 17.03 9.24C16.91 9.41 16.75 9.49 16.53 9.45C16.32 9.42 16.21 9.31 16.16 9.15C16.11 8.99 16.19 8.78 16.31 8.71C16.36 8.68 16.37 8.65 16.34 8.59C16.27 8.44 16.2 8.28 16.13 8.12C16.05 7.93 15.97 7.74 15.88 7.55C15.88 7.55 15.87 7.55 15.86 7.55C15.7 7.92 15.53 8.28 15.37 8.64C15.62 8.9 15.65 9.11 15.48 9.31C15.35 9.46 15.07 9.51 14.89 9.39C14.8 9.33 14.72 9.24 14.67 9.14C14.59 8.99 14.69 8.86 14.76 8.73C14.57 8.58 14.39 8.44 14.2 8.29C14.17 8.54 14.14 8.77 14.11 8.99C14.45 9.04 14.52 9.28 14.48 9.45C14.43 9.66 14.19 9.78 13.98 9.7C13.72 9.61 13.66 9.43 13.78 9.19C13.62 9.15 13.45 9.1 13.27 9.05C13.29 9.08 13.29 9.1 13.3 9.11C13.44 9.39 13.59 9.66 13.72 9.94L13.75 9.97Z" fill="#231F20"/>
<path d="M16.05 30.9C16.02 30.88 12.86 29.2 9.75 26.49C7.93 24.9 6.48 23.27 5.44 21.65C4.15 19.64 3.5 17.63 3.5 15.69V1.26C3.5 1.1 3.6 0.970001 3.72 0.970001H28.43C28.55 0.970001 28.65 1.1 28.65 1.26V15.68C28.65 17.6 28 19.59 26.71 21.59C25.67 23.21 24.22 24.84 22.4 26.44C19.28 29.17 16.12 30.88 16.09 30.9H16.05ZM15.74 30.25C15.83 30.31 15.94 30.33 16.04 30.33C16.14 30.33 16.24 30.3 16.33 30.25C16.45 30.18 19.38 28.56 22.26 26.01C26.17 22.56 28.23 18.99 28.23 15.68V1.74C28.23 1.6 28.11 1.48 27.97 1.48H4.13C3.99 1.48 3.87 1.6 3.87 1.74V15.69C3.87 18.87 5.93 22.4 9.83 25.9C12.71 28.49 15.63 30.19 15.74 30.26V30.25Z" fill="url(#paint6_linear_25_184)"/>
<path d="M16.05 31.12C16.05 31.12 15.97 31.11 15.94 31.09C15.81 31.02 12.7 29.36 9.6 26.65C7.76 25.05 6.3 23.4 5.25 21.76C3.94 19.71 3.28 17.67 3.28 15.68V1.25999C3.28 0.979995 3.47 0.759995 3.71 0.759995H28.42C28.66 0.759995 28.85 0.989994 28.85 1.25999V15.68C28.85 17.64 28.19 19.67 26.88 21.71C25.83 23.35 24.37 24.99 22.53 26.6C19.39 29.35 16.21 31.07 16.18 31.09C16.15 31.11 16.11 31.12 16.07 31.12H16.05ZM3.7 0.839994C3.51 0.839994 3.36 1.02999 3.36 1.25999V15.68C3.36 17.65 4.02 19.68 5.32 21.71C6.36 23.34 7.82 24.98 9.65 26.58C12.75 29.29 15.85 30.94 15.98 31.01C16 31.02 16.03 31.03 16.05 31.03C16.07 31.03 16.1 31.03 16.12 31.01C16.15 30.99 19.32 29.28 22.45 26.53C24.28 24.92 25.74 23.28 26.79 21.65C28.09 19.62 28.75 17.61 28.75 15.67V1.25999C28.75 1.02999 28.6 0.839994 28.41 0.839994H3.7ZM16.04 30.21C15.96 30.21 15.88 30.19 15.8 30.14C15.68 30.07 12.78 28.37 9.91 25.8C6.04 22.32 4 18.83 4 15.69V1.73999C4 1.66999 4.06 1.60999 4.13 1.60999H27.98C28.05 1.60999 28.11 1.66999 28.11 1.73999V15.69C28.11 18.96 26.06 22.5 22.18 25.92C19.31 28.45 16.39 30.08 16.27 30.14C16.2 30.18 16.12 30.2 16.04 30.2V30.21ZM4.13 1.68999C4.13 1.68999 4.08 1.70999 4.08 1.73999V15.69C4.08 18.8 6.12 22.28 9.97 25.74C12.83 28.31 15.72 30 15.85 30.07C15.97 30.14 16.11 30.14 16.23 30.07C16.35 30 19.26 28.38 22.13 25.86C25.99 22.45 28.03 18.93 28.03 15.69V1.73999C28.03 1.73999 28.01 1.68999 27.98 1.68999H4.13Z" fill="#606161"/>
</g>
<defs>
<linearGradient id="paint0_linear_25_184" x1="21.97" y1="27.88" x2="13.85" y2="2.58" gradientUnits="userSpaceOnUse">
<stop stop-color="#BE2126"/>
<stop offset="0.2" stop-color="#BE2126"/>
<stop offset="0.22" stop-color="#BE2126"/>
<stop offset="0.42" stop-color="#BA2025"/>
<stop offset="0.57" stop-color="#B11E23"/>
<stop offset="0.71" stop-color="#A01C20"/>
<stop offset="0.83" stop-color="#88181C"/>
<stop offset="0.96" stop-color="#6B1316"/>
<stop offset="1" stop-color="#5E1114"/>
</linearGradient>
<radialGradient id="paint1_radial_25_184" cx="0" cy="0" r="1" gradientUnits="userSpaceOnUse" gradientTransform="translate(-3.5079 -21.5254) scale(33.6672 33.6672)">
<stop stop-color="white"/>
<stop offset="1" stop-color="white" stop-opacity="0"/>
</radialGradient>
<linearGradient id="paint2_linear_25_184" x1="14.58" y1="6.98999" x2="16.8" y2="21.46" gradientUnits="userSpaceOnUse">
<stop stop-color="#BF5B39"/>
<stop offset="1" stop-color="#BC2127"/>
</linearGradient>
<linearGradient id="paint3_linear_25_184" x1="5.56" y1="-6.39" x2="28.24" y2="28.81" gradientUnits="userSpaceOnUse">
<stop stop-color="white"/>
<stop offset="1" stop-color="#8A8C8F"/>
</linearGradient>
<linearGradient id="paint4_linear_25_184" x1="14.16" y1="7.80999" x2="13.06" y2="2.41999" gradientUnits="userSpaceOnUse">
<stop stop-color="white"/>
<stop offset="0.06" stop-color="white" stop-opacity="0.95"/>
<stop offset="0.16" stop-color="white" stop-opacity="0.82"/>
<stop offset="0.31" stop-color="white" stop-opacity="0.61"/>
<stop offset="0.48" stop-color="white" stop-opacity="0.32"/>
<stop offset="0.65" stop-color="white" stop-opacity="0"/>
</linearGradient>
<linearGradient id="paint5_linear_25_184" x1="15.78" y1="3.22001" x2="17.63" y2="15.68" gradientUnits="userSpaceOnUse">
<stop stop-color="white"/>
<stop offset="1" stop-color="#231F20"/>
</linearGradient>
<linearGradient id="paint6_linear_25_184" x1="12.09" y1="-0.00999901" x2="23.43" y2="26.87" gradientUnits="userSpaceOnUse">
<stop stop-color="white"/>
<stop offset="0.36" stop-color="#90B496"/>
<stop offset="0.46" stop-color="#5C5C5F"/>
<stop offset="0.84" stop-color="white"/>
</linearGradient>
<clipPath id="clip0_25_184">
<rect width="31.94" height="31.94" fill="white" transform="translate(0.0599995)"/>
</clipPath>
</defs>
</svg>
