<?xml version="1.0" encoding="UTF-8"?>
<svg id="Layer_1" xmlns="http://www.w3.org/2000/svg" width="32" height="32" version="1.1" xmlns:xlink="http://www.w3.org/1999/xlink" viewBox="0 0 32 32">
  <!-- Generator: Adobe Illustrator 29.5.0, SVG Export Plug-In . SVG Version: 2.1.0 Build 137)  -->
  <defs>
    <linearGradient id="linear-gradient" x1="24.98" y1="30.989" x2="6.893" y2="5.211" gradientTransform="translate(0 34) scale(1 -1)" gradientUnits="userSpaceOnUse">
      <stop offset="0" stop-color="#fdf9f0"/>
      <stop offset="1" stop-color="#a29884"/>
    </linearGradient>
    <linearGradient id="linear-gradient1" x1="24.947" y1="30.941" x2="7.018" y2="5.311" gradientTransform="translate(0 34) scale(1 -1)" gradientUnits="userSpaceOnUse">
      <stop offset="0" stop-color="#ede8d9"/>
      <stop offset=".36" stop-color="#f4eee0"/>
      <stop offset="1" stop-color="#fff7eb"/>
    </linearGradient>
    <linearGradient id="linear-gradient2" x1="6.723" y1="5.927" x2="25.36" y2="5.927" gradientTransform="translate(0 34) scale(1 -1)" gradientUnits="userSpaceOnUse">
      <stop offset="0" stop-color="#c9c5b8"/>
      <stop offset="1" stop-color="#e4dfd0"/>
    </linearGradient>
    <linearGradient id="linear-gradient3" x1="14.936" y1="27.627" x2="16.526" y2="30.243" gradientTransform="translate(0 34) scale(1 -1)" gradientUnits="userSpaceOnUse">
      <stop offset="0" stop-color="#fdf9f0"/>
      <stop offset="1" stop-color="#a29884"/>
    </linearGradient>
    <linearGradient id="linear-gradient4" x1="15.85" y1="12.58" x2="16.196" y2="20.16" gradientTransform="translate(0 34) scale(1 -1)" gradientUnits="userSpaceOnUse">
      <stop offset=".05" stop-color="#fffaeb" stop-opacity=".7"/>
      <stop offset=".68" stop-color="#ffedcf" stop-opacity="0"/>
    </linearGradient>
  </defs>
  <path d="M23.648,2.5h-15.423c-1.099,0-1.989.93-1.989,2.085v22.629c0,1.147.889,2.085,1.989,2.085h15.423c1.099,0,1.989-.93,1.989-2.085V4.585c0-1.147-.89-2.085-1.989-2.085ZM15.719,6.294c-.671,0-1.208-.57-1.208-1.265s.545-1.265,1.208-1.265,1.208.569,1.208,1.265-.545,1.265-1.208,1.265Z" style="fill: url(#linear-gradient);"/>
  <path d="M23.643,2.567h-15.32c-1.094,0-1.977.921-1.977,2.069v22.478c0,1.139.883,2.069,1.977,2.069h15.32c1.094,0,1.977-.93,1.977-2.069V4.636c0-1.139-.883-2.069-1.977-2.069ZM15.76,6.336c-.665,0-1.203-.561-1.203-1.256s.538-1.256,1.203-1.256,1.203.561,1.203,1.256-.538,1.256-1.203,1.256Z" style="fill: url(#linear-gradient1);"/>
  <path d="M6.312,27.24c0,1.089.856,1.968,1.905,1.968h15.414c1.049,0,1.905-.879,1.905-1.968v-9.749H6.312v9.749Z" style="fill: #ce862a;"/>
  <path d="M23.598,2.626h-15.28c-1.091,0-1.972.888-1.972,1.977v.896l8.232-.017c-.067-.151-.101-.318-.101-.494,0-.687.562-1.248,1.25-1.248s1.25.561,1.25,1.248c0,.176-.034.343-.101.494l8.693.017v-.896c0-1.089-.881-1.968-1.972-1.968v-.008Z" style="fill: #ce862a;"/>
  <path d="M21.618,5.942l-.26.528h-.076l.243-.486h-.327v-.059h.42v.017Z" style="fill: #434549;"/>
  <path d="M21.718,6.445v-.067c.042.034.092.042.151.042.042,0,.084-.008.109-.025.025-.017.042-.042.042-.075,0-.067-.059-.109-.185-.109h-.05v-.05h.05c.109,0,.159-.033.159-.1,0-.059-.042-.092-.126-.092-.042,0-.092.017-.134.042v-.059s.092-.034.151-.034.101.008.134.034c.034.025.05.059.05.092,0,.075-.042.117-.134.142.05,0,.084.017.109.042.025.025.042.05.042.092,0,.05-.017.092-.067.117-.042.034-.101.042-.168.042-.059,0-.109-.008-.151-.025l.017-.008Z" style="fill: #434549;"/>
  <path d="M22.238,6.453v-.067c.042.025.092.033.134.033s.084-.008.109-.033c.025-.025.042-.05.042-.084s-.017-.067-.042-.084c-.025-.017-.067-.034-.125-.034h-.1v-.276h.318v.059h-.243v.159h.059c.067,0,.126.017.159.042.034.033.059.067.059.117s-.017.092-.059.126c-.042.034-.1.05-.167.05-.059,0-.109,0-.134-.025l-.008.017Z" style="fill: #434549;"/>
  <path d="M22.742,6.453v-.067c.042.025.092.033.134.033s.084-.008.109-.033c.025-.025.042-.05.042-.084s-.017-.067-.042-.084c-.025-.017-.067-.034-.125-.034h-.1v-.276h.318v.059h-.243v.159h.059c.067,0,.126.017.159.042.033.033.059.067.059.117s-.017.092-.059.126c-.042.034-.101.05-.167.05-.059,0-.109,0-.134-.025l-.008.017Z" style="fill: #434549;"/>
  <path d="M23.589,5.925v.059s-.067-.025-.109-.025c-.059,0-.101.025-.143.067-.034.042-.05.101-.05.176.034-.05.084-.075.151-.075.059,0,.101.017.134.042.034.033.05.067.05.126s-.017.101-.059.134c-.042.034-.084.05-.143.05-.067,0-.118-.025-.151-.067-.034-.042-.059-.101-.059-.184,0-.092.025-.176.076-.226.05-.059.109-.084.193-.084.042,0,.084,0,.109.017v-.008ZM23.43,6.177s-.067.008-.092.033c-.025.025-.034.05-.034.075,0,.033.008.067.034.092.025.025.059.042.092.042s.067-.008.092-.033c.025-.025.033-.05.033-.084,0-.042-.008-.067-.033-.092-.025-.025-.05-.033-.092-.033Z" style="fill: #434549;"/>
  <path d="M23.917,6.47c-.067,0-.118-.025-.151-.067-.034-.05-.05-.117-.05-.201,0-.1.017-.168.059-.218.042-.05.092-.075.168-.075.134,0,.201.092.201.276,0,.092-.017.159-.059.209-.042.05-.092.075-.16.075h-.008ZM23.925,5.959c-.092,0-.143.075-.143.234,0,.151.042.218.134.218s.134-.075.134-.226-.042-.234-.134-.234l.008.008Z" style="fill: #434549;"/>
  <path d="M24.361,6.177c-.076-.034-.118-.075-.118-.134,0-.042.017-.075.05-.101.034-.025.084-.034.143-.034.05,0,.092.008.126.034.034.025.05.05.05.092,0,.059-.042.109-.118.142.092.034.143.075.143.151,0,.042-.017.084-.059.109-.042.025-.092.042-.16.042-.059,0-.101-.017-.134-.042-.034-.025-.05-.059-.05-.101,0-.067.05-.117.143-.151l-.017-.008ZM24.42,6.21c-.084.025-.126.067-.126.117,0,.025.008.05.034.067s.059.025.092.025.067-.008.092-.025.034-.042.034-.067c0-.059-.042-.092-.134-.126l.008.008ZM24.529,6.043s-.008-.042-.025-.059c-.017-.017-.042-.025-.076-.025s-.059,0-.075.025c-.017.017-.034.033-.034.059,0,.05.034.084.109.109.076-.025.109-.059.109-.109h-.008Z" style="fill: #434549;"/>
  <path d="M21.383,27.148h1.485l-.898,1.859h-1.485l.898-1.859ZM9.107,28.999h.386l.898-1.859h-.386l-.898,1.859ZM14.175,28.999h.193l.898-1.859h-.193l-.898,1.859ZM13.797,28.999h.193l.898-1.859h-.193l-.898,1.859ZM12.497,28.999h.193l.898-1.859h-.193l-.898,1.859ZM25.36,27.148h-.772l-.889,1.843c.898-.117,1.603-.888,1.661-1.843ZM7.798,28.923l.856-1.775h-1.485l-.445.93c.243.402.621.712,1.074.846ZM17.858,28.999h1.485l.898-1.859h-1.485l-.898,1.859ZM15.005,28.999h2.509l.898-1.859h-2.509l-.898,1.859Z" style="fill: url(#linear-gradient2);"/>
  <path d="M24.479,15.372h-.168v1.876h.168v-1.876Z" style="fill: #434549;"/>
  <path d="M24.059,15.372h-.168v1.876h.168v-1.876Z" style="fill: #434549;"/>
  <path d="M23.615,15.372h-.168v1.876h.168v-1.876Z" style="fill: #434549;"/>
  <path d="M12.95,3.924s-.017-.025-.025-.034c0-.008-.017-.017-.025-.025-.008,0-.017-.017-.034-.017,0,0,.05-.017.067-.025.017-.008.034-.025.05-.042.017-.017.025-.034.033-.059,0-.017.008-.042.008-.067,0-.033,0-.059-.017-.084-.008-.025-.025-.042-.042-.059-.017-.017-.042-.025-.067-.033-.025,0-.059-.008-.084-.008h-.21v.712h.084v-.301h.109c.008,0,.025.008.033.017.008,0,.025.017.034.033.008.017.025.025.034.05l.117.201h.101l-.134-.218s-.017-.033-.025-.042h-.008ZM12.857,3.79s-.034.008-.059.008h-.118v-.26h.118c.05,0,.084.008.109.033.025.025.034.05.034.092,0,.025,0,.042-.008.059,0,.017-.017.034-.034.042-.017.008-.025.017-.05.025h.008Z" style="fill: #515253;"/>
  <path d="M11.28,3.857h.251v-.075h-.251v-.243h.276v-.075h-.36v.72h.377v-.075h-.293v-.251Z" style="fill: #515253;"/>
  <path d="M9.694,3.539h.201v.645h.084v-.645h.21v-.075h-.495v.075Z" style="fill: #515253;"/>
  <path d="M8.603,3.966v.109s-.017-.025-.025-.05l-.361-.561h-.109v.712h.084v-.62s.017.033.025.042l.369.569h.101v-.712h-.084v.511Z" style="fill: #515253;"/>
  <path d="M15.92,3.748l.05-.151s0-.025.008-.05c0,0,0,.042.008.05l.067.193s.067.025.109.042l-.142-.368h-.084l-.1.268s.05.008.075.017h.008Z" style="fill: #515253;"/>
  <path d="M7.034,3.463h-.084v.712h.084v-.712Z" style="fill: #515253;"/>
  <path d="M20.124,3.455c-.109,0-.193.033-.252.1-.059.067-.092.159-.092.276,0,.109.034.193.092.26.059.067.143.101.243.101s.185-.034.252-.101c.067-.067.092-.159.092-.276,0-.109-.033-.193-.092-.26-.059-.067-.143-.1-.235-.1h-.008ZM20.292,4.041c-.042.05-.109.075-.185.075s-.134-.025-.176-.084c-.042-.05-.067-.126-.067-.209s.025-.159.067-.209c.05-.05.109-.084.185-.084s.134.025.185.075c.042.05.067.126.067.218s-.025.168-.067.218h-.008Z" style="fill: #515253;"/>
  <path d="M23.329,3.463l-.277.712h.092l.076-.201h.302l.075.201h.092l-.277-.712h-.084ZM23.245,3.907l.109-.301s0-.025.008-.05c0,0,0,.042.008.05l.109.301h-.252.017Z" style="fill: #515253;"/>
  <path d="M24.772,4.108v-.645h-.084v.72h.368v-.075h-.285Z" style="fill: #515253;"/>
  <path d="M21.978,3.966v.109s-.017-.025-.025-.05l-.361-.561h-.109v.712h.084v-.62s.017.033.025.042l.369.569h.101v-.712h-.084v.511Z" style="fill: #515253;"/>
  <path d="M18.74,3.463h-.084v.712h.084v-.712Z" style="fill: #515253;"/>
  <path d="M14.208,3.614l.369.569h.101v-.712h-.084v.611s-.017-.025-.025-.05l-.361-.561h-.109v.712h.084v-.62s.017.033.025.042v.008Z" style="fill: #515253;"/>
  <path d="M17.162,3.539h.201v.645h.084v-.645h.21v-.075h-.495v.075Z" style="fill: #515253;"/>
  <path d="M15.727,3.806c-.688,0-1.25.561-1.25,1.265s.562,1.265,1.25,1.265,1.25-.561,1.25-1.265-.562-1.265-1.25-1.265ZM15.727,6.269c-.663,0-1.192-.536-1.192-1.206s.537-1.206,1.192-1.206,1.192.536,1.192,1.206-.537,1.206-1.192,1.206Z" style="fill: url(#linear-gradient3);"/>
  <path d="M25.284,19.149v5.854c-.604-.268-1.997-5.151-2.819-5.544-1.309-.628-3.172,3.501-4.514,1.399-1.729-2.697-3.667-3.007-4.674-3.007-.831,0-1.922,3.526-3.113,3.107-2.266-.796-3.189.084-3.692-.201v-4.095c0-1.315.864-2.32,1.93-2.253l14.944,2.245c1.066.067,1.93,1.189,1.93,2.496h.008Z" style="fill: url(#linear-gradient4); isolation: isolate; opacity: .31;"/>
  <path d="M10.684,24.317l-.503-2.044.017,4.095h-1.15v-6.834h1.309l.764,2.73.755-2.73h1.276v6.834l-1.099.034-.034-4.012-.487,1.935h-.831l-.017-.008Z" style="fill: #e4dfd0;"/>
  <path d="M17.128,26.36l-.243-1.625h-1.309l-.277,1.625h-1.242l1.309-6.834h1.754l1.309,6.834h-1.309.008ZM16.709,23.563l-.428-2.881-.487,2.881h.923-.008Z" style="fill: #e4dfd0;"/>
  <path d="M19.302,26.36v-6.834h1.938c.587,0,1.049.151,1.384.461.336.302.495.771.495,1.399v1.08c0,.611-.159,1.064-.487,1.348-.319.285-.789.427-1.384.427h-.604v2.127h-1.343v-.008ZM20.644,23.077h.512c.185,0,.327-.05.42-.159.092-.109.143-.31.143-.603v-.804c0-.31-.05-.519-.143-.628-.092-.109-.235-.168-.42-.168h-.512v2.37-.008Z" style="fill: #e4dfd0;"/>
  <path d="M9.341,19.225c-.117,0-.201-.025-.26-.084-.059-.059-.084-.142-.084-.26v-.343c0-.117.025-.201.084-.26.059-.059.143-.092.26-.092s.193.025.243.084c.05.059.084.151.084.276h-.235c0-.067-.008-.126-.025-.151-.017-.025-.042-.042-.076-.042-.042,0-.067.017-.084.042-.017.025-.025.084-.025.151v.302c0,.067,0,.117.025.151.025.034.042.042.084.042.034,0,.059-.017.076-.034.017-.025.025-.075.025-.159l.235.017c0,.126-.034.218-.084.276-.05.059-.134.084-.252.084h.008Z" style="fill: #e4dfd0;"/>
  <path d="M10.953,19.225c-.101,0-.185-.033-.243-.092-.059-.059-.084-.142-.084-.243v-.368c0-.109.025-.193.084-.251.059-.059.134-.092.243-.092s.185.034.243.092c.059.059.084.142.084.251v.368c0,.101-.025.184-.084.243-.059.059-.134.092-.243.092ZM10.953,19.049s.059-.017.067-.034c.017-.025.017-.075.017-.142v-.327c0-.067,0-.117-.017-.142-.017-.025-.034-.042-.067-.042s-.059.008-.067.042c-.017.025-.017.075-.017.142v.327c0,.067,0,.117.017.142.017.025.034.034.067.034Z" style="fill: #e4dfd0;"/>
  <path d="M12.513,18.907l-.084-.352.025.653h-.21v-1.013h.21l.126.469.126-.469h.201v1.013h-.21l.025-.636-.084.335h-.143.017Z" style="fill: #e4dfd0;"/>
  <path d="M14.141,18.907l-.084-.352.025.653h-.21v-1.013h.21l.126.469.126-.469h.201v1.013h-.21l.025-.636-.084.335h-.143.017Z" style="fill: #e4dfd0;"/>
  <path d="M15.844,19.225c-.117,0-.193-.034-.252-.092-.05-.059-.084-.151-.084-.276v-.662h.235v.662c0,.067,0,.117.017.142.017.025.033.034.075.034s.059-.008.076-.034c.017-.025.017-.075.017-.142v-.662h.235v.662c0,.126-.025.218-.084.276-.059.059-.134.092-.252.092h.017Z" style="fill: #e4dfd0;"/>
  <path d="M17.531,19.217l-.193-.687v.687h-.201v-1.013h.252l.21.72v-.72h.201v1.013h-.269Z" style="fill: #e4dfd0;"/>
  <path d="M18.773,19.217v-.176h.21v-.662h-.21v-.176h.663v.176h-.21v.662h.21v.176h-.663Z" style="fill: #e4dfd0;"/>
  <path d="M20.619,19.217v-.837h-.235v-.176h.705v.176h-.235v.837h-.235Z" style="fill: #e4dfd0;"/>
  <path d="M22.482,19.217h-.235v-.377l-.252-.636h.235l.134.402.134-.402h.235l-.252.636v.377Z" style="fill: #e4dfd0;"/>
  <g>
    <path d="M7.456,9.224c.029.017.28-.042.346-.045.26-.013.797-.011,1.006.159.021.017.171.192.191.221.14.192-.055.377-.19.506h.097c-.118.195-.396.303-.532.437-.02.02-.034.022-.026.059.165.061.365.145.484.28.054.061.289.386.304.447.071.28-.071.543-.255.74-.299.322-1.082.646-1.509.769-.101.029-.613.15-.68.135-.071-.016-.108-.131-.09-.197.007-.024.049-.023.059-.042.019-.034.014-.077.037-.11.045-.064.181-.054.196-.144l.145-2.702-.145.014c-.165-.172.111-.271.14-.37.019-.063-.012-.186.009-.221.026-.042.217-.019.19-.174.044-.003.016.061.035.099.009.017.071.008.108.034.044.031.072.101.079.105ZM8.563,9.692c-.37-.175-.799-.136-1.184-.028-.019.069.069.087.074.132.013.102-.027.195-.028.292-.006.727-.064,1.388-.096,2.108-.002.056-.012.122.037.157.306-.128,1.169-.423,1.278-.757.192-.586-.666-.592-.944-.788-.099-.069-.164-.156-.08-.261.214-.265.55-.344.789-.568.057-.054.206-.204.153-.288ZM8.809,10.101c-.121.045-.241.137-.315.242l.217-.135.098-.107ZM7.403,10.464c-.014-.056.032-.186-.024-.218.014.056-.032.184.024.218ZM7.113,12.766c.485-.109,1.219-.31,1.593-.649.026-.024.068-.026.055-.078l-1.648.727Z"/>
    <path d="M15.692,11.337l.222-.565c.065-.058.164-.244.264-.225.04.007.261.344.294.411l.189.622c.052-.211.097-.425.153-.635.068-.258.23-.986.36-1.167.036-.05.189-.211.252-.164.01.007.121.201.125.212.002.008.005.149.003.16-.036.192-.167.49-.226.697-.07.248-.133.498-.182.751l-.048-.097c-.029.322-.144.645-.192.959-.015.101.084-.081.095-.063.004.06-.033.189-.073.229-.027.027-.268.124-.308.129-.206.028-.246-.301-.29-.45-.059-.2-.106-.408-.153-.611l-.049.036-.072.207.072-.388c-.072-.013-.038.019-.051.057-.048.141-.094.304-.094.452l.047-.014c-.037.133-.054.222-.197.264-.04.012-.2.056-.229.058-.186.019-.258-.43-.292-.57-.109-.457-.24-1.13-.274-1.592-.004-.048-.01-.359.003-.372.009-.009.056,0,.08-.028.022-.025.017-.086.061-.11.118-.063.107.056.145.098.024.026.064.036.084.061.054.065.087.684.112.833.006.037.038.064.044.101.041.237.082.475.124.712ZM17.218,10.391l.024-.169c-.037.001-.074.168-.024.169ZM16.879,11.773l.242-1.115c-.036-.006-.032.042-.041.068-.098.286-.179.642-.223.941-.004.025-.022.111.021.106ZM16.806,12.136l.024-.242c-.036.011-.046.126-.048.158-.002.027-.018.09.024.084Z"/>
    <path d="M11.886,12.597c-.08-.061-.139-.007-.157-.007-.079-.004-.334-.386-.401-.465-.108-.127-.726-.834-.835-.837l-.059,1.245c-.074.046-.154.074-.243.066v.07c-.126-.02-.139-.096-.147-.205-.041-.521.048-1.057.073-1.576.019-.381.03-.757.002-1.137-.331-.121.099-.51.276-.572.304-.108.96.117,1.201.328.04.035.295.344.305.375.04.131-.137.298-.232.377-.11.092-.885.555-.896.608.33.391.732.733,1.012,1.165.123.189.245.353.101.565ZM11.394,9.914c-.097-.117-.578-.356-.731-.371-.108-.011-.234-.011-.255.121.009.009.094-.071.12.086.045.275.017.58.026.859.035.039.85-.525.869-.599.006-.036-.005-.069-.028-.097Z"/>
    <path d="M21.823,10.998c-.003.078.042.065.097.048.012.01-.039.04-.041.06-.003.027.289.384.333.436.132.156.566.544.622.687.119.301-.177.315-.383.19-.34-.207-.603-.619-.893-.888l-.073.945-.048-.072c.077.189-.257.414-.31.176-.013-.06-.031-.333-.032-.407-.001-.676.17-1.429.149-2.108-.006-.185-.128-.155.047-.365.243-.291.651-.395,1.001-.248.247.103.251.285.395.478.196.407-.529.943-.862,1.068ZM21.581,10.706c.095.084.652-.347.677-.498.038-.229-.094-.374-.313-.413-.1-.018-.338.094-.378.184-.009.02.036.06.039.108.009.133.027.366.024.487-.001.064-.051.076-.05.132Z"/>
    <path d="M14.186,9.595c.013.021-.003.07.004.101.005.021.076.02.048.089-.096-.024-.266.011-.345-.026-.138-.065-.356-.11-.568-.11-.095,0-.354.005-.372.112l-.036-.048c-.105.043-.155,1.031-.182,1.187.192.034.378.116.572.143.275.037.574.005.848.047.331.303-.086.354-.341.369-.372.022-.741-.022-1.104-.098.062.112-.027.186-.027.254,0,.052.045.081.05.122.046.335-.047.446.334.587.378.14.695.091,1.034-.114l.13.208c-.035.121-.048.197-.156.271-.553.38-1.596.208-1.742-.528-.061-.305.023-.537-.01-.814-.01-.081-.09-.194-.075-.261.005-.022.048-.024.06-.042.105-.165.092-1.082.179-1.374.01-.034.161-.205.189-.222.156-.089.63-.049.818-.024.083.011.672.14.691.17Z"/>
    <path d="M19.891,9.876c.013.02.103.034.053.079-.45-.273-1.133-.073-1.476.293-.151.161-.159.327-.184.543-.009.08.016.197,0,.263-.007.029-.059,0-.049.04.271-.078.55-.008.837-.023.113-.006.719-.106.763-.074-.053.113.098.111.011.241-.184.274-1.097.218-1.405.268-.029.005-.043.012-.06.036.083.227.123.704.356.831.177.096.543.067.697-.067.098-.085.143-.328.298-.237-.026.087.077.17.078.18.001.013-.007.244-.01.259-.038.206-.352.355-.542.398-.697.156-.917-.079-1.127-.702-.165-.488-.371-1.328-.144-1.804.261-.546,1.081-.966,1.672-.791.253.075.146.135.23.268Z"/>
    <path d="M24.32,10.61c.04.04.041-.012.05-.034.084-.187.125-.374.236-.564.082-.139.235-.371.414-.321-.016.118.066.183.052.301-.008.073-.251.378-.305.496-.093.205-.103.434-.169.631-.027.08-.112.156-.128.235-.036.173-.017.502-.03.697-.014.219-.044.433-.049.653-.008.308.152.71-.013,1.005-.095.171-.171.042-.18.05l-.048.073c.013-.069-.06-.099-.072-.158-.12-.564-.103-1.66-.074-2.254.005-.094.055-.202.048-.287-.025-.336-.332-.835-.383-1.188-.01-.125.03-.101.079-.162.037-.047.068-.176.174-.097.036.027.164.303.192.366.035.079.186.536.207.557Z"/>
    <path d="M14.213,9.859c0,.031-.094.063-.115.067-.359.059-.753-.193-1.122-.104l.038-.109,1.198.146Z"/>
    <path d="M19.933,10.028c-.227.092-.37-.014-.581-.037-.23-.025-.436.043-.624.177-.111.079-.187.193-.297.272-.011-.045.025-.058.048-.085.165-.196.402-.35.649-.417.257-.069.592-.085.805.09ZM19.569,9.931c-.052.001-.105-.003-.158,0-.03.001-.09-.018-.084.024.052-.001.105.003.158,0,.03-.001.09.018.084-.024Z"/>
    <path d="M11.087,10.755c-.044.051-.132.104-.192.135-.024.013-.052.058-.075-.002-.005-.014.235-.122.266-.133Z"/>
    <path d="M22.09,10.949c-.018.045-.078.075-.121.072.018-.045.078-.075.121-.072Z"/>
    <path d="M24.634,11.215s-.016-.001-.024,0c-.009-.02.016-.134.048-.121.006.013-.017.113-.024.121Z"/>
  </g>
</svg>