<svg width="39" height="32" viewBox="0 0 39 32" fill="none" xmlns="http://www.w3.org/2000/svg">
<path d="M0 11.77C0 8.4327 2.70545 5.72724 6.04279 5.72723V8.74863C5.20845 8.74863 4.53209 9.42499 4.53209 10.2593V10.5615V13.5829H3.62567H3.02139H0V11.77Z" fill="white"/>
<path d="M13.2941 11.77C13.2941 8.43268 10.5887 5.72723 7.25134 5.72723V8.74863C8.08567 8.74863 8.76204 9.42499 8.76204 10.2593V13.5829H9.97059H10.5749H13.2941V11.77Z" fill="white"/>
<path d="M0 21.0263C0 23.9238 2.39448 26.2727 5.34822 26.2727L6.64707 26.2727V16.9064C6.64707 16.9064 4.53209 16.9064 4.53209 14.4893C4.53209 14.4893 3.61136 14.4893 3.02139 14.4893C2.43143 14.4893 1.5107 14.4893 1.5107 14.4893H0V21.0263Z" fill="white"/>
<path d="M13.2941 21.0263C13.2941 23.9238 10.8997 26.2727 7.94592 26.2727L6.64707 26.2727V16.9064C6.64707 16.9064 8.76204 16.9064 8.76204 14.4893H10.877H11.1792H13.2941V21.0263Z" fill="white"/>
<path d="M5.43851 10.5923C5.43851 9.92482 5.9796 9.38373 6.64706 9.38373C7.31453 9.38373 7.85562 9.92482 7.85562 10.5923V14.8222C7.85562 15.4897 7.31453 16.0308 6.64706 16.0308C5.9796 16.0308 5.43851 15.4897 5.43851 14.8222V10.5923Z" fill="#6CB2FF"/>
<path d="M3.58423 29.1007C3.58423 28.9439 3.64745 28.7872 3.77383 28.6675C4.02658 28.4283 4.43606 28.4283 4.68881 28.6675L6.64708 30.5213L8.60535 28.6675C8.85811 28.4283 9.26758 28.4283 9.52034 28.6675C9.77309 28.9068 9.77309 29.2944 9.52034 29.5337L7.10463 31.8204C6.85188 32.0597 6.4424 32.0597 6.18965 31.8204L3.77395 29.5337C3.64764 29.414 3.58442 29.2573 3.58442 29.1006L3.58423 29.1007Z" fill="#6CB2FF"/>
<path d="M9.7099 2.89922C9.7099 3.05593 9.64668 3.21269 9.5203 3.33234C9.26755 3.57159 8.85807 3.57159 8.60532 3.33234L6.64705 1.4786L4.68877 3.33234C4.43602 3.57159 4.02654 3.57159 3.77379 3.33234C3.52104 3.09308 3.52104 2.70546 3.77379 2.4662L6.1895 0.179445C6.44225 -0.0598149 6.85173 -0.0598149 7.10448 0.179445L9.52018 2.4662C9.64649 2.58583 9.70971 2.74253 9.70971 2.89931L9.7099 2.89922Z" fill="#6CB2FF"/>
<path d="M19 9C19 7.34315 20.3431 6 22 6H36C37.6569 6 39 7.34315 39 9V23C39 24.6569 37.6569 26 36 26H23C20.7909 26 19 24.2091 19 22V9Z" fill="white"/>
<path d="M28.375 15.6874L38.1064 25.1327C37.5646 25.6679 36.8217 25.9999 36 25.9999H22C20.3431 25.9999 19 24.6567 19 22.9999V8.99988C19 8.17892 19.3299 7.4351 19.8643 6.89343L28.375 15.6874Z" fill="black"/>
<path d="M30.25 9.75C30.25 9.40482 30.5298 9.125 30.875 9.125H35.25C35.5952 9.125 35.875 9.40482 35.875 9.75V9.75C35.875 10.0952 35.5952 10.375 35.25 10.375H30.875C30.5298 10.375 30.25 10.0952 30.25 9.75V9.75Z" fill="black"/>
<rect x="22.125" y="20.0625" width="5.625" height="1.25" rx="0.625" fill="white"/>
<rect x="25.5625" y="17.875" width="5.625" height="1.25" rx="0.625" transform="rotate(90 25.5625 17.875)" fill="white"/>
</svg>
