<svg width="32" height="32" viewBox="0 0 32 32" fill="none" xmlns="http://www.w3.org/2000/svg">
<path d="M15.0584 9.99997C14.8524 10.6082 14.7423 11.2522 14.7423 11.9252C14.7423 15.4311 17.7559 18.2645 21.4847 18.2645C22.3752 18.2645 23.2224 18.1002 24 17.8064M14.1366 10.1548C10.6172 10.947 8 13.9205 8 17.4722C8 21.6297 11.5846 25 16.0066 25C19.9885 25 23.2899 22.2653 23.9077 18.6856C23.1463 18.9275 22.332 19.057 21.4847 19.057C17.3006 19.057 13.8994 15.8594 13.8994 11.9255C13.8994 11.313 13.9814 10.7226 14.1364 10.155L14.1366 10.1548Z" fill="white"/>
<path d="M28.6333 20.5337C28.4546 20.5337 28.2758 20.4663 28.1394 20.3315C27.8665 20.0619 27.8665 19.6251 28.1394 19.3556L30.2536 17.2668L28.1394 15.1781C27.8665 14.9085 27.8665 14.4717 28.1394 14.2021C28.4122 13.9325 28.8543 13.9325 29.1272 14.2021L31.7353 16.7788C32.0081 17.0484 32.0081 17.4851 31.7353 17.7547L29.1272 20.3314C28.9908 20.4661 28.812 20.5335 28.6332 20.5335L28.6333 20.5337Z" fill="white"/>
<path d="M31.2412 17.9569H25.6985C25.3127 17.9569 24.9999 17.6482 24.9999 17.2667C24.9999 16.8852 25.3127 16.5765 25.6985 16.5765H31.2412C31.6271 16.5765 31.9398 16.8852 31.9398 17.2667C31.9398 17.6482 31.6271 17.9569 31.2412 17.9569Z" fill="white"/>
<path d="M3.30662 14C3.48535 14 3.66413 14.0674 3.80059 14.2022C4.07347 14.4718 4.07347 14.9086 3.80059 15.1782L1.68638 17.2669L3.80059 19.3556C4.07347 19.6252 4.07347 20.062 3.80059 20.3316C3.52771 20.6012 3.08563 20.6012 2.81275 20.3316L0.204678 17.7549C-0.0682001 17.4853 -0.0682 17.0486 0.204679 16.779L2.81275 14.2023C2.94919 14.0676 3.12791 14.0002 3.30672 14.0002L3.30662 14Z" fill="white"/>
<path d="M0.698704 16.5768L6.24141 16.5768C6.62724 16.5768 6.94 16.8855 6.94 17.267C6.94 17.6485 6.62724 17.9572 6.24141 17.9572L0.698704 17.9572C0.312878 17.9572 0.000114435 17.6485 0.000114468 17.267C0.000114502 16.8855 0.312878 16.5768 0.698704 16.5768Z" fill="white"/>
<path d="M19.5884 5.26667C19.5884 5.44324 19.5201 5.61987 19.3837 5.75469C19.1108 6.02428 18.6687 6.02428 18.3958 5.75469L16.2816 3.66594L14.1674 5.75469C13.8945 6.02428 13.4524 6.02428 13.1795 5.75469C12.9067 5.48509 12.9067 5.04833 13.1795 4.77874L15.7876 2.20209C16.0605 1.9325 16.5026 1.9325 16.7755 2.20209L19.3835 4.77874C19.5199 4.91354 19.5881 5.09011 19.5881 5.26676L19.5884 5.26667Z" fill="white"/>
<path d="M16.9803 2.69018L16.9803 8.16612C16.9803 8.5473 16.6679 8.85629 16.2818 8.85629C15.8956 8.85629 15.5832 8.5473 15.5832 8.16612L15.5832 2.69018C15.5832 2.30901 15.8956 2.00001 16.2817 2.00001C16.6679 2.00001 16.9803 2.30901 16.9803 2.69018Z" fill="white"/>
<path d="M15.6567 29.4777V18.3134L23.5374 26.1941L20.2538 26.8508L20.9105 30.1344L19.597 30.7912L18.2836 27.5076L15.6567 29.4777Z" fill="#6CB2FF"/>
<path d="M23.9792 26.1106L15.7045 17.1266C15.6317 17.0484 15.5305 17.0027 15.4236 17.0001C15.3168 16.9974 15.2133 17.0379 15.1368 17.1125C15.0602 17.187 15.0168 17.2893 15.0165 17.3962L15 29.6096V29.6095C14.9999 29.7068 15.0356 29.8007 15.1001 29.8735C15.1647 29.9462 15.2537 29.9928 15.3502 30.0042C15.4468 30.0157 15.5443 29.9914 15.6241 29.9358L18.0805 28.2407L19.1279 30.9312C19.157 31.0047 19.2075 31.0678 19.2728 31.1124C19.3381 31.1571 19.4152 31.1812 19.4944 31.1818C19.5435 31.1814 19.5923 31.1725 19.6386 31.1557L21.5985 30.3921L21.5984 30.3921C21.6982 30.3559 21.7794 30.2813 21.8238 30.185C21.8682 30.0885 21.8722 29.9784 21.8349 29.8791L20.7781 27.1862L23.7428 26.7725H23.7427C23.8387 26.7589 23.9264 26.7105 23.9893 26.6367C24.052 26.5629 24.0857 26.4687 24.0838 26.3717C24.082 26.2748 24.0448 26.1819 23.9792 26.1106L23.9792 26.1106ZM20.1705 26.4675C20.0505 26.4846 19.9449 26.5555 19.8836 26.66C19.8225 26.7645 19.8122 26.8913 19.856 27.0043L20.9411 29.7964L19.7212 30.2692L18.636 27.4818C18.5919 27.3679 18.4977 27.2807 18.3807 27.2454C18.2649 27.2108 18.1396 27.2308 18.0403 27.2998L15.7943 28.8507L15.8061 18.4151L22.8821 26.0917L20.1705 26.4675Z" fill="black"/>
</svg>
