<svg width="32" height="32" viewBox="0 0 32 32" fill="none" xmlns="http://www.w3.org/2000/svg">
<path fill-rule="evenodd" clip-rule="evenodd" d="M29.321 6.45718C29.232 6.63352 29.0891 6.73197 28.8922 6.75422C28.5617 6.77562 26.3146 6.80815 22.1517 6.85352C22.0207 6.85352 21.8778 6.88691 21.7228 6.95282C21.4583 7.041 21.282 7.19508 21.1947 7.41594C21.1279 7.59143 21.1176 7.94412 21.1613 8.4723C21.1827 8.73596 21.2272 9.1323 21.294 9.66133C21.3154 9.92671 21.3599 10.2006 21.4249 10.4883C21.4249 10.6415 21.3042 10.7297 21.062 10.7511C20.5561 10.8615 20.0938 10.9385 19.6743 10.9831C18.9253 11.0926 18.1215 11.1594 17.2637 11.1808C15.9197 11.2031 14.4217 11.1594 12.7704 11.049C11.3391 14.8592 10.6234 16.8846 10.6234 17.1277C10.6234 17.3922 10.6782 18.2397 10.7886 19.6719C11.1191 19.9133 11.3827 20.0793 11.5813 20.1667C11.7354 20.2334 11.8013 20.3207 11.7799 20.432C11.7799 20.4971 11.7577 20.5416 11.7132 20.5639L11.482 20.6957C11.2398 20.7625 10.9753 20.7727 10.6893 20.7291C10.2707 20.6632 7.46207 20.1016 2.26505 19.0435C2.00054 18.9999 2.00054 18.2731 2.26505 16.8632C2.37548 16.2682 2.62801 15.4096 3.02522 14.2874C3.44382 13.1411 3.82904 12.2389 4.18173 11.578C4.55582 10.8949 4.85372 10.157 5.07286 9.36429C5.33738 8.57074 5.44781 8.00918 5.40244 7.6796C5.35878 7.43734 5.05061 7.15057 4.47792 6.82099C4.03791 6.60099 3.62016 6.43578 3.22296 6.32535C3.0021 6.30309 2.82576 6.19352 2.69393 5.99577C2.60576 5.90674 2.50646 5.78519 2.39688 5.63196C2.33011 5.54378 2.29844 5.31265 2.29844 4.93856C2.29844 4.76136 2.29844 4.48657 2.29844 4.11334C2.29844 3.54065 2.34124 3.18711 2.43027 3.05528C2.84887 2.3285 3.16732 1.78919 3.38732 1.43736C3.58507 1.15059 3.7734 0.929729 3.94974 0.775642C4.14749 0.577896 4.32383 0.489724 4.47792 0.511125C4.632 0.533382 4.80835 0.533382 5.00609 0.511125L5.33738 0.47774C5.44781 0.279138 5.54625 0.13618 5.63528 0.0480079C5.72345 -0.0401642 6.05303 -0.00677896 6.62572 0.147308L6.75755 0.510269H15.8427V0.807315H19.7736V0.510269L28.8254 0.47774L29.1233 0.642955C29.2996 0.751672 29.3878 0.885215 29.3878 1.03845C29.4315 1.89791 29.476 2.70173 29.5205 3.45077C29.5642 4.92658 29.553 5.74067 29.4871 5.89476C29.3758 6.24745 29.321 6.43492 29.321 6.45718ZM19.8395 7.2824C19.73 7.23874 19.6418 7.21563 19.5759 7.21563V7.2824L16.6345 7.24987C16.5241 7.66762 16.5686 8.01945 16.7664 8.30622C17.0309 8.72397 17.2517 9.02102 17.4272 9.19822C17.6044 9.3523 17.8133 9.45075 18.0556 9.49441C18.2747 9.51666 18.374 9.57231 18.3518 9.65962C18.3304 9.77005 18.2422 9.82484 18.0872 9.82484C17.9999 9.82484 17.8561 9.82484 17.6592 9.82484C17.4161 9.78118 17.1516 9.62709 16.8657 9.36258C16.4034 8.96623 16.1064 8.63494 15.9728 8.37214C15.8855 8.08536 15.8418 7.71042 15.8418 7.24901L15.2469 7.21477C14.8942 7.21477 14.5869 7.35773 14.3224 7.6445C14.1024 7.90902 13.9919 8.2172 13.9919 8.56903C13.9919 8.78903 13.9919 9.08693 13.9919 9.46102C14.0356 9.72639 14.2565 9.93527 14.6528 10.0894C15.2246 10.3102 15.7768 10.3975 16.3041 10.3539C16.9213 10.2648 17.4058 10.2101 17.7577 10.1878C17.934 10.1664 18.2533 10.1775 18.7164 10.2212C19.1787 10.2657 19.498 10.2871 19.6743 10.2871C19.9611 10.2871 20.1477 10.2657 20.235 10.2212C20.2796 10.1775 20.3686 10.0894 20.5004 9.95752C20.5877 9.82484 20.6091 9.47215 20.5663 8.90032C20.5441 8.34903 20.4568 7.94155 20.3018 7.67789C20.2145 7.481 20.0596 7.34917 19.8395 7.2824Z" fill="white"/>
<path d="M30.3333 22.9346C30.3333 25.5377 27.004 27.7853 21.6507 28.7953C21.4601 28.833 21.2618 28.7958 21.0995 28.6918C20.9372 28.5877 20.8242 28.4254 20.7853 28.2405C20.7464 28.0557 20.7848 27.8633 20.892 27.7059C20.9994 27.5485 21.1667 27.4389 21.3573 27.4012C25.9333 26.5477 28.8667 24.7554 28.8667 22.9346C28.8667 20.5732 23.44 17.9558 15.6667 17.9558C7.89334 17.9558 2.46667 20.5732 2.46667 22.9346C2.46667 25.2959 7.072 27.4866 13.8627 27.8564L12.2493 26.2774C12.0659 26.0995 11.9943 25.8404 12.0614 25.5973C12.1286 25.3544 12.3243 25.1646 12.5748 25.0994C12.8253 25.0343 13.0925 25.1038 13.276 25.2817L16.2093 28.1267C16.2836 28.1868 16.3394 28.2655 16.3707 28.3543V28.4823C16.3789 28.5294 16.3789 28.5774 16.3707 28.6246C16.3772 28.6622 16.3772 28.7007 16.3707 28.7384C16.3789 28.7903 16.3789 28.8429 16.3707 28.8948V28.966C16.3452 29.0231 16.3106 29.0759 16.268 29.1224L13.3347 31.7967C13.1976 31.9271 13.0133 32 12.8213 32C12.6294 32 12.445 31.9271 12.308 31.7967C12.17 31.6656 12.0922 31.4862 12.0922 31.2989C12.0922 31.1115 12.17 30.9321 12.308 30.801L13.936 29.3074C6.5 28.9091 1 26.2632 1 22.9346C1 19.3499 7.45333 16.5333 15.6667 16.5333C23.88 16.5333 30.3333 19.3499 30.3333 22.9346Z" fill="white"/>
<path d="M22.6567 14.4777V3.31345L30.5374 11.1941L27.2538 11.8508L27.9105 15.1344L26.597 15.7912L25.2836 12.5076L22.6567 14.4777Z" fill="#6CB2FF"/>
<path d="M30.9792 11.1106L22.7045 2.12665C22.6317 2.04838 22.5305 2.00274 22.4236 2.00013C22.3168 1.99743 22.2133 2.03791 22.1368 2.11249C22.0602 2.18698 22.0168 2.28926 22.0165 2.39615L22 14.6096V14.6095C21.9999 14.7068 22.0356 14.8007 22.1001 14.8735C22.1647 14.9462 22.2537 14.9928 22.3502 15.0042C22.4468 15.0157 22.5443 14.9914 22.6241 14.9358L25.0805 13.2407L26.1279 15.9312C26.157 16.0047 26.2075 16.0678 26.2728 16.1124C26.3381 16.1571 26.4152 16.1812 26.4944 16.1818C26.5435 16.1814 26.5923 16.1725 26.6386 16.1557L28.5985 15.3921L28.5984 15.3921C28.6982 15.3559 28.7794 15.2813 28.8238 15.185C28.8682 15.0885 28.8722 14.9784 28.8349 14.8791L27.7781 12.1862L30.7428 11.7725H30.7427C30.8387 11.7589 30.9264 11.7105 30.9893 11.6367C31.052 11.5629 31.0857 11.4687 31.0838 11.3717C31.082 11.2748 31.0448 11.1819 30.9792 11.1106L30.9792 11.1106ZM27.1705 11.4675C27.0505 11.4846 26.9449 11.5555 26.8836 11.66C26.8225 11.7645 26.8122 11.8913 26.856 12.0043L27.9411 14.7964L26.7212 15.2692L25.636 12.4818C25.5919 12.3679 25.4977 12.2807 25.3807 12.2454C25.2649 12.2108 25.1396 12.2308 25.0403 12.2998L22.7943 13.8507L22.8061 3.41514L29.8821 11.0917L27.1705 11.4675Z" fill="black"/>
</svg>
