<svg width="45" height="32" viewBox="0 0 45 32" fill="none" xmlns="http://www.w3.org/2000/svg">
<path d="M31 11.7701C31 8.43273 33.7054 5.72727 37.0428 5.72726V5.72726V8.74866V8.74866C36.2085 8.74866 35.5321 9.42502 35.5321 10.2594V10.5615V13.5829H34.6257H34.0214H31V11.7701Z" fill="white"/>
<path d="M44.2941 11.7701C44.2941 8.43271 41.5887 5.72726 38.2513 5.72726V5.72726V8.74866V8.74866C39.0857 8.74866 39.762 9.42502 39.762 10.2594V13.5829H40.9706H41.5749H44.2941V11.7701Z" fill="white"/>
<path d="M31 21.0263C31 23.9238 33.3945 26.2728 36.3482 26.2728L37.6471 26.2727V16.9064C37.6471 16.9064 35.5321 16.9064 35.5321 14.4893C35.5321 14.4893 34.6114 14.4893 34.0214 14.4893C33.4314 14.4893 32.5107 14.4893 32.5107 14.4893H31V21.0263Z" fill="white"/>
<path d="M44.2941 21.0263C44.2941 23.9238 41.8997 26.2728 38.9459 26.2728L37.6471 26.2727V16.9064C37.6471 16.9064 39.762 16.9064 39.762 14.4893H41.877H42.1792H44.2941V21.0263Z" fill="white"/>
<path d="M36.4385 10.5923C36.4385 9.92482 36.9796 9.38373 37.6471 9.38373V9.38373C38.3145 9.38373 38.8556 9.92482 38.8556 10.5923V14.8222C38.8556 15.4897 38.3145 16.0308 37.6471 16.0308V16.0308C36.9796 16.0308 36.4385 15.4897 36.4385 14.8222V10.5923Z" fill="#6CB2FF"/>
<path d="M34.5842 29.1007C34.5842 28.944 34.6475 28.7872 34.7738 28.6676C35.0266 28.4283 35.4361 28.4283 35.6888 28.6676L37.6471 30.5213L39.6054 28.6676C39.8581 28.4283 40.2676 28.4283 40.5203 28.6676C40.7731 28.9068 40.7731 29.2945 40.5203 29.5337L38.1046 31.8205C37.8519 32.0597 37.4424 32.0597 37.1897 31.8205L34.7739 29.5337C34.6476 29.4141 34.5844 29.2574 34.5844 29.1006L34.5842 29.1007Z" fill="#6CB2FF"/>
<path d="M40.7099 2.89922C40.7099 3.05593 40.6467 3.21269 40.5203 3.33234C40.2676 3.57159 39.8581 3.57159 39.6053 3.33234L37.647 1.4786L35.6888 3.33234C35.436 3.57159 35.0265 3.57159 34.7738 3.33234C34.521 3.09308 34.521 2.70546 34.7738 2.4662L37.1895 0.179445C37.4422 -0.0598148 37.8517 -0.0598148 38.1045 0.179445L40.5202 2.4662C40.6465 2.58583 40.7097 2.74253 40.7097 2.89931L40.7099 2.89922Z" fill="#6CB2FF"/>
<path d="M12.6978 7.61896C12.4755 8.29864 12.3566 9.01828 12.3566 9.77037C12.3566 13.688 15.6094 16.8543 19.6342 16.8543C20.5953 16.8543 21.5097 16.6706 22.3491 16.3423M11.7028 7.79202C7.90411 8.67722 5.07922 11.9999 5.07922 15.9688C5.07922 20.6147 8.94836 24.3809 13.7212 24.3809C18.0192 24.3809 21.5826 21.325 22.2495 17.3248C21.4276 17.5951 20.5487 17.7398 19.6341 17.7398C15.118 17.7398 11.4469 14.1667 11.4469 9.77069C11.4469 9.08621 11.5354 8.42642 11.7027 7.79217L11.7028 7.79202Z" fill="white"/>
<path d="M11.1698 0.237245C11.4959 -0.0790773 12.0394 -0.0790773 12.3656 0.237245L14.4855 2.29367C14.6486 2.45183 14.7302 2.66279 14.7302 2.87363C14.7302 3.08458 14.6486 3.29543 14.4855 3.45359L12.3929 5.48356C12.0668 5.79989 11.5233 5.79989 11.1971 5.48356C10.871 5.16724 10.871 4.63997 11.1971 4.32353L11.8222 3.71712C6.14209 4.16526 1.68496 8.80534 1.68496 14.4208C1.68496 14.869 1.30446 15.2381 0.842483 15.2381C0.380509 15.2381 -1.61346e-08 14.869 -3.57234e-08 14.4208C-3.21519e-07 7.88261 5.24527 2.53075 11.8766 2.08256L11.1972 1.42347C10.8167 1.05452 10.8167 0.553591 11.1699 0.237269L11.1698 0.237245Z" fill="white"/>
<path d="M15.751 31.7627C15.4249 32.079 14.8813 32.079 14.5551 31.7627L12.4352 29.7062C12.2722 29.5481 12.1906 29.3371 12.1906 29.1263C12.1906 28.9153 12.2722 28.7045 12.4352 28.5463L14.5279 26.5163C14.854 26.2 15.3975 26.2 15.7237 26.5163C16.0498 26.8327 16.0498 27.3599 15.7237 27.6764L15.0986 28.2828C20.7787 27.8346 25.2358 23.1946 25.2358 17.5791C25.2358 17.1309 25.6163 16.7618 26.0783 16.7618C26.5403 16.7618 26.9208 17.1309 26.9208 17.5791C26.9208 24.1173 21.6755 29.4692 15.0442 29.9173L15.7236 30.5764C16.1041 30.9454 16.1041 31.4463 15.7509 31.7626L15.751 31.7627Z" fill="white"/>
</svg>
