<svg width="71" height="32" viewBox="0 0 71 32" fill="none" xmlns="http://www.w3.org/2000/svg">
<path d="M41.124 19C42.2285 19.0001 43.1239 19.8956 43.124 21V25.915C43.124 27.0196 42.2285 27.915 41.124 27.915H22C20.8954 27.915 20 27.0196 20 25.915V21C20.0001 19.8955 20.8955 19 22 19H41.124Z" fill="#AEAEAE"/>
<path d="M41.248 4C42.3526 4 43.248 4.89543 43.248 6V20.915C43.248 22.0196 42.3526 22.915 41.248 22.915H22C20.8954 22.915 20 22.0196 20 20.915V6C20 4.89543 20.8954 4 22 4H41.248ZM36.0703 9.42969C35.8712 9.20246 35.5176 9.20256 35.3184 9.42969L32.0381 13.1777C31.7554 13.501 31.9855 14.0068 32.415 14.0068H33.8164V18.5146C33.8166 18.7906 34.0404 19.0146 34.3164 19.0146H37.0723C37.3481 19.0144 37.5721 18.7905 37.5723 18.5146V14.0068H38.9736C39.4032 14.0068 39.6325 13.501 39.3496 13.1777L36.0703 9.42969Z" fill="white"/>
<path d="M3.125 11.25C3.125 7.79824 5.92322 5.00001 9.375 5V8.125C8.85723 8.125 8.4375 8.54473 8.4375 9.0625V10V13.125H7.5H6.25H3.125V11.25Z" fill="#6CB2FF"/>
<path d="M16.875 11.25C16.875 7.79822 14.0768 5 10.625 5V8.125C11.1428 8.125 11.5625 8.54473 11.5625 9.0625V13.125H12.5H14.0625H16.875V11.25Z" fill="white"/>
<path d="M3.125 19.5737C3.125 22.5706 5.60159 25 8.65661 25L10 25V14.0625H9.375H8.75H4.6875H3.125V19.5737Z" fill="white"/>
<path d="M16.875 19.5737C16.875 22.5706 14.3984 25 11.3434 25L10 25V14.0625H10.625H10.9375H11.5625H16.875V19.5737Z" fill="white"/>
<path d="M9.375 9.375C9.375 9.02982 9.65482 8.75 10 8.75C10.3452 8.75 10.625 9.02982 10.625 9.375V12.5C10.625 12.8452 10.3452 13.125 10 13.125C9.65482 13.125 9.375 12.8452 9.375 12.5V9.375Z" fill="white"/>
<path d="M3.125 11.25C3.125 7.79824 5.92322 5.00001 9.375 5V8.125C8.85723 8.125 8.4375 8.54473 8.4375 9.0625V10V13.125H7.5H6.25H3.125V11.25Z" fill="#6CB2FF"/>
<path d="M16.875 11.25C16.875 7.79822 14.0768 5 10.625 5V8.125C11.1428 8.125 11.5625 8.54473 11.5625 9.0625V13.125H12.5H14.0625H16.875V11.25Z" fill="white"/>
<path d="M3.125 19.5737C3.125 22.5706 5.60159 25 8.65661 25L10 25V14.0625H9.375H8.75H4.6875H3.125V19.5737Z" fill="white"/>
<path d="M16.875 19.5737C16.875 22.5706 14.3984 25 11.3434 25L10 25V14.0625H10.625H10.9375H11.5625H16.875V19.5737Z" fill="white"/>
<path d="M9.375 9.375C9.375 9.02982 9.65482 8.75 10 8.75C10.3452 8.75 10.625 9.02982 10.625 9.375V12.5C10.625 12.8452 10.3452 13.125 10 13.125C9.65482 13.125 9.375 12.8452 9.375 12.5V9.375Z" fill="white"/>
<path d="M58.9603 10.75C61.8503 10.75 64.1937 13.1005 64.1937 16C64.1937 18.8995 61.8503 21.25 58.9603 21.25C56.0705 21.2498 53.7279 18.8994 53.7279 16C53.7279 13.1006 56.0705 10.7502 58.9603 10.75ZM58.9603 13C57.309 13.0002 55.97 14.3433 55.97 16C55.97 17.6567 57.309 18.9998 58.9603 19C60.6117 19 61.9505 17.6569 61.9505 16C61.9505 14.3431 60.6117 13 58.9603 13Z" fill="white"/>
<rect width="5.03766" height="1.67922" rx="0.839609" transform="matrix(0.705943 0.708269 -0.705943 0.708268 58.923 4)" fill="white"/>
<rect width="5.03766" height="1.67922" rx="0.839609" transform="matrix(-0.705943 0.708268 -0.705943 -0.708269 59.9646 5.18933)" fill="white"/>
<rect width="5.03766" height="1.67922" rx="0.839609" transform="matrix(0.705943 -0.708268 0.705943 0.708269 47 15.818)" fill="white"/>
<rect width="5.03766" height="1.67922" rx="0.839609" transform="matrix(0.705943 0.708269 -0.705943 0.708268 48.1855 14.7729)" fill="white"/>
<rect width="5.03765" height="1.67922" rx="0.839609" transform="matrix(-0.705943 -0.708268 0.705943 -0.708268 58.7792 28.2573)" fill="white"/>
<rect width="5.03766" height="1.67922" rx="0.839609" transform="matrix(0.705943 -0.708269 0.705943 0.708269 57.7376 27.068)" fill="white"/>
<rect width="4.84881" height="1.61627" rx="0.808135" transform="matrix(-0.705943 0.708268 -0.705943 -0.708269 71 15.8231)" fill="white"/>
<rect width="4.84881" height="1.61627" rx="0.808135" transform="matrix(-0.705943 -0.708269 0.705943 -0.708268 69.859 16.829)" fill="white"/>
</svg>
